<?xml version="1.0" encoding="UTF-8"?>
<svg width="600px" height="40px" viewBox="0 0 600 40" version="1.1" xmlns="http://www.w3.org/2000/svg" xmlns:xlink="http://www.w3.org/1999/xlink">
    <!-- Generator: Sketch 42 (36781) - http://www.bohemiancoding.com/sketch -->
    <title>title</title>
    <desc>Created with Sketch.</desc>
    <defs></defs>
    <g id="Android" stroke="none" stroke-width="1" fill="none" fill-rule="evenodd">
        <g id="7_01" transform="translate(-660.000000, -1239.000000)">
            <g id="title" transform="translate(660.000000, 1239.000000)">
                <rect id="base" fill="#FFFFFF" x="0" y="0" width="600" height="40"></rect>
                <path d="M159.823975,31 L170.693115,6.16845703 L173.974365,6.16845703 L184.860596,31 L181.579346,31 L178.674072,24.3691406 L166.010498,24.3691406 L163.105225,31 L159.823975,31 Z M177.358154,21.3442383 L172.33374,9.91113281 L167.326416,21.3442383 L177.358154,21.3442383 Z M191.115479,16.0292969 C192.254807,13.9329322 194.391016,12.8847656 197.52417,12.8847656 C200.805436,12.8847656 203.180901,13.6481043 204.650635,15.1748047 C206.052009,16.6331453 206.752686,18.9516443 206.752686,22.1303711 L206.752686,31 L203.744873,31 L203.744873,22.1303711 C203.744873,19.7605676 203.323328,18.1370487 202.480225,17.2597656 C201.614335,16.359696 199.962333,15.909668 197.52417,15.909668 C195.142973,15.909668 193.519454,16.3312132 192.653564,17.1743164 C191.764888,18.0288129 191.309164,19.6409387 191.286377,22.0107422 L191.286377,31 L188.278564,31 L188.278564,13.2607422 L191.115479,13.2607422 L191.115479,16.0292969 Z M227.687744,15.3457031 L227.687744,6.16845703 L230.695557,6.16845703 L230.695557,31 L227.858643,31 L227.858643,28.7441406 C226.730707,30.4987067 224.600195,31.3759766 221.467041,31.3759766 C218.288314,31.3759766 215.969815,30.6753 214.511475,29.2739258 C212.984774,27.8041919 212.221436,25.4230308 212.221436,22.1303711 C212.221436,18.9516443 212.922112,16.6331453 214.323486,15.1748047 C215.79322,13.6481043 218.174381,12.8847656 221.467041,12.8847656 C224.600195,12.8847656 226.673742,13.7050699 227.687744,15.3457031 Z M227.687744,22.0107422 C227.676351,19.6409387 227.226323,18.0288129 226.337646,17.1743164 C225.460363,16.3312132 223.836845,15.909668 221.467041,15.909668 C219.017484,15.909668 217.359786,16.359696 216.493896,17.2597656 C215.650793,18.1370487 215.229248,19.7605676 215.229248,22.1303711 C215.229248,24.5685343 215.684973,26.2262326 216.596436,27.1035156 C217.462325,27.9352255 219.085844,28.3510742 221.467041,28.3510742 C223.836845,28.3510742 225.460363,27.9352255 226.337646,27.1035156 C227.226323,26.2376259 227.676351,24.6198035 227.687744,22.25 L227.687744,22.0107422 Z M239.001221,15.8583984 C240.140549,13.8759667 242.276758,12.8847656 245.409912,12.8847656 C248.577246,12.8847656 250.895745,13.6481043 252.365479,15.1748047 C253.766853,16.6331453 254.467529,18.9516443 254.467529,22.1303711 L251.459717,22.1303711 C251.459717,19.7605676 251.038172,18.1370487 250.195068,17.2597656 C249.329179,16.359696 247.734142,15.909668 245.409912,15.909668 C243.028715,15.909668 241.405196,16.3312132 240.539307,17.1743164 C239.65063,18.0288129 239.194906,19.6409387 239.172119,22.0107422 L239.172119,31 L236.164307,31 L236.164307,13.2607422 L239.001221,13.2607422 L239.001221,15.8583984 Z M274.172119,15.0380859 C275.687426,16.5078198 276.445068,18.8832844 276.445068,22.1645508 C276.445068,25.4572105 275.687426,27.8383716 274.172119,29.3081055 C272.713779,30.7094797 270.39528,31.4101562 267.216553,31.4101562 C264.037826,31.4101562 261.719327,30.7094797 260.260986,29.3081055 C258.734286,27.8383716 257.970947,25.4572105 257.970947,22.1645508 C257.970947,18.985824 258.671624,16.667325 260.072998,15.2089844 C261.542732,13.682284 263.923893,12.9189453 267.216553,12.9189453 C270.39528,12.9189453 272.713779,13.6253185 274.172119,15.0380859 Z M267.216553,15.9438477 C264.766996,15.9438477 263.109298,16.3938757 262.243408,17.2939453 C261.400305,18.1712283 260.97876,19.7947473 260.97876,22.1645508 C260.97876,24.602714 261.434484,26.2604123 262.345947,27.1376953 C263.211837,27.9694052 264.835356,28.3852539 267.216553,28.3852539 C269.586356,28.3852539 271.209875,27.9694052 272.087158,27.1376953 C272.987228,26.2604123 273.437256,24.602714 273.437256,22.1645508 C273.437256,19.7263875 272.987228,18.0743858 272.087158,17.2084961 C271.209875,16.3653929 269.586356,15.9438477 267.216553,15.9438477 Z M285.092529,13.2607422 L285.092529,31 L282.084717,31 L282.084717,13.2607422 L285.092529,13.2607422 Z M285.092529,6.16845703 L285.092529,9.19335938 L282.084717,9.19335938 L282.084717,6.16845703 L285.092529,6.16845703 Z M306.198486,15.3457031 L306.198486,6.16845703 L309.206299,6.16845703 L309.206299,31 L306.369385,31 L306.369385,28.7441406 C305.241449,30.4987067 303.110937,31.3759766 299.977783,31.3759766 C296.799056,31.3759766 294.480557,30.6753 293.022217,29.2739258 C291.495516,27.8041919 290.732178,25.4230308 290.732178,22.1303711 C290.732178,18.9516443 291.432854,16.6331453 292.834229,15.1748047 C294.303962,13.6481043 296.685124,12.8847656 299.977783,12.8847656 C303.110937,12.8847656 305.184484,13.7050699 306.198486,15.3457031 Z M306.198486,22.0107422 C306.187093,19.6409387 305.737065,18.0288129 304.848389,17.1743164 C303.971106,16.3312132 302.347587,15.909668 299.977783,15.909668 C297.528227,15.909668 295.870528,16.359696 295.004639,17.2597656 C294.161535,18.1370487 293.73999,19.7605676 293.73999,22.1303711 C293.73999,24.5685343 294.195715,26.2262326 295.107178,27.1035156 C295.973067,27.9352255 297.596586,28.3510742 299.977783,28.3510742 C302.347587,28.3510742 303.971106,27.9352255 304.848389,27.1035156 C305.737065,26.2376259 306.187093,24.6198035 306.198486,22.25 L306.198486,22.0107422 Z M326.877197,6.16845703 L326.877197,17.4819336 C326.877197,21.6860562 327.623446,24.5799074 329.115967,26.1635742 C330.505948,27.6560947 332.710516,28.4023438 335.729736,28.4023438 C338.76035,28.4023438 340.970615,27.6560947 342.360596,26.1635742 C343.841723,24.5799074 344.582275,21.6860562 344.582275,17.4819336 L344.582275,6.16845703 L347.607178,6.16845703 L347.607178,17.4819336 C347.607178,22.4721929 346.587494,26.0553277 344.548096,28.2314453 C342.565664,30.3505965 339.62624,31.4101562 335.729736,31.4101562 C331.844626,31.4101562 328.910899,30.3505965 326.928467,28.2314453 C324.889069,26.0553277 323.869385,22.4721929 323.869385,17.4819336 L323.869385,6.16845703 L326.877197,6.16845703 Z M356.425537,6.16845703 L356.425537,31 L353.417725,31 L353.417725,6.16845703 L356.425537,6.16845703 Z M365.243896,27.9921875 L362.236084,27.9921875 L362.236084,31 L363.603271,31 L362.065186,34.6743164 L363.705811,34.6743164 L365.243896,31 L365.243896,27.9921875 Z M395.749268,6.16845703 L395.749268,24.0102539 C395.749268,26.6648896 394.95175,28.590326 393.356689,29.7866211 C391.955315,30.8461967 389.733658,31.3873697 386.69165,31.4101562 L386.674561,31.4101562 C383.632553,31.3873697 381.410896,30.8461967 380.009521,29.7866211 C378.425855,28.590326 377.634033,26.6648896 377.634033,24.0102539 L380.641846,24.0102539 C380.641846,25.6622804 381.034908,26.7845022 381.821045,27.3769531 C382.698328,28.0377637 384.321847,28.3795572 386.69165,28.4023438 C389.050061,28.3795572 390.667883,28.0377637 391.545166,27.3769531 C392.331303,26.7845022 392.724365,25.6622804 392.724365,24.0102539 L392.724365,6.16845703 L395.749268,6.16845703 Z M416.855225,29.034668 C415.738683,30.5955482 413.60817,31.3759766 410.463623,31.3759766 C407.433009,31.3759766 405.222745,31.0000038 403.832764,30.2480469 C402.089591,29.3137974 401.218018,27.7472441 401.218018,25.5483398 C401.218018,23.0304236 402.334543,21.389815 404.567627,20.6264648 C405.980394,20.2504864 408.378645,20.0625 411.762451,20.0625 C414.268974,20.0625 415.909583,19.9770516 416.684326,19.8061523 L416.684326,18.8491211 C416.672933,17.8009388 416.325443,17.0831725 415.641846,16.6958008 C414.707596,16.1717096 412.981539,15.909668 410.463623,15.909668 C408.469798,15.909668 407.011479,16.1033509 406.088623,16.4907227 C405.370846,16.7869481 404.841066,17.3110314 404.499268,18.0629883 L401.747803,16.8325195 C402.420007,15.3627856 403.479566,14.3260121 404.926514,13.722168 C406.236742,13.1638969 408.082426,12.8847656 410.463623,12.8847656 C413.494237,12.8847656 415.710198,13.2778281 417.111572,14.0639648 C418.706632,14.9640344 419.561116,16.3938704 419.675049,18.3535156 L419.692139,18.3535156 L419.692139,31 L416.855225,31 L416.855225,29.034668 Z M416.684326,22.3525391 C415.704504,22.4778652 414.052502,22.5405273 411.728271,22.5405273 C409.57494,22.5405273 407.87167,22.6430654 406.618408,22.8481445 C405.023348,23.2469095 404.22583,24.1469656 404.22583,25.5483398 C404.22583,26.550949 404.567624,27.2345359 405.251221,27.5991211 C406.196863,28.1004257 407.934314,28.3510742 410.463623,28.3510742 C412.992933,28.3510742 414.724686,28.1004257 415.658936,27.5991211 C416.331139,27.2459292 416.672933,26.5851285 416.684326,25.6166992 L416.684326,22.3525391 Z M426.459717,13.2607422 L433.671631,27.6503906 L440.883545,13.2607422 L444.233154,13.2607422 L435.346436,31 L431.996826,31 L423.110107,13.2607422 L426.459717,13.2607422 Z M463.28833,29.034668 C462.171788,30.5955482 460.041275,31.3759766 456.896729,31.3759766 C453.866114,31.3759766 451.65585,31.0000038 450.265869,30.2480469 C448.522696,29.3137974 447.651123,27.7472441 447.651123,25.5483398 C447.651123,23.0304236 448.767648,21.389815 451.000732,20.6264648 C452.4135,20.2504864 454.811751,20.0625 458.195557,20.0625 C460.70208,20.0625 462.342688,19.9770516 463.117432,19.8061523 L463.117432,18.8491211 C463.106038,17.8009388 462.758548,17.0831725 462.074951,16.6958008 C461.140702,16.1717096 459.414645,15.909668 456.896729,15.909668 C454.902903,15.909668 453.444585,16.1033509 452.521729,16.4907227 C451.803951,16.7869481 451.274172,17.3110314 450.932373,18.0629883 L448.180908,16.8325195 C448.853112,15.3627856 449.912672,14.3260121 451.359619,13.722168 C452.669847,13.1638969 454.515532,12.8847656 456.896729,12.8847656 C459.927343,12.8847656 462.143304,13.2778281 463.544678,14.0639648 C465.139738,14.9640344 465.994221,16.3938704 466.108154,18.3535156 L466.125244,18.3535156 L466.125244,31 L463.28833,31 L463.28833,29.034668 Z M463.117432,22.3525391 C462.137609,22.4778652 460.485607,22.5405273 458.161377,22.5405273 C456.008046,22.5405273 454.304775,22.6430654 453.051514,22.8481445 C451.456454,23.2469095 450.658936,24.1469656 450.658936,25.5483398 C450.658936,26.550949 451.000729,27.2345359 451.684326,27.5991211 C452.629969,28.1004257 454.367419,28.3510742 456.896729,28.3510742 C459.426038,28.3510742 461.157792,28.1004257 462.092041,27.5991211 C462.764245,27.2459292 463.106038,26.5851285 463.117432,25.6166992 L463.117432,22.3525391 Z" id="Android-UI,-Java" fill="#000000"></path>
            </g>
        </g>
    </g>
</svg>