<?xml version="1.0" encoding="UTF-8"?>
<svg width="725px" height="40px" viewBox="0 0 725 40" version="1.1" xmlns="http://www.w3.org/2000/svg" xmlns:xlink="http://www.w3.org/1999/xlink">
    <!-- Generator: Sketch 42 (36781) - http://www.bohemiancoding.com/sketch -->
    <title>title</title>
    <desc>Created with Sketch.</desc>
    <defs></defs>
    <g id="Android" stroke="none" stroke-width="1" fill="none" fill-rule="evenodd">
        <g id="7_02" transform="translate(-598.000000, -1239.000000)">
            <g id="title" transform="translate(598.000000, 1239.000000)">
                <rect id="base" fill="#FFFFFF" x="0" y="0" width="725" height="40"></rect>
                <path d="M7.30029297,12.1328125 L7.30029297,31 L4.29248047,31 L4.29248047,6.16845703 L7.30029297,6.16845703 L18.2207031,26.8129883 L29.1240234,6.16845703 L32.1318359,6.16845703 L32.1318359,31 L29.1240234,31 L29.1240234,12.1328125 L19.0410156,31 L17.4003906,31 L7.30029297,12.1328125 Z M53.8017578,15.0380859 C55.3170649,16.5078198 56.074707,18.8832844 56.074707,22.1645508 C56.074707,25.4572105 55.3170649,27.8383716 53.8017578,29.3081055 C52.3434172,30.7094797 50.0249182,31.4101562 46.8461914,31.4101562 C43.6674646,31.4101562 41.3489656,30.7094797 39.890625,29.3081055 C38.3639247,27.8383716 37.6005859,25.4572105 37.6005859,22.1645508 C37.6005859,18.985824 38.3012625,16.667325 39.7026367,15.2089844 C41.1723706,13.682284 43.5535317,12.9189453 46.8461914,12.9189453 C50.0249182,12.9189453 52.3434172,13.6253185 53.8017578,15.0380859 Z M46.8461914,15.9438477 C44.3966349,15.9438477 42.7389366,16.3938757 41.8730469,17.2939453 C41.0299437,18.1712283 40.6083984,19.7947473 40.6083984,22.1645508 C40.6083984,24.602714 41.064123,26.2604123 41.9755859,27.1376953 C42.8414757,27.9694052 44.4649946,28.3852539 46.8461914,28.3852539 C49.2159949,28.3852539 50.8395138,27.9694052 51.7167969,27.1376953 C52.6168665,26.2604123 53.0668945,24.602714 53.0668945,22.1645508 C53.0668945,19.7263875 52.6168665,18.0743858 51.7167969,17.2084961 C50.8395138,16.3653929 49.2159949,15.9438477 46.8461914,15.9438477 Z M65.918457,17.1743164 C65.0297807,18.0288129 64.5740561,19.6409387 64.5512695,22.0107422 L64.5512695,22.25 C64.5740561,24.6198035 65.0297807,26.2376259 65.918457,27.1035156 C66.7843468,27.9352255 68.4078657,28.3510742 70.7890625,28.3510742 C73.158866,28.3510742 74.7823849,27.9352255 75.659668,27.1035156 C76.5597376,26.2262326 77.0097656,24.5685343 77.0097656,22.1303711 C77.0097656,19.7605676 76.5882204,18.1370487 75.7451172,17.2597656 C74.8792274,16.359696 73.2272257,15.909668 70.7890625,15.909668 C68.4078657,15.909668 66.7843468,16.3312132 65.918457,17.1743164 Z M64.5512695,6.16845703 L64.5512695,15.3457031 C65.5766653,13.7050699 67.6559088,12.8847656 70.7890625,12.8847656 C74.0703289,12.8847656 76.4457934,13.6481043 77.9155273,15.1748047 C79.3169015,16.6331453 80.0175781,18.9516443 80.0175781,22.1303711 C80.0175781,25.4230308 79.259936,27.8041919 77.7446289,29.2739258 C76.2862883,30.6753 73.9677893,31.3759766 70.7890625,31.3759766 C67.6559088,31.3759766 65.5196997,30.4987067 64.3803711,28.7441406 L64.3803711,31 L61.543457,31 L61.543457,6.16845703 L64.5512695,6.16845703 Z M88.6650391,13.2607422 L88.6650391,31 L85.6572266,31 L85.6572266,13.2607422 L88.6650391,13.2607422 Z M88.6650391,6.16845703 L88.6650391,9.19335938 L85.6572266,9.19335938 L85.6572266,6.16845703 L88.6650391,6.16845703 Z M103.157227,31.0170898 C102.724282,31.062663 102.137536,31.0854492 101.396973,31.0854492 C99.7677327,31.0854492 98.5429729,30.9031594 97.7226562,30.5385742 C96.00227,29.6840778 95.0908208,27.6447101 94.9882812,24.4204102 L94.9882812,6.16845703 L97.9960938,6.16845703 L97.9960938,24.7792969 C98.0416669,27.3086064 99.3119992,28.5732422 101.807129,28.5732422 L102.166016,28.5732422 C102.564781,28.5732422 102.895181,28.5447594 103.157227,28.487793 L103.157227,31.0170898 Z M120.999023,30.4189453 C119.666009,31.0797559 117.769055,31.4101562 115.308105,31.4101562 C111.901513,31.4101562 109.469083,30.7094797 108.010742,29.3081055 C106.484042,27.8383716 105.720703,25.4572105 105.720703,22.1645508 C105.720703,18.985824 106.42138,16.667325 107.822754,15.2089844 C109.292488,13.682284 111.730614,12.9189453 115.137207,12.9189453 C118.429867,12.9189453 120.805331,13.6253185 122.263672,15.0380859 C123.778979,16.5078198 124.536621,18.8832844 124.536621,22.1645508 L124.536621,23.4975586 L108.745605,23.4975586 C108.813965,25.1154052 109.263993,26.328772 110.095703,27.1376953 C110.961593,27.9694052 112.699043,28.3852539 115.308105,28.3852539 C117.301931,28.3852539 118.754553,28.1630882 119.666016,27.71875 C120.474939,27.319985 121.050291,26.6477912 121.39209,25.7021484 L124.229004,26.7275391 C123.613766,28.4251387 122.537117,29.6555951 120.999023,30.4189453 Z M108.762695,20.831543 L121.528809,20.831543 C121.335123,19.0997635 120.885095,17.8920933 120.178711,17.2084961 C119.301428,16.3653929 117.620943,15.9438477 115.137207,15.9438477 C112.573718,15.9438477 110.859054,16.3938757 109.993164,17.2939453 C109.332353,17.9889358 108.922201,19.1681232 108.762695,20.831543 Z M136.807129,31 L147.67627,6.16845703 L150.95752,6.16845703 L161.84375,31 L158.5625,31 L155.657227,24.3691406 L142.993652,24.3691406 L140.088379,31 L136.807129,31 Z M154.341309,21.3442383 L149.316895,9.91113281 L144.30957,21.3442383 L154.341309,21.3442383 Z M168.269531,28.7441406 L168.269531,38.0922852 L165.261719,38.0922852 L165.261719,13.2607422 L168.098633,13.2607422 L168.098633,15.8583984 C169.237961,13.8759667 171.374171,12.8847656 174.507324,12.8847656 C177.686051,12.8847656 180.00455,13.5911388 181.462891,15.0039062 C182.978198,16.4736402 183.73584,18.8491047 183.73584,22.1303711 C183.73584,25.3090979 183.035163,27.6275969 181.633789,29.0859375 C180.164055,30.6126378 177.788591,31.3759766 174.507324,31.3759766 C171.374171,31.3759766 169.294927,30.4987067 168.269531,28.7441406 Z M168.269531,22.25 C168.292318,24.6198035 168.748042,26.2376259 169.636719,27.1035156 C170.502608,27.9352255 172.126127,28.3510742 174.507324,28.3510742 C176.945487,28.3510742 178.597489,27.9010462 179.463379,27.0009766 C180.306482,26.1350868 180.728027,24.5115679 180.728027,22.1303711 C180.728027,19.6922079 180.277999,18.0402062 179.37793,17.1743164 C178.500647,16.3312132 176.877128,15.909668 174.507324,15.909668 C172.126127,15.909668 170.502608,16.3312132 169.636719,17.1743164 C168.748042,18.0288129 168.292318,19.6409387 168.269531,22.0107422 L168.269531,22.25 Z M192.212402,28.7441406 L192.212402,38.0922852 L189.20459,38.0922852 L189.20459,13.2607422 L192.041504,13.2607422 L192.041504,15.8583984 C193.180833,13.8759667 195.317042,12.8847656 198.450195,12.8847656 C201.628922,12.8847656 203.947421,13.5911388 205.405762,15.0039062 C206.921069,16.4736402 207.678711,18.8491047 207.678711,22.1303711 C207.678711,25.3090979 206.978034,27.6275969 205.57666,29.0859375 C204.106926,30.6126378 201.731462,31.3759766 198.450195,31.3759766 C195.317042,31.3759766 193.237798,30.4987067 192.212402,28.7441406 Z M192.212402,22.25 C192.235189,24.6198035 192.690914,26.2376259 193.57959,27.1035156 C194.44548,27.9352255 196.068999,28.3510742 198.450195,28.3510742 C200.888359,28.3510742 202.54036,27.9010462 203.40625,27.0009766 C204.249353,26.1350868 204.670898,24.5115679 204.670898,22.1303711 C204.670898,19.6922079 204.22087,18.0402062 203.320801,17.1743164 C202.443518,16.3312132 200.819999,15.909668 198.450195,15.909668 C196.068999,15.909668 194.44548,16.3312132 193.57959,17.1743164 C192.690914,18.0288129 192.235189,19.6409387 192.212402,22.0107422 L192.212402,22.25 Z M239.687988,9.19335938 L225.349609,9.19335938 L225.349609,17.0717773 L238.662598,17.0717773 L238.662598,20.0966797 L225.349609,20.0966797 L225.349609,31 L222.341797,31 L222.341797,6.16845703 L239.687988,6.16845703 L239.687988,9.19335938 Z M246.01123,15.8583984 C247.150559,13.8759667 249.286768,12.8847656 252.419922,12.8847656 C255.587255,12.8847656 257.905754,13.6481043 259.375488,15.1748047 C260.776862,16.6331453 261.477539,18.9516443 261.477539,22.1303711 L258.469727,22.1303711 C258.469727,19.7605676 258.048181,18.1370487 257.205078,17.2597656 C256.339188,16.359696 254.744152,15.909668 252.419922,15.909668 C250.038725,15.909668 248.415206,16.3312132 247.549316,17.1743164 C246.66064,18.0288129 246.204915,19.6409387 246.182129,22.0107422 L246.182129,31 L243.174316,31 L243.174316,13.2607422 L246.01123,13.2607422 L246.01123,15.8583984 Z M280.618164,29.034668 C279.501622,30.5955482 277.371109,31.3759766 274.226562,31.3759766 C271.195948,31.3759766 268.985684,31.0000038 267.595703,30.2480469 C265.85253,29.3137974 264.980957,27.7472441 264.980957,25.5483398 C264.980957,23.0304236 266.097482,21.389815 268.330566,20.6264648 C269.743334,20.2504864 272.141585,20.0625 275.525391,20.0625 C278.031914,20.0625 279.672522,19.9770516 280.447266,19.8061523 L280.447266,18.8491211 C280.435872,17.8009388 280.088382,17.0831725 279.404785,16.6958008 C278.470536,16.1717096 276.744479,15.909668 274.226562,15.909668 C272.232737,15.909668 270.774419,16.1033509 269.851562,16.4907227 C269.133785,16.7869481 268.604006,17.3110314 268.262207,18.0629883 L265.510742,16.8325195 C266.182946,15.3627856 267.242506,14.3260121 268.689453,13.722168 C269.999681,13.1638969 271.845366,12.8847656 274.226562,12.8847656 C277.257177,12.8847656 279.473138,13.2778281 280.874512,14.0639648 C282.469572,14.9640344 283.324055,16.3938704 283.437988,18.3535156 L283.455078,18.3535156 L283.455078,31 L280.618164,31 L280.618164,29.034668 Z M280.447266,22.3525391 C279.467443,22.4778652 277.815441,22.5405273 275.491211,22.5405273 C273.33788,22.5405273 271.634609,22.6430654 270.381348,22.8481445 C268.786288,23.2469095 267.98877,24.1469656 267.98877,25.5483398 C267.98877,26.550949 268.330563,27.2345359 269.01416,27.5991211 C269.959803,28.1004257 271.697253,28.3510742 274.226562,28.3510742 C276.755872,28.3510742 278.487626,28.1004257 279.421875,27.5991211 C280.094079,27.2459292 280.435872,26.5851285 280.447266,25.6166992 L280.447266,22.3525391 Z M291.760742,15.6020508 C292.808925,13.7905183 294.722968,12.8847656 297.50293,12.8847656 C300.579117,12.8847656 302.732416,14.1835808 303.962891,16.78125 C305.125006,14.2975136 307.35236,12.9986985 310.64502,12.8847656 C313.595881,12.8847656 315.73209,13.6765871 317.053711,15.2602539 C318.272793,16.7072012 318.882324,18.9972174 318.882324,22.1303711 L318.882324,31 L315.857422,31 L315.857422,22.1303711 C315.857422,19.7149944 315.487146,18.0686893 314.746582,17.1914062 C314.040198,16.3369098 312.673024,15.909668 310.64502,15.909668 C308.662588,15.909668 307.312504,16.3027304 306.594727,17.0888672 C305.80859,17.9661502 305.415527,19.6466347 305.415527,22.1303711 L305.415527,31 L302.390625,31 L302.390625,22.1303711 C302.390625,19.7149944 302.020349,18.0686893 301.279785,17.1914062 C300.562008,16.3369098 299.189138,15.909668 297.161133,15.909668 C295.190094,15.909668 293.845707,16.3027304 293.12793,17.0888672 C292.341793,17.9547569 291.943034,19.5953655 291.931641,22.0107422 L291.931641,31 L288.923828,31 L288.923828,13.2607422 L291.760742,13.2607422 L291.760742,15.6020508 Z M339.287598,30.4189453 C337.954583,31.0797559 336.057629,31.4101562 333.59668,31.4101562 C330.190087,31.4101562 327.757657,30.7094797 326.299316,29.3081055 C324.772616,27.8383716 324.009277,25.4572105 324.009277,22.1645508 C324.009277,18.985824 324.709954,16.667325 326.111328,15.2089844 C327.581062,13.682284 330.019189,12.9189453 333.425781,12.9189453 C336.718441,12.9189453 339.093905,13.6253185 340.552246,15.0380859 C342.067553,16.5078198 342.825195,18.8832844 342.825195,22.1645508 L342.825195,23.4975586 L327.03418,23.4975586 C327.102539,25.1154052 327.552567,26.328772 328.384277,27.1376953 C329.250167,27.9694052 330.987617,28.3852539 333.59668,28.3852539 C335.590505,28.3852539 337.043127,28.1630882 337.95459,27.71875 C338.763513,27.319985 339.338865,26.6477912 339.680664,25.7021484 L342.517578,26.7275391 C341.902341,28.4251387 340.825691,29.6555951 339.287598,30.4189453 Z M327.05127,20.831543 L339.817383,20.831543 C339.623697,19.0997635 339.173669,17.8920933 338.467285,17.2084961 C337.590002,16.3653929 335.909518,15.9438477 333.425781,15.9438477 C330.862292,15.9438477 329.147628,16.3938757 328.281738,17.2939453 C327.620928,17.9889358 327.210776,19.1681232 327.05127,20.831543 Z M349.097168,13.2607422 L353.848145,26.5395508 L358.616211,13.2607422 L361.812012,13.2607422 L366.562988,26.5566406 L371.331055,13.2607422 L374.526855,13.2607422 L368.169434,31 L364.973633,31 L360.205566,17.7211914 L355.45459,31 L352.258789,31 L345.901367,13.2607422 L349.097168,13.2607422 Z M394.145996,15.0380859 C395.661303,16.5078198 396.418945,18.8832844 396.418945,22.1645508 C396.418945,25.4572105 395.661303,27.8383716 394.145996,29.3081055 C392.687655,30.7094797 390.369157,31.4101562 387.19043,31.4101562 C384.011703,31.4101562 381.693204,30.7094797 380.234863,29.3081055 C378.708163,27.8383716 377.944824,25.4572105 377.944824,22.1645508 C377.944824,18.985824 378.645501,16.667325 380.046875,15.2089844 C381.516609,13.682284 383.89777,12.9189453 387.19043,12.9189453 C390.369157,12.9189453 392.687655,13.6253185 394.145996,15.0380859 Z M387.19043,15.9438477 C384.740873,15.9438477 383.083175,16.3938757 382.217285,17.2939453 C381.374182,18.1712283 380.952637,19.7947473 380.952637,22.1645508 C380.952637,24.602714 381.408361,26.2604123 382.319824,27.1376953 C383.185714,27.9694052 384.809233,28.3852539 387.19043,28.3852539 C389.560233,28.3852539 391.183752,27.9694052 392.061035,27.1376953 C392.961105,26.2604123 393.411133,24.602714 393.411133,22.1645508 C393.411133,19.7263875 392.961105,18.0743858 392.061035,17.2084961 C391.183752,16.3653929 389.560233,15.9438477 387.19043,15.9438477 Z M404.724609,15.8583984 C405.863938,13.8759667 408.000147,12.8847656 411.133301,12.8847656 C414.300634,12.8847656 416.619133,13.6481043 418.088867,15.1748047 C419.490241,16.6331453 420.190918,18.9516443 420.190918,22.1303711 L417.183105,22.1303711 C417.183105,19.7605676 416.76156,18.1370487 415.918457,17.2597656 C415.052567,16.359696 413.457531,15.909668 411.133301,15.909668 C408.752104,15.909668 407.128585,16.3312132 406.262695,17.1743164 C405.374019,18.0288129 404.918294,19.6409387 404.895508,22.0107422 L404.895508,31 L401.887695,31 L401.887695,13.2607422 L404.724609,13.2607422 L404.724609,15.8583984 Z M437.007324,31 L429.487793,22.6430664 L426.702148,24.9331055 L426.702148,31 L423.694336,31 L423.694336,6.16845703 L426.702148,6.16845703 L426.702148,21.0366211 L436.152832,13.277832 L440.869629,13.277832 L431.829102,20.7290039 L441.057617,31 L437.007324,31 Z M446.389648,26.0268555 C446.389648,26.8357788 446.714352,27.3940414 447.36377,27.7016602 C448.320806,28.1573916 450.075345,28.3852539 452.627441,28.3852539 C455.179538,28.3852539 456.928381,28.1573916 457.874023,27.7016602 C458.523441,27.3940414 458.848145,26.8357788 458.848145,26.0268555 C458.848145,25.0470329 458.19304,24.3862322 456.882812,24.0444336 C456.108069,23.8393544 454.678233,23.7140302 452.593262,23.668457 C449.517074,23.6000973 447.403652,23.3380557 446.25293,22.8823242 C444.338858,22.118974 443.381836,20.5922966 443.381836,18.3022461 C443.381836,16.308421 444.213533,14.8785851 445.876953,14.0126953 C447.266934,13.283525 449.517074,12.9189453 452.627441,12.9189453 C455.623876,12.9189453 457.811354,13.2550422 459.189941,13.9272461 C460.967294,14.7817426 461.855957,16.2400613 461.855957,18.3022461 L458.848145,18.3022461 C458.848145,17.4933228 458.523441,16.9350601 457.874023,16.6274414 C456.928381,16.17171 455.179538,15.9438477 452.627441,15.9438477 C449.995592,15.9438477 448.206873,16.1887996 447.26123,16.6787109 C446.680173,16.9749364 446.389648,17.5161094 446.389648,18.3022461 C446.389648,19.2820687 447.044753,19.9428694 448.35498,20.284668 C449.141117,20.4897471 450.57665,20.6150714 452.661621,20.6606445 C455.726415,20.7403975 457.834141,21.0081357 458.984863,21.4638672 C460.898935,22.2158241 461.855957,23.736805 461.855957,26.0268555 C461.855957,28.0890403 460.967294,29.5530556 459.189941,30.4189453 C457.811354,31.0797559 455.623876,31.4101562 452.627441,31.4101562 C449.619614,31.4101562 447.432136,31.0797559 446.064941,30.4189453 C444.276195,29.5530556 443.381836,28.0890403 443.381836,26.0268555 L446.389648,26.0268555 Z M469.734375,27.9921875 L466.726562,27.9921875 L466.726562,31 L468.09375,31 L466.555664,34.6743164 L468.196289,34.6743164 L469.734375,31 L469.734375,27.9921875 Z M482.34668,31 L493.21582,6.16845703 L496.49707,6.16845703 L507.383301,31 L504.102051,31 L501.196777,24.3691406 L488.533203,24.3691406 L485.62793,31 L482.34668,31 Z M499.880859,21.3442383 L494.856445,9.91113281 L489.849121,21.3442383 L499.880859,21.3442383 Z M513.638184,16.0292969 C514.777512,13.9329322 516.913721,12.8847656 520.046875,12.8847656 C523.328141,12.8847656 525.703606,13.6481043 527.17334,15.1748047 C528.574714,16.6331453 529.275391,18.9516443 529.275391,22.1303711 L529.275391,31 L526.267578,31 L526.267578,22.1303711 C526.267578,19.7605676 525.846033,18.1370487 525.00293,17.2597656 C524.13704,16.359696 522.485038,15.909668 520.046875,15.909668 C517.665678,15.909668 516.042159,16.3312132 515.17627,17.1743164 C514.287593,18.0288129 513.831869,19.6409387 513.809082,22.0107422 L513.809082,31 L510.80127,31 L510.80127,13.2607422 L513.638184,13.2607422 L513.638184,16.0292969 Z M550.210449,15.3457031 L550.210449,6.16845703 L553.218262,6.16845703 L553.218262,31 L550.381348,31 L550.381348,28.7441406 C549.253412,30.4987067 547.1229,31.3759766 543.989746,31.3759766 C540.811019,31.3759766 538.49252,30.6753 537.03418,29.2739258 C535.507479,27.8041919 534.744141,25.4230308 534.744141,22.1303711 C534.744141,18.9516443 535.444817,16.6331453 536.846191,15.1748047 C538.315925,13.6481043 540.697086,12.8847656 543.989746,12.8847656 C547.1229,12.8847656 549.196447,13.7050699 550.210449,15.3457031 Z M550.210449,22.0107422 C550.199056,19.6409387 549.749028,18.0288129 548.860352,17.1743164 C547.983069,16.3312132 546.35955,15.909668 543.989746,15.909668 C541.54019,15.909668 539.882491,16.359696 539.016602,17.2597656 C538.173498,18.1370487 537.751953,19.7605676 537.751953,22.1303711 C537.751953,24.5685343 538.207678,26.2262326 539.119141,27.1035156 C539.98503,27.9352255 541.608549,28.3510742 543.989746,28.3510742 C546.35955,28.3510742 547.983069,27.9352255 548.860352,27.1035156 C549.749028,26.2376259 550.199056,24.6198035 550.210449,22.25 L550.210449,22.0107422 Z M561.523926,15.8583984 C562.663254,13.8759667 564.799464,12.8847656 567.932617,12.8847656 C571.099951,12.8847656 573.41845,13.6481043 574.888184,15.1748047 C576.289558,16.6331453 576.990234,18.9516443 576.990234,22.1303711 L573.982422,22.1303711 C573.982422,19.7605676 573.560877,18.1370487 572.717773,17.2597656 C571.851884,16.359696 570.256848,15.909668 567.932617,15.909668 C565.55142,15.909668 563.927901,16.3312132 563.062012,17.1743164 C562.173335,18.0288129 561.717611,19.6409387 561.694824,22.0107422 L561.694824,31 L558.687012,31 L558.687012,13.2607422 L561.523926,13.2607422 L561.523926,15.8583984 Z M596.694824,15.0380859 C598.210131,16.5078198 598.967773,18.8832844 598.967773,22.1645508 C598.967773,25.4572105 598.210131,27.8383716 596.694824,29.3081055 C595.236484,30.7094797 592.917985,31.4101562 589.739258,31.4101562 C586.560531,31.4101562 584.242032,30.7094797 582.783691,29.3081055 C581.256991,27.8383716 580.493652,25.4572105 580.493652,22.1645508 C580.493652,18.985824 581.194329,16.667325 582.595703,15.2089844 C584.065437,13.682284 586.446598,12.9189453 589.739258,12.9189453 C592.917985,12.9189453 595.236484,13.6253185 596.694824,15.0380859 Z M589.739258,15.9438477 C587.289701,15.9438477 585.632003,16.3938757 584.766113,17.2939453 C583.92301,18.1712283 583.501465,19.7947473 583.501465,22.1645508 C583.501465,24.602714 583.957189,26.2604123 584.868652,27.1376953 C585.734542,27.9694052 587.358061,28.3852539 589.739258,28.3852539 C592.109061,28.3852539 593.73258,27.9694052 594.609863,27.1376953 C595.509933,26.2604123 595.959961,24.602714 595.959961,22.1645508 C595.959961,19.7263875 595.509933,18.0743858 594.609863,17.2084961 C593.73258,16.3653929 592.109061,15.9438477 589.739258,15.9438477 Z M607.615234,13.2607422 L607.615234,31 L604.607422,31 L604.607422,13.2607422 L607.615234,13.2607422 Z M607.615234,6.16845703 L607.615234,9.19335938 L604.607422,9.19335938 L604.607422,6.16845703 L607.615234,6.16845703 Z M628.721191,15.3457031 L628.721191,6.16845703 L631.729004,6.16845703 L631.729004,31 L628.89209,31 L628.89209,28.7441406 C627.764155,30.4987067 625.633642,31.3759766 622.500488,31.3759766 C619.321761,31.3759766 617.003263,30.6753 615.544922,29.2739258 C614.018222,27.8041919 613.254883,25.4230308 613.254883,22.1303711 C613.254883,18.9516443 613.955559,16.6331453 615.356934,15.1748047 C616.826668,13.6481043 619.207829,12.8847656 622.500488,12.8847656 C625.633642,12.8847656 627.707189,13.7050699 628.721191,15.3457031 Z M628.721191,22.0107422 C628.709798,19.6409387 628.25977,18.0288129 627.371094,17.1743164 C626.493811,16.3312132 624.870292,15.909668 622.500488,15.909668 C620.050932,15.909668 618.393233,16.359696 617.527344,17.2597656 C616.684241,18.1370487 616.262695,19.7605676 616.262695,22.1303711 C616.262695,24.5685343 616.71842,26.2262326 617.629883,27.1035156 C618.495773,27.9352255 620.119291,28.3510742 622.500488,28.3510742 C624.870292,28.3510742 626.493811,27.9352255 627.371094,27.1035156 C628.25977,26.2376259 628.709798,24.6198035 628.721191,22.25 L628.721191,22.0107422 Z M648.887207,24.2666016 C648.887207,25.7135489 649.388504,26.716143 650.391113,27.2744141 C651.735521,28.0263709 654.03693,28.4023438 657.29541,28.4023438 C660.45135,28.4023438 662.701491,28.0491572 664.045898,27.3427734 C665.139654,26.7731091 665.686523,25.7249425 665.686523,24.1982422 C665.686523,22.6829351 665.139654,21.6404651 664.045898,21.0708008 C662.690097,20.364417 660.439957,20.0112305 657.29541,20.0112305 C653.649559,20.0112305 650.932301,19.5441127 649.143555,18.6098633 C646.967437,17.4705347 645.879395,15.5792775 645.879395,12.9360352 C645.879395,10.3725458 646.893382,8.52116455 648.921387,7.38183594 C650.721526,6.36783347 653.512839,5.86083984 657.29541,5.86083984 C660.929868,5.86083984 663.64143,6.32226101 665.430176,7.24511719 C667.606293,8.3844458 668.694336,10.3041857 668.694336,13.0043945 L665.686523,13.0043945 C665.686523,11.5232673 665.139654,10.497887 664.045898,9.92822266 C662.701491,9.22183892 660.45135,8.86865234 657.29541,8.86865234 C654.03693,8.86865234 651.735521,9.24462515 650.391113,9.99658203 C649.388504,10.5662463 648.887207,11.5460542 648.887207,12.9360352 C648.887207,14.3715892 649.434077,15.3741833 650.527832,15.9438477 C651.883633,16.6388381 654.13947,16.9863281 657.29541,16.9863281 C660.929868,16.9863281 663.64143,17.4534458 665.430176,18.3876953 C667.606293,19.5270239 668.694336,21.4638535 668.694336,24.1982422 C668.694336,26.9440241 667.606293,28.8865503 665.430176,30.0258789 C663.64143,30.9487351 660.929868,31.4101562 657.29541,31.4101562 C653.512839,31.4101562 650.721526,30.9031626 648.921387,29.8891602 C646.893382,28.7612248 645.879395,26.8870574 645.879395,24.2666016 L648.887207,24.2666016 Z M676.658203,9.17626953 L676.658203,27.9921875 L686.450684,27.9921875 C688.091317,27.9807942 689.498367,27.468104 690.671875,26.4541016 C691.742844,25.5426387 692.540362,24.3007891 693.064453,22.7285156 C693.474611,21.4752542 693.679688,20.1308666 693.679688,18.6953125 C693.668294,17.282545 693.451825,15.9324609 693.030273,14.6450195 C692.494789,13.0271729 691.691574,11.7397509 690.620605,10.7827148 C689.435704,9.72313923 688.045744,9.18766282 686.450684,9.17626953 L676.658203,9.17626953 Z M686.467773,6.16845703 C688.792004,6.1912436 690.797192,6.92609954 692.483398,8.37304688 C694.010099,9.69466807 695.143714,11.471994 695.884277,13.7050781 C696.408369,15.2773516 696.67041,16.9407464 696.67041,18.6953125 C696.681803,20.4498786 696.425458,22.1075768 695.901367,23.668457 C695.18359,25.855968 694.061368,27.5877215 692.534668,28.8637695 C690.848462,30.2651437 688.826184,30.9772134 686.467773,31 L673.650391,31 L673.650391,6.16845703 L686.467773,6.16845703 Z M704.138672,6.16845703 L704.138672,17.9604492 L717.690918,6.16845703 L722.014648,6.16845703 L710.291016,16.5419922 L722.390625,31 L718.59668,31 L708.103516,18.644043 L704.138672,22.1474609 L704.138672,31 L701.130859,31 L701.130859,6.16845703 L704.138672,6.16845703 Z" id="Mobile-App-Framework" fill="#000000"></path>
            </g>
        </g>
    </g>
</svg>