<?xml version="1.0" encoding="UTF-8"?>
<svg width="725px" height="40px" viewBox="0 0 725 40" version="1.1" xmlns="http://www.w3.org/2000/svg" xmlns:xlink="http://www.w3.org/1999/xlink">
    <!-- Generator: Sketch 42 (36781) - http://www.bohemiancoding.com/sketch -->
    <title>title</title>
    <desc>Created with Sketch.</desc>
    <defs></defs>
    <g id="Android" stroke="none" stroke-width="1" fill="none" fill-rule="evenodd">
        <g id="7_03" transform="translate(-598.000000, -1239.000000)">
            <g id="title" transform="translate(598.000000, 1239.000000)">
                <rect id="base" fill="#FFFFFF" x="0" y="0" width="725" height="40"></rect>
                <path d="M164.236328,9.19335938 L148.855469,9.19335938 L148.855469,17.0717773 L162.476074,17.0717773 L162.476074,20.0966797 L148.855469,20.0966797 L148.855469,27.9921875 L164.236328,27.9921875 L164.236328,31 L145.847656,31 L145.847656,6.16845703 L164.236328,6.16845703 L164.236328,9.19335938 Z M182.898438,30.453125 C181.576816,31.091149 179.822277,31.4101562 177.634766,31.4101562 C174.456039,31.4101562 172.13754,30.7094797 170.679199,29.3081055 C169.152499,27.8383716 168.38916,25.4572105 168.38916,22.1645508 C168.38916,18.985824 169.089837,16.667325 170.491211,15.2089844 C171.960945,13.682284 174.342106,12.9189453 177.634766,12.9189453 C179.822277,12.9189453 181.576816,13.2379525 182.898438,13.8759766 C184.425138,14.6051469 185.507484,15.7900309 186.145508,17.4306641 L183.342773,18.5073242 C182.989582,17.6186479 182.408533,16.9806334 181.599609,16.5932617 C180.69954,16.1603168 179.377938,15.9438477 177.634766,15.9438477 C175.185209,15.9438477 173.527511,16.3938757 172.661621,17.2939453 C171.818518,18.1712283 171.396973,19.7947473 171.396973,22.1645508 C171.396973,24.602714 171.852697,26.2604123 172.76416,27.1376953 C173.63005,27.9694052 175.253569,28.3852539 177.634766,28.3852539 C179.377938,28.3852539 180.69954,28.1744813 181.599609,27.7529297 C182.408533,27.365558 182.989582,26.7218469 183.342773,25.8217773 L186.145508,26.8984375 C185.507484,28.5390707 184.425138,29.7239547 182.898438,30.453125 Z M200.466797,31.0170898 C200.033852,31.062663 199.447107,31.0854492 198.706543,31.0854492 C197.077303,31.0854492 195.852543,30.9031594 195.032227,30.5385742 C193.31184,29.6840778 192.400391,27.6447101 192.297852,24.4204102 L192.297852,6.16845703 L195.305664,6.16845703 L195.305664,24.7792969 C195.351237,27.3086064 196.62157,28.5732422 199.116699,28.5732422 L199.475586,28.5732422 C199.874351,28.5732422 200.204751,28.5447594 200.466797,28.487793 L200.466797,31.0170898 Z M206.550781,13.2607422 L206.550781,31 L203.542969,31 L203.542969,13.2607422 L206.550781,13.2607422 Z M206.550781,6.16845703 L206.550781,9.19335938 L203.542969,9.19335938 L203.542969,6.16845703 L206.550781,6.16845703 Z M215.198242,28.7441406 L215.198242,38.0922852 L212.19043,38.0922852 L212.19043,13.2607422 L215.027344,13.2607422 L215.027344,15.8583984 C216.166672,13.8759667 218.302881,12.8847656 221.436035,12.8847656 C224.614762,12.8847656 226.933261,13.5911388 228.391602,15.0039062 C229.906909,16.4736402 230.664551,18.8491047 230.664551,22.1303711 C230.664551,25.3090979 229.963874,27.6275969 228.5625,29.0859375 C227.092766,30.6126378 224.717302,31.3759766 221.436035,31.3759766 C218.302881,31.3759766 216.223638,30.4987067 215.198242,28.7441406 Z M215.198242,22.25 C215.221029,24.6198035 215.676753,26.2376259 216.56543,27.1035156 C217.431319,27.9352255 219.054838,28.3510742 221.436035,28.3510742 C223.874198,28.3510742 225.5262,27.9010462 226.39209,27.0009766 C227.235193,26.1350868 227.656738,24.5115679 227.656738,22.1303711 C227.656738,19.6922079 227.20671,18.0402062 226.306641,17.1743164 C225.429358,16.3312132 223.805839,15.909668 221.436035,15.909668 C219.054838,15.909668 217.431319,16.3312132 216.56543,17.1743164 C215.676753,18.0288129 215.221029,19.6409387 215.198242,22.0107422 L215.198242,22.25 Z M238.542969,26.0268555 C238.542969,26.8357788 238.867673,27.3940414 239.51709,27.7016602 C240.474126,28.1573916 242.228666,28.3852539 244.780762,28.3852539 C247.332858,28.3852539 249.081701,28.1573916 250.027344,27.7016602 C250.676761,27.3940414 251.001465,26.8357788 251.001465,26.0268555 C251.001465,25.0470329 250.346361,24.3862322 249.036133,24.0444336 C248.261389,23.8393544 246.831553,23.7140302 244.746582,23.668457 C241.670395,23.6000973 239.556972,23.3380557 238.40625,22.8823242 C236.492178,22.118974 235.535156,20.5922966 235.535156,18.3022461 C235.535156,16.308421 236.366854,14.8785851 238.030273,14.0126953 C239.420254,13.283525 241.670395,12.9189453 244.780762,12.9189453 C247.777196,12.9189453 249.964674,13.2550422 251.343262,13.9272461 C253.120614,14.7817426 254.009277,16.2400613 254.009277,18.3022461 L251.001465,18.3022461 C251.001465,17.4933228 250.676761,16.9350601 250.027344,16.6274414 C249.081701,16.17171 247.332858,15.9438477 244.780762,15.9438477 C242.148913,15.9438477 240.360194,16.1887996 239.414551,16.6787109 C238.833493,16.9749364 238.542969,17.5161094 238.542969,18.3022461 C238.542969,19.2820687 239.198073,19.9428694 240.508301,20.284668 C241.294438,20.4897471 242.72997,20.6150714 244.814941,20.6606445 C247.879735,20.7403975 249.987462,21.0081357 251.138184,21.4638672 C253.052256,22.2158241 254.009277,23.736805 254.009277,26.0268555 C254.009277,28.0890403 253.120614,29.5530556 251.343262,30.4189453 C249.964674,31.0797559 247.777196,31.4101562 244.780762,31.4101562 C241.772934,31.4101562 239.585456,31.0797559 238.218262,30.4189453 C236.429516,29.5530556 235.535156,28.0890403 235.535156,26.0268555 L238.542969,26.0268555 Z M273.816406,30.4189453 C272.483392,31.0797559 270.586438,31.4101562 268.125488,31.4101562 C264.718896,31.4101562 262.286466,30.7094797 260.828125,29.3081055 C259.301425,27.8383716 258.538086,25.4572105 258.538086,22.1645508 C258.538086,18.985824 259.238763,16.667325 260.640137,15.2089844 C262.109871,13.682284 264.547997,12.9189453 267.95459,12.9189453 C271.24725,12.9189453 273.622714,13.6253185 275.081055,15.0380859 C276.596362,16.5078198 277.354004,18.8832844 277.354004,22.1645508 L277.354004,23.4975586 L261.562988,23.4975586 C261.631348,25.1154052 262.081376,26.328772 262.913086,27.1376953 C263.778976,27.9694052 265.516426,28.3852539 268.125488,28.3852539 C270.119313,28.3852539 271.571936,28.1630882 272.483398,27.71875 C273.292322,27.319985 273.867674,26.6477912 274.209473,25.7021484 L277.046387,26.7275391 C276.431149,28.4251387 275.3545,29.6555951 273.816406,30.4189453 Z M261.580078,20.831543 L274.346191,20.831543 C274.152506,19.0997635 273.702477,17.8920933 272.996094,17.2084961 C272.118811,16.3653929 270.438326,15.9438477 267.95459,15.9438477 C265.3911,15.9438477 263.676437,16.3938757 262.810547,17.2939453 C262.149736,17.9889358 261.739584,19.1681232 261.580078,20.831543 Z M285.48877,27.9921875 L282.480957,27.9921875 L282.480957,31 L283.848145,31 L282.310059,34.6743164 L283.950684,34.6743164 L285.48877,31 L285.48877,27.9921875 Z M298.101074,31 L308.970215,6.16845703 L312.251465,6.16845703 L323.137695,31 L319.856445,31 L316.951172,24.3691406 L304.287598,24.3691406 L301.382324,31 L298.101074,31 Z M315.635254,21.3442383 L310.61084,9.91113281 L305.603516,21.3442383 L315.635254,21.3442383 Z M329.392578,16.0292969 C330.531907,13.9329322 332.668116,12.8847656 335.80127,12.8847656 C339.082536,12.8847656 341.458,13.6481043 342.927734,15.1748047 C344.329109,16.6331453 345.029785,18.9516443 345.029785,22.1303711 L345.029785,31 L342.021973,31 L342.021973,22.1303711 C342.021973,19.7605676 341.600427,18.1370487 340.757324,17.2597656 C339.891434,16.359696 338.239433,15.909668 335.80127,15.909668 C333.420073,15.909668 331.796554,16.3312132 330.930664,17.1743164 C330.041988,18.0288129 329.586263,19.6409387 329.563477,22.0107422 L329.563477,31 L326.555664,31 L326.555664,13.2607422 L329.392578,13.2607422 L329.392578,16.0292969 Z M365.964844,15.3457031 L365.964844,6.16845703 L368.972656,6.16845703 L368.972656,31 L366.135742,31 L366.135742,28.7441406 C365.007807,30.4987067 362.877294,31.3759766 359.744141,31.3759766 C356.565414,31.3759766 354.246915,30.6753 352.788574,29.2739258 C351.261874,27.8041919 350.498535,25.4230308 350.498535,22.1303711 C350.498535,18.9516443 351.199212,16.6331453 352.600586,15.1748047 C354.07032,13.6481043 356.451481,12.8847656 359.744141,12.8847656 C362.877294,12.8847656 364.950841,13.7050699 365.964844,15.3457031 Z M365.964844,22.0107422 C365.95345,19.6409387 365.503422,18.0288129 364.614746,17.1743164 C363.737463,16.3312132 362.113944,15.909668 359.744141,15.909668 C357.294584,15.909668 355.636886,16.359696 354.770996,17.2597656 C353.927893,18.1370487 353.506348,19.7605676 353.506348,22.1303711 C353.506348,24.5685343 353.962072,26.2262326 354.873535,27.1035156 C355.739425,27.9352255 357.362944,28.3510742 359.744141,28.3510742 C362.113944,28.3510742 363.737463,27.9352255 364.614746,27.1035156 C365.503422,26.2376259 365.95345,24.6198035 365.964844,22.25 L365.964844,22.0107422 Z M377.27832,15.8583984 C378.417649,13.8759667 380.553858,12.8847656 383.687012,12.8847656 C386.854345,12.8847656 389.172844,13.6481043 390.642578,15.1748047 C392.043952,16.6331453 392.744629,18.9516443 392.744629,22.1303711 L389.736816,22.1303711 C389.736816,19.7605676 389.315271,18.1370487 388.472168,17.2597656 C387.606278,16.359696 386.011242,15.909668 383.687012,15.909668 C381.305815,15.909668 379.682296,16.3312132 378.816406,17.1743164 C377.92773,18.0288129 377.472005,19.6409387 377.449219,22.0107422 L377.449219,31 L374.441406,31 L374.441406,13.2607422 L377.27832,13.2607422 L377.27832,15.8583984 Z M412.449219,15.0380859 C413.964526,16.5078198 414.722168,18.8832844 414.722168,22.1645508 C414.722168,25.4572105 413.964526,27.8383716 412.449219,29.3081055 C410.990878,30.7094797 408.672379,31.4101562 405.493652,31.4101562 C402.314926,31.4101562 399.996427,30.7094797 398.538086,29.3081055 C397.011386,27.8383716 396.248047,25.4572105 396.248047,22.1645508 C396.248047,18.985824 396.948723,16.667325 398.350098,15.2089844 C399.819832,13.682284 402.200993,12.9189453 405.493652,12.9189453 C408.672379,12.9189453 410.990878,13.6253185 412.449219,15.0380859 Z M405.493652,15.9438477 C403.044096,15.9438477 401.386398,16.3938757 400.520508,17.2939453 C399.677405,18.1712283 399.255859,19.7947473 399.255859,22.1645508 C399.255859,24.602714 399.711584,26.2604123 400.623047,27.1376953 C401.488937,27.9694052 403.112456,28.3852539 405.493652,28.3852539 C407.863456,28.3852539 409.486975,27.9694052 410.364258,27.1376953 C411.264327,26.2604123 411.714355,24.602714 411.714355,22.1645508 C411.714355,19.7263875 411.264327,18.0743858 410.364258,17.2084961 C409.486975,16.3653929 407.863456,15.9438477 405.493652,15.9438477 Z M423.369629,13.2607422 L423.369629,31 L420.361816,31 L420.361816,13.2607422 L423.369629,13.2607422 Z M423.369629,6.16845703 L423.369629,9.19335938 L420.361816,9.19335938 L420.361816,6.16845703 L423.369629,6.16845703 Z M444.475586,15.3457031 L444.475586,6.16845703 L447.483398,6.16845703 L447.483398,31 L444.646484,31 L444.646484,28.7441406 C443.518549,30.4987067 441.388036,31.3759766 438.254883,31.3759766 C435.076156,31.3759766 432.757657,30.6753 431.299316,29.2739258 C429.772616,27.8041919 429.009277,25.4230308 429.009277,22.1303711 C429.009277,18.9516443 429.709954,16.6331453 431.111328,15.1748047 C432.581062,13.6481043 434.962223,12.8847656 438.254883,12.8847656 C441.388036,12.8847656 443.461583,13.7050699 444.475586,15.3457031 Z M444.475586,22.0107422 C444.464193,19.6409387 444.014165,18.0288129 443.125488,17.1743164 C442.248205,16.3312132 440.624686,15.909668 438.254883,15.909668 C435.805326,15.909668 434.147628,16.359696 433.281738,17.2597656 C432.438635,18.1370487 432.01709,19.7605676 432.01709,22.1303711 C432.01709,24.5685343 432.472814,26.2262326 433.384277,27.1035156 C434.250167,27.9352255 435.873686,28.3510742 438.254883,28.3510742 C440.624686,28.3510742 442.248205,27.9352255 443.125488,27.1035156 C444.014165,26.2376259 444.464193,24.6198035 444.475586,22.25 L444.475586,22.0107422 Z M464.641602,24.2666016 C464.641602,25.7135489 465.142899,26.716143 466.145508,27.2744141 C467.489916,28.0263709 469.791325,28.4023438 473.049805,28.4023438 C476.205745,28.4023438 478.455885,28.0491572 479.800293,27.3427734 C480.894048,26.7731091 481.440918,25.7249425 481.440918,24.1982422 C481.440918,22.6829351 480.894048,21.6404651 479.800293,21.0708008 C478.444492,20.364417 476.194352,20.0112305 473.049805,20.0112305 C469.403953,20.0112305 466.686695,19.5441127 464.897949,18.6098633 C462.721832,17.4705347 461.633789,15.5792775 461.633789,12.9360352 C461.633789,10.3725458 462.647776,8.52116455 464.675781,7.38183594 C466.47592,6.36783347 469.267234,5.86083984 473.049805,5.86083984 C476.684263,5.86083984 479.395824,6.32226101 481.18457,7.24511719 C483.360688,8.3844458 484.44873,10.3041857 484.44873,13.0043945 L481.440918,13.0043945 C481.440918,11.5232673 480.894048,10.497887 479.800293,9.92822266 C478.455885,9.22183892 476.205745,8.86865234 473.049805,8.86865234 C469.791325,8.86865234 467.489916,9.24462515 466.145508,9.99658203 C465.142899,10.5662463 464.641602,11.5460542 464.641602,12.9360352 C464.641602,14.3715892 465.188471,15.3741833 466.282227,15.9438477 C467.638028,16.6388381 469.893864,16.9863281 473.049805,16.9863281 C476.684263,16.9863281 479.395824,17.4534458 481.18457,18.3876953 C483.360688,19.5270239 484.44873,21.4638535 484.44873,24.1982422 C484.44873,26.9440241 483.360688,28.8865503 481.18457,30.0258789 C479.395824,30.9487351 476.684263,31.4101562 473.049805,31.4101562 C469.267234,31.4101562 466.47592,30.9031626 464.675781,29.8891602 C462.647776,28.7612248 461.633789,26.8870574 461.633789,24.2666016 L464.641602,24.2666016 Z M499.197266,31 C498.764321,31.0455731 498.177575,31.0683594 497.437012,31.0683594 C495.807772,31.0683594 494.583012,30.8860695 493.762695,30.5214844 C492.042309,29.6669879 491.13086,27.6276203 491.02832,24.4033203 L491.02832,16.2685547 L488.89209,16.2685547 L488.89209,13.2607422 L491.02832,13.2607422 L491.02832,6.16845703 L494.036133,6.16845703 L494.036133,13.2607422 L497.966797,13.2607422 L497.966797,16.2685547 L494.036133,16.2685547 L494.036133,24.762207 C494.081706,27.2915166 495.352038,28.5561523 497.847168,28.5561523 L498.206055,28.5561523 C498.60482,28.5561523 498.93522,28.5276696 499.197266,28.4707031 L499.197266,31 Z M518.44043,29.0859375 C517.426427,30.6126378 515.35288,31.3759766 512.219727,31.3759766 C508.927067,31.3759766 506.545906,30.6126378 505.076172,29.0859375 C503.674798,27.6275969 502.974121,25.3090979 502.974121,22.1303711 L502.974121,13.2607422 L505.981934,13.2607422 L505.981934,22.1303711 C505.981934,24.5115679 506.403479,26.1350868 507.246582,27.0009766 C508.112472,27.9010462 509.77017,28.3510742 512.219727,28.3510742 C514.58953,28.3510742 516.213049,27.9352255 517.090332,27.1035156 C517.979008,26.2376259 518.429036,24.6198035 518.44043,22.25 L518.44043,13.2607422 L521.448242,13.2607422 L521.448242,31 L518.44043,31 L518.44043,29.0859375 Z M542.383301,15.3457031 L542.383301,6.16845703 L545.391113,6.16845703 L545.391113,31 L542.554199,31 L542.554199,28.7441406 C541.426264,30.4987067 539.295751,31.3759766 536.162598,31.3759766 C532.983871,31.3759766 530.665372,30.6753 529.207031,29.2739258 C527.680331,27.8041919 526.916992,25.4230308 526.916992,22.1303711 C526.916992,18.9516443 527.617669,16.6331453 529.019043,15.1748047 C530.488777,13.6481043 532.869938,12.8847656 536.162598,12.8847656 C539.295751,12.8847656 541.369298,13.7050699 542.383301,15.3457031 Z M542.383301,22.0107422 C542.371907,19.6409387 541.921879,18.0288129 541.033203,17.1743164 C540.15592,16.3312132 538.532401,15.909668 536.162598,15.909668 C533.713041,15.909668 532.055343,16.359696 531.189453,17.2597656 C530.34635,18.1370487 529.924805,19.7605676 529.924805,22.1303711 C529.924805,24.5685343 530.380529,26.2262326 531.291992,27.1035156 C532.157882,27.9352255 533.781401,28.3510742 536.162598,28.3510742 C538.532401,28.3510742 540.15592,27.9352255 541.033203,27.1035156 C541.921879,26.2376259 542.371907,24.6198035 542.383301,22.25 L542.383301,22.0107422 Z M554.038574,13.2607422 L554.038574,31 L551.030762,31 L551.030762,13.2607422 L554.038574,13.2607422 Z M554.038574,6.16845703 L554.038574,9.19335938 L551.030762,9.19335938 L551.030762,6.16845703 L554.038574,6.16845703 Z M575.879395,15.0380859 C577.394702,16.5078198 578.152344,18.8832844 578.152344,22.1645508 C578.152344,25.4572105 577.394702,27.8383716 575.879395,29.3081055 C574.421054,30.7094797 572.102555,31.4101562 568.923828,31.4101562 C565.745101,31.4101562 563.426602,30.7094797 561.968262,29.3081055 C560.441561,27.8383716 559.678223,25.4572105 559.678223,22.1645508 C559.678223,18.985824 560.378899,16.667325 561.780273,15.2089844 C563.250007,13.682284 565.631168,12.9189453 568.923828,12.9189453 C572.102555,12.9189453 574.421054,13.6253185 575.879395,15.0380859 Z M568.923828,15.9438477 C566.474272,15.9438477 564.816573,16.3938757 563.950684,17.2939453 C563.10758,18.1712283 562.686035,19.7947473 562.686035,22.1645508 C562.686035,24.602714 563.14176,26.2604123 564.053223,27.1376953 C564.919112,27.9694052 566.542631,28.3852539 568.923828,28.3852539 C571.293632,28.3852539 572.917151,27.9694052 573.794434,27.1376953 C574.694503,26.2604123 575.144531,24.602714 575.144531,22.1645508 C575.144531,19.7263875 574.694503,18.0743858 573.794434,17.2084961 C572.917151,16.3653929 571.293632,15.9438477 568.923828,15.9438477 Z" id="Eclipse,-Android-Stu" fill="#000000"></path>
            </g>
        </g>
    </g>
</svg>