<?xml version="1.0" encoding="UTF-8"?>
<svg width="615px" height="40px" viewBox="0 0 615 40" version="1.1" xmlns="http://www.w3.org/2000/svg" xmlns:xlink="http://www.w3.org/1999/xlink">
    <!-- Generator: Sketch 42 (36781) - http://www.bohemiancoding.com/sketch -->
    <title>title</title>
    <desc>Created with Sketch.</desc>
    <defs></defs>
    <g id="Android" stroke="none" stroke-width="1" fill="none" fill-rule="evenodd">
        <g id="7_04" transform="translate(-653.000000, -1239.000000)">
            <g id="title" transform="translate(653.000000, 1239.000000)">
                <rect id="base" fill="#FFFFFF" x="0" y="0" width="615" height="40"></rect>
                <path d="M6.77416992,12.1328125 L6.77416992,31 L3.76635742,31 L3.76635742,6.16845703 L6.77416992,6.16845703 L17.6945801,26.8129883 L28.5979004,6.16845703 L31.6057129,6.16845703 L31.6057129,31 L28.5979004,31 L28.5979004,12.1328125 L18.5148926,31 L16.8742676,31 L6.77416992,12.1328125 Z M53.2756348,15.0380859 C54.7909418,16.5078198 55.548584,18.8832844 55.548584,22.1645508 C55.548584,25.4572105 54.7909418,27.8383716 53.2756348,29.3081055 C51.8172941,30.7094797 49.4987952,31.4101563 46.3200684,31.4101563 C43.1413415,31.4101563 40.8228426,30.7094797 39.364502,29.3081055 C37.8378016,27.8383716 37.0744629,25.4572105 37.0744629,22.1645508 C37.0744629,18.985824 37.7751395,16.667325 39.1765137,15.2089844 C40.6462476,13.682284 43.0274087,12.9189453 46.3200684,12.9189453 C49.4987952,12.9189453 51.8172941,13.6253185 53.2756348,15.0380859 Z M46.3200684,15.9438477 C43.8705118,15.9438477 42.2128136,16.3938757 41.3469238,17.2939453 C40.5038207,18.1712283 40.0822754,19.7947473 40.0822754,22.1645508 C40.0822754,24.602714 40.538,26.2604123 41.4494629,27.1376953 C42.3153526,27.9694052 43.9388716,28.3852539 46.3200684,28.3852539 C48.6898719,28.3852539 50.3133908,27.9694052 51.1906738,27.1376953 C52.0907434,26.2604123 52.5407715,24.602714 52.5407715,22.1645508 C52.5407715,19.7263875 52.0907434,18.0743858 51.1906738,17.2084961 C50.3133908,16.3653929 48.6898719,15.9438477 46.3200684,15.9438477 Z M65.392334,17.1743164 C64.5036577,18.0288129 64.0479331,19.6409387 64.0251465,22.0107422 L64.0251465,22.25 C64.0479331,24.6198035 64.5036577,26.2376259 65.392334,27.1035156 C66.2582237,27.9352255 67.8817427,28.3510742 70.2629395,28.3510742 C72.632743,28.3510742 74.2562619,27.9352255 75.1335449,27.1035156 C76.0336145,26.2262326 76.4836426,24.5685343 76.4836426,22.1303711 C76.4836426,19.7605676 76.0620973,18.1370487 75.2189941,17.2597656 C74.3531044,16.359696 72.7011027,15.909668 70.2629395,15.909668 C67.8817427,15.909668 66.2582237,16.3312132 65.392334,17.1743164 Z M64.0251465,6.16845703 L64.0251465,15.3457031 C65.0505422,13.7050699 67.1297858,12.8847656 70.2629395,12.8847656 C73.5442059,12.8847656 75.9196704,13.6481043 77.3894043,15.1748047 C78.7907785,16.6331453 79.4914551,18.9516443 79.4914551,22.1303711 C79.4914551,25.4230308 78.7338129,27.8041919 77.2185059,29.2739258 C75.7601652,30.6753 73.4416663,31.3759766 70.2629395,31.3759766 C67.1297858,31.3759766 64.9935767,30.4987067 63.854248,28.7441406 L63.854248,31 L61.017334,31 L61.017334,6.16845703 L64.0251465,6.16845703 Z M88.138916,13.2607422 L88.138916,31 L85.1311035,31 L85.1311035,13.2607422 L88.138916,13.2607422 Z M88.138916,6.16845703 L88.138916,9.19335938 L85.1311035,9.19335938 L85.1311035,6.16845703 L88.138916,6.16845703 Z M102.631104,31.0170898 C102.198159,31.062663 101.611413,31.0854492 100.87085,31.0854492 C99.2416097,31.0854492 98.0168498,30.9031594 97.1965332,30.5385742 C95.476147,29.6840778 94.5646978,27.6447101 94.4621582,24.4204102 L94.4621582,6.16845703 L97.4699707,6.16845703 L97.4699707,24.7792969 C97.5155438,27.3086064 98.7858762,28.5732422 101.281006,28.5732422 L101.639893,28.5732422 C102.038658,28.5732422 102.369058,28.5447594 102.631104,28.487793 L102.631104,31.0170898 Z M120.4729,30.4189453 C119.139886,31.0797559 117.242932,31.4101563 114.781982,31.4101563 C111.37539,31.4101563 108.94296,30.7094797 107.484619,29.3081055 C105.957919,27.8383716 105.19458,25.4572105 105.19458,22.1645508 C105.19458,18.985824 105.895257,16.667325 107.296631,15.2089844 C108.766365,13.682284 111.204491,12.9189453 114.611084,12.9189453 C117.903744,12.9189453 120.279208,13.6253185 121.737549,15.0380859 C123.252856,16.5078198 124.010498,18.8832844 124.010498,22.1645508 L124.010498,23.4975586 L108.219482,23.4975586 C108.287842,25.1154052 108.73787,26.328772 109.56958,27.1376953 C110.43547,27.9694052 112.17292,28.3852539 114.781982,28.3852539 C116.775807,28.3852539 118.22843,28.1630882 119.139893,27.71875 C119.948816,27.319985 120.524168,26.6477912 120.865967,25.7021484 L123.702881,26.7275391 C123.087643,28.4251387 122.010994,29.6555951 120.4729,30.4189453 Z M108.236572,20.831543 L121.002686,20.831543 C120.809,19.0997635 120.358972,17.8920933 119.652588,17.2084961 C118.775305,16.3653929 117.09482,15.9438477 114.611084,15.9438477 C112.047595,15.9438477 110.332931,16.3938757 109.467041,17.2939453 C108.80623,17.9889358 108.396078,19.1681232 108.236572,20.831543 Z M136.281006,31 L147.150146,6.16845703 L150.431396,6.16845703 L161.317627,31 L158.036377,31 L155.131104,24.3691406 L142.467529,24.3691406 L139.562256,31 L136.281006,31 Z M153.815186,21.3442383 L148.790771,9.91113281 L143.783447,21.3442383 L153.815186,21.3442383 Z M167.743408,28.7441406 L167.743408,38.0922852 L164.735596,38.0922852 L164.735596,13.2607422 L167.57251,13.2607422 L167.57251,15.8583984 C168.711838,13.8759667 170.848047,12.8847656 173.981201,12.8847656 C177.159928,12.8847656 179.478427,13.5911388 180.936768,15.0039062 C182.452075,16.4736402 183.209717,18.8491047 183.209717,22.1303711 C183.209717,25.3090979 182.50904,27.6275969 181.107666,29.0859375 C179.637932,30.6126378 177.262468,31.3759766 173.981201,31.3759766 C170.848047,31.3759766 168.768804,30.4987067 167.743408,28.7441406 Z M167.743408,22.25 C167.766195,24.6198035 168.221919,26.2376259 169.110596,27.1035156 C169.976485,27.9352255 171.600004,28.3510742 173.981201,28.3510742 C176.419364,28.3510742 178.071366,27.9010462 178.937256,27.0009766 C179.780359,26.1350868 180.201904,24.5115679 180.201904,22.1303711 C180.201904,19.6922079 179.751876,18.0402062 178.851807,17.1743164 C177.974524,16.3312132 176.351005,15.909668 173.981201,15.909668 C171.600004,15.909668 169.976485,16.3312132 169.110596,17.1743164 C168.221919,18.0288129 167.766195,19.6409387 167.743408,22.0107422 L167.743408,22.25 Z M191.686279,28.7441406 L191.686279,38.0922852 L188.678467,38.0922852 L188.678467,13.2607422 L191.515381,13.2607422 L191.515381,15.8583984 C192.654709,13.8759667 194.790919,12.8847656 197.924072,12.8847656 C201.102799,12.8847656 203.421298,13.5911388 204.879639,15.0039062 C206.394946,16.4736402 207.152588,18.8491047 207.152588,22.1303711 C207.152588,25.3090979 206.451911,27.6275969 205.050537,29.0859375 C203.580803,30.6126378 201.205339,31.3759766 197.924072,31.3759766 C194.790919,31.3759766 192.711675,30.4987067 191.686279,28.7441406 Z M191.686279,22.25 C191.709066,24.6198035 192.16479,26.2376259 193.053467,27.1035156 C193.919357,27.9352255 195.542875,28.3510742 197.924072,28.3510742 C200.362235,28.3510742 202.014237,27.9010462 202.880127,27.0009766 C203.72323,26.1350868 204.144775,24.5115679 204.144775,22.1303711 C204.144775,19.6922079 203.694747,18.0402062 202.794678,17.1743164 C201.917395,16.3312132 200.293876,15.909668 197.924072,15.909668 C195.542875,15.909668 193.919357,16.3312132 193.053467,17.1743164 C192.16479,18.0288129 191.709066,19.6409387 191.686279,22.0107422 L191.686279,22.25 Z M219.593994,6.16845703 L242.255127,6.16845703 L242.255127,9.17626953 L232.428467,9.17626953 L232.428467,31 L229.420654,31 L229.420654,9.17626953 L219.593994,9.17626953 L219.593994,6.16845703 Z M260.438721,30.4189453 C259.105706,31.0797559 257.208753,31.4101563 254.747803,31.4101563 C251.34121,31.4101563 248.90878,30.7094797 247.450439,29.3081055 C245.923739,27.8383716 245.1604,25.4572105 245.1604,22.1645508 C245.1604,18.985824 245.861077,16.667325 247.262451,15.2089844 C248.732185,13.682284 251.170312,12.9189453 254.576904,12.9189453 C257.869564,12.9189453 260.245029,13.6253185 261.703369,15.0380859 C263.218676,16.5078198 263.976318,18.8832844 263.976318,22.1645508 L263.976318,23.4975586 L248.185303,23.4975586 C248.253662,25.1154052 248.703691,26.328772 249.5354,27.1376953 C250.40129,27.9694052 252.13874,28.3852539 254.747803,28.3852539 C256.741628,28.3852539 258.19425,28.1630882 259.105713,27.71875 C259.914636,27.319985 260.489989,26.6477912 260.831787,25.7021484 L263.668701,26.7275391 C263.053464,28.4251387 261.976814,29.6555951 260.438721,30.4189453 Z M248.202393,20.831543 L260.968506,20.831543 C260.77482,19.0997635 260.324792,17.8920933 259.618408,17.2084961 C258.741125,16.3653929 257.060641,15.9438477 254.576904,15.9438477 C252.013415,15.9438477 250.298751,16.3938757 249.432861,17.2939453 C248.772051,17.9889358 248.361899,19.1681232 248.202393,20.831543 Z M271.512939,26.0268555 C271.512939,26.8357788 271.837643,27.3940414 272.487061,27.7016602 C273.444097,28.1573916 275.198636,28.3852539 277.750732,28.3852539 C280.302829,28.3852539 282.051672,28.1573916 282.997314,27.7016602 C283.646732,27.3940414 283.971436,26.8357788 283.971436,26.0268555 C283.971436,25.0470329 283.316331,24.3862322 282.006104,24.0444336 C281.23136,23.8393544 279.801524,23.7140302 277.716553,23.668457 C274.640365,23.6000973 272.526943,23.3380557 271.376221,22.8823242 C269.462149,22.118974 268.505127,20.5922966 268.505127,18.3022461 C268.505127,16.308421 269.336824,14.8785851 271.000244,14.0126953 C272.390225,13.283525 274.640365,12.9189453 277.750732,12.9189453 C280.747167,12.9189453 282.934645,13.2550422 284.313232,13.9272461 C286.090585,14.7817426 286.979248,16.2400613 286.979248,18.3022461 L283.971436,18.3022461 C283.971436,17.4933228 283.646732,16.9350601 282.997314,16.6274414 C282.051672,16.17171 280.302829,15.9438477 277.750732,15.9438477 C275.118883,15.9438477 273.330164,16.1887996 272.384521,16.6787109 C271.803464,16.9749364 271.512939,17.5161094 271.512939,18.3022461 C271.512939,19.2820687 272.168044,19.9428694 273.478271,20.284668 C274.264408,20.4897471 275.699941,20.6150714 277.784912,20.6606445 C280.849706,20.7403975 282.957432,21.0081357 284.108154,21.4638672 C286.022226,22.2158241 286.979248,23.736805 286.979248,26.0268555 C286.979248,28.0890403 286.090585,29.5530556 284.313232,30.4189453 C282.934645,31.0797559 280.747167,31.4101563 277.750732,31.4101563 C274.742905,31.4101563 272.555427,31.0797559 271.188232,30.4189453 C269.399486,29.5530556 268.505127,28.0890403 268.505127,26.0268555 L271.512939,26.0268555 Z M301.642334,31 C301.209389,31.0455731 300.622644,31.0683594 299.88208,31.0683594 C298.25284,31.0683594 297.02808,30.8860695 296.207764,30.5214844 C294.487377,29.6669879 293.575928,27.6276203 293.473389,24.4033203 L293.473389,16.2685547 L291.337158,16.2685547 L291.337158,13.2607422 L293.473389,13.2607422 L293.473389,6.16845703 L296.481201,6.16845703 L296.481201,13.2607422 L300.411865,13.2607422 L300.411865,16.2685547 L296.481201,16.2685547 L296.481201,24.762207 C296.526774,27.2915166 297.797107,28.5561523 300.292236,28.5561523 L300.651123,28.5561523 C301.049888,28.5561523 301.380288,28.5276696 301.642334,28.4707031 L301.642334,31 Z M308.5979,13.2607422 L308.5979,31 L305.590088,31 L305.590088,13.2607422 L308.5979,13.2607422 Z M308.5979,6.16845703 L308.5979,9.19335938 L305.590088,9.19335938 L305.590088,6.16845703 L308.5979,6.16845703 Z M317.074463,16.0292969 C318.213792,13.9329322 320.350001,12.8847656 323.483154,12.8847656 C326.764421,12.8847656 329.139885,13.6481043 330.609619,15.1748047 C332.010993,16.6331453 332.71167,18.9516443 332.71167,22.1303711 L332.71167,31 L329.703857,31 L329.703857,22.1303711 C329.703857,19.7605676 329.282312,18.1370487 328.439209,17.2597656 C327.573319,16.359696 325.921318,15.909668 323.483154,15.909668 C321.101957,15.909668 319.478439,16.3312132 318.612549,17.1743164 C317.723873,18.0288129 317.268148,19.6409387 317.245361,22.0107422 L317.245361,31 L314.237549,31 L314.237549,13.2607422 L317.074463,13.2607422 L317.074463,16.0292969 Z M353.817627,15.5336914 L353.817627,13.2607422 L356.654541,13.2607422 L356.654541,30.675293 C356.654541,33.9679527 355.896899,36.3491137 354.381592,37.8188477 C352.923251,39.2202219 350.604752,39.9208984 347.426025,39.9208984 C344.862536,39.9208984 342.874437,39.4765669 341.46167,38.5878906 C339.878003,37.5966747 338.869712,35.9902455 338.436768,33.7685547 L341.393311,33.2045898 C341.655356,34.5603909 342.213619,35.5060195 343.068115,36.0415039 C343.979578,36.6225615 345.4322,36.9130859 347.426025,36.9130859 C349.795829,36.9130859 351.419348,36.4915407 352.296631,35.6484375 C353.1967,34.7711545 353.646729,33.1134562 353.646729,30.675293 L353.646729,28.9150391 C352.632726,30.5556723 350.559179,31.3759766 347.426025,31.3759766 C344.247299,31.3759766 341.9288,30.6753 340.470459,29.2739258 C338.943759,27.8041919 338.18042,25.4230308 338.18042,22.1303711 C338.18042,18.9516443 338.881097,16.6331453 340.282471,15.1748047 C341.752205,13.6481043 344.133366,12.8847656 347.426025,12.8847656 C350.559179,12.8847656 352.689692,13.7677321 353.817627,15.5336914 Z M347.426025,15.909668 C344.976469,15.909668 343.318771,16.359696 342.452881,17.2597656 C341.609778,18.1370487 341.188232,19.7605676 341.188232,22.1303711 C341.188232,24.5685343 341.643957,26.2262326 342.55542,27.1035156 C343.42131,27.9352255 345.044829,28.3510742 347.426025,28.3510742 C349.795829,28.3510742 351.419348,27.9352255 352.296631,27.1035156 C353.1967,26.2262326 353.646729,24.5685343 353.646729,22.1303711 C353.646729,19.6922079 353.1967,18.0402062 352.296631,17.1743164 C351.419348,16.3312132 349.795829,15.909668 347.426025,15.909668 Z M388.663818,9.19335938 L374.325439,9.19335938 L374.325439,17.0717773 L387.638428,17.0717773 L387.638428,20.0966797 L374.325439,20.0966797 L374.325439,31 L371.317627,31 L371.317627,6.16845703 L388.663818,6.16845703 L388.663818,9.19335938 Z M394.987061,15.8583984 C396.126389,13.8759667 398.262598,12.8847656 401.395752,12.8847656 C404.563085,12.8847656 406.881584,13.6481043 408.351318,15.1748047 C409.752693,16.6331453 410.453369,18.9516443 410.453369,22.1303711 L407.445557,22.1303711 C407.445557,19.7605676 407.024011,18.1370487 406.180908,17.2597656 C405.315018,16.359696 403.719982,15.909668 401.395752,15.909668 C399.014555,15.909668 397.391036,16.3312132 396.525146,17.1743164 C395.63647,18.0288129 395.180746,19.6409387 395.157959,22.0107422 L395.157959,31 L392.150146,31 L392.150146,13.2607422 L394.987061,13.2607422 L394.987061,15.8583984 Z M429.593994,29.034668 C428.477452,30.5955482 426.34694,31.3759766 423.202393,31.3759766 C420.171778,31.3759766 417.961514,31.0000038 416.571533,30.2480469 C414.82836,29.3137974 413.956787,27.7472441 413.956787,25.5483398 C413.956787,23.0304236 415.073312,21.389815 417.306396,20.6264648 C418.719164,20.2504864 421.117415,20.0625 424.501221,20.0625 C427.007744,20.0625 428.648352,19.9770516 429.423096,19.8061523 L429.423096,18.8491211 C429.411702,17.8009388 429.064212,17.0831725 428.380615,16.6958008 C427.446366,16.1717096 425.720309,15.909668 423.202393,15.909668 C421.208568,15.909668 419.750249,16.1033509 418.827393,16.4907227 C418.109616,16.7869481 417.579836,17.3110314 417.238037,18.0629883 L414.486572,16.8325195 C415.158776,15.3627856 416.218336,14.3260121 417.665283,13.722168 C418.975511,13.1638969 420.821196,12.8847656 423.202393,12.8847656 C426.233007,12.8847656 428.448968,13.2778281 429.850342,14.0639648 C431.445402,14.9640344 432.299885,16.3938704 432.413818,18.3535156 L432.430908,18.3535156 L432.430908,31 L429.593994,31 L429.593994,29.034668 Z M429.423096,22.3525391 C428.443273,22.4778652 426.791271,22.5405273 424.467041,22.5405273 C422.31371,22.5405273 420.610439,22.6430654 419.357178,22.8481445 C417.762118,23.2469095 416.9646,24.1469656 416.9646,25.5483398 C416.9646,26.550949 417.306393,27.2345359 417.98999,27.5991211 C418.935633,28.1004257 420.673083,28.3510742 423.202393,28.3510742 C425.731702,28.3510742 427.463456,28.1004257 428.397705,27.5991211 C429.069909,27.2459292 429.411702,26.5851285 429.423096,25.6166992 L429.423096,22.3525391 Z M440.736572,15.6020508 C441.784755,13.7905183 443.698798,12.8847656 446.47876,12.8847656 C449.554947,12.8847656 451.708246,14.1835808 452.938721,16.78125 C454.100836,14.2975136 456.32819,12.9986985 459.62085,12.8847656 C462.571711,12.8847656 464.70792,13.6765871 466.029541,15.2602539 C467.248623,16.7072012 467.858154,18.9972174 467.858154,22.1303711 L467.858154,31 L464.833252,31 L464.833252,22.1303711 C464.833252,19.7149944 464.462976,18.0686893 463.722412,17.1914062 C463.016028,16.3369098 461.648855,15.909668 459.62085,15.909668 C457.638418,15.909668 456.288334,16.3027304 455.570557,17.0888672 C454.78442,17.9661502 454.391357,19.6466347 454.391357,22.1303711 L454.391357,31 L451.366455,31 L451.366455,22.1303711 C451.366455,19.7149944 450.996179,18.0686893 450.255615,17.1914062 C449.537838,16.3369098 448.164968,15.909668 446.136963,15.909668 C444.165924,15.909668 442.821537,16.3027304 442.10376,17.0888672 C441.317623,17.9547569 440.918864,19.5953655 440.907471,22.0107422 L440.907471,31 L437.899658,31 L437.899658,13.2607422 L440.736572,13.2607422 L440.736572,15.6020508 Z M488.263428,30.4189453 C486.930413,31.0797559 485.03346,31.4101563 482.57251,31.4101563 C479.165917,31.4101563 476.733487,30.7094797 475.275146,29.3081055 C473.748446,27.8383716 472.985107,25.4572105 472.985107,22.1645508 C472.985107,18.985824 473.685784,16.667325 475.087158,15.2089844 C476.556892,13.682284 478.995019,12.9189453 482.401611,12.9189453 C485.694271,12.9189453 488.069736,13.6253185 489.528076,15.0380859 C491.043383,16.5078198 491.801025,18.8832844 491.801025,22.1645508 L491.801025,23.4975586 L476.01001,23.4975586 C476.078369,25.1154052 476.528398,26.328772 477.360107,27.1376953 C478.225997,27.9694052 479.963447,28.3852539 482.57251,28.3852539 C484.566335,28.3852539 486.018957,28.1630882 486.93042,27.71875 C487.739343,27.319985 488.314696,26.6477912 488.656494,25.7021484 L491.493408,26.7275391 C490.878171,28.4251387 489.801521,29.6555951 488.263428,30.4189453 Z M476.0271,20.831543 L488.793213,20.831543 C488.599527,19.0997635 488.149499,17.8920933 487.443115,17.2084961 C486.565832,16.3653929 484.885348,15.9438477 482.401611,15.9438477 C479.838122,15.9438477 478.123458,16.3938757 477.257568,17.2939453 C476.596758,17.9889358 476.186606,19.1681232 476.0271,20.831543 Z M498.072998,13.2607422 L502.823975,26.5395508 L507.592041,13.2607422 L510.787842,13.2607422 L515.538818,26.5566406 L520.306885,13.2607422 L523.502686,13.2607422 L517.145264,31 L513.949463,31 L509.181396,17.7211914 L504.43042,31 L501.234619,31 L494.877197,13.2607422 L498.072998,13.2607422 Z M543.121826,15.0380859 C544.637133,16.5078198 545.394775,18.8832844 545.394775,22.1645508 C545.394775,25.4572105 544.637133,27.8383716 543.121826,29.3081055 C541.663486,30.7094797 539.344987,31.4101563 536.16626,31.4101563 C532.987533,31.4101563 530.669034,30.7094797 529.210693,29.3081055 C527.683993,27.8383716 526.920654,25.4572105 526.920654,22.1645508 C526.920654,18.985824 527.621331,16.667325 529.022705,15.2089844 C530.492439,13.682284 532.8736,12.9189453 536.16626,12.9189453 C539.344987,12.9189453 541.663486,13.6253185 543.121826,15.0380859 Z M536.16626,15.9438477 C533.716703,15.9438477 532.059005,16.3938757 531.193115,17.2939453 C530.350012,18.1712283 529.928467,19.7947473 529.928467,22.1645508 C529.928467,24.602714 530.384191,26.2604123 531.295654,27.1376953 C532.161544,27.9694052 533.785063,28.3852539 536.16626,28.3852539 C538.536063,28.3852539 540.159582,27.9694052 541.036865,27.1376953 C541.936935,26.2604123 542.386963,24.602714 542.386963,22.1645508 C542.386963,19.7263875 541.936935,18.0743858 541.036865,17.2084961 C540.159582,16.3653929 538.536063,15.9438477 536.16626,15.9438477 Z M553.700439,15.8583984 C554.839768,13.8759667 556.975977,12.8847656 560.109131,12.8847656 C563.276464,12.8847656 565.594963,13.6481043 567.064697,15.1748047 C568.466071,16.6331453 569.166748,18.9516443 569.166748,22.1303711 L566.158936,22.1303711 C566.158936,19.7605676 565.73739,18.1370487 564.894287,17.2597656 C564.028397,16.359696 562.433361,15.909668 560.109131,15.909668 C557.727934,15.909668 556.104415,16.3312132 555.238525,17.1743164 C554.349849,18.0288129 553.894124,19.6409387 553.871338,22.0107422 L553.871338,31 L550.863525,31 L550.863525,13.2607422 L553.700439,13.2607422 L553.700439,15.8583984 Z M585.983154,31 L578.463623,22.6430664 L575.677979,24.9331055 L575.677979,31 L572.670166,31 L572.670166,6.16845703 L575.677979,6.16845703 L575.677979,21.0366211 L585.128662,13.277832 L589.845459,13.277832 L580.804932,20.7290039 L590.033447,31 L585.983154,31 Z M595.365479,26.0268555 C595.365479,26.8357788 595.690182,27.3940414 596.3396,27.7016602 C597.296636,28.1573916 599.051175,28.3852539 601.603271,28.3852539 C604.155368,28.3852539 605.904211,28.1573916 606.849854,27.7016602 C607.499271,27.3940414 607.823975,26.8357788 607.823975,26.0268555 C607.823975,25.0470329 607.16887,24.3862322 605.858643,24.0444336 C605.083899,23.8393544 603.654063,23.7140302 601.569092,23.668457 C598.492905,23.6000973 596.379482,23.3380557 595.22876,22.8823242 C593.314688,22.118974 592.357666,20.5922966 592.357666,18.3022461 C592.357666,16.308421 593.189363,14.8785851 594.852783,14.0126953 C596.242764,13.283525 598.492904,12.9189453 601.603271,12.9189453 C604.599706,12.9189453 606.787184,13.2550422 608.165771,13.9272461 C609.943124,14.7817426 610.831787,16.2400613 610.831787,18.3022461 L607.823975,18.3022461 C607.823975,17.4933228 607.499271,16.9350601 606.849854,16.6274414 C605.904211,16.17171 604.155368,15.9438477 601.603271,15.9438477 C598.971422,15.9438477 597.182703,16.1887996 596.237061,16.6787109 C595.656003,16.9749364 595.365479,17.5161094 595.365479,18.3022461 C595.365479,19.2820687 596.020583,19.9428694 597.330811,20.284668 C598.116947,20.4897471 599.55248,20.6150714 601.637451,20.6606445 C604.702245,20.7403975 606.809971,21.0081357 607.960693,21.4638672 C609.874765,22.2158241 610.831787,23.736805 610.831787,26.0268555 C610.831787,28.0890403 609.943124,29.5530556 608.165771,30.4189453 C606.787184,31.0797559 604.599706,31.4101563 601.603271,31.4101563 C598.595444,31.4101563 596.407966,31.0797559 595.040771,30.4189453 C593.252026,29.5530556 592.357666,28.0890403 592.357666,26.0268555 L595.365479,26.0268555 Z" id="Mobile-App-Testing-F" fill="#000000"></path>
            </g>
        </g>
    </g>
</svg>