<?xml version="1.0" encoding="UTF-8"?>
<svg width="1920px" height="1080px" viewBox="0 0 1920 1080" version="1.1" xmlns="http://www.w3.org/2000/svg" xmlns:xlink="http://www.w3.org/1999/xlink">
    <!-- Generator: Sketch 42 (36781) - http://www.bohemiancoding.com/sketch -->
    <title>Objective-C</title>
    <desc>Created with Sketch.</desc>
    <defs></defs>
    <g id="8" stroke="none" stroke-width="1" fill="none" fill-rule="evenodd">
        <g id="8_01">
            <g id="Objective-C">
                <rect id="Rectangle" fill="#FFFFFF" x="0" y="0" width="1920" height="1080"></rect>
                <g id="iphone" transform="translate(859.000000, 303.000000)">
                    <path d="M11.2593071,9.69191919 L23.9667874,2.85479798 C27.4193858,0.695707071 31.7591102,-0.268686869 36.5160236,0.0671717172 C40.942063,0.355050505 45.7517244,1.70328283 50.8538976,4.30378788 L170.855669,65.6363636 C179.611843,70.1128788 187.502469,77.4777778 193.129724,85.7638889 C198.908031,94.1363636 202.466126,103.569192 202.516476,111.994444 L202.612382,446.013005 C202.612382,450.345581 201.600579,454.049621 199.869484,457.084343 C197.982993,460.400681 195.153857,463.081108 191.741492,464.785101 L178.415421,471.914899 C178.074957,472.106818 177.691335,472.346717 177.307713,472.490657 L176.828185,472.778535 L176.780232,472.730556 C173.653713,474.169949 169.946965,474.800884 165.906945,474.462626 C161.576811,474.174747 156.810307,472.776136 151.808835,470.228409 L31.807063,408.895833 C23.0508898,404.416919 15.1578661,397.05202 9.5282126,388.816288 C3.70435039,380.393434 0.191811024,370.955808 0.143858268,362.535354 L0,28.2313131 C0,25.2925505 0.479527559,22.6464646 1.29472441,20.3386364 C2.10981938,17.9147674 3.44074425,15.6966725 5.1956811,13.8373737 C7.12098425,11.8630051 8.42050394,11.1888889 10.3458071,10.1765152 C10.5855709,10.0325758 10.8253346,9.88863636 11.2569094,9.69671717 L11.2593071,9.69191919 Z M27.5224843,8.97222222 L14.7214961,15.8573232 C14.4337795,16.0012626 14.0981102,16.1931818 13.7144882,16.385101 C12.4629213,17.0568182 11.5949764,17.4934343 10.4896654,18.6473485 C9.4178942,19.7717627 8.61098163,21.121747 8.12799213,22.5984848 C7.55255906,24.229798 7.21688976,26.1082071 7.21688976,28.2265152 L7.36074803,362.535354 C7.36074803,369.516414 10.4417126,377.60101 15.4959331,384.874747 C20.5477559,392.239646 27.4769291,398.740909 35.1277913,402.687247 L155.177516,464.022222 C159.219933,466.085354 163.017791,467.198485 166.43922,467.483965 C169.709598,467.728662 172.548402,467.148106 174.759024,465.852652 L176.348657,464.936237 L176.444563,464.984217 L188.327256,458.578914 L188.423161,458.578914 C190.56295,457.474026 192.347969,455.787778 193.573287,453.713763 C194.772106,451.645833 195.44824,449.093308 195.44824,446.013005 L195.304382,111.996843 C195.304382,105.015783 192.225815,96.9791667 187.171594,89.6622475 C182.122169,82.2925505 175.192996,75.7960859 167.542134,71.8449495 L47.4900118,10.5123737 C43.3972441,8.39646465 39.505878,7.28813131 36.0364961,7.04583333 C32.7661181,6.85391414 29.927315,7.47765152 27.7166929,8.82828283 L27.5248819,8.97222222 L27.5224843,8.97222222 Z" id="Shape" fill="#B2B3B3"></path>
                    <path d="M19.1499331,354.014141 L18.9101693,29.6227273 L15.1530709,23.6588384 L18.8622165,21.0151515 L10.5855709,14.1300505 L25.935248,5.90151515 C31.5145512,2.38219697 39.9854055,2.62209596 49.3170118,7.43686869 L169.366736,68.7694444 C185.862484,77.194697 199.049492,96.6457071 199.049492,112.00404 L199.19335,446.020202 C199.19335,453.768939 195.443445,459.065909 190.245366,461.661616 L176.770642,468.882576 L169.457846,465.564773 L163.247965,455.692929 L48.8806417,397.248737 C32.3753031,388.823485 19.1906929,369.372475 19.1427402,354.018939 L19.1499331,354.014141 Z" id="Shape" fill="#EBECEC"></path>
                    <path d="M18.4282441,354.014141 L18.1884803,29.8146465 L14.529685,24.0426768 L14.1940157,23.510101 L14.7214961,23.1262626 L17.7065551,20.9599747 L10.1060433,14.6506313 L9.33879921,14.0268939 L10.2499016,13.4991162 L25.5947835,5.26338384 C28.5342874,3.43535354 32.2841929,2.56931818 36.5208189,2.85719697 C40.5128858,3.10429293 44.9892756,4.40454545 49.6550787,6.81073232 L169.704803,68.1433081 C178.029402,72.3823232 185.486055,79.4089646 190.923898,87.3064394 C196.409693,95.2998737 199.778374,104.156944 199.778374,112.006439 L199.922232,446.022601 C199.922232,449.822601 199.01113,453.099621 197.517402,455.745707 C195.903024,458.564188 193.492406,460.842631 190.588228,462.294949 L177.113504,469.467929 L176.825787,469.659848 L176.490118,469.515909 L169.12937,466.195707 L168.841654,465.907828 L162.727677,456.227904 L48.5521654,397.879672 C40.2251693,393.595076 32.7181654,386.609217 27.2851181,378.711742 C21.8424803,370.723106 18.4761969,361.866035 18.4282441,354.021338 L18.4282441,354.014141 Z M19.6318583,29.6227273 L19.871622,354.014141 C19.871622,361.57096 23.1923504,370.188131 28.483937,377.939268 C33.7779213,385.647222 41.0907165,392.484343 49.2235039,396.627399 L163.590827,455.071591 L163.883339,455.35947 L169.944567,464.989015 L176.777835,468.071717 L189.912094,461.090657 L189.912094,461.042677 C192.568959,459.719291 194.778448,457.643704 196.265835,455.07399 C197.66126,452.622222 198.478854,449.585101 198.478854,446.025 L198.334996,112.006439 C198.334996,104.449621 195.067016,95.8300505 189.727476,88.0789141 C184.433492,80.3781566 177.120697,73.5410354 169.035862,69.4027778 L48.9837402,8.05580808 C44.5121457,5.74558081 40.2323622,4.49330808 36.427311,4.25340909 C32.4855945,4.0135101 29.0713583,4.78118687 26.3284606,6.47007576 L26.2805079,6.47007576 L11.8467283,14.2667929 L19.3033819,20.4801768 L20.0226732,21.0559343 L19.3033819,21.5837121 L16.1289094,23.8483586 L19.5455433,29.2940657 L19.6414488,29.6299242 L19.6318583,29.6227273 Z" id="Shape" fill="#B2B3B3"></path>
                    <path d="M3.80025591,28.2289141 C3.75230315,23.3181818 5.1956811,19.4198232 7.6508622,16.627399 C12.8537362,10.7090909 22.8590787,9.93421717 34.0728307,15.667803 L154.122555,77.0027778 C170.625496,85.4280303 183.805311,104.92702 183.805311,120.232576 L183.949169,454.543813 C183.949169,469.897348 170.138776,475.578157 153.638232,467.155303 L33.6364606,405.772348 C17.1335197,397.344697 3.95370472,377.900884 3.90575197,362.542551 L3.80025591,28.2289141 Z" id="Shape" fill="#FEFEFE"></path>
                    <path d="M3.2224252,362.535354 L3.07856693,28.2289141 C3.07856693,25.7747475 3.41423622,23.510101 4.09516535,21.5357323 C4.72041952,19.5693747 5.74025303,17.7514146 7.0922126,16.1931818 C9.89025591,13.0145202 14.0022047,11.2344697 18.879,11.0905303 C23.5184291,10.8986111 28.8819449,12.1508838 34.5355748,15.0368687 L155.11278,76.3718434 C163.47574,80.6564394 170.965961,87.6854798 176.42778,95.5325758 C181.937551,103.52601 185.323016,112.383081 185.323016,120.230177 L185.466874,454.539015 C185.466874,458.197475 184.692437,461.328157 183.340169,463.880682 C181.937551,466.430808 179.9595,468.402778 177.489933,469.705429 C175.027559,471.056061 172.078465,471.727778 168.791303,471.727778 C164.343685,471.727778 159.320634,470.475505 153.949925,467.735859 L33.4302638,406.388889 C25.0720984,402.149874 17.5339252,395.120833 12.1200591,387.225758 C6.60549213,379.285101 3.22482283,370.377652 3.22482283,362.532955 L3.2224252,362.535354 Z M4.48358268,28.2313131 L4.62744094,362.540152 C4.6753937,370.101768 7.96015748,378.709343 13.2757205,386.462879 C18.5936811,394.170833 25.935248,401.005556 34.1063976,405.143813 L154.63565,466.529167 C159.759402,469.129672 164.590642,470.329167 168.793701,470.329167 C171.838701,470.329167 174.500079,469.705429 176.770642,468.505934 C179.016686,467.308256 180.851109,465.462769 182.035854,463.208965 C183.342567,460.848359 184.018701,457.955177 184.018701,454.548611 L183.874843,120.237374 C183.874843,112.680556 180.585283,104.106566 175.21937,96.3578283 C169.906205,88.6522727 162.559843,81.7671717 154.441441,77.6289141 L33.8642362,16.2891414 C28.4527677,13.544697 23.3290157,12.2924242 18.931748,12.4867424 C14.4865276,12.6306818 10.7653937,14.2188131 8.2023189,17.107197 C6.99870472,18.4602273 6.08040945,20.0987374 5.45222835,21.9771465 C4.82404724,23.8051768 4.48598031,25.9234848 4.48598031,28.2385101 L4.48358268,28.2313131 Z" id="Shape" fill="#B2B3B3"></path>
                    <path d="M93.8675197,386.709975 C101.765339,389.228914 108.169429,398.767298 108.169429,408.029798 C108.169429,417.289899 101.767736,422.752399 93.865122,420.240657 C85.9577126,417.721717 79.5512244,408.178535 79.5512244,398.925631 C79.5512244,389.658333 85.9529173,384.188636 93.8603268,386.705177 L93.8675197,386.709975 Z" id="Shape" fill="#B2B3B3"></path>
                    <path d="M125.823236,184.789394 C125.679378,184.453535 124.041791,182.767045 123.370453,181.94899 C121.107083,179.156566 118.894063,175.831566 117.352382,172.561742 C115.189713,168.039646 113.504173,163.032955 113.168504,157.304167 C112.784882,151.426641 113.887795,147.242803 115.911402,144.157702 C117.692846,141.466035 120.577205,139.393308 123.416008,138.769571 C122.93648,137.181439 120.337441,132.848864 119.328035,131.308712 C117.712279,128.939487 115.873708,126.73035 113.837445,124.71149 C109.363453,120.234975 104.021516,116.914773 99.0679961,115.998359 C96.804626,115.56654 94.7354646,115.56654 92.6663031,115.470581 C90.5084291,115.374621 88.3361693,115.518561 85.6412244,113.352273 C81.2631378,109.739394 77.369374,104.636742 72.2624055,101.942677 C66.9252638,99.1478535 62.5447795,99.1958333 59.0753976,100.256187 C55.7139094,101.215783 52.9230591,103.962626 51.0912638,107.333207 C46.7155748,115.513763 47.1975,128.804167 49.9403976,141.753914 C52.6329449,154.51654 56.8695709,164.911364 61.8254882,174.831187 C62.4968268,176.126641 63.1681654,177.381313 63.8442992,178.535227 C64.467685,179.638763 65.3356299,181.037374 66.1508268,182.143308 C67.7404606,184.359975 69.7137165,186.86452 72.3607087,188.308712 C79.3378346,192.108712 83.8118268,186.86452 93.6757087,195.145833 C95.9366811,197.021843 97.7636811,199.284091 99.9335433,201.208081 C104.258882,205.065657 108.253346,206.365909 111.717933,204.823359 C115.038661,203.283207 118.167579,199.480808 120.428551,196.354924 C121.53626,194.857955 122.593618,193.125884 123.461563,191.245076 C124.084949,189.997601 125.818441,186.483081 125.818441,184.796591 L125.823236,184.789394 Z M86.8016811,107.757828 C95.0735315,112.191162 102.055453,108.434343 104.748,101.117424 C105.850913,98.085101 106.239331,95.4366162 106.04752,91.1040404 C101.95715,89.1296717 97.8667795,89.6118687 94.8841181,90.7681818 C91.9014567,91.8237374 89.5925315,94.6185606 88.1467559,97.9411616 C86.9958898,100.539268 86.5115669,103.71553 86.8040787,107.760227 L86.8016811,107.757828 Z" id="Shape" fill="#99999D"></path>
                    <path d="M129.333378,339.761742 L129.285425,329.172601 C129.045661,318.333965 130.827106,311.64798 123.84998,300.432702 C118.654299,292.10101 107.778614,287.861995 99.6002717,283.723737 C94.1192717,280.979293 75.7869331,271.445707 71.6917677,270.001515 C63.4678701,267.069949 57.3059409,271.978283 57.9844724,279.918939 C57.4569921,280.542677 57.3610866,321.224747 57.7447087,325.367803 C57.6488031,335.815404 63.614126,345.970328 72.0825827,351.315278 C76.9905472,354.347601 96.6224055,363.974747 102.97135,367.158207 C114.520772,373.028535 121.401992,377.217172 126.741531,370.811869 C128.664437,368.456061 129.29022,362.967172 129.482031,356.945707 L129.482031,348.861111 C129.386126,345.492929 129.29022,342.263889 129.338173,339.761742 L129.333378,339.761742 Z M118.460091,360.033207 C117.40513,358.392298 114.851646,350.065404 106.817161,349.971843 C102.060248,349.919066 99.7920827,350.83548 92.8149567,346.889141 C85.8857835,342.990783 78.9638031,336.148864 73.8160748,329.026263 C72.1305354,326.716035 70.4473937,323.724495 69.147874,322.141162 C68.3806299,319.876515 65.824748,316.700253 65.5346339,314.296465 C67.4119843,316.508333 70.4449961,320.457071 72.7994764,322.289899 C75.2546575,326.094697 88.8708425,335.090909 95.4163937,333.02298 C94.9848189,331.967424 93.8771102,330.662374 93.2992795,329.841919 C92.7238465,329.026263 92.819752,329.170202 92.2395236,328.258586 L88.827685,323.009596 C88.0604409,321.853283 87.3819094,320.555429 86.564315,319.782955 C85.9409291,318.137247 84.1115315,315.200884 83.1476811,313.473611 C82.380437,312.178157 81.996815,311.794318 81.3206811,310.438889 C80.6013898,309.042677 80.5054843,308.704419 79.5392362,307.552904 C79.1076614,306.058333 71.4591969,291.755556 70.4953465,289.738005 L70.974874,289.785985 C71.9890748,292.141793 83.2507795,307.886364 85.2168425,309.86553 C85.5525118,310.964268 90.8033386,317.278409 91.4746772,317.897348 C90.8033386,315.973359 89.9833465,315.443182 89.0674488,313.521591 C88.5399685,312.461237 88.5399685,312.506818 87.8686299,311.405682 C86.9527323,309.812753 87.3843071,309.959091 86.6146654,309.284975 C85.511752,306.590909 83.7758622,303.551389 82.3348819,300.811742 C81.5148898,299.180429 80.9874094,298.019318 80.2657205,296.618308 C79.5707983,295.250155 78.8969821,293.871372 78.2445118,292.482449 C77.7649843,291.422096 77.6690787,291.182197 77.2375039,290.078662 C78.4363228,291.422096 78.7719921,292.573611 80.0259567,293.97702 C80.8891063,295.99697 84.8356181,301.773737 86.4756024,304.275884 C86.8592244,304.856439 88.4464606,307.118687 88.9259882,307.598485 C90.5635748,310.347727 100.715173,324.410606 103.120004,326.478535 C104.56578,323.345455 104.805543,319.017677 104.275665,314.435606 C103.987949,311.604798 102.491823,304.671717 101.340957,302.452652 C100.904587,300.821338 99.1734921,296.488763 98.4997559,295.716288 C98.7395197,294.991793 98.3079449,294.564773 100.66722,297.832197 C106.390382,305.676894 108.891118,310.443687 112.355705,319.591035 C112.739327,320.603409 112.78728,320.701768 113.218854,321.414268 C113.266807,323.009596 114.760535,326.764015 115.194508,332.058586 C115.721988,337.883333 114.619075,340.191162 114.619075,340.966035 C114.571122,342.885227 114.379311,341.397854 114.954744,342.26149 L116.54198,346.205429 C117.069461,347.556061 117.596941,349.14899 118.033311,350.782702 C118.752602,353.529545 119.428736,358.195581 118.464886,360.028409 L118.460091,360.033207 Z" id="Shape" fill="#F05138"></path>
                    <path d="M40.5128858,226.481439 L48.4970197,230.526136 L48.4970197,227.592172 L43.5458976,225.085227 L43.5458976,205.202399 L48.4994173,207.704545 L48.4994173,204.768182 L40.5152835,200.725884 L40.5152835,226.488636 L40.5128858,226.481439 Z M129.961559,271.829545 L137.89774,275.876641 L137.89774,250.118687 L129.961559,246.076389 L129.961559,249.012753 L134.915079,251.507702 L134.915079,271.395328 L129.961559,268.890783 L129.961559,271.824747 L129.961559,271.829545 Z M58.655811,233.992677 C64.2351142,236.833081 68.2775315,233.800758 68.2775315,227.635354 L68.2775315,227.587374 C68.2775315,221.426768 64.2830669,214.400126 58.7013661,211.557323 C53.1196654,208.716919 49.077248,211.701263 49.077248,217.914646 L49.077248,217.962626 C49.077248,224.123232 53.0669173,231.152273 58.6486181,233.992677 L58.655811,233.992677 Z M58.6989685,229.609722 C55.4789409,227.978409 53.2155709,223.741793 53.2155709,220.037753 L53.2155709,219.941793 C53.2155709,216.232955 55.4285906,214.304167 58.6534134,215.942677 C61.8302835,217.578788 64.136811,221.820202 64.136811,225.521843 L64.136811,225.617803 C64.136811,229.326641 61.8782362,231.255429 58.6989685,229.61452 L58.6989685,229.609722 Z M70.7782677,239.776641 L79.3426299,244.104419 C83.433,246.179545 86.1279449,245.553409 86.1279449,241.604672 L86.1279449,241.556692 C86.1279449,238.620328 84.8260276,236.504419 82.7592638,234.479672 C84.0611811,234.287753 85.1161417,233.472096 85.1161417,231.01553 L85.1161417,230.919571 C85.1161417,229.47298 84.6845669,228.028788 83.8645748,226.632576 C82.8575669,224.850126 81.2199803,223.357955 79.1508189,222.297601 L70.7782677,218.063384 L70.7782677,239.77904 L70.7782677,239.776641 Z M81.1720276,229.806439 C81.1720276,231.399369 80.0643189,231.543308 78.2852717,230.629293 L74.6336693,228.798864 L74.6336693,224.178409 L78.5777835,226.200758 C80.2657205,227.016414 81.1768228,228.316667 81.1768228,229.760859 L81.1768228,229.808838 L81.1720276,229.806439 Z M82.1790354,238.956187 L82.1790354,239.004167 C82.1790354,240.594697 81.1240748,240.834596 79.3426299,239.920581 L74.628874,237.559975 L74.628874,232.747601 L79.2467244,235.108207 C81.2679331,236.115783 82.1814331,237.466414 82.1814331,238.958586 L82.1790354,238.956187 Z M92.4792874,251.090278 C94.4069882,252.049874 96.0445748,252.198611 97.1546811,251.426136 C98.2575945,250.706439 98.8809803,249.070328 98.8809803,246.517803 L98.8809803,232.267803 L94.7930079,230.245455 L94.7930079,244.207576 C94.7930079,246.707323 93.8819055,247.335859 92.3378268,246.565783 C91.0910551,245.937247 90.079252,244.639394 89.0698465,242.713005 L86.5667126,244.831313 C87.7703268,247.191919 89.6476772,249.646086 92.488878,251.092677 L92.4792874,251.090278 Z M101.000492,247.719697 L108.936673,251.759596 L108.936673,247.235101 L101.000492,243.195202 L101.000492,247.717298 L101.000492,247.719697 Z M119.812358,264.999621 C123.324898,266.78447 125.391661,266.304672 127.221059,264.855682 L124.717925,260.525505 C123.274547,261.34596 122.025378,261.725 119.953819,260.669444 C116.822504,259.081313 114.702992,254.892677 114.702992,251.188636 L114.702992,251.092677 C114.702992,247.383838 116.872854,245.455051 119.949024,246.997601 C121.728071,247.909217 123.171449,249.593308 124.566874,251.809975 L127.06761,249.593308 C125.432421,246.755303 123.36326,244.33952 119.946626,242.612247 C114.412878,239.774242 110.516717,242.900126 110.516717,249.06553 L110.516717,249.11351 C110.516717,255.370076 114.460831,262.300758 119.80037,264.994823 L119.812358,264.999621 Z" id="Shape" fill="#99999D"></path>
                </g>
            </g>
        </g>
    </g>
</svg>