<?xml version="1.0" encoding="UTF-8"?>
<svg width="1920px" height="1080px" viewBox="0 0 1920 1080" version="1.1" xmlns="http://www.w3.org/2000/svg" xmlns:xlink="http://www.w3.org/1999/xlink">
    <!-- Generator: Sketch 42 (36781) - http://www.bohemiancoding.com/sketch -->
    <title>iOS Development: XCode</title>
    <desc>Created with Sketch.</desc>
    <defs>
        <linearGradient x1="43.1866165%" y1="0%" x2="58.1443005%" y2="100%" id="linearGradient-1">
            <stop stop-color="#4AC7FF" offset="0%"></stop>
            <stop stop-color="#2496FF" offset="100%"></stop>
        </linearGradient>
        <polygon id="path-2" points="6 24.75 120 6.75 135 97.5 19.5 116.25"></polygon>
        <mask id="mask-3" maskContentUnits="userSpaceOnUse" maskUnits="objectBoundingBox" x="0" y="0" width="129" height="109.5" fill="white">
            <use xlink:href="#path-2"></use>
        </mask>
        <linearGradient x1="65.9870546%" y1="0%" x2="39.7285117%" y2="100%" id="linearGradient-4">
            <stop stop-color="#E9E9E9" offset="0%"></stop>
            <stop stop-color="#8B8B8B" offset="100%"></stop>
        </linearGradient>
    </defs>
    <g id="8" stroke="none" stroke-width="1" fill="none" fill-rule="evenodd">
        <g id="8_02">
            <g id="iOS-Development:-XCode">
                <rect id="Rectangle" fill="#FFFFFF" x="0" y="0" width="1920" height="1080"></rect>
                <g id="Group-6" transform="translate(749.000000, 266.000000)">
                    <g id="window">
                        <path d="M12.9154451,12.84825 L23.9273901,6.75975 C30.3351429,2.55 40.0223077,2.37 50.7948626,7.275 L385.006698,159.519 C403.995214,168.16575 419.139544,189.50025 419.139544,206.832 L419.232511,503.4045 C419.232511,526.6515 407.930044,533.2125 401.661742,539.346 C395.68861,546.411 384.19556,547.905 371.191797,541.98525 L37.3588022,389.4825 C18.4167692,380.83575 3.22595604,359.54175 3.22595604,342.165 L3.18412088,37.1685 L3.18412088,30.27 C3.18412088,21.8325 6.88420879,15.83175 12.9154451,12.84825 L12.9154451,12.84825 Z" id="Shape" fill="#EBECEC"></path>
                        <path d="M9.25951648,11.5725 L9.25951648,11.5275 L9.92190659,11.145 C10.2984231,10.9335 10.7725549,10.677 11.2002033,10.46325 L11.2466868,10.42275 L22.2632802,4.32525 L22.2632802,4.37025 C26.0633077,1.8975 30.7651154,0.66675 36.0316978,0.75 C41.0170549,0.8355 46.5253516,2.1135 52.2219066,4.755 L386.426769,156.95625 C396.397484,161.5125 405.322319,169.30425 411.776555,178.25025 C418.284247,187.27725 422.316692,197.5395 422.316692,206.82525 L422.409659,503.39775 C422.409659,524.72775 413.387209,532.81875 406.651747,538.824 C405.698835,539.6745 404.843538,540.444 404.178824,541.1235 C400.571703,545.34225 395.351604,547.851 389.085626,548.364 C383.291456,548.8725 376.690797,547.6845 369.760104,544.48725 L35.9387308,392.03625 C25.9680165,387.48 17.0431813,379.68375 10.5889451,370.74225 C4.08125275,361.71975 0.0488076923,351.45525 0.0488076923,342.16725 L0,37.17075 L0,30.27 C0,25.66875 0.999395604,21.7065 2.84943956,18.42825 C4.35701923,15.6578004 6.56162181,13.2999185 9.25951648,11.5725 L9.25951648,11.5725 Z M25.5868516,9.1875 L16.5155934,14.16675 L16.5620769,14.295 L14.4284835,15.31875 C11.9090769,16.59675 9.86612637,18.46875 8.49253846,20.94375 C7.1143022,23.4525 6.30781319,26.60475 6.30781319,30.26775 L6.30781319,41.9295 L6.40078022,342.16275 C6.40078022,350.3415 10.0102253,359.49675 15.8973626,367.62825 C21.7845,375.80925 29.8563626,382.8765 38.7811978,386.96475 L372.656027,539.42475 C378.443225,542.10225 383.905038,543.12825 388.460423,542.74575 C392.922841,542.36325 396.629901,540.5745 399.144659,537.63375 L401.329385,535.03725 L401.654769,535.2915 L402.182357,534.82575 C408.115978,529.5 416.090225,522.39 416.043742,503.39325 L415.997258,206.82525 C415.997258,198.69375 412.343654,189.4935 406.456516,181.317 C400.569379,173.18325 392.499841,166.11375 383.575005,162.0255 L49.372467,9.822 C44.4847253,7.608 39.9270165,6.49875 35.9387308,6.41325 C31.9504451,6.36825 28.4850989,7.26375 25.7820824,9.0525 L25.5868516,9.18075 L25.5868516,9.1875 Z" id="Shape" fill="#B2B3B3"></path>
                        <path d="M16.6178571,251.715 L16.4737582,33.67425 L12.1554396,27.1155 L16.378467,23.88 L12.9154451,12.84825 L23.9273901,6.75975 C30.3351429,2.55 40.0223077,2.37 50.7948626,7.275 L385.006698,159.519 C403.995214,168.16575 419.139544,189.50025 419.139544,206.832 L419.232511,503.616 C419.232511,526.91025 407.930044,533.4285 401.661742,539.5575 L80.2305495,224.031 L16.6178571,251.715 Z" id="Shape" fill="#EBECEC"></path>
                        <path d="M15.9996264,251.715 L15.8601758,33.8025 L11.5836923,27.4125 L11.3466264,26.9895 L11.7277912,26.69025 L15.6672692,23.7045 L12.2972143,13.017 L12.1577637,12.5895 L12.5854121,12.37575 L23.6020055,6.285 C26.9720604,4.071 31.1950879,2.92125 35.9898626,3.00675 C40.5917308,3.09225 45.723511,4.3275 51.0877088,6.75525 L385.292571,158.99925 C394.837962,163.34175 403.428115,170.87925 409.645286,179.48325 C415.911264,188.16825 419.806582,198.00525 419.806582,206.82075 L419.853066,503.60475 C419.899549,524.0055 411.309396,531.70725 404.850511,537.4605 C403.902247,538.3155 402.951659,539.16375 402.14517,539.9355 L401.668714,540.399 L401.250363,539.931 L80.0910989,224.715 L16.8967582,252.22575 L15.994978,252.60825 L15.994978,251.715 L15.9996264,251.715 Z M17.091989,33.67425 L17.2779231,250.82175 L79.9446758,223.5225 L80.3723242,223.3065 L80.7093297,223.6485 L401.671038,538.7385 C402.438016,538.0185 403.198022,537.3345 404.002187,536.65725 C410.221681,531.03225 418.621253,523.53975 418.621253,503.6115 L418.528286,206.8275 C418.528286,198.2235 414.730582,188.6475 408.604055,180.084 C402.4845,171.651 394.082604,164.2845 384.727797,160.023 L50.5136374,7.779 C45.2888901,5.394 40.3523407,4.2465 35.9875385,4.1565 C31.4321538,4.07325 27.441544,5.1375 24.3062308,7.2255 L24.2597473,7.266 L13.628967,13.1025 L16.999022,23.75175 L17.091989,24.08925 L16.8084396,24.348 L12.9642527,27.24375 L17.0431813,33.375 L17.0896648,33.67425 L17.091989,33.67425 Z" id="Shape" fill="#B2B3B3"></path>
                        <path d="M3.18412088,37.16625 L3.18412088,30.27 C3.13763736,12.88875 19.035,5.77875 37.977033,14.42325 L371.807703,166.88325 C390.79622,175.56825 405.942874,196.86225 405.942874,214.2345 L406.035841,519.23775 L406.035841,526.134 C406.035841,543.46575 390.184962,550.623 371.196445,541.974 L37.3634505,389.4825 C18.4214176,380.83575 3.2306044,359.54175 3.2306044,342.165 L3.18412088,37.1685 L3.18412088,37.16625 Z" id="Shape" fill="#FEFEFE"></path>
                        <path d="M2.51708242,36.1875 L2.51708242,30.27 C2.51708242,26.00625 3.46534615,22.35 5.17129121,19.3215 C6.78082192,16.4389008 9.23612632,14.0823131 12.227489,12.549 C15.1675714,10.974 18.6724286,10.164 22.6049341,10.164 C27.3392802,10.164 32.6453736,11.3565 38.1862088,13.9125 L371.233632,166.3725 C380.753456,170.76 389.327341,178.2525 395.530566,186.897 C401.782599,195.5865 405.663973,205.38075 405.663973,214.2345 L405.717429,519.24 L405.717429,526.1385 C405.717429,530.3955 404.764516,534.0585 403.109703,537.0375 C401.478156,539.914756 399.030626,542.280269 396.05583,543.855 C393.071588,545.385 389.564407,546.2355 385.680709,546.2355 C380.948687,546.2355 375.640269,545.0025 370.055275,542.4915 L37.0008791,389.99325 C27.4833791,385.64625 18.9118187,378.10875 12.7062692,369.50925 C6.45423626,360.81975 2.61934615,350.9805 2.61934615,342.16725 L2.52637912,37.17075 L2.52637912,36.192 L2.51708242,36.1875 Z M3.79537912,30.27 L3.79537912,38.1 L3.84186264,342.165 C3.84186264,350.769 7.63026923,360.35175 13.7428516,368.8725 C19.8507857,377.34375 28.2340879,384.7125 37.5656538,389.01 L370.613077,541.47 C376.012137,543.9405 381.125324,545.0925 385.673736,545.0925 C389.322692,545.0925 392.636967,544.3275 395.388791,542.87625 C398.179618,541.435444 400.468034,539.227891 401.966209,536.53125 C403.576863,533.71875 404.429835,530.18625 404.429835,526.13625 L404.429835,518.26125 L404.383352,214.24125 C404.383352,205.635 400.594945,196.01625 394.482363,187.4955 C388.376753,179.0625 379.991126,171.6555 370.65956,167.394 L37.6144615,14.934 C32.2130769,12.46575 27.1463736,11.316 22.6002857,11.316 C18.9048462,11.316 15.6370549,12.081 12.8433956,13.53225 C10.0732756,14.9859582 7.80121603,17.1901968 6.30548901,19.875 C4.69715934,22.6875 3.79537912,26.18175 3.79537912,30.27 L3.79537912,30.27 Z" id="Shape" fill="#B2B3B3"></path>
                        <path d="M26.25,43.5 C29.5637085,43.4999999 32.25,40.1421356 32.25,36 C32.25,31.8578644 29.5637085,28.5000001 26.25,28.5 C22.9362915,28.4999999 20.25,31.8578643 20.25,36 C20.25,40.1421357 22.9362915,43.5000001 26.25,43.5 Z" id="Oval" fill="#FF5F57" transform="translate(26.250000, 36.000000) rotate(-24.000000) translate(-26.250000, -36.000000) "></path>
                        <path d="M42.75,51 C46.0637085,50.9999999 48.75,47.6421356 48.75,43.5 C48.75,39.3578644 46.0637085,36.0000001 42.75,36 C39.4362915,35.9999999 36.75,39.3578643 36.75,43.5 C36.75,47.6421357 39.4362915,51.0000001 42.75,51 Z" id="Oval" fill="#FFBD2F" transform="translate(42.750000, 43.500000) rotate(-24.000000) translate(-42.750000, -43.500000) "></path>
                        <path d="M59.25,58.5 C62.5637085,58.4999999 65.25,55.1421356 65.25,51 C65.25,46.8578644 62.5637085,43.5000001 59.25,43.5 C55.9362915,43.4999999 53.25,46.8578643 53.25,51 C53.25,55.1421357 55.9362915,58.5000001 59.25,58.5 Z" id="Oval" fill="#48E285" transform="translate(59.250000, 51.000000) rotate(-24.000000) translate(-59.250000, -51.000000) "></path>
                        <polygon id="Shape" fill="#B3B2B2" points="3.46767033 49.4715 405.898714 233.319 418.807187 225.354 419.518385 226.33275 406.321714 234.417 405.989357 234.63075 405.659324 234.45975 2.90057143 50.4975"></polygon>
                    </g>
                    <g id="XCode" transform="translate(204.793292, 281.919349) rotate(34.000000) translate(-204.793292, -281.919349) translate(130.793292, 213.419349)">
                        <g id="Group-5" transform="translate(-0.000000, 14.250000)">
                            <polygon id="Rectangle" fill="url(#linearGradient-1)" points="0 19.5 124.5 0 141 100.5 15 120.75"></polygon>
                            <path d="M18.75,106.5 L133.5,88.5" id="Path-9" stroke="#FFFFFF"></path>
                            <use id="Rectangle-Copy" stroke="#FFFFFF" mask="url(#mask-3)" stroke-width="2" xlink:href="#path-2"></use>
                            <path d="M106.756609,97.5101572 L108.332292,95.0252939 L106.766863,92.5780283 L107.980242,92.5780283 L109.00905,94.3041025 L109.070574,94.3041025 L110.109636,92.5780283 L111.26491,92.5780283 L109.641375,95.0423838 L111.240984,97.5101572 L110.065203,97.5101572 L109.005632,95.8387705 L108.944109,95.8387705 L107.870867,97.5101572 L106.756609,97.5101572 Z M114.008554,97.636622 C113.293056,97.636622 112.728527,97.4047721 112.314951,96.9410654 C111.901374,96.4773586 111.694589,95.8444711 111.694589,95.0423838 C111.694589,94.2402964 111.901374,93.6079785 112.314951,93.1454111 C112.728527,92.6828437 113.293056,92.4515634 114.008554,92.4515634 C114.59189,92.4515634 115.084643,92.6253084 115.486826,92.9728037 C115.889009,93.3202989 116.109465,93.7629214 116.148203,94.3006845 L115.14332,94.3006845 C115.093189,94.0158524 114.965017,93.7879901 114.758798,93.6170908 C114.55258,93.4461915 114.302501,93.3607431 114.008554,93.3607431 C113.621182,93.3607431 113.314708,93.5111322 113.089121,93.811915 C112.863534,94.1126978 112.750742,94.5228499 112.750742,95.0423838 C112.750742,95.5619176 112.863534,95.9726394 113.089121,96.2745615 C113.314708,96.5764836 113.622322,96.7274423 114.011972,96.7274423 C114.308198,96.7274423 114.558846,96.6465512 114.763925,96.4847666 C114.969004,96.3229819 115.096607,96.1065127 115.146738,95.8353525 L116.151621,95.8353525 C116.108326,96.3685583 115.889009,96.8020663 115.493662,97.1358896 C115.098315,97.4697129 114.603284,97.636622 114.008554,97.636622 Z M119.216554,92.4515634 C119.945725,92.4515634 120.522786,92.683983 120.947755,93.1488291 C121.372725,93.6136751 121.585207,94.2448537 121.585207,95.0423838 C121.585207,95.8421924 121.372725,96.4745103 120.947755,96.9393564 C120.522786,97.4042025 119.945725,97.636622 119.216554,97.636622 C118.485105,97.636622 117.906335,97.4042025 117.480226,96.9393564 C117.054117,96.4745103 116.841066,95.8421924 116.841066,95.0423838 C116.841066,94.2448537 117.055256,93.6136751 117.483644,93.1488291 C117.912032,92.683983 118.489663,92.4515634 119.216554,92.4515634 Z M119.216554,93.3573252 C118.815511,93.3573252 118.495364,93.5094232 118.256105,93.813624 C118.016846,94.1178247 117.897218,94.5274072 117.897218,95.0423838 C117.897218,95.5573603 118.016276,95.9675124 118.254396,96.2728525 C118.492516,96.5781926 118.813232,96.7308603 119.216554,96.7308603 C119.617598,96.7308603 119.937175,96.5781926 120.175294,96.2728525 C120.413414,95.9675124 120.532472,95.5573603 120.532472,95.0423838 C120.532472,94.5274072 120.413414,94.1178247 120.175294,93.813624 C119.937175,93.5094232 119.617598,93.3573252 119.216554,93.3573252 Z M122.520746,92.5746103 L124.462152,92.5746103 C125.195879,92.5746103 125.764966,92.7870919 126.169427,93.2120615 C126.573889,93.6370311 126.776117,94.2357393 126.776117,95.0082041 C126.776117,95.8080128 126.575028,96.4249499 126.172845,96.8590341 C125.770662,97.2931183 125.200437,97.5101572 124.462152,97.5101572 L122.520746,97.5101572 L122.520746,92.5746103 Z M123.552972,93.4564463 L123.552972,96.6283213 L124.298089,96.6283213 C124.756099,96.6283213 125.108147,96.4910342 125.354242,96.216456 C125.600337,95.9418778 125.723382,95.5448278 125.723382,95.0252939 C125.723382,94.5285466 125.598058,94.1428897 125.347406,93.8683115 C125.096753,93.5937333 124.746985,93.4564463 124.298089,93.4564463 L123.552972,93.4564463 Z M130.975816,96.6283213 L130.975816,97.5101572 L127.708238,97.5101572 L127.708238,92.5780283 L130.975816,92.5780283 L130.975816,93.4598642 L128.740464,93.4598642 L128.740464,94.6117197 L130.849351,94.6117197 L130.849351,95.4286142 L128.740464,95.4286142 L128.740464,96.6283213 L130.975816,96.6283213 Z" id="XCODE" fill="#FFFFFF" transform="translate(118.866212, 95.044093) rotate(-9.000000) translate(-118.866212, -95.044093) "></path>
                            <path d="M25.7412795,113.16278 C25.5399018,113.434855 25.3750183,113.623182 25.2479481,113.727763 C25.0509673,113.899424 24.8399165,113.987338 24.6139162,113.992338 C24.4516708,113.992338 24.2560091,113.948589 24.02825,113.859842 C23.7997435,113.771511 23.5897479,113.727763 23.3977356,113.727763 C23.1963579,113.727763 22.9803825,113.771511 22.7493698,113.859842 C22.5180053,113.948589 22.331621,113.994838 22.1891177,113.999421 C21.9723948,114.008171 21.7563755,113.917757 21.5407519,113.727763 C21.4031291,113.614016 21.2309908,113.419022 21.0247765,113.14278 C20.8035248,112.847789 20.6216254,112.505716 20.4791221,112.115728 C20.3265059,111.694491 20.25,111.286586 20.25,110.891682 C20.25,110.43932 20.3531511,110.049165 20.5597611,109.722217 C20.7221384,109.4596 20.9381577,109.252439 21.2085226,109.100361 C21.4788876,108.948282 21.7710171,108.870784 22.0856148,108.865826 C22.2577532,108.865826 22.4834897,108.916283 22.7640114,109.015447 C23.0437418,109.114944 23.2233548,109.1654 23.3021032,109.1654 C23.3609776,109.1654 23.5605086,109.106402 23.8987615,108.988781 C24.2186355,108.879701 24.4886047,108.834535 24.7097684,108.852327 C25.3090649,108.898159 25.7593068,109.122027 26.0587352,109.525348 C25.5227539,109.833089 25.2576213,110.264117 25.2628976,110.817059 C25.2677341,111.247754 25.4326176,111.60616 25.7566686,111.890735 C25.9035248,112.022814 26.0675289,112.124894 26.25,112.197392 C26.210428,112.306139 26.1686575,112.410302 26.1242489,112.510299 C26.016525,112.746126 25.8890151,112.963202 25.7412795,113.16278 Z M24.3602154,108.329551 C24.0471567,108.676374 23.6684963,108.876784 23.2578704,108.84516 C23.2526381,108.804661 23.2496043,108.762038 23.2496043,108.717247 C23.2496043,108.393174 23.3984831,108.046351 23.6628682,107.762776 C23.794863,107.619197 23.9627363,107.499813 24.1663125,107.404579 C24.3694489,107.310765 24.5615931,107.258883 24.7423054,107.25 C24.7475817,107.295128 24.7497802,107.34026 24.7497802,107.385033 C24.7497802,107.722615 24.6196321,108.03781 24.3602154,108.329551 Z" id="Shape" fill="#FFFFFF" transform="translate(23.250000, 110.625000) rotate(-9.000000) translate(-23.250000, -110.625000) "></path>
                        </g>
                        <g id="Group" transform="translate(35.250000, 47.250000)" stroke="#FFFFFF">
                            <polygon id="Path" points="17.25 10.5 2.25 49.5 11.25 52.5 26.25 13.5"></polygon>
                            <path d="M18,9 L27,12 L30,4.5 C30,4.5 29.25,1.5 26.25,0.75 C23.25,4.06341627e-14 21,1.5 21,1.5 L18,9 Z" id="Path-2"></path>
                            <polygon id="Path-3" points="1.5 51.75 0 66.75 9.75 54.75"></polygon>
                        </g>
                        <g id="Group-2" transform="translate(25.500000, 63.750000)" stroke="#FFFFFF">
                            <polygon id="Path-4" points="-4.26325641e-14 14.25 0.75 23.25 13.5 21.75 18 12"></polygon>
                            <polygon id="Path-4-Copy-2" points="72 3 78.75 11.25 91.5 9.75 90.75 4.26325641e-14"></polygon>
                            <polygon id="Path-4-Copy" points="33.75 9.75 30 18.75 63.75 14.25 57 6"></polygon>
                        </g>
                        <g id="Group-3" transform="translate(60.000000, 33.000000)" stroke="#FFFFFF">
                            <path d="M2.25,1.5 C6,-1.5 9,2.25 9,2.25 L45.75,47.25 L39.75,52.5 L1.5,8.25 C1.5,8.25 -1.5,4.5 2.25,1.5 Z" id="Path-5"></path>
                            <path d="M48.75,50.25 C52.5,51 54.75,54.75 55.5,57.75 C56.25,60.75 54.75,69 54.75,69 C54.75,69 53.25,64.5 48.75,63.75 C46.5607624,63.3851271 44.25,62.25 42.75,59.25 C42.3995892,58.5491785 42.1962552,58.1903172 42,57.75 C41.8037448,57.3096828 41.4252054,55.7243839 42,54 C42.75,51.75 45,49.5 48.75,50.25 Z" id="Path-6"></path>
                        </g>
                        <g id="Group-4" transform="translate(74.250000, -0.000000)">
                            <path d="M25.5,57.75 L34.5,60 L17.4848616,132 C17.4848616,132 15.75,138.75 7.5,136.5 C-0.75,134.25 0.75,127.5 0.75,127.5 L25.5,57.75 Z" id="Path-7" stroke="#000000" fill="#000000"></path>
                            <path d="M26.25,55.5 C26.25,55.5 36.75,27.75 30.75,16.5 C24.75,5.25 6,10.5 6,10.5 C6,10.5 13.7617729,5.25 19.2558864,6.75 C24.75,8.25 24.75,5.25 19.2558864,4.5 C13.7617729,3.75 5.25,8.25 5.25,8.25 C5.25,8.25 12.75,2.25 21.75,0.75 C30.75,-0.75 42,1.5 42,1.5 C42,1.5 51,3 55.5,8.25 C60,13.5 64.5,10.5 64.5,10.5 C64.5,10.5 66,9 69,9.75 C72,10.5 72.149544,12.0045605 72,13.5 C71.25,21 69.75,24.75 69,26.25 C68.25,27.75 64.5,29.25 61.5,26.25 C60.1092956,24.8592956 60,19.5 54.75,19.5 C49.5,19.5 47.25,21.75 45.75,24 C44.25,26.25 35.25,57.75 35.25,57.75 L26.25,55.5 Z" id="Path-8" fill="url(#linearGradient-4)"></path>
                        </g>
                    </g>
                </g>
            </g>
        </g>
    </g>
</svg>