<?xml version="1.0" encoding="UTF-8"?>
<svg width="1920px" height="1080px" viewBox="0 0 1920 1080" version="1.1" xmlns="http://www.w3.org/2000/svg" xmlns:xlink="http://www.w3.org/1999/xlink">
    <!-- Generator: Sketch 42 (36781) - http://www.bohemiancoding.com/sketch -->
    <title>UI_KIT</title>
    <desc>Created with Sketch.</desc>
    <defs></defs>
    <g id="8" stroke="none" stroke-width="1" fill="none" fill-rule="evenodd">
        <g id="8_03">
            <g id="UI_KIT">
                <rect id="Rectangle" fill="#FFFFFF" x="0" y="0" width="1920" height="1080"></rect>
                <g id="UIKit" transform="translate(718.000000, 288.000000)">
                    <g id="Group-11" transform="translate(0.000000, 54.107143)" stroke="#979797">
                        <path d="M0.750773994,304.352679 L0.750773994,152.552083 C0.750773994,152.552083 3.91908728e-14,143.534226 3.75386997,137.522321 C7.50773994,131.510417 20.2708978,124.747024 20.2708978,124.747024 L224.481424,5.26041667 C224.481424,5.26041667 233.490712,1.45191128e-15 243.250774,0 C253.010836,0 262.770898,6.76339286 262.770898,6.76339286 L472.236842,129.255952 C472.236842,129.255952 478.993808,133.013393 481.996904,138.27381 C485,143.534226 485,150.297619 485,150.297619 L485,299.092262 L485,302.849702 C485,302.849702 485,307.358631 484.249226,310.364583 C483.498452,313.370536 478.993808,315.625 478.993808,315.625 L262.770898,441.875 C262.770898,441.875 253.010836,447.886905 242.844743,447.886905 C232.67865,447.886905 225.982972,443.377976 225.982972,443.377976 L6.75696594,315.625 C6.75696594,315.625 3.75386997,314.122024 2.25232198,311.116071 C0.750773994,308.110119 0.750773994,304.352679 0.750773994,304.352679 Z" id="Path-5" fill="#FFFFFF"></path>
                        <path d="M1.14048049,308.110119 C1.00879519,307.117244 1.35368563,305.491269 3.00309598,302.849702 C6.75696594,296.837798 20.2708978,290.074405 20.2708978,290.074405 L224.481424,170.587798 C224.481424,170.587798 233.490712,165.327381 243.250774,165.327381 C253.010836,165.327381 262.770898,172.090774 262.770898,172.090774 L472.236842,294.583333 C472.236842,294.583333 479.744582,298.340774 482.747678,303.60119 C483.053633,304.137121 483.305039,304.641851 483.509836,305.116176 C483.61585,305.231085 484.423687,306.174421 484.295553,308.110119 C484.423687,310.045817 483.61585,310.989153 483.509836,311.104062 C483.305039,311.578387 483.053633,312.083117 482.747678,312.619048 C479.744582,317.879464 472.236842,321.636905 472.236842,321.636905 L262.770898,444.129464 C262.770898,444.129464 253.010836,450.892857 243.250774,450.892857 C233.490712,450.892857 224.481424,445.63244 224.481424,445.63244 L20.2708978,326.145833 C20.2708978,326.145833 6.75696594,319.38244 3.00309598,313.370536 C1.35368563,310.728969 1.00879519,309.102994 1.14048049,308.110119 Z" id="Combined-Shape" fill="#FFFFFF"></path>
                        <path d="M243.626161,0.375744048 L243.626161,165.327381" id="Line" stroke-linecap="square"></path>
                        <path d="M462.101393,288.947173 L209.116981,436.504535" id="Line" stroke-linecap="square"></path>
                        <path d="M52.9295666,344.557292 L72.1688684,332.835273" id="Line" stroke-linecap="square"></path>
                        <path d="M21.7724458,326.897321 L76.9543344,294.207589" id="Line" stroke-linecap="square"></path>
                        <path d="M23.2739938,288.571429 L276.326938,436.011008" id="Line" stroke-linecap="square"></path>
                        <path d="M54.8065015,270.535714 L307.859446,417.975294" id="Line" stroke-linecap="square"></path>
                        <path d="M116.369969,233.712798 L369.422913,381.152377" id="Line" stroke-linecap="square"></path>
                        <path d="M148.653251,214.925595 L401.706195,362.365175" id="Line" stroke-linecap="square"></path>
                        <path d="M179.434985,196.889881 L432.487929,344.32946" id="Line" stroke-linecap="square"></path>
                        <path d="M210.967492,178.854167 L464.020436,326.293746" id="Line" stroke-linecap="square"></path>
                        <path d="M85.5882353,252.5 L338.641179,399.939579" id="Line" stroke-linecap="square"></path>
                    </g>
                    <path d="M181.687307,474.940476 C181.687307,474.940476 206.462848,482.455357 218.475232,480.952381 C230.487616,479.449405 240.998452,472.686012 240.998452,472.686012 L437.701238,357.708333 C437.701238,357.708333 445.959752,352.447917 445.959752,343.43006 C445.959752,334.412202 441.455108,332.157738 441.455108,332.157738 C441.455108,332.157738 442.205882,338.169643 439.202786,344.181548 C436.19969,350.193452 431.695046,353.199405 431.695046,353.199405 L234.99226,468.177083 C234.99226,468.177083 226.733746,474.188988 213.970588,477.19494 C201.20743,480.200893 181.687307,474.940476 181.687307,474.940476 Z" id="Path-6" fill-opacity="0.5" fill="#D8D8D8"></path>
                    <g id="Group-12" transform="translate(67.569659, 208.162202)">
                        <path d="M214.721362,51.1011905 C214.721362,51.1011905 225.982972,44.3377976 237.995356,44.3377976 C250.00774,44.3377976 261.26935,48.8467262 261.26935,48.8467262 L365.626935,101.450893 C365.626935,101.450893 373.885449,105.959821 373.885449,121.741071 C373.885449,137.522321 364.876161,142.782738 364.876161,142.782738 L162.917957,260.766369 C162.917957,260.766369 150.154799,269.032738 135.139319,269.032738 C120.123839,269.032738 106.609907,260.766369 106.609907,260.766369 L9.76006192,203.653274 C9.76006192,203.653274 5.68434189e-14,199.144345 0.750773994,183.363095 C1.50154799,167.581845 7.50773994,164.575893 7.50773994,164.575893 L214.721362,51.1011905 Z" id="Path" stroke="#A7A9AC" stroke-width="4.5" fill="#FFFFFF"></path>
                        <path d="M217.724458,49.5982143 C217.724458,49.5982143 227.48452,44.3377976 239.496904,44.3377976 C251.509288,44.3377976 260.518576,48.0952381 260.518576,48.0952381 L368.630031,103.705357 C368.630031,103.705357 374.103173,104.456845 372.601625,114.22619 C371.100077,123.995536 362.841563,128.504464 362.841563,128.504464 L161.634133,245.736607 C161.634133,245.736607 149.404025,253.251488 134.388545,253.251488 C119.373065,253.251488 109.613003,246.488095 109.613003,246.488095 L9.22701238,187.872024 C9.22701238,187.872024 0.750773994,183.363095 2.25232198,173.59375 C3.75386997,163.824405 9.22701238,163.072917 9.22701238,163.072917 L217.724458,49.5982143 Z" id="Path" stroke="#A7A9AC"></path>
                        <path d="M355.116099,105.208333 C355.116099,105.208333 364.876161,109.717262 364.876161,114.22619 C364.876161,118.735119 357.368421,122.49256 357.368421,122.49256 L161.634133,237.470238 C161.634133,237.470238 149.404025,244.985119 134.388545,244.985119 C119.373065,244.985119 109.613003,238.221726 109.613003,238.221726 L17.2678019,184.114583 C17.2678019,184.114583 10.5108359,180.357143 10.5108359,175.47247 C10.5108359,170.587798 19.5201238,166.078869 19.5201238,166.078869 L355.116099,105.208333 Z" id="Path" stroke="#A7A9AC" fill="#E5E6E5"></path>
                        <path d="M355.116099,105.208333 C355.116099,105.208333 364.876161,109.717262 364.876161,114.22619 C364.876161,118.735119 356.617647,123.244048 356.617647,123.244048 L340.100619,113.474702 L35.2863777,173.59375 L17.2678019,184.114583 C17.2678019,184.114583 10.5108359,180.357143 10.5108359,175.47247 C10.5108359,170.587798 19.5201238,166.078869 19.5201238,166.078869 L355.116099,105.208333 Z" id="Path-Copy" stroke="#A7A9AC" fill="#D4D8D9"></path>
                        <path d="M214.721362,7.51488095 C214.721362,7.51488095 225.982972,0.751488095 237.995356,0.751488095 C250.00774,0.751488095 261.26935,5.26041667 261.26935,5.26041667 L367.879257,67.6339286 C367.879257,67.6339286 373.134675,69.8883929 373.134675,82.6636905 C373.134675,95.4389881 364.876161,99.1964286 364.876161,99.1964286 L162.917957,217.18006 C162.917957,217.18006 150.154799,225.446429 135.139319,225.446429 C120.123839,225.446429 106.609907,217.18006 106.609907,217.18006 L7.50773994,159.315476 C7.50773994,159.315476 1.50154799,157.061012 1.50154799,144.285714 C1.50154799,131.510417 8.25851393,127.752976 8.25851393,127.752976 L214.721362,7.51488095 Z" id="Path" stroke="#00C0E7" stroke-width="4.5" fill="#FFFFFF"></path>
                        <path d="M214.721362,6.76339286 C214.721362,6.76339286 225.982972,2.13748836e-16 237.995356,0 C250.00774,0 261.26935,4.50892857 261.26935,4.50892857 L367.879257,66.8824405 C367.879257,66.8824405 373.134675,68.3854167 371.633127,78.1547619 C370.131579,87.9241071 361.873065,92.4330357 361.873065,92.4330357 L160.665635,209.665179 C160.665635,209.665179 150.154799,216.428571 135.139319,216.428571 C120.123839,216.428571 108.111455,209.665179 108.111455,209.665179 L8.25851393,151.049107 C8.25851393,151.049107 1.50154799,147.291667 3.00309598,137.522321 C4.50464396,127.752976 8.25851393,127.001488 8.25851393,127.001488 L214.721362,6.76339286 Z" id="Path" stroke="#00C0E7"></path>
                    </g>
                    <g id="Group-10" transform="translate(391.153251, 281.056548)" fill="#00C0E7">
                        <rect id="Rectangle" transform="translate(20.531948, 8.255928) rotate(-31.000000) translate(-20.531948, -8.255928) " x="11.147273" y="6.75295193" width="18.7693498" height="3.00595238" rx="1.50297619"></rect>
                        <rect id="Rectangle" transform="translate(12.273434, 6.001464) rotate(-31.000000) translate(-12.273434, -6.001464) " x="5.89185501" y="4.49848764" width="12.7631579" height="3.00595238" rx="1.50297619"></rect>
                        <rect id="Rectangle" transform="translate(4.390307, 3.747000) rotate(-31.000000) translate(-4.390307, -3.747000) " x="0.636437051" y="2.24402336" width="7.50773994" height="3.00595238" rx="1.50297619"></rect>
                    </g>
                    <g id="Group-3" transform="translate(254.512384, 199.144345)">
                        <ellipse id="Oval-2" stroke="#A7A9AC" cx="43.9202786" cy="92.0572917" rx="43.9202786" ry="25.9263393"></ellipse>
                        <ellipse id="Oval-3" fill="#A7A9AC" cx="43.9202786" cy="92.4330357" rx="6.38157895" ry="3.75744048"></ellipse>
                        <path d="M43.8264319,0 L43.8264319,89.0513393" id="Line" stroke="#A7A9AC" stroke-width="0.75" stroke-linecap="square"></path>
                    </g>
                    <g id="Group-7" transform="translate(137.391641, 231.458333)" stroke="#A7A9AC">
                        <path d="M0.750773994,12.7752976 C0.750773994,12.7752976 -1.7263968e-14,15.0297619 0.750773994,17.2842262 C1.50154799,19.5386905 3.75386997,20.2901786 3.75386997,20.2901786 L105.108359,79.6577381 C105.108359,79.6577381 106.609907,81.1607143 110.363777,81.1607143 C114.117647,81.1607143 117.120743,78.90625 117.120743,78.90625 L132.886997,69.8883929 C132.886997,69.8883929 135.890093,67.6339286 134.388545,63.8764881 C132.886997,60.1190476 0.750773994,12.7752976 0.750773994,12.7752976 Z" id="Path-2" fill="#F8F8F9"></path>
                        <path d="M29.2801858,1.50297619 C29.2801858,1.50297619 26.2770898,0 24.0247678,0 C21.7724458,1.61312324e-16 20.2708978,0.751488095 20.2708978,0.751488095 L3.75386997,10.5208333 C3.75386997,10.5208333 -2.00950367e-14,12.0238095 0.750773994,14.2782738 C1.50154799,16.5327381 3.75386997,17.2842262 3.75386997,17.2842262 L105.108359,76.6517857 C105.108359,76.6517857 106.609907,78.1547619 110.363777,78.1547619 C114.117647,78.1547619 117.120743,75.9002976 117.120743,75.9002976 L133.637771,66.1309524 C133.637771,66.1309524 134.388545,65.3794643 134.388545,63.8764881 C134.388545,62.3735119 132.136223,61.6220238 132.136223,61.6220238 L29.2801858,1.50297619 Z" id="Path-2" fill="#FFFFFF"></path>
                        <path d="M10.5108359,11.2723214 L20.2708978,6.01190476 C20.2708978,6.01190476 21.7724458,5.26041667 24.0247678,5.26041667 C26.2770898,5.26041667 27.7786378,6.01190476 27.7786378,6.01190476 L35.2863777,10.5208333 C35.2863777,10.5208333 38.2894737,12.0238095 38.2894737,13.5267857 C38.2894737,15.0297619 36.0371517,16.5327381 36.0371517,16.5327381 L27.7786378,21.0416667 C27.7786378,21.0416667 25.3877094,22.5446429 23.6493808,22.5446429 C21.9110522,22.5446429 19.5201238,21.0416667 19.5201238,21.0416667 L10.5108359,15.78125 C10.5108359,15.78125 9.00928793,15.0297619 9.00928793,13.5267857 C9.00928793,12.0238095 10.5108359,11.2723214 10.5108359,11.2723214 Z" id="Path-3" stroke-dasharray="2,1"></path>
                    </g>
                    <g id="Group-8" transform="translate(100.603715, 323.139881)" stroke="#A7A9AC">
                        <path d="M0.750773994,12.7752976 C0.750773994,12.7752976 -1.7263968e-14,15.0297619 0.750773994,17.2842262 C1.50154799,19.5386905 3.75386997,20.2901786 3.75386997,20.2901786 L105.108359,79.6577381 C105.108359,79.6577381 106.609907,81.1607143 110.363777,81.1607143 C114.117647,81.1607143 117.120743,78.90625 117.120743,78.90625 L132.886997,69.8883929 C132.886997,69.8883929 135.890093,67.6339286 134.388545,63.8764881 C132.886997,60.1190476 0.750773994,12.7752976 0.750773994,12.7752976 Z" id="Path-2" fill="#F8F8F9"></path>
                        <path d="M29.2801858,1.50297619 C29.2801858,1.50297619 26.2770898,0 24.0247678,0 C21.7724458,1.61312324e-16 20.2708978,0.751488095 20.2708978,0.751488095 L3.75386997,10.5208333 C3.75386997,10.5208333 -1.99840144e-14,12.0238095 0.750773994,14.2782738 C1.50154799,16.5327381 3.75386997,17.2842262 3.75386997,17.2842262 L105.108359,76.6517857 C105.108359,76.6517857 106.609907,78.1547619 110.363777,78.1547619 C114.117647,78.1547619 117.120743,75.9002976 117.120743,75.9002976 L133.637771,66.1309524 C133.637771,66.1309524 134.388545,65.3794643 134.388545,63.8764881 C134.388545,62.3735119 132.136223,61.6220238 132.136223,61.6220238 L29.2801858,1.50297619 Z" id="Path-2" fill="#FFFFFF"></path>
                    </g>
                    <g id="Group-9" transform="translate(183.939628, 369.732143)" stroke="#A7A9AC">
                        <path d="M3.00309598,3.00595238 C8.25851393,-0.751488095 13.5139319,0.751488095 15.0154799,1.50297619 C16.5170279,2.25446429 34.5356037,12.7752976 34.5356037,12.7752976 C34.5356037,12.7752976 38.2894737,15.78125 34.5356037,19.5386905 C30.7817337,23.296131 21.7724458,21.7931548 20.2708978,21.0416667 C18.7693498,20.2901786 3.00309598,10.5208333 3.00309598,10.5208333 C3.00309598,10.5208333 -2.25232198,6.76339286 3.00309598,3.00595238 Z" id="Path-4"></path>
                        <path d="M26.2770898,19.5386905 C30.4235001,19.5386905 33.7848297,17.8564271 33.7848297,15.78125 C33.7848297,14.5902246 33.7848297,11.2723214 33.7848297,11.2723214 L18.7693498,11.2723214 L18.7693498,15.78125 C18.7693498,17.8564271 22.1306795,19.5386905 26.2770898,19.5386905 Z" id="Oval-5" fill="#F8F8F9"></path>
                        <ellipse id="Oval-5" fill="#FFFFFF" cx="26.2770898" cy="11.2723214" rx="7.50773994" ry="3.75744048"></ellipse>
                    </g>
                    <g id="Group-6" transform="translate(137.391641, 278.050595)" stroke="#A7A9AC">
                        <path d="M0.750773994,13.5267857 C0.750773994,13.5267857 -1.74860126e-14,38.3258929 0.750773994,40.5803571 C1.50154799,42.8348214 3.75386997,43.5863095 3.75386997,43.5863095 L105.108359,102.953869 C105.108359,102.953869 106.609907,104.456845 110.363777,104.456845 C114.117647,104.456845 117.120743,102.202381 117.120743,102.202381 L132.886997,92.4330357 C132.886997,92.4330357 134.388545,91.6815476 134.388545,87.172619 L134.388545,64.6279762 L0.750773994,13.5267857 Z" id="Path-2" fill="#F8F8F9"></path>
                        <path d="M29.2801858,1.50297619 C29.2801858,1.50297619 26.2770898,0 24.0247678,0 C21.7724458,1.61312324e-16 20.2708978,0.751488095 20.2708978,0.751488095 L3.75386997,10.5208333 C3.75386997,10.5208333 -2.00950367e-14,12.0238095 0.750773994,14.2782738 C1.50154799,16.5327381 3.75386997,17.2842262 3.75386997,17.2842262 L105.108359,76.6517857 C105.108359,76.6517857 106.609907,78.1547619 110.363777,78.1547619 C114.117647,78.1547619 117.120743,75.9002976 117.120743,75.9002976 L133.637771,66.1309524 C133.637771,66.1309524 134.388545,65.3794643 134.388545,63.8764881 C134.388545,62.3735119 132.136223,61.6220238 132.136223,61.6220238 L29.2801858,1.50297619 Z" id="Path-2" fill="#FFFFFF"></path>
                    </g>
                    <g id="Group-13" transform="translate(245.503096, 312.619048)">
                        <path d="M4.12925697,0.375744048 L4.12925697,29.6837798" id="Line" stroke="#A7A9AC" stroke-linecap="square"></path>
                        <ellipse id="Oval-6" fill="#A7A9AC" cx="4.12925697" cy="30.4352679" rx="4.12925697" ry="2.63020833"></ellipse>
                    </g>
                    <g id="Group" transform="translate(195.952012, 152.552083)" stroke="#A7A9AC">
                        <path d="M9.76006192,45.0892857 L79.5820433,4.50892857 C79.5820433,4.50892857 89.505317,6.37472156e-16 103.606811,0 C117.708305,0 126.880805,6.76339286 126.880805,6.76339286 L197.910553,45.9865849 C197.910553,45.9865849 204.9613,49.5982143 204.9613,60.8705357 C204.9613,72.1428571 197.45356,75.9002976 197.45356,75.9002976 L126.880805,116.480655 C126.880805,116.480655 117.708305,122.49256 103.606811,122.49256 C89.505317,122.49256 79.5820433,117.232143 79.5820433,117.232143 L9.76006192,77.4032738 C9.76006192,77.4032738 0,72.1428571 0,61.6220238 C1.05211761e-15,51.1011905 9.76006192,45.0892857 9.76006192,45.0892857 Z M24.7755418,57.1130952 C24.7755418,57.1130952 22.5232198,57.8645833 22.5232198,60.1190476 C22.5232198,62.3735119 24.7755418,63.8764881 24.7755418,63.8764881 L79.5820433,94.94568 C79.5820433,94.94568 84.273565,97.8475197 87.8405573,99.1964286 C91.4075496,100.545337 95.8841889,102.202381 102.48065,102.202381 C110.652263,102.202381 115.863665,99.7488929 120.123839,97.6934524 C124.384013,95.6380119 126.880805,94.2310747 126.880805,94.2310747 L180.185759,63.8764881 C180.185759,63.8764881 182.43808,62.3735119 182.43808,60.1190476 C182.43808,57.8645833 180.185759,57.1130952 180.185759,57.1130952 L112.616099,18.7872024 C112.616099,18.7872024 108.862229,16.5327381 103.231424,16.5327381 C97.6006192,16.5327381 83.3359133,24.047619 83.3359133,24.047619 L24.7755418,57.1130952 Z" id="Combined-Shape" stroke-width="3.5" fill="#FFFFFF"></path>
                        <path d="M10.5108359,44.3377976 L79.5820433,4.28763146 C79.5820433,4.28763146 89.505317,6.06185179e-16 103.606811,0 C117.708305,0 126.880805,6.4314472 126.880805,6.4314472 L197.45356,45.8407738 C197.45356,45.8407738 204.210526,47.34375 204.210526,56.3616071 C204.210526,65.3794643 197.45356,69.8883929 197.45356,69.8883929 L126.880805,110.763813 C126.880805,110.763813 117.708305,116.480655 103.606811,116.480655 C89.505317,116.480655 79.5820433,111.478418 79.5820433,111.478418 L10.5108359,72.1428571 C10.5108359,72.1428571 0.750773994,67.2581845 0.750773994,58.2403274 C0.750773994,49.2224702 10.5108359,44.3377976 10.5108359,44.3377976 Z" id="Path"></path>
                        <path d="M10.5108359,44.3377976 L79.5820433,4.28763146 C79.5820433,4.28763146 89.505317,6.06185179e-16 103.606811,0 C117.708305,0 126.880805,6.4314472 126.880805,6.4314472 L197.45356,45.8407738 C197.45356,45.8407738 204.210526,47.34375 204.210526,56.3616071 C204.210526,65.3794643 197.45356,69.8883929 197.45356,69.8883929 L126.880805,110.763813 C126.880805,110.763813 117.708305,116.480655 103.606811,116.480655 C89.505317,116.480655 79.5820433,111.478418 79.5820433,111.478418 L10.5108359,72.1428571 C10.5108359,72.1428571 0.750773994,67.2581845 0.750773994,58.2403274 C0.750773994,49.2224702 10.5108359,44.3377976 10.5108359,44.3377976 Z" id="Path"></path>
                        <path d="M24.7755418,51.8526786 L83.2998983,19.6862219 C83.2998983,19.6862219 91.6120132,16.5327381 103.423966,16.5327381 C115.235918,16.5327381 123.877709,19.6862219 123.877709,19.6862219 L179.434985,51.8526786 C179.434985,51.8526786 185.441176,54.858631 185.441176,58.6160714 C185.441176,62.3735119 180.185759,64.6279762 180.185759,64.6279762 L120.874613,97.9977359 C120.874613,97.9977359 115.235918,102.202381 103.423966,102.202381 C91.6120132,102.202381 84.0866873,97.9977359 84.0866873,97.9977359 L27.7786378,66.1309524 C27.7786378,66.1309524 20.2708978,63.8764881 19.5201238,59.3675595 C18.7693498,54.858631 24.7755418,51.8526786 24.7755418,51.8526786 Z" id="Path"></path>
                    </g>
                    <g id="rectangle" transform="translate(228.235294, 78.154762)">
                        <path d="M0,74.0473133 L55.8575851,45.8819512 C55.8575851,45.8819512 61.9290618,42.361281 71.6434244,42.361281 C81.3577871,42.361281 88.643559,47.055508 88.643559,47.055508 L139.643963,74.0473133 L139.643963,81.0886538 C139.643963,86.9564375 134.786782,90.4771078 134.786782,90.4771078 L86.2149684,117.468913 C86.2149684,117.468913 80.1434917,120.989583 70.4291291,120.989583 C60.7147665,120.989583 55.8575851,117.468913 55.8575851,117.468913 L6.07147665,90.4771078 C6.07147665,90.4771078 0,86.9564375 0,81.6754322 L0,74.0473133 Z" id="Path" fill="#00789D"></path>
                        <path d="M6.07147665,65.832416 L55.8575851,38.8406107 C55.8575851,38.8406107 61.9290618,35.3199405 71.6434244,35.3199405 C81.3577871,35.3199405 88.643559,40.0141675 88.643559,40.0141675 L134.786782,65.832416 C134.786782,65.832416 139.643963,68.1795295 139.643963,74.0473133 C139.643963,79.915097 134.786782,83.4357673 134.786782,83.4357673 L86.2149684,110.427573 C86.2149684,110.427573 80.1434917,113.948243 70.4291291,113.948243 C60.7147665,113.948243 55.8575851,110.427573 55.8575851,110.427573 L6.07147665,83.4357673 C6.07147665,83.4357673 0,79.915097 0,74.6340917 C5.74302533e-16,69.3530863 6.07147665,65.832416 6.07147665,65.832416 Z" id="Path" fill="#00C0E7"></path>
                        <ellipse id="Oval" fill="#FFFFFF" cx="70.1973684" cy="73.2700893" rx="5.63080495" ry="3.38169643"></ellipse>
                        <path d="M70.0565983,0 L70.0565983,70.2641369" id="Line" stroke="#FFFFFF" stroke-width="0.75" stroke-linecap="square"></path>
                    </g>
                    <g id="rectangle" transform="translate(255.263158, 51.852679)">
                        <path d="M0,24.7991071 L34.5356037,6.76339286 C34.5356037,6.76339286 38.2894737,4.50892857 44.2956656,4.50892857 C50.3018576,4.50892857 54.8065015,7.51488095 54.8065015,7.51488095 L86.3390093,24.7991071 L86.3390093,29.3080357 C86.3390093,33.0654762 83.3359133,35.3199405 83.3359133,35.3199405 L53.3049536,52.6041667 C53.3049536,52.6041667 49.5510836,54.858631 43.5448916,54.858631 C37.5386997,54.858631 34.5356037,52.6041667 34.5356037,52.6041667 L3.75386997,35.3199405 C3.75386997,35.3199405 0,33.0654762 0,29.6837798 L0,24.7991071 Z" id="Path" fill="#79B234"></path>
                        <path d="M3.75386997,19.5386905 L34.5356037,2.25446429 C34.5356037,2.25446429 38.2894737,2.711538e-16 44.2956656,0 C50.3018576,0 54.8065015,3.00595238 54.8065015,3.00595238 L83.3359133,19.5386905 C83.3359133,19.5386905 86.3390093,21.0416667 86.3390093,24.7991071 C86.3390093,28.5565476 83.3359133,30.8110119 83.3359133,30.8110119 L53.3049536,48.0952381 C53.3049536,48.0952381 49.5510836,50.3497024 43.5448916,50.3497024 C37.5386997,50.3497024 34.5356037,48.0952381 34.5356037,48.0952381 L3.75386997,30.8110119 C3.75386997,30.8110119 0,28.5565476 0,25.1748512 C3.55079523e-16,21.7931548 3.75386997,19.5386905 3.75386997,19.5386905 Z" id="Path" fill="#D0E147"></path>
                    </g>
                    <g id="Group-2" transform="translate(285.294118, 0.000000)">
                        <ellipse id="Oval" fill="#A7A9AC" cx="12.9508514" cy="7.70275298" rx="3.94156347" ry="2.44233631"></ellipse>
                        <ellipse id="Oval" fill="#A7A9AC" cx="12.9508514" cy="76.8396577" rx="3.94156347" ry="2.44233631"></ellipse>
                        <ellipse id="Oval" stroke="#A7A9AC" stroke-width="0.5" cx="13.1385449" cy="7.51488095" rx="13.1385449" ry="7.51488095"></ellipse>
                        <path d="M13.0446981,10.1450893 L13.0446981,74.7730655" id="Line" stroke="#A7A9AC" stroke-width="0.75" stroke-linecap="square"></path>
                    </g>
                    <g id="Group-5" transform="translate(146.400929, 190.126488)" stroke="#00C0E7">
                        <path d="M0,8.26636905 L29.2801858,8.26636905 C29.2801858,8.26636905 29.2801858,9.76934524 29.2801858,11.2723214 C29.2801858,12.7752976 27.0278638,14.2782738 27.0278638,14.2782738 L18.7693498,18.7872024 C18.7693498,18.7872024 16.3784215,20.2901786 14.6400929,20.2901786 C12.9017643,20.2901786 10.5108359,18.7872024 10.5108359,18.7872024 L1.50154799,13.5267857 C1.50154799,13.5267857 0,12.7752976 0,11.2723214 C2.03172102e-16,9.76934524 0,8.26636905 0,8.26636905 Z" id="Path-3"></path>
                        <path d="M1.50154799,6.01190476 L11.2616099,0.751488095 C11.2616099,0.751488095 12.7631579,9.6032086e-17 15.0154799,0 C17.2678019,0 18.7693498,0.751488095 18.7693498,0.751488095 L26.2770898,5.26041667 C26.2770898,5.26041667 29.2801858,6.76339286 29.2801858,8.26636905 C29.2801858,9.76934524 27.0278638,11.2723214 27.0278638,11.2723214 L18.7693498,15.78125 C18.7693498,15.78125 16.3784215,17.2842262 14.6400929,17.2842262 C12.9017643,17.2842262 10.5108359,15.78125 10.5108359,15.78125 L1.50154799,10.5208333 C1.50154799,10.5208333 0,9.76934524 0,8.26636905 C2.03172102e-16,6.76339286 1.50154799,6.01190476 1.50154799,6.01190476 Z" id="Path-3" fill="#FFFFFF"></path>
                    </g>
                    <g id="Group-4" transform="translate(157.662539, 210.416667)">
                        <ellipse id="Oval-4" fill="#00C0E7" cx="3.37848297" cy="34.5684524" rx="3.37848297" ry="2.25446429"></ellipse>
                        <path d="M3.37848297,0.375744048 L3.37848297,32.6897321" id="Line" stroke="#00C0E7" stroke-linecap="square"></path>
                    </g>
                </g>
            </g>
        </g>
    </g>
</svg>