<?xml version="1.0" encoding="UTF-8"?>
<svg width="1920px" height="1080px" viewBox="0 0 1920 1080" version="1.1" xmlns="http://www.w3.org/2000/svg" xmlns:xlink="http://www.w3.org/1999/xlink">
    <!-- Generator: Sketch 42 (36781) - http://www.bohemiancoding.com/sketch -->
    <title>Big</title>
    <desc>Created with Sketch.</desc>
    <defs></defs>
    <g id="8" stroke="none" stroke-width="1" fill="none" fill-rule="evenodd">
        <g id="CommSkills">
            <g id="Big">
                <rect id="Rectangle-Copy-2" fill="#FFFFFF" x="0" y="0" width="1920" height="1080"></rect>
                <g id="CommSkills" transform="translate(708.000000, 347.000000)">
                    <g id="Base" transform="translate(0.000000, 27.000000)">
                        <path d="M5.94,154.5 L5.922,154.5 L5.922,207.132 C5.7645,245.058 29.682,283.0155 77.697,311.802 C173.412,369.1545 330.012,369.1545 425.718,311.802 C473.508,283.155 497.4345,245.418 497.493,207.654 L497.502,207.654 L497.502,154.5 L497.475,154.5 C497.97,116.3175 474.057,78.036 425.718,49.065 C330.012,-8.2965 173.403,-8.2965 77.697,49.065 C29.358,78.036 5.445,116.3175 5.94,154.5 Z" id="Shape" fill="#ECECEC"></path>
                        <path d="M0.765,154.5 L0.765,149.3475 L0.882,149.3475 C1.674,130.569 8.037,111.9075 19.962,94.38 C32.3235,76.218 50.697,59.2575 75.06,44.655 C123.741,15.4815 187.7715,0.8835 251.7075,0.8835 C315.6435,0.8835 379.674,15.477 428.355,44.6505 C452.718,59.2485 471.087,76.209 483.4485,94.3755 C495.3735,111.903 501.7365,130.5555 502.5285,149.3385 L502.6455,149.3385 L502.6455,212.8155 L502.4655,212.8155 C501.4305,231.3645 494.9505,249.7875 483.0255,267.0945 C470.6595,285.0315 452.4255,301.7715 428.3505,316.2075 C379.6605,345.381 315.6345,359.97 251.6985,359.97 C187.7625,359.97 123.7275,345.39 75.051,316.2075 C50.841,301.6995 32.5575,284.865 20.196,266.829 C7.164,247.839 0.693,227.517 0.7785,207.1365 L0.756,207.1365 L0.756,154.5 L0.765,154.5 Z M11.07,154.5 L11.07,154.806 L11.1375,159.6525 L11.0745,159.6525 L11.0745,207.1275 L11.061,207.15 C10.9845,225.429 16.866,243.771 28.701,261.033 C40.248,277.881 57.456,293.6805 80.3385,307.383 C127.3635,335.5755 189.4995,349.665 251.7165,349.665 C313.9335,349.665 376.065,335.58 423.09,307.3875 C445.86,293.7345 463.0275,278.016 474.579,261.2625 C486.405,244.0995 492.3315,225.8565 492.363,207.6585 L492.345,207.6585 L492.345,159.657 L492.273,159.657 L492.345,154.446 C492.579,136.041 486.7875,117.564 474.957,100.176 C463.401,83.202 446.112,67.281 423.0855,53.475 C376.0605,25.2915 313.9245,11.1975 251.7075,11.1975 C189.4905,11.1975 127.35,25.2915 80.325,53.475 C57.2985,67.272 40.005,83.1975 28.458,100.185 C16.632,117.555 10.836,136.05 11.07,154.446 L11.07,154.5 L11.07,154.5 Z" id="Shape" fill="#B0B1B2"></path>
                        <path d="M77.7015,103.218 C52.6275,118.248 34.1325,135.78 22.1985,154.5045 L5.9265,154.5045 L5.9265,207.141 C5.769,245.067 29.6865,283.0245 77.7015,311.811 C173.4075,369.1635 330.0165,369.1635 425.7225,311.811 C473.5125,283.164 497.4345,245.427 497.4975,207.663 L497.4975,154.5 L481.221,154.5 C469.296,135.78 450.801,118.239 425.7225,103.218 C330.0165,45.852 173.4075,45.852 77.7015,103.218 Z" id="Shape" fill="#F2F2F2"></path>
                        <path d="M77.175,102.336 C125.19,73.554 188.46,59.163 251.712,59.163 C314.9595,59.163 378.2295,73.554 426.249,102.3315 C438.678,109.779 449.496,117.8385 458.7075,126.3525 C468.036,134.9745 475.7265,144.0735 481.7835,153.4695 L498.537,153.4695 L498.537,208.6845 L498.5145,208.6845 C498.276,227.796 491.9895,246.867 479.6595,264.7545 C467.6175,282.2145 449.8245,298.5495 426.258,312.6795 C378.243,341.457 314.973,355.848 251.721,355.848 C188.469,355.848 125.199,341.4615 77.1795,312.675 C53.5005,298.482 35.6445,282.0615 23.6025,264.507 C11.0475,246.2055 4.8195,226.662 4.905,207.132 L4.8915,207.132 L4.8915,153.465 L21.6315,153.465 C27.6885,144.06 35.3835,134.97 44.7165,126.348 C53.919,117.843 64.7415,109.779 77.1615,102.336 L77.175,102.336 Z M78.2235,104.091 C65.9295,111.471 55.2285,119.436 46.107,127.8645 C36.747,136.527 29.061,145.6395 23.067,155.0625 L22.752,155.5395 L6.957,155.5395 L6.957,207.1365 C6.867,226.2615 12.987,245.4 25.2945,263.355 C37.1745,280.6665 54.8145,296.88 78.2325,310.9065 C125.919,339.4815 188.8065,353.778 251.7165,353.778 C314.6265,353.778 377.514,339.4815 425.2005,310.9065 C448.5105,296.943 466.0875,280.8105 477.9675,263.58 C490.275,245.724 496.44,226.68 496.476,207.645 L496.476,155.535 L480.6675,155.535 L480.3615,155.058 C474.3585,145.644 466.6815,136.518 457.3215,127.869 C448.2,119.445 437.4945,111.4665 425.2005,104.1 C377.5095,75.525 314.622,61.2375 251.7165,61.2375 C188.8065,61.2375 125.919,75.525 78.2325,104.1045 L78.2235,104.091 Z" id="Shape" fill="#B0B1B2"></path>
                        <path d="M77.7015,49.065 C-18.0135,106.422 -18.0135,200.283 77.7015,257.649 C173.4075,315.006 330.0165,315.006 425.7225,257.649 C521.4375,200.2875 521.4375,106.4265 425.7225,49.065 C330.0165,-8.2965 173.4075,-8.2965 77.7015,49.065 Z" id="Shape" fill="#FFFFFF"></path>
                        <path d="M77.175,48.183 C125.19,19.4055 188.46,5.0145 251.712,5.0145 C314.9595,5.0145 378.2295,19.4145 426.249,48.192 C452.709,64.0455 471.906,82.6935 483.831,102.597 C493.641,118.9545 498.537,136.158 498.537,153.357 C498.537,170.5695 493.632,187.773 483.831,204.126 C471.906,224.0385 452.7045,242.6775 426.249,258.531 C378.234,287.3175 314.964,301.704 251.712,301.704 C188.46,301.704 125.19,287.322 77.1705,258.54 C50.7105,242.6865 31.509,224.043 19.5795,204.135 C9.7785,187.7775 4.8735,170.574 4.8735,153.366 C4.8735,136.1625 9.7785,118.959 19.5795,102.606 C31.5135,82.698 50.706,64.05 77.1615,48.201 L77.175,48.183 Z M78.2235,49.947 C52.065,65.625 33.12,84.021 21.3525,103.65 C11.7495,119.67 6.9525,136.518 6.9525,153.357 C6.9525,170.2005 11.7495,187.044 21.3525,203.0685 C33.111,222.6885 52.0695,241.0935 78.2235,256.767 C125.91,285.351 188.7975,299.643 251.7075,299.643 C314.6175,299.643 377.505,285.3465 425.1915,256.767 C451.3455,241.098 470.295,222.693 482.0625,203.0685 C491.6655,187.0485 496.4625,170.2005 496.4625,153.357 C496.4625,136.518 491.6655,119.6745 482.0625,103.6455 C470.2995,84.0255 451.3455,65.6205 425.1915,49.938 C377.5005,21.354 314.613,7.071 251.7075,7.071 C188.7975,7.071 125.91,21.3495 78.2235,49.9335 L78.2235,49.947 Z" id="Shape" fill="#B0B1B2"></path>
                    </g>
                    <g id="comm" transform="translate(59.000000, 0.000000)">
                        <g id="Red" transform="translate(0.500000, 4.500000)">
                            <path d="M132.5,225 C207.058441,225 272,174.732539 272,115.5 C272,56.2674606 207.058441,10.5 132.5,10.5 C57.9415588,10.5 0.5,53.2674606 0.5,112.5 C0.5,128.152528 -1,156 24.5,178.5 C50,201 12.5,247.5 12.5,247.5 C12.5,247.5 38,247.5 56,238.5 C74,229.5 81.5,214.5 81.5,214.5 C81.5,214.5 81.7898905,216.892464 96.5,220.5 C111.21011,224.107536 125.377218,225 132.5,225 Z" id="Oval" fill="#79B234"></path>
                            <path d="M137,214.5 C211.558441,214.5 272,166.482539 272,107.25 C272,48.0174606 211.558441,0 137,0 C62.4415588,0 2,48.0174606 2,107.25 C2,122.902528 6.5,150 32,172.5 C57.5,195 29,238.5 29,238.5 C29,238.5 48.5,234 59,225 C69.5,216 75.5,201 75.5,201 C75.5,201 86.2898905,206.392464 101,210 C115.71011,213.607536 129.877218,214.5 137,214.5 Z" id="Oval" fill="#D0E147"></path>
                        </g>
                        <g id="Blue" transform="translate(322.000000, 90.750000) scale(-1, 1) translate(-322.000000, -90.750000) translate(238.000000, 0.000000)">
                            <path d="M99.7582418,165 C111.036363,165 132,161.7 132,161.7 C132,161.7 112.5,126 126,84 C139.5,42 168,28.5 168,28.5 L168,18 C168,18 118.430644,7.7 99.7582418,7.7 C44.0442417,7.7 1.5,37.5628044 1.5,81 C1.5,92.4785207 3.04201109e-13,114.4 19.0549451,130.9 C38.1098901,147.4 10.0879121,181.5 10.0879121,181.5 C10.0879121,181.5 29.1428571,181.5 42.5934066,174.9 C56.043956,168.3 61.6483516,157.3 61.6483516,157.3 C61.6483516,157.3 61.8649731,159.054474 72.8571429,161.7 C83.8493126,164.345526 94.4357234,165 99.7582418,165 Z" id="Oval" fill="#00789D"></path>
                            <path d="M103.120879,157.3 C107.238661,157.3 118.5,156 118.5,156 C118.5,156 105,126.5 117,81 C129,35.5 167.978698,18.4073771 167.978698,18.4073771 C167.978698,18.4073771 127.818145,0 103.120879,0 C47.4068791,0 2.24175824,35.2128044 2.24175824,78.65 C2.24175824,90.1285207 5.6043956,110 24.6593407,126.5 C43.7142857,143 22.4175824,174.9 22.4175824,174.9 C22.4175824,174.9 36.989011,171.6 44.8351648,165 C52.6813187,158.4 57.1648352,147.4 57.1648352,147.4 C57.1648352,147.4 65.2276105,151.354474 76.2197802,154 C87.21195,156.645526 97.7983608,157.3 103.120879,157.3 Z" id="Oval" fill="#00C0E7"></path>
                        </g>
                    </g>
                </g>
            </g>
        </g>
    </g>
</svg>