<?xml version="1.0" encoding="UTF-8"?>
<svg width="162px" height="162px" viewBox="0 0 162 162" version="1.1" xmlns="http://www.w3.org/2000/svg" xmlns:xlink="http://www.w3.org/1999/xlink">
    <!-- Generator: Sketch 41.2 (35397) - http://www.bohemiancoding.com/sketch -->
    <title>5</title>
    <desc>Created with Sketch.</desc>
    <defs></defs>
    <g id="Page-1" stroke="none" stroke-width="1" fill="none" fill-rule="evenodd">
        <g id="5" transform="translate(1.000000, 1.000000)">
            <circle id="round" stroke="#979797" stroke-width="2" cx="80" cy="80" r="80"></circle>
            <path d="M64.2228516,102.039062 C67.6408374,103.699227 73.0118775,104.529297 80.3361328,104.529297 C89.2880005,104.529297 95.407731,103.227227 98.6955078,100.623047 C101.495001,98.3769419 102.894727,94.2428687 102.894727,88.2207031 C102.894727,82.0032241 101.364794,77.7552197 98.3048828,75.4765625 C95.0496582,73.0676963 89.0601348,71.8632812 80.3361328,71.8632812 C75.2579824,71.8632812 71.1564609,72.2539023 68.0314453,73.0351562 C65.4272656,73.6862012 63.3927808,74.6302021 61.9279297,75.8671875 L54.3107422,71.4726562 L57.7775391,44.8125 L58.2658203,41.0527344 L105.482617,41.0527344 L105.482617,49.6464844 L65.7853516,49.6464844 L63.7833984,65.3203125 C64.4995479,65.0924468 65.2319624,64.8808604 65.9806641,64.6855469 C69.8218291,63.7415317 74.6069375,63.2695312 80.3361328,63.2695312 C90.9156128,63.2695312 98.6141035,65.0436021 103.431836,68.5917969 C108.835509,72.5957231 111.537305,79.1386265 111.537305,88.2207031 C111.537305,97.0098096 109.030819,103.389954 104.017773,107.361328 C99.1674888,111.235045 91.2736875,113.171875 80.3361328,113.171875 C71.7097876,113.171875 65.0855049,112.032563 60.4630859,109.753906 C55.0268609,107.084622 51.5600986,102.673859 50.0626953,96.5214844 L58.4123047,94.4707031 C59.2586631,98.0188979 61.1954927,100.541659 64.2228516,102.039062 Z" fill="#000000"></path>
        </g>
    </g>
</svg>