<?xml version="1.0" encoding="UTF-8"?>
<svg width="600px" height="40px" viewBox="0 0 600 40" version="1.1" xmlns="http://www.w3.org/2000/svg" xmlns:xlink="http://www.w3.org/1999/xlink">
    <!-- Generator: Sketch 41.2 (35397) - http://www.bohemiancoding.com/sketch -->
    <title>1</title>
    <desc>Created with Sketch.</desc>
    <defs></defs>
    <g id="Page-1" stroke="none" stroke-width="1" fill="none" fill-rule="evenodd">
        <g id="1">
            <rect id="base" fill="#FFFFFF" x="0" y="0" width="600" height="40"></rect>
            <path d="M65.9097071,11.2607422 L65.9097071,29 L62.9018946,29 L62.9018946,11.2607422 L65.9097071,11.2607422 Z M65.9097071,4.16845703 L65.9097071,7.19335938 L62.9018946,7.19335938 L62.9018946,4.16845703 L65.9097071,4.16845703 Z M93.7954103,26.5048828 C91.8015852,28.4189549 88.5830301,29.3759766 84.1396485,29.3759766 C79.6848737,29.3759766 76.4606221,28.4189549 74.466797,26.5048828 C72.3818256,24.4996645 71.3393556,21.195661 71.3393556,16.5927734 C71.3393556,12.1379986 72.3020738,8.91374695 74.2275392,6.91992188 C76.2327575,4.83495051 79.5367609,3.79248047 84.1396485,3.79248047 C88.5830301,3.79248047 91.8015852,4.75519871 93.7954103,6.68066406 C95.8803816,8.68588242 96.9228517,11.9898858 96.9228517,16.5927734 C96.9228517,21.195661 95.8803816,24.4996645 93.7954103,26.5048828 Z M93.9150392,16.5927734 C93.9150392,12.832989 93.1801832,10.2467519 91.7104493,8.83398438 C90.3090751,7.47818333 87.7855001,6.80029297 84.1396485,6.80029297 C80.3798641,6.80029297 77.793627,7.5351489 76.3808595,9.00488281 C75.0250584,10.406257 74.3471681,12.9355286 74.3471681,16.5927734 C74.3471681,20.3411646 75.082024,22.9217052 76.5517579,24.3344727 C77.9531321,25.6902737 80.4824037,26.3681641 84.1396485,26.3681641 C87.7855001,26.3681641 90.3090751,25.6902737 91.7104493,24.3344727 C93.1801832,22.9217052 93.9150392,20.3411646 93.9150392,16.5927734 Z M104.676719,22.2666016 C104.676719,23.7135489 105.178016,24.716143 106.180625,25.2744141 C107.525033,26.0263709 109.826442,26.4023438 113.084922,26.4023438 C116.240862,26.4023438 118.491002,26.0491572 119.83541,25.3427734 C120.929166,24.7731091 121.476035,23.7249425 121.476035,22.1982422 C121.476035,20.6829351 120.929166,19.6404651 119.83541,19.0708008 C118.479609,18.364417 116.229469,18.0112305 113.084922,18.0112305 C109.43907,18.0112305 106.721812,17.5441127 104.933067,16.6098633 C102.756949,15.4705347 101.668906,13.5792775 101.668906,10.9360352 C101.668906,8.37254578 102.682894,6.52116455 104.710899,5.38183594 C106.511038,4.36783347 109.302351,3.86083984 113.084922,3.86083984 C116.71938,3.86083984 119.430942,4.32226101 121.219688,5.24511719 C123.395805,6.3844458 124.483848,8.30418572 124.483848,11.0043945 L121.476035,11.0043945 C121.476035,9.52326733 120.929166,8.49788696 119.83541,7.92822266 C118.491002,7.22183892 116.240862,6.86865234 113.084922,6.86865234 C109.826442,6.86865234 107.525033,7.24462515 106.180625,7.99658203 C105.178016,8.56624634 104.676719,9.54605425 104.676719,10.9360352 C104.676719,12.3715892 105.223588,13.3741833 106.317344,13.9438477 C107.673145,14.6388381 109.928982,14.9863281 113.084922,14.9863281 C116.71938,14.9863281 119.430942,15.4534458 121.219688,16.3876953 C123.395805,17.5270239 124.483848,19.4638535 124.483848,22.1982422 C124.483848,24.9440241 123.395805,26.8865503 121.219688,28.0258789 C119.430942,28.9487351 116.71938,29.4101562 113.084922,29.4101562 C109.302351,29.4101562 106.511038,28.9031626 104.710899,27.8891602 C102.682894,26.7612248 101.668906,24.8870574 101.668906,22.2666016 L104.676719,22.2666016 Z M132.237715,25.9921875 L129.229902,25.9921875 L129.229902,29 L130.59709,29 L129.059004,32.6743164 L130.699629,32.6743164 L132.237715,29 L132.237715,25.9921875 Z M168.936856,26.5048828 C166.94303,28.4189549 163.724475,29.3759766 159.281094,29.3759766 C154.826319,29.3759766 151.602067,28.4189549 149.608242,26.5048828 C147.523271,24.4996645 146.480801,21.195661 146.480801,16.5927734 C146.480801,12.1379986 147.443519,8.91374695 149.368984,6.91992188 C151.374203,4.83495051 154.678206,3.79248047 159.281094,3.79248047 C163.724475,3.79248047 166.94303,4.75519871 168.936856,6.68066406 C171.021827,8.68588242 172.064297,11.9898858 172.064297,16.5927734 C172.064297,21.195661 171.021827,24.4996645 168.936856,26.5048828 Z M169.056484,16.5927734 C169.056484,12.832989 168.321629,10.2467519 166.851895,8.83398438 C165.45052,7.47818333 162.926945,6.80029297 159.281094,6.80029297 C155.521309,6.80029297 152.935072,7.5351489 151.522305,9.00488281 C150.166504,10.406257 149.488613,12.9355286 149.488613,16.5927734 C149.488613,20.3411646 150.223469,22.9217052 151.693203,24.3344727 C153.094577,25.6902737 155.623849,26.3681641 159.281094,26.3681641 C162.926945,26.3681641 165.45052,25.6902737 166.851895,24.3344727 C168.321629,22.9217052 169.056484,20.3411646 169.056484,16.5927734 Z M181.698047,15.1743164 C180.809371,16.0288129 180.353646,17.6409387 180.330859,20.0107422 L180.330859,20.25 C180.353646,22.6198035 180.809371,24.2376259 181.698047,25.1035156 C182.563937,25.9352255 184.187456,26.3510742 186.568652,26.3510742 C188.938456,26.3510742 190.561975,25.9352255 191.439258,25.1035156 C192.339327,24.2262326 192.789356,22.5685343 192.789356,20.1303711 C192.789356,17.7605676 192.36781,16.1370487 191.524707,15.2597656 C190.658817,14.359696 189.006816,13.909668 186.568652,13.909668 C184.187456,13.909668 182.563937,14.3312132 181.698047,15.1743164 Z M180.330859,4.16845703 L180.330859,13.3457031 C181.356255,11.7050699 183.435499,10.8847656 186.568652,10.8847656 C189.849919,10.8847656 192.225383,11.6481043 193.695117,13.1748047 C195.096491,14.6331453 195.797168,16.9516443 195.797168,20.1303711 C195.797168,23.4230308 195.039526,25.8041919 193.524219,27.2739258 C192.065878,28.6753 189.747379,29.3759766 186.568652,29.3759766 C183.435499,29.3759766 181.29929,28.4987067 180.159961,26.7441406 L180.159961,29 L177.323047,29 L177.323047,4.16845703 L180.330859,4.16845703 Z M205.294199,11.277832 L205.294199,31.1020508 C205.294199,31.7400748 205.26002,32.3268202 205.19166,32.8623047 C205.111907,33.431969 204.986583,33.9218729 204.815684,34.3320312 C204.576425,34.878909 204.251721,35.3745095 203.841563,35.8188477 C203.454191,36.2403992 202.981377,36.6106755 202.423106,36.9296875 C201.864835,37.2486995 201.215427,37.4879549 200.474863,37.6474609 C199.76848,37.7955737 198.993748,37.8696289 198.150645,37.8696289 C197.364508,37.8696289 196.339127,37.8012702 195.074473,37.6645508 L195.587168,34.690918 C196.566991,34.7934575 197.421474,34.8447266 198.150645,34.8447266 C198.822848,34.8447266 199.398201,34.7991541 199.876719,34.7080078 C200.29827,34.6168615 200.64576,34.4915373 200.919199,34.3320312 C201.204031,34.161132 201.443287,33.9731456 201.636973,33.7680664 C201.807872,33.5857738 201.944589,33.3806978 202.047129,33.152832 C202.115489,32.993326 202.172454,32.7597672 202.218027,32.4521484 C202.263601,32.0989566 202.286387,31.6489285 202.286387,31.1020508 L202.286387,11.277832 L205.294199,11.277832 Z M205.294199,4.16845703 L205.294199,7.19335938 L202.286387,7.19335938 L202.286387,4.16845703 L205.294199,4.16845703 Z M225.660371,28.4189453 C224.327357,29.0797559 222.430403,29.4101562 219.969453,29.4101562 C216.562861,29.4101562 214.130431,28.7094797 212.67209,27.3081055 C211.14539,25.8383716 210.382051,23.4572105 210.382051,20.1645508 C210.382051,16.985824 211.082727,14.667325 212.484102,13.2089844 C213.953836,11.682284 216.391962,10.9189453 219.798555,10.9189453 C223.091214,10.9189453 225.466679,11.6253185 226.92502,13.0380859 C228.440327,14.5078198 229.197969,16.8832844 229.197969,20.1645508 L229.197969,21.4975586 L213.406953,21.4975586 C213.475313,23.1154052 213.925341,24.328772 214.757051,25.1376953 C215.622941,25.9694052 217.360391,26.3852539 219.969453,26.3852539 C221.963278,26.3852539 223.4159,26.1630882 224.327363,25.71875 C225.136287,25.319985 225.711639,24.6477912 226.053438,23.7021484 L228.890352,24.7275391 C228.275114,26.4251387 227.198465,27.6555951 225.660371,28.4189453 Z M213.424043,18.831543 L226.190156,18.831543 C225.99647,17.0997635 225.546442,15.8920933 224.840059,15.2084961 C223.962776,14.3653929 222.282291,13.9438477 219.798555,13.9438477 C217.235065,13.9438477 215.520402,14.3938757 214.654512,15.2939453 C213.993701,15.9889358 213.583549,17.1681232 213.424043,18.831543 Z M248.624199,28.453125 C247.302578,29.091149 245.548038,29.4101562 243.360527,29.4101562 C240.181801,29.4101562 237.863302,28.7094797 236.404961,27.3081055 C234.878261,25.8383716 234.114922,23.4572105 234.114922,20.1645508 C234.114922,16.985824 234.815598,14.667325 236.216973,13.2089844 C237.686707,11.682284 240.067868,10.9189453 243.360527,10.9189453 C245.548038,10.9189453 247.302578,11.2379525 248.624199,11.8759766 C250.1509,12.6051469 251.233246,13.7900309 251.87127,15.4306641 L249.068535,16.5073242 C248.715343,15.6186479 248.134294,14.9806334 247.325371,14.5932617 C246.425302,14.1603168 245.1037,13.9438477 243.360527,13.9438477 C240.910971,13.9438477 239.253273,14.3938757 238.387383,15.2939453 C237.54428,16.1712283 237.122734,17.7947473 237.122734,20.1645508 C237.122734,22.602714 237.578459,24.2604123 238.489922,25.1376953 C239.355812,25.9694052 240.979331,26.3852539 243.360527,26.3852539 C245.1037,26.3852539 246.425302,26.1744813 247.325371,25.7529297 C248.134294,25.365558 248.715343,24.7218469 249.068535,23.8217773 L251.87127,24.8984375 C251.233246,26.5390707 250.1509,27.7239547 248.624199,28.453125 Z M266.9225,29 C266.489555,29.0455731 265.90281,29.0683594 265.162246,29.0683594 C263.533006,29.0683594 262.308246,28.8860695 261.48793,28.5214844 C259.767544,27.6669879 258.856094,25.6276203 258.753555,22.4033203 L258.753555,14.2685547 L256.617324,14.2685547 L256.617324,11.2607422 L258.753555,11.2607422 L258.753555,4.16845703 L261.761367,4.16845703 L261.761367,11.2607422 L265.692031,11.2607422 L265.692031,14.2685547 L261.761367,14.2685547 L261.761367,22.762207 C261.80694,25.2915166 263.077273,26.5561523 265.572402,26.5561523 L265.931289,26.5561523 C266.330054,26.5561523 266.660454,26.5276696 266.9225,26.4707031 L266.9225,29 Z M273.668066,11.2607422 L273.668066,29 L270.660254,29 L270.660254,11.2607422 L273.668066,11.2607422 Z M273.668066,4.16845703 L273.668066,7.19335938 L270.660254,7.19335938 L270.660254,4.16845703 L273.668066,4.16845703 Z M280.396543,11.2607422 L287.608457,25.6503906 L294.820371,11.2607422 L298.16998,11.2607422 L289.283262,29 L285.933652,29 L277.046934,11.2607422 L280.396543,11.2607422 Z M316.314473,28.4189453 C314.981458,29.0797559 313.084504,29.4101562 310.623555,29.4101562 C307.216962,29.4101562 304.784532,28.7094797 303.326191,27.3081055 C301.799491,25.8383716 301.036152,23.4572105 301.036152,20.1645508 C301.036152,16.985824 301.736829,14.667325 303.138203,13.2089844 C304.607937,11.682284 307.046064,10.9189453 310.452656,10.9189453 C313.745316,10.9189453 316.12078,11.6253185 317.579121,13.0380859 C319.094428,14.5078198 319.85207,16.8832844 319.85207,20.1645508 L319.85207,21.4975586 L304.061055,21.4975586 C304.129414,23.1154052 304.579442,24.328772 305.411152,25.1376953 C306.277042,25.9694052 308.014492,26.3852539 310.623555,26.3852539 C312.61738,26.3852539 314.070002,26.1630882 314.981465,25.71875 C315.790388,25.319985 316.36574,24.6477912 316.707539,23.7021484 L319.544453,24.7275391 C318.929216,26.4251387 317.852566,27.6555951 316.314473,28.4189453 Z M304.078145,18.831543 L316.844258,18.831543 C316.650572,17.0997635 316.200544,15.8920933 315.49416,15.2084961 C314.616877,14.3653929 312.936393,13.9438477 310.452656,13.9438477 C307.889167,13.9438477 306.174503,14.3938757 305.308613,15.2939453 C304.647803,15.9889358 304.237651,17.1681232 304.078145,18.831543 Z M335.723613,15.1914062 L335.723613,18.1992188 L324.769023,18.1992188 L324.769023,15.1914062 L335.723613,15.1914062 Z M358.584902,7.44970703 C357.775979,7.0623353 356.69933,6.85725923 355.354922,6.83447266 L350.313418,6.83447266 C348.023367,6.86865251 346.434028,7.50097041 345.545352,8.73144531 C344.508563,10.1783927 343.990176,12.8045057 343.990176,16.6098633 C343.990176,20.3924343 344.502866,23.0071542 345.528262,24.4541016 C346.416938,25.6845765 347.989188,26.3225909 350.245059,26.3681641 L355.389102,26.3681641 C356.722116,26.3453775 357.793069,26.1346049 358.601992,25.7358398 C359.376736,25.3598614 359.980571,24.773116 360.413516,23.9755859 L363.062441,25.4282227 C362.310485,26.795417 361.262318,27.8037077 359.91791,28.453125 C358.721615,29.0341826 357.229117,29.3417967 355.440371,29.3759766 L350.193789,29.3759766 C346.912523,29.3076168 344.542755,28.2480571 343.084414,26.1972656 C341.68304,24.2148338 340.982363,21.019065 340.982363,16.6098633 C340.982363,12.1664817 341.688736,8.95931975 343.101504,6.98828125 C344.571238,4.92609646 346.963792,3.8722333 350.279238,3.82666016 L355.389102,3.82666016 C357.189241,3.84944673 358.693132,4.15706084 359.90082,4.74951172 C361.245228,5.39892903 362.299091,6.40721973 363.062441,7.77441406 L360.413516,9.22705078 C359.969177,8.41812747 359.359646,7.82568547 358.584902,7.44970703 Z M401.807441,13.0380859 C403.322748,14.5078198 404.080391,16.8832844 404.080391,20.1645508 C404.080391,23.4572105 403.322748,25.8383716 401.807441,27.3081055 C400.349101,28.7094797 398.030602,29.4101562 394.851875,29.4101562 C391.673148,29.4101562 389.354649,28.7094797 387.896309,27.3081055 C386.369608,25.8383716 385.606269,23.4572105 385.606269,20.1645508 C385.606269,16.985824 386.306946,14.667325 387.70832,13.2089844 C389.178054,11.682284 391.559215,10.9189453 394.851875,10.9189453 C398.030602,10.9189453 400.349101,11.6253185 401.807441,13.0380859 Z M394.851875,13.9438477 C392.402318,13.9438477 390.74462,14.3938757 389.87873,15.2939453 C389.035627,16.1712283 388.614082,17.7947473 388.614082,20.1645508 C388.614082,22.602714 389.069807,24.2604123 389.981269,25.1376953 C390.847159,25.9694052 392.470678,26.3852539 394.851875,26.3852539 C397.221678,26.3852539 398.845197,25.9694052 399.72248,25.1376953 C400.62255,24.2604123 401.072578,22.602714 401.072578,20.1645508 C401.072578,17.7263875 400.62255,16.0743858 399.72248,15.2084961 C398.845197,14.3653929 397.221678,13.9438477 394.851875,13.9438477 Z M412.176055,13.8583984 C413.315383,11.8759667 415.451592,10.8847656 418.584746,10.8847656 C421.75208,10.8847656 424.070579,11.6481043 425.540312,13.1748047 C426.941687,14.6331453 427.642363,16.9516443 427.642363,20.1303711 L424.634551,20.1303711 C424.634551,17.7605676 424.213005,16.1370487 423.369902,15.2597656 C422.504013,14.359696 420.908976,13.909668 418.584746,13.909668 C416.203549,13.909668 414.58003,14.3312132 413.714141,15.1743164 C412.825464,16.0288129 412.36974,17.6409387 412.346953,20.0107422 L412.346953,29 L409.339141,29 L409.339141,11.2607422 L412.176055,11.2607422 L412.176055,13.8583984 Z M451.39957,22.2666016 C451.39957,23.7135489 451.900867,24.716143 452.903476,25.2744141 C454.247884,26.0263709 456.549294,26.4023438 459.807773,26.4023438 C462.963714,26.4023438 465.213854,26.0491572 466.558262,25.3427734 C467.652017,24.7731091 468.198887,23.7249425 468.198887,22.1982422 C468.198887,20.6829351 467.652017,19.6404651 466.558262,19.0708008 C465.202461,18.364417 462.95232,18.0112305 459.807773,18.0112305 C456.161922,18.0112305 453.444664,17.5441127 451.655918,16.6098633 C449.4798,15.4705347 448.391758,13.5792775 448.391758,10.9360352 C448.391758,8.37254578 449.405745,6.52116455 451.43375,5.38183594 C453.233889,4.36783347 456.025202,3.86083984 459.807773,3.86083984 C463.442232,3.86083984 466.153793,4.32226101 467.942539,5.24511719 C470.118657,6.3844458 471.206699,8.30418572 471.206699,11.0043945 L468.198887,11.0043945 C468.198887,9.52326733 467.652017,8.49788696 466.558262,7.92822266 C465.213854,7.22183892 462.963714,6.86865234 459.807773,6.86865234 C456.549294,6.86865234 454.247884,7.24462515 452.903476,7.99658203 C451.900867,8.56624634 451.39957,9.54605425 451.39957,10.9360352 C451.39957,12.3715892 451.94644,13.3741833 453.040195,13.9438477 C454.395996,14.6388381 456.651833,14.9863281 459.807773,14.9863281 C463.442232,14.9863281 466.153793,15.4534458 467.942539,16.3876953 C470.118657,17.5270239 471.206699,19.4638535 471.206699,22.1982422 C471.206699,24.9440241 470.118657,26.8865503 467.942539,28.0258789 C466.153793,28.9487351 463.442232,29.4101562 459.807773,29.4101562 C456.025202,29.4101562 453.233889,28.9031626 451.43375,27.8891602 C449.405745,26.7612248 448.391758,24.8870574 448.391758,22.2666016 L451.39957,22.2666016 Z M477.097773,11.2607422 L481.84875,24.5395508 L486.616816,11.2607422 L489.812617,11.2607422 L494.563594,24.5566406 L499.33166,11.2607422 L502.527461,11.2607422 L496.170039,29 L492.974238,29 L488.206172,15.7211914 L483.455195,29 L480.259394,29 L473.901973,11.2607422 L477.097773,11.2607422 Z M508.914141,11.2607422 L508.914141,29 L505.906328,29 L505.906328,11.2607422 L508.914141,11.2607422 Z M508.914141,4.16845703 L508.914141,7.19335938 L505.906328,7.19335938 L505.906328,4.16845703 L508.914141,4.16845703 Z M514.805215,29 L514.805215,14.1147461 L513.318398,14.1147461 L513.318398,11.0898438 L514.805215,11.0898438 L514.805215,9.41503906 C514.805215,8.77701504 514.839394,8.19596616 514.907754,7.671875 C514.987507,7.10221069 515.112831,6.61230674 515.28373,6.20214844 L515.28373,6.18505859 C515.522989,5.63818086 515.847693,5.1482769 516.257851,4.71533203 C516.656616,4.28238716 517.129431,3.90641436 517.676308,3.58740234 C518.223186,3.26839033 518.872594,3.02913491 519.624551,2.86962891 C520.330934,2.73290947 521.09997,2.66455078 521.93168,2.66455078 C523.412807,2.66455078 524.802767,2.85823374 526.101601,3.24560547 L525.469277,6.18505859 C524.307162,5.84326001 523.127975,5.67236328 521.93168,5.67236328 C521.270869,5.67236328 520.701213,5.7236323 520.222695,5.82617188 C519.801144,5.90592488 519.453654,6.03124915 519.180215,6.20214844 L519.163125,6.20214844 C518.878293,6.36165444 518.644734,6.54394429 518.462441,6.74902344 C518.291542,6.93131602 518.154825,7.13639209 518.052285,7.36425781 C517.983925,7.52376382 517.92696,7.75732268 517.881387,8.06494141 C517.835813,8.41813328 517.813027,8.86816133 517.813027,9.41503906 L517.813027,11.0898438 L523.999551,11.0898438 L523.999551,14.1147461 L517.813027,14.1147461 L517.813027,29 L514.805215,29 Z M537.170898,29 C536.737953,29.0455731 536.151208,29.0683594 535.410644,29.0683594 C533.781405,29.0683594 532.556645,28.8860695 531.736328,28.5214844 C530.015942,27.6669879 529.104493,25.6276203 529.001953,22.4033203 L529.001953,14.2685547 L526.865723,14.2685547 L526.865723,11.2607422 L529.001953,11.2607422 L529.001953,4.16845703 L532.009766,4.16845703 L532.009766,11.2607422 L535.94043,11.2607422 L535.94043,14.2685547 L532.009766,14.2685547 L532.009766,22.762207 C532.055339,25.2915166 533.325671,26.5561523 535.820801,26.5561523 L536.179687,26.5561523 C536.578452,26.5561523 536.908853,26.5276696 537.170898,26.4707031 L537.170898,29 Z" fill="#000000"></path>
        </g>
    </g>
</svg>