<?xml version="1.0" encoding="UTF-8"?>
<svg width="600px" height="40px" viewBox="0 0 600 40" version="1.1" xmlns="http://www.w3.org/2000/svg" xmlns:xlink="http://www.w3.org/1999/xlink">
    <!-- Generator: Sketch 41.2 (35397) - http://www.bohemiancoding.com/sketch -->
    <title>2</title>
    <desc>Created with Sketch.</desc>
    <defs></defs>
    <g id="Page-1" stroke="none" stroke-width="1" fill="none" fill-rule="evenodd">
        <g id="2">
            <rect id="base" fill="#FFFFFF" x="0" y="0" width="600" height="40"></rect>
            <path d="M71.0078125,11.4682617 L71.0078125,29.2075195 L68,29.2075195 L68,11.4682617 L71.0078125,11.4682617 Z M71.0078125,4.37597656 L71.0078125,7.40087891 L68,7.40087891 L68,4.37597656 L71.0078125,4.37597656 Z M98.8935156,26.7124023 C96.8996905,28.6264744 93.6811355,29.5834961 89.2377539,29.5834961 C84.782979,29.5834961 81.5587274,28.6264744 79.5649023,26.7124023 C77.479931,24.707184 76.4374609,21.4031806 76.4374609,16.800293 C76.4374609,12.3455181 77.4001792,9.12126648 79.3256445,7.12744141 C81.3308629,5.04247004 84.6348663,4 89.2377539,4 C93.6811355,4 96.8996905,4.96271824 98.8935156,6.88818359 C100.978487,8.89340195 102.020957,12.1974054 102.020957,16.800293 C102.020957,21.4031806 100.978487,24.707184 98.8935156,26.7124023 Z M99.0131445,16.800293 C99.0131445,13.0405085 98.2782886,10.4542714 96.8085547,9.04150391 C95.4071805,7.68570286 92.8836055,7.0078125 89.2377539,7.0078125 C85.4779695,7.0078125 82.8917323,7.74266843 81.4789648,9.21240234 C80.1231638,10.6137765 79.4452734,13.1430481 79.4452734,16.800293 C79.4452734,20.5486841 80.1801294,23.1292247 81.6498633,24.5419922 C83.0512375,25.8977932 85.580509,26.5756836 89.2377539,26.5756836 C92.8836055,26.5756836 95.4071805,25.8977932 96.8085547,24.5419922 C98.2782886,23.1292247 99.0131445,20.5486841 99.0131445,16.800293 Z M109.774824,22.4741211 C109.774824,23.9210684 110.276121,24.9236626 111.27873,25.4819336 C112.623138,26.2338905 114.924547,26.6098633 118.183027,26.6098633 C121.338968,26.6098633 123.589108,26.2566767 124.933516,25.550293 C126.027271,24.9806287 126.574141,23.9324621 126.574141,22.4057617 C126.574141,20.8904547 126.027271,19.8479846 124.933516,19.2783203 C123.577715,18.5719366 121.327574,18.21875 118.183027,18.21875 C114.537176,18.21875 111.819918,17.7516323 110.031172,16.8173828 C107.855054,15.6780542 106.767012,13.7867971 106.767012,11.1435547 C106.767012,8.58006531 107.780999,6.72868408 109.809004,5.58935547 C111.609143,4.575353 114.400456,4.06835938 118.183027,4.06835938 C121.817486,4.06835938 124.529047,4.52978054 126.317793,5.45263672 C128.493911,6.59196533 129.581953,8.51170525 129.581953,11.2119141 L126.574141,11.2119141 C126.574141,9.73078687 126.027271,8.70540649 124.933516,8.13574219 C123.589108,7.42935845 121.338968,7.07617188 118.183027,7.07617188 C114.924547,7.07617188 112.623138,7.45214468 111.27873,8.20410156 C110.276121,8.77376587 109.774824,9.75357378 109.774824,11.1435547 C109.774824,12.5791087 110.321694,13.5817029 111.415449,14.1513672 C112.77125,14.8463576 115.027087,15.1938477 118.183027,15.1938477 C121.817486,15.1938477 124.529047,15.6609654 126.317793,16.5952148 C128.493911,17.7345435 129.581953,19.671373 129.581953,22.4057617 C129.581953,25.1515437 128.493911,27.0940698 126.317793,28.2333984 C124.529047,29.1562546 121.817486,29.6176758 118.183027,29.6176758 C114.400456,29.6176758 111.609143,29.1106822 109.809004,28.0966797 C107.780999,26.9687444 106.767012,25.0945769 106.767012,22.4741211 L109.774824,22.4741211 Z M146.320156,7.38378906 L146.320156,26.199707 L156.112637,26.199707 C157.75327,26.1883137 159.16032,25.6756236 160.333828,24.6616211 C161.404797,23.7501582 162.202315,22.5083086 162.726406,20.9360352 C163.136565,19.6827737 163.341641,18.3383861 163.341641,16.902832 C163.330247,15.4900646 163.113778,14.1399804 162.692227,12.8525391 C162.156742,11.2346924 161.353527,9.94727041 160.282559,8.99023438 C159.097657,7.93065876 157.707697,7.39518235 156.112637,7.38378906 L146.320156,7.38378906 Z M156.129727,4.37597656 C158.453957,4.39876313 160.459145,5.13361907 162.145352,6.58056641 C163.672052,7.9021876 164.805667,9.67951357 165.54623,11.9125977 C166.070322,13.4848711 166.332363,15.148266 166.332363,16.902832 C166.343757,18.6573981 166.087411,20.3150964 165.56332,21.8759766 C164.845543,24.0634875 163.723321,25.795241 162.196621,27.0712891 C160.510415,28.4726633 158.488137,29.184733 156.129727,29.2075195 L143.312344,29.2075195 L143.312344,4.37597656 L156.129727,4.37597656 Z M185.519336,28.6264648 C184.186321,29.2872754 182.289368,29.6176758 179.828418,29.6176758 C176.421825,29.6176758 173.989395,28.9169992 172.531055,27.515625 C171.004354,26.0458911 170.241016,23.66473 170.241016,20.3720703 C170.241016,17.1933435 170.941692,14.8748445 172.343066,13.4165039 C173.8128,11.8898036 176.250927,11.1264648 179.657519,11.1264648 C182.950179,11.1264648 185.325644,11.832838 186.783984,13.2456055 C188.299291,14.7153394 189.056934,17.0908039 189.056934,20.3720703 L189.056934,21.7050781 L173.265918,21.7050781 C173.334278,23.3229248 173.784306,24.5362915 174.616016,25.3452148 C175.481905,26.1769247 177.219355,26.5927734 179.828418,26.5927734 C181.822243,26.5927734 183.274865,26.3706077 184.186328,25.9262695 C184.995251,25.5275045 185.570604,24.8553107 185.912402,23.909668 L188.749316,24.9350586 C188.134079,26.6326582 187.05743,27.8631147 185.519336,28.6264648 Z M173.283008,19.0390625 L186.049121,19.0390625 C185.855435,17.307283 185.405407,16.0996128 184.699023,15.4160156 C183.82174,14.5729125 182.141256,14.1513672 179.657519,14.1513672 C177.09403,14.1513672 175.379366,14.6013952 174.513477,15.5014648 C173.852666,16.1964553 173.442514,17.3756427 173.283008,19.0390625 Z M195.272715,11.4682617 L202.484629,25.8579102 L209.696543,11.4682617 L213.046152,11.4682617 L204.159434,29.2075195 L200.809824,29.2075195 L191.923105,11.4682617 L195.272715,11.4682617 Z M231.190644,28.6264648 C229.85763,29.2872754 227.960676,29.6176758 225.499727,29.6176758 C222.093134,29.6176758 219.660704,28.9169992 218.202363,27.515625 C216.675663,26.0458911 215.912324,23.66473 215.912324,20.3720703 C215.912324,17.1933435 216.613001,14.8748445 218.014375,13.4165039 C219.484109,11.8898036 221.922236,11.1264648 225.328828,11.1264648 C228.621488,11.1264648 230.996952,11.832838 232.455293,13.2456055 C233.9706,14.7153394 234.728242,17.0908039 234.728242,20.3720703 L234.728242,21.7050781 L218.937227,21.7050781 C219.005586,23.3229248 219.455614,24.5362915 220.287324,25.3452148 C221.153214,26.1769247 222.890664,26.5927734 225.499727,26.5927734 C227.493552,26.5927734 228.946174,26.3706077 229.857637,25.9262695 C230.66656,25.5275045 231.241912,24.8553107 231.583711,23.909668 L234.420625,24.9350586 C233.805387,26.6326582 232.728738,27.8631147 231.190644,28.6264648 Z M218.954316,19.0390625 L231.72043,19.0390625 C231.526744,17.307283 231.076716,16.0996128 230.370332,15.4160156 C229.493049,14.5729125 227.812564,14.1513672 225.328828,14.1513672 C222.765339,14.1513672 221.050675,14.6013952 220.184785,15.5014648 C219.523975,16.1964553 219.113822,17.3756427 218.954316,19.0390625 Z M248.497734,29.2246094 C248.064789,29.2701825 247.478044,29.2929688 246.73748,29.2929688 C245.10824,29.2929688 243.883481,29.1106789 243.063164,28.7460938 C241.342778,27.8915973 240.431329,25.8522297 240.328789,22.6279297 L240.328789,4.37597656 L243.336601,4.37597656 L243.336601,22.9868164 C243.382175,25.5161259 244.652507,26.7807617 247.147637,26.7807617 L247.506523,26.7807617 C247.905288,26.7807617 248.235689,26.7522789 248.497734,26.6953125 L248.497734,29.2246094 Z M267.39418,13.2456055 C268.909487,14.7153394 269.667129,17.0908039 269.667129,20.3720703 C269.667129,23.66473 268.909487,26.0458911 267.39418,27.515625 C265.935839,28.9169992 263.61734,29.6176758 260.438613,29.6176758 C257.259886,29.6176758 254.941387,28.9169992 253.483047,27.515625 C251.956346,26.0458911 251.193008,23.66473 251.193008,20.3720703 C251.193008,17.1933435 251.893684,14.8748445 253.295059,13.4165039 C254.764792,11.8898036 257.145954,11.1264648 260.438613,11.1264648 C263.61734,11.1264648 265.935839,11.832838 267.39418,13.2456055 Z M260.438613,14.1513672 C257.989057,14.1513672 256.331358,14.6013952 255.465469,15.5014648 C254.622366,16.3787479 254.20082,18.0022668 254.20082,20.3720703 C254.20082,22.8102335 254.656545,24.4679318 255.568008,25.3452148 C256.433897,26.1769247 258.057416,26.5927734 260.438613,26.5927734 C262.808417,26.5927734 264.431936,26.1769247 265.309219,25.3452148 C266.209288,24.4679318 266.659316,22.8102335 266.659316,20.3720703 C266.659316,17.9339071 266.209288,16.2819054 265.309219,15.4160156 C264.431936,14.5729125 262.808417,14.1513672 260.438613,14.1513672 Z M277.933691,26.9516602 L277.933691,36.2998047 L274.925879,36.2998047 L274.925879,11.4682617 L277.762793,11.4682617 L277.762793,14.065918 C278.902121,12.0834862 281.038331,11.0922852 284.171484,11.0922852 C287.350211,11.0922852 289.66871,11.7986583 291.127051,13.2114258 C292.642358,14.6811597 293.4,17.0566242 293.4,20.3378906 C293.4,23.5166175 292.699323,25.8351164 291.297949,27.293457 C289.828215,28.8201574 287.452751,29.5834961 284.171484,29.5834961 C281.038331,29.5834961 278.959087,28.7062262 277.933691,26.9516602 Z M277.933691,20.4575195 C277.956478,22.827323 278.412203,24.4451454 279.300879,25.3110352 C280.166769,26.142745 281.790287,26.5585938 284.171484,26.5585938 C286.609648,26.5585938 288.261649,26.1085657 289.127539,25.2084961 C289.970642,24.3426063 290.392187,22.7190874 290.392187,20.3378906 C290.392187,17.8997274 289.942159,16.2477257 289.04209,15.3818359 C288.164807,14.5387328 286.541288,14.1171875 284.171484,14.1171875 C281.790287,14.1171875 280.166769,14.5387328 279.300879,15.3818359 C278.412203,16.2363324 277.956478,17.8484582 277.933691,20.2182617 L277.933691,20.4575195 Z M301.495664,13.8095703 C302.543846,11.9980378 304.45789,11.0922852 307.237851,11.0922852 C310.314039,11.0922852 312.467338,12.3911003 313.697812,14.9887695 C314.859928,12.5050332 317.087282,11.206218 320.379941,11.0922852 C323.330802,11.0922852 325.467012,11.8841067 326.788633,13.4677734 C328.007714,14.9147208 328.617246,17.2047369 328.617246,20.3378906 L328.617246,29.2075195 L325.592344,29.2075195 L325.592344,20.3378906 C325.592344,17.922514 325.222067,16.2762088 324.481504,15.3989258 C323.77512,14.5444293 322.407946,14.1171875 320.379941,14.1171875 C318.39751,14.1171875 317.047425,14.51025 316.329648,15.2963867 C315.543512,16.1736698 315.150449,17.8541542 315.150449,20.3378906 L315.150449,29.2075195 L312.125547,29.2075195 L312.125547,20.3378906 C312.125547,17.922514 311.755271,16.2762088 311.014707,15.3989258 C310.29693,14.5444293 308.92406,14.1171875 306.896055,14.1171875 C304.925016,14.1171875 303.580628,14.51025 302.862851,15.2963867 C302.076715,16.1622765 301.677956,17.8028851 301.666562,20.2182617 L301.666562,29.2075195 L298.65875,29.2075195 L298.65875,11.4682617 L301.495664,11.4682617 L301.495664,13.8095703 Z M348.812519,28.6264648 C347.479505,29.2872754 345.582551,29.6176758 343.121601,29.6176758 C339.715009,29.6176758 337.282579,28.9169992 335.824238,27.515625 C334.297538,26.0458911 333.534199,23.66473 333.534199,20.3720703 C333.534199,17.1933435 334.234876,14.8748445 335.63625,13.4165039 C337.105984,11.8898036 339.54411,11.1264648 342.950703,11.1264648 C346.243363,11.1264648 348.618827,11.832838 350.077168,13.2456055 C351.592475,14.7153394 352.350117,17.0908039 352.350117,20.3720703 L352.350117,21.7050781 L336.559101,21.7050781 C336.627461,23.3229248 337.077489,24.5362915 337.909199,25.3452148 C338.775089,26.1769247 340.512539,26.5927734 343.121601,26.5927734 C345.115427,26.5927734 346.568049,26.3706077 347.479512,25.9262695 C348.288435,25.5275045 348.863787,24.8553107 349.205586,23.909668 L352.0425,24.9350586 C351.427262,26.6326582 350.350613,27.8631147 348.812519,28.6264648 Z M336.576191,19.0390625 L349.342305,19.0390625 C349.148619,17.307283 348.698591,16.0996128 347.992207,15.4160156 C347.114924,14.5729125 345.434439,14.1513672 342.950703,14.1513672 C340.387214,14.1513672 338.67255,14.6013952 337.80666,15.5014648 C337.145849,16.1964553 336.735697,17.3756427 336.576191,19.0390625 Z M360.103984,14.2368164 C361.243313,12.1404518 363.379522,11.0922852 366.512676,11.0922852 C369.793942,11.0922852 372.169407,11.8556239 373.639141,13.3823242 C375.040515,14.8406648 375.741191,17.1591638 375.741191,20.3378906 L375.741191,29.2075195 L372.733379,29.2075195 L372.733379,20.3378906 C372.733379,17.9680871 372.311834,16.3445682 371.46873,15.4672852 C370.602841,14.5672156 368.950839,14.1171875 366.512676,14.1171875 C364.131479,14.1171875 362.50796,14.5387328 361.64207,15.3818359 C360.753394,16.2363324 360.297669,17.8484582 360.274883,20.2182617 L360.274883,29.2075195 L357.26707,29.2075195 L357.26707,11.4682617 L360.103984,11.4682617 L360.103984,14.2368164 Z M390.792422,29.2075195 C390.359477,29.2530927 389.772731,29.2758789 389.032168,29.2758789 C387.402928,29.2758789 386.178168,29.0935891 385.357851,28.7290039 C383.637465,27.8745074 382.726016,25.8351398 382.623476,22.6108398 L382.623476,14.4760742 L380.487246,14.4760742 L380.487246,11.4682617 L382.623476,11.4682617 L382.623476,4.37597656 L385.631289,4.37597656 L385.631289,11.4682617 L389.561953,11.4682617 L389.561953,14.4760742 L385.631289,14.4760742 L385.631289,22.9697266 C385.676862,25.4990361 386.947194,26.7636719 389.442324,26.7636719 L389.801211,26.7636719 C390.199976,26.7636719 390.530376,26.7351891 390.792422,26.6782227 L390.792422,29.2075195 Z M397.36709,26.199707 L397.36709,29.2075195 L394.359277,29.2075195 L394.359277,26.199707 L397.36709,26.199707 Z M397.36709,11.4682617 L397.36709,14.4760742 L394.359277,14.4760742 L394.359277,11.4682617 L397.36709,11.4682617 Z M413.609687,4.37597656 L422.804023,14.5615234 L431.981269,4.37597656 L436.031562,4.37597656 L424.820625,16.800293 L436.031562,29.2075195 L431.981269,29.2075195 L422.804023,19.0390625 L413.609687,29.2075195 L409.559394,29.2075195 L420.770332,16.800293 L409.559394,4.37597656 L413.609687,4.37597656 Z M456.84207,7.65722656 C456.033147,7.26985483 454.956497,7.06477876 453.61209,7.04199219 L448.570586,7.04199219 C446.280535,7.07617205 444.691196,7.70848994 443.802519,8.93896484 C442.76573,10.3859122 442.247344,13.0120252 442.247344,16.8173828 C442.247344,20.5999538 442.760034,23.2146738 443.78543,24.6616211 C444.674106,25.892096 446.246356,26.5301104 448.502226,26.5756836 L453.646269,26.5756836 C454.979284,26.552897 456.050237,26.3421244 456.85916,25.9433594 C457.633903,25.5673809 458.237739,24.9806355 458.670683,24.1831055 L461.319609,25.6357422 C460.567652,27.0029365 459.519486,28.0112272 458.175078,28.6606445 C456.978783,29.2417021 455.486285,29.5493162 453.697539,29.5834961 L448.450957,29.5834961 C445.16969,29.5151364 442.799923,28.4555767 441.341582,26.4047852 C439.940208,24.4223534 439.239531,21.2265845 439.239531,16.8173828 C439.239531,12.3740012 439.945904,9.16683928 441.358672,7.19580078 C442.828406,5.13361599 445.22096,4.07975283 448.536406,4.03417969 L453.646269,4.03417969 C455.446409,4.05696626 456.9503,4.36458037 458.157988,4.95703125 C459.502396,5.60644856 460.556259,6.61473926 461.319609,7.98193359 L458.670683,9.43457031 C458.226345,8.625647 457.616814,8.033205 456.84207,7.65722656 Z M482.095937,13.2456055 C483.611244,14.7153394 484.368887,17.0908039 484.368887,20.3720703 C484.368887,23.66473 483.611244,26.0458911 482.095937,27.515625 C480.637597,28.9169992 478.319098,29.6176758 475.140371,29.6176758 C471.961644,29.6176758 469.643145,28.9169992 468.184805,27.515625 C466.658104,26.0458911 465.894765,23.66473 465.894765,20.3720703 C465.894765,17.1933435 466.595442,14.8748445 467.996816,13.4165039 C469.46655,11.8898036 471.847711,11.1264648 475.140371,11.1264648 C478.319098,11.1264648 480.637597,11.832838 482.095937,13.2456055 Z M475.140371,14.1513672 C472.690814,14.1513672 471.033116,14.6013952 470.167226,15.5014648 C469.324123,16.3787479 468.902578,18.0022668 468.902578,20.3720703 C468.902578,22.8102335 469.358303,24.4679318 470.269765,25.3452148 C471.135655,26.1769247 472.759174,26.5927734 475.140371,26.5927734 C477.510174,26.5927734 479.133693,26.1769247 480.010976,25.3452148 C480.911046,24.4679318 481.361074,22.8102335 481.361074,20.3720703 C481.361074,17.9339071 480.911046,16.2819054 480.010976,15.4160156 C479.133693,14.5729125 477.510174,14.1513672 475.140371,14.1513672 Z M505.093945,13.5532227 L505.093945,4.37597656 L508.101758,4.37597656 L508.101758,29.2075195 L505.264844,29.2075195 L505.264844,26.9516602 C504.136908,28.7062262 502.006396,29.5834961 498.873242,29.5834961 C495.694515,29.5834961 493.376016,28.8828195 491.917676,27.4814453 C490.390975,26.0117114 489.627637,23.6305503 489.627637,20.3378906 C489.627637,17.1591638 490.328313,14.8406648 491.729687,13.3823242 C493.199421,11.8556239 495.580582,11.0922852 498.873242,11.0922852 C502.006396,11.0922852 504.079943,11.9125895 505.093945,13.5532227 Z M505.093945,20.2182617 C505.082552,17.8484582 504.632524,16.2363324 503.743847,15.3818359 C502.866564,14.5387328 501.243046,14.1171875 498.873242,14.1171875 C496.423686,14.1171875 494.765987,14.5672156 493.900097,15.4672852 C493.056994,16.3445682 492.635449,17.9680871 492.635449,20.3378906 C492.635449,22.7760539 493.091174,24.4337521 494.002637,25.3110352 C494.868526,26.142745 496.492045,26.5585938 498.873242,26.5585938 C501.243046,26.5585938 502.866564,26.142745 503.743847,25.3110352 C504.632524,24.4451454 505.082552,22.827323 505.093945,20.4575195 L505.093945,20.2182617 Z M528.297031,28.6264648 C526.964017,29.2872754 525.067063,29.6176758 522.606113,29.6176758 C519.199521,29.6176758 516.76709,28.9169992 515.30875,27.515625 C513.782049,26.0458911 513.018711,23.66473 513.018711,20.3720703 C513.018711,17.1933435 513.719387,14.8748445 515.120762,13.4165039 C516.590495,11.8898036 519.028622,11.1264648 522.435215,11.1264648 C525.727874,11.1264648 528.103339,11.832838 529.56168,13.2456055 C531.076987,14.7153394 531.834629,17.0908039 531.834629,20.3720703 L531.834629,21.7050781 L516.043613,21.7050781 C516.111973,23.3229248 516.562001,24.5362915 517.393711,25.3452148 C518.259601,26.1769247 519.997051,26.5927734 522.606113,26.5927734 C524.599938,26.5927734 526.05256,26.3706077 526.964023,25.9262695 C527.772947,25.5275045 528.348299,24.8553107 528.690097,23.909668 L531.527012,24.9350586 C530.911774,26.6326582 529.835125,27.8631147 528.297031,28.6264648 Z M516.060703,19.0390625 L528.826816,19.0390625 C528.63313,17.307283 528.183102,16.0996128 527.476719,15.4160156 C526.599436,14.5729125 524.918951,14.1513672 522.435215,14.1513672 C519.871725,14.1513672 518.157061,14.6013952 517.291172,15.5014648 C516.630361,16.1964553 516.220209,17.3756427 516.060703,19.0390625 Z" fill="#000000"></path>
        </g>
    </g>
</svg>