<?xml version="1.0" encoding="UTF-8"?>
<svg width="600px" height="41px" viewBox="0 0 600 41" version="1.1" xmlns="http://www.w3.org/2000/svg" xmlns:xlink="http://www.w3.org/1999/xlink">
    <!-- Generator: Sketch 41.2 (35397) - http://www.bohemiancoding.com/sketch -->
    <title>3</title>
    <desc>Created with Sketch.</desc>
    <defs></defs>
    <g id="Page-1" stroke="none" stroke-width="1" fill="none" fill-rule="evenodd">
        <g id="3" transform="translate(0.000000, 0.512207)">
            <rect id="base" fill="#FFFFFF" x="0" y="0" width="600" height="40"></rect>
            <path d="M14.1717482,4.16845703 L14.1717482,15.4819336 C14.1717482,19.6860562 14.9179972,22.5799074 16.4105177,24.1635742 C17.8004986,25.6560947 20.0050664,26.4023438 23.0242872,26.4023438 C26.0549014,26.4023438 28.2651657,25.6560947 29.6551466,24.1635742 C31.1362738,22.5799074 31.8768263,19.6860562 31.8768263,15.4819336 L31.8768263,4.16845703 L34.9017286,4.16845703 L34.9017286,15.4819336 C34.9017286,20.4721929 33.8820448,24.0553277 31.8426466,26.2314453 C29.8602148,28.3505965 26.9207911,29.4101562 23.0242872,29.4101562 C19.1391767,29.4101562 16.2054495,28.3505965 14.2230177,26.2314453 C12.1836195,24.0553277 11.1639357,20.4721929 11.1639357,15.4819336 L11.1639357,4.16845703 L14.1717482,4.16845703 Z M43.510088,4.16845703 L43.510088,29 L40.5022755,29 L40.5022755,4.16845703 L43.510088,4.16845703 Z M61.1027833,4.16845703 L61.1027833,15.9604492 L74.6550294,4.16845703 L78.9787599,4.16845703 L67.2551271,14.5419922 L79.3547364,29 L75.5607911,29 L65.0676271,16.644043 L61.1027833,20.1474609 L61.1027833,29 L58.0949708,29 L58.0949708,4.16845703 L61.1027833,4.16845703 Z M85.1090919,11.2607422 L85.1090919,29 L82.1012794,29 L82.1012794,11.2607422 L85.1090919,11.2607422 Z M85.1090919,4.16845703 L85.1090919,7.19335938 L82.1012794,7.19335938 L82.1012794,4.16845703 L85.1090919,4.16845703 Z M100.331221,29 C99.8982759,29.0455731 99.3115305,29.0683594 98.5709669,29.0683594 C96.941727,29.0683594 95.7169671,28.8860695 94.8966505,28.5214844 C93.1762643,27.6669879 92.2648151,25.6276203 92.1622755,22.4033203 L92.1622755,14.2685547 L90.026045,14.2685547 L90.026045,11.2607422 L92.1622755,11.2607422 L92.1622755,4.16845703 L95.170088,4.16845703 L95.170088,11.2607422 L99.100752,11.2607422 L99.100752,14.2685547 L95.170088,14.2685547 L95.170088,22.762207 C95.2156611,25.2915166 96.4859935,26.5561523 98.9811231,26.5561523 L99.3400099,26.5561523 C99.7387749,26.5561523 100.069175,26.5276696 100.331221,26.4707031 L100.331221,29 Z M106.905889,25.9921875 L103.898076,25.9921875 L103.898076,29 L105.265264,29 L103.727178,32.6743164 L105.367803,32.6743164 L106.905889,29 L106.905889,25.9921875 Z M138.751514,7.44970703 C137.94259,7.0623353 136.865941,6.85725923 135.521533,6.83447266 L130.480029,6.83447266 C128.189979,6.86865251 126.600639,7.50097041 125.711963,8.73144531 C124.675174,10.1783927 124.156787,12.8045057 124.156787,16.6098633 C124.156787,20.3924343 124.669477,23.0071542 125.694873,24.4541016 C126.583549,25.6845765 128.155799,26.3225909 130.41167,26.3681641 L135.555713,26.3681641 C136.888727,26.3453775 137.95968,26.1346049 138.768604,25.7358398 C139.543347,25.3598614 140.147182,24.773116 140.580127,23.9755859 L143.229053,25.4282227 C142.477096,26.795417 141.428929,27.8037077 140.084522,28.453125 C138.888227,29.0341826 137.395728,29.3417967 135.606982,29.3759766 L130.3604,29.3759766 C127.079134,29.3076168 124.709366,28.2480571 123.251025,26.1972656 C121.849651,24.2148338 121.148975,21.019065 121.148975,16.6098633 C121.148975,12.1664817 121.855348,8.95931975 123.268115,6.98828125 C124.737849,4.92609646 127.130403,3.8722333 130.44585,3.82666016 L135.555713,3.82666016 C137.355852,3.84944673 138.859743,4.15706084 140.067432,4.74951172 C141.411839,5.39892903 142.465703,6.40721973 143.229053,7.77441406 L140.580127,9.22705078 C140.135789,8.41812747 139.526257,7.82568547 138.751514,7.44970703 Z M164.005381,13.0380859 C165.520688,14.5078198 166.27833,16.8832844 166.27833,20.1645508 C166.27833,23.4572105 165.520688,25.8383716 164.005381,27.3081055 C162.54704,28.7094797 160.228541,29.4101562 157.049815,29.4101562 C153.871088,29.4101562 151.552589,28.7094797 150.094248,27.3081055 C148.567548,25.8383716 147.804209,23.4572105 147.804209,20.1645508 C147.804209,16.985824 148.504886,14.667325 149.90626,13.2089844 C151.375994,11.682284 153.757155,10.9189453 157.049815,10.9189453 C160.228541,10.9189453 162.54704,11.6253185 164.005381,13.0380859 Z M157.049815,13.9438477 C154.600258,13.9438477 152.94256,14.3938757 152.07667,15.2939453 C151.233567,16.1712283 150.812022,17.7947473 150.812022,20.1645508 C150.812022,22.602714 151.267746,24.2604123 152.179209,25.1376953 C153.045099,25.9694052 154.668618,26.3852539 157.049815,26.3852539 C159.419618,26.3852539 161.043137,25.9694052 161.92042,25.1376953 C162.82049,24.2604123 163.270518,22.602714 163.270518,20.1645508 C163.270518,17.7263875 162.82049,16.0743858 161.92042,15.2084961 C161.043137,14.3653929 159.419618,13.9438477 157.049815,13.9438477 Z M186.046357,28.453125 C184.724736,29.091149 182.970197,29.4101562 180.782686,29.4101562 C177.603959,29.4101562 175.28546,28.7094797 173.827119,27.3081055 C172.300419,25.8383716 171.53708,23.4572105 171.53708,20.1645508 C171.53708,16.985824 172.237757,14.667325 173.639131,13.2089844 C175.108865,11.682284 177.490026,10.9189453 180.782686,10.9189453 C182.970197,10.9189453 184.724736,11.2379525 186.046357,11.8759766 C187.573058,12.6051469 188.655404,13.7900309 189.293428,15.4306641 L186.490693,16.5073242 C186.137502,15.6186479 185.556453,14.9806334 184.747529,14.5932617 C183.84746,14.1603168 182.525858,13.9438477 180.782686,13.9438477 C178.333129,13.9438477 176.675431,14.3938757 175.809541,15.2939453 C174.966438,16.1712283 174.544893,17.7947473 174.544893,20.1645508 C174.544893,22.602714 175.000617,24.2604123 175.91208,25.1376953 C176.77797,25.9694052 178.401489,26.3852539 180.782686,26.3852539 C182.525858,26.3852539 183.84746,26.1744813 184.747529,25.7529297 C185.556453,25.365558 186.137502,24.7218469 186.490693,23.8217773 L189.293428,24.8984375 C188.655404,26.5390707 187.573058,27.7239547 186.046357,28.453125 Z M210.75335,13.0380859 C212.268657,14.5078198 213.026299,16.8832844 213.026299,20.1645508 C213.026299,23.4572105 212.268657,25.8383716 210.75335,27.3081055 C209.295009,28.7094797 206.97651,29.4101562 203.797783,29.4101562 C200.619056,29.4101562 198.300557,28.7094797 196.842217,27.3081055 C195.315516,25.8383716 194.552178,23.4572105 194.552178,20.1645508 C194.552178,16.985824 195.252854,14.667325 196.654229,13.2089844 C198.123962,11.682284 200.505124,10.9189453 203.797783,10.9189453 C206.97651,10.9189453 209.295009,11.6253185 210.75335,13.0380859 Z M203.797783,13.9438477 C201.348227,13.9438477 199.690528,14.3938757 198.824639,15.2939453 C197.981536,16.1712283 197.55999,17.7947473 197.55999,20.1645508 C197.55999,22.602714 198.015715,24.2604123 198.927178,25.1376953 C199.793068,25.9694052 201.416586,26.3852539 203.797783,26.3852539 C206.167587,26.3852539 207.791106,25.9694052 208.668389,25.1376953 C209.568458,24.2604123 210.018486,22.602714 210.018486,20.1645508 C210.018486,17.7263875 209.568458,16.0743858 208.668389,15.2084961 C207.791106,14.3653929 206.167587,13.9438477 203.797783,13.9438477 Z M233.922256,27.034668 C232.805714,28.5955482 230.675201,29.3759766 227.530654,29.3759766 C224.50004,29.3759766 222.289776,29.0000038 220.899795,28.2480469 C219.156622,27.3137974 218.285049,25.7472441 218.285049,23.5483398 C218.285049,21.0304236 219.401574,19.389815 221.634658,18.6264648 C223.047426,18.2504864 225.445676,18.0625 228.829482,18.0625 C231.336005,18.0625 232.976614,17.9770516 233.751357,17.8061523 L233.751357,16.8491211 C233.739964,15.8009388 233.392474,15.0831725 232.708877,14.6958008 C231.774628,14.1717096 230.048571,13.909668 227.530654,13.909668 C225.536829,13.909668 224.078511,14.1033509 223.155654,14.4907227 C222.437877,14.7869481 221.908097,15.3110314 221.566299,16.0629883 L218.814834,14.8325195 C219.487038,13.3627856 220.546598,12.3260121 221.993545,11.722168 C223.303773,11.1638969 225.149458,10.8847656 227.530654,10.8847656 C230.561268,10.8847656 232.777229,11.2778281 234.178604,12.0639648 C235.773664,12.9640344 236.628147,14.3938704 236.74208,16.3535156 L236.75917,16.3535156 L236.75917,29 L233.922256,29 L233.922256,27.034668 Z M233.751357,20.3525391 C232.771535,20.4778652 231.119533,20.5405273 228.795303,20.5405273 C226.641972,20.5405273 224.938701,20.6430654 223.685439,20.8481445 C222.090379,21.2469095 221.292861,22.1469656 221.292861,23.5483398 C221.292861,24.550949 221.634655,25.2345359 222.318252,25.5991211 C223.263895,26.1004257 225.001345,26.3510742 227.530654,26.3510742 C230.059964,26.3510742 231.791717,26.1004257 232.725967,25.5991211 C233.398171,25.2459292 233.739964,24.5851285 233.751357,23.6166992 L233.751357,20.3525391 Z M248.780576,4.16845703 L271.441709,4.16845703 L271.441709,7.17626953 L261.615049,7.17626953 L261.615049,29 L258.607236,29 L258.607236,7.17626953 L248.780576,7.17626953 L248.780576,4.16845703 Z M287.227803,13.0380859 C288.74311,14.5078198 289.500752,16.8832844 289.500752,20.1645508 C289.500752,23.4572105 288.74311,25.8383716 287.227803,27.3081055 C285.769462,28.7094797 283.450963,29.4101562 280.272236,29.4101562 C277.09351,29.4101562 274.775011,28.7094797 273.31667,27.3081055 C271.78997,25.8383716 271.026631,23.4572105 271.026631,20.1645508 C271.026631,16.985824 271.727307,14.667325 273.128682,13.2089844 C274.598416,11.682284 276.979577,10.9189453 280.272236,10.9189453 C283.450963,10.9189453 285.769462,11.6253185 287.227803,13.0380859 Z M280.272236,13.9438477 C277.82268,13.9438477 276.164982,14.3938757 275.299092,15.2939453 C274.455989,16.1712283 274.034443,17.7947473 274.034443,20.1645508 C274.034443,22.602714 274.490168,24.2604123 275.401631,25.1376953 C276.267521,25.9694052 277.89104,26.3852539 280.272236,26.3852539 C282.64204,26.3852539 284.265559,25.9694052 285.142842,25.1376953 C286.042911,24.2604123 286.492939,22.602714 286.492939,20.1645508 C286.492939,17.7263875 286.042911,16.0743858 285.142842,15.2084961 C284.265559,14.3653929 282.64204,13.9438477 280.272236,13.9438477 Z M310.225811,27.0859375 C309.211808,28.6126378 307.138261,29.3759766 304.005107,29.3759766 C300.712448,29.3759766 298.331287,28.6126378 296.861553,27.0859375 C295.460179,25.6275969 294.759502,23.3090979 294.759502,20.1303711 L294.759502,11.2607422 L297.767314,11.2607422 L297.767314,20.1303711 C297.767314,22.5115679 298.18886,24.1350868 299.031963,25.0009766 C299.897853,25.9010462 301.555551,26.3510742 304.005107,26.3510742 C306.374911,26.3510742 307.99843,25.9352255 308.875713,25.1035156 C309.764389,24.2376259 310.214417,22.6198035 310.225811,20.25 L310.225811,11.2607422 L313.233623,11.2607422 L313.233623,29 L310.225811,29 L310.225811,27.0859375 Z M333.00165,28.453125 C331.680029,29.091149 329.925489,29.4101562 327.737979,29.4101562 C324.559252,29.4101562 322.240753,28.7094797 320.782412,27.3081055 C319.255712,25.8383716 318.492373,23.4572105 318.492373,20.1645508 C318.492373,16.985824 319.19305,14.667325 320.594424,13.2089844 C322.064158,11.682284 324.445319,10.9189453 327.737979,10.9189453 C329.925489,10.9189453 331.680029,11.2379525 333.00165,11.8759766 C334.528351,12.6051469 335.610697,13.7900309 336.248721,15.4306641 L333.445986,16.5073242 C333.092794,15.6186479 332.511746,14.9806334 331.702822,14.5932617 C330.802753,14.1603168 329.481151,13.9438477 327.737979,13.9438477 C325.288422,13.9438477 323.630724,14.3938757 322.764834,15.2939453 C321.921731,16.1712283 321.500186,17.7947473 321.500186,20.1645508 C321.500186,22.602714 321.95591,24.2604123 322.867373,25.1376953 C323.733263,25.9694052 325.356782,26.3852539 327.737979,26.3852539 C329.481151,26.3852539 330.802753,26.1744813 331.702822,25.7529297 C332.511746,25.365558 333.092794,24.7218469 333.445986,23.8217773 L336.248721,24.8984375 C335.610697,26.5390707 334.528351,27.7239547 333.00165,28.453125 Z M344.515283,13.5166016 C345.540679,11.7620355 347.619922,10.8847656 350.753076,10.8847656 C354.034343,10.8847656 356.409807,11.6481043 357.879541,13.1748047 C359.280915,14.6331453 359.981592,16.9516443 359.981592,20.1303711 L359.981592,29 L356.973779,29 L356.973779,20.1303711 C356.973779,17.7605676 356.552234,16.1370487 355.709131,15.2597656 C354.843241,14.359696 353.191239,13.909668 350.753076,13.909668 C348.371879,13.909668 346.74836,14.3312132 345.882471,15.1743164 C344.993794,16.0288129 344.53807,17.6409387 344.515283,20.0107422 L344.515283,29 L341.507471,29 L341.507471,4.16845703 L344.515283,4.16845703 L344.515283,13.5166016 Z M394.954658,25.0522461 C395.30785,25.6333037 395.945864,26.0206696 396.868721,26.2143555 C397.153553,26.2827152 397.415594,26.3282876 397.654853,26.3510742 C397.928292,26.3852541 398.178941,26.4023438 398.406807,26.4023438 L398.406807,29.4101562 C398.030828,29.4101562 397.671945,29.38737 397.330146,29.3417969 C396.965561,29.307617 396.600982,29.2506514 396.236396,29.1708984 C394.61855,28.8177066 393.41088,28.0771541 392.61335,26.9492188 C391.485414,28.0999406 389.747964,28.8461897 387.400947,29.1879883 C386.865463,29.256348 386.358469,29.3133136 385.879951,29.3588867 C385.412826,29.3930666 384.917226,29.4101562 384.393135,29.4101562 C383.96019,29.4101562 383.550038,29.3987631 383.162666,29.3759766 C382.763901,29.35319 382.348052,29.3190106 381.915107,29.2734375 C379.260472,28.9999986 377.317946,28.2651427 376.087471,27.0688477 C374.845602,25.8611593 374.224678,24.1237093 374.224678,21.8564453 C374.224678,19.0650902 375.193092,17.0655985 377.129951,15.8579102 C377.186918,15.812337 377.24958,15.7724611 377.317939,15.7382812 C375.700093,14.6445258 374.891182,12.9127723 374.891182,10.5429688 C374.891182,8.10480552 375.711486,6.34456921 377.352119,5.26220703 C378.867426,4.28238442 381.362518,3.79248047 384.837471,3.79248047 C387.480713,3.79248047 389.474508,4.07161179 390.818916,4.62988281 C392.28865,5.25651355 393.31403,6.31607327 393.895088,7.80859375 L391.092353,8.90234375 C390.818915,8.19596001 390.340404,7.69466294 389.656807,7.3984375 C388.699771,6.99967249 387.093341,6.80029297 384.837471,6.80029297 C381.954969,6.80029297 380.006747,7.13069331 378.992744,7.79150391 C378.263574,8.27002192 377.898994,9.1871677 377.898994,10.5429688 C377.898994,11.9215564 378.326236,12.8614884 379.180732,13.362793 C380.240308,13.9894237 382.188531,14.3027344 385.025459,14.3027344 L391.331611,14.3027344 L391.331611,11.7563477 L394.356514,11.7563477 L394.356514,14.3027344 L397.825752,14.3027344 L397.825752,17.3105469 L394.356514,17.3105469 L394.356514,21.8564453 C394.356514,23.3261792 394.555893,24.3914355 394.954658,25.0522461 Z M391.331611,17.3105469 L385.025459,17.3105469 C381.972058,17.3105469 379.870029,17.6751266 378.719307,18.4042969 C377.728091,19.0195343 377.23249,20.170239 377.23249,21.8564453 C377.23249,23.2806061 377.551497,24.2945933 378.189521,24.8984375 C378.918692,25.6162145 380.257383,26.0776357 382.205635,26.2827148 C382.6044,26.3168947 382.974676,26.3453775 383.316475,26.3681641 C383.703846,26.3909506 384.062729,26.4023438 384.393135,26.4023438 C384.769113,26.4023438 385.190658,26.3852541 385.657783,26.3510742 C386.102121,26.3168944 386.546453,26.2656253 386.990791,26.1972656 C388.676997,25.9580066 389.844792,25.4965854 390.494209,24.8129883 C391.05248,24.1977508 391.331611,23.2122464 391.331611,21.8564453 L391.331611,17.3105469 Z M410.599111,29 L421.468252,4.16845703 L424.749502,4.16845703 L435.635732,29 L432.354482,29 L429.449209,22.3691406 L416.785635,22.3691406 L413.880361,29 L410.599111,29 Z M428.133291,19.3442383 L423.108877,7.91113281 L418.101553,19.3442383 L428.133291,19.3442383 Z M441.851514,26.7441406 L441.851514,36.0922852 L438.843701,36.0922852 L438.843701,11.2607422 L441.680615,11.2607422 L441.680615,13.8583984 C442.819944,11.8759667 444.956153,10.8847656 448.089307,10.8847656 C451.268033,10.8847656 453.586532,11.5911388 455.044873,13.0039062 C456.56018,14.4736402 457.317822,16.8491047 457.317822,20.1303711 C457.317822,23.3090979 456.617146,25.6275969 455.215771,27.0859375 C453.746038,28.6126378 451.370573,29.3759766 448.089307,29.3759766 C444.956153,29.3759766 442.876909,28.4987067 441.851514,26.7441406 Z M441.851514,20.25 C441.8743,22.6198035 442.330025,24.2376259 443.218701,25.1035156 C444.084591,25.9352255 445.70811,26.3510742 448.089307,26.3510742 C450.52747,26.3510742 452.179472,25.9010462 453.045361,25.0009766 C453.888464,24.1350868 454.31001,22.5115679 454.31001,20.1303711 C454.31001,17.6922079 453.859982,16.0402062 452.959912,15.1743164 C452.082629,14.3312132 450.45911,13.909668 448.089307,13.909668 C445.70811,13.909668 444.084591,14.3312132 443.218701,15.1743164 C442.330025,16.0288129 441.8743,17.6409387 441.851514,20.0107422 L441.851514,20.25 Z M465.584385,26.7441406 L465.584385,36.0922852 L462.576572,36.0922852 L462.576572,11.2607422 L465.413486,11.2607422 L465.413486,13.8583984 C466.552815,11.8759667 468.689024,10.8847656 471.822178,10.8847656 C475.000904,10.8847656 477.319403,11.5911388 478.777744,13.0039062 C480.293051,14.4736402 481.050693,16.8491047 481.050693,20.1303711 C481.050693,23.3090979 480.350017,25.6275969 478.948643,27.0859375 C477.478909,28.6126378 475.103444,29.3759766 471.822178,29.3759766 C468.689024,29.3759766 466.60978,28.4987067 465.584385,26.7441406 Z M465.584385,20.25 C465.607171,22.6198035 466.062896,24.2376259 466.951572,25.1035156 C467.817462,25.9352255 469.440981,26.3510742 471.822178,26.3510742 C474.260341,26.3510742 475.912343,25.9010462 476.778232,25.0009766 C477.621336,24.1350868 478.042881,22.5115679 478.042881,20.1303711 C478.042881,17.6922079 477.592853,16.0402062 476.692783,15.1743164 C475.8155,14.3312132 474.191981,13.909668 471.822178,13.909668 C469.440981,13.909668 467.817462,14.3312132 466.951572,15.1743164 C466.062896,16.0288129 465.607171,17.6409387 465.584385,20.0107422 L465.584385,20.25 Z M495.161982,29.0170898 C494.729037,29.062663 494.142292,29.0854492 493.401728,29.0854492 C491.772489,29.0854492 490.547729,28.9031594 489.727412,28.5385742 C488.007026,27.6840778 487.095577,25.6447101 486.993037,22.4204102 L486.993037,4.16845703 L490.00085,4.16845703 L490.00085,22.7792969 C490.046423,25.3086064 491.316755,26.5732422 493.811885,26.5732422 L494.170771,26.5732422 C494.569536,26.5732422 494.899937,26.5447594 495.161982,26.487793 L495.161982,29.0170898 Z M512.793779,28.4189453 C511.460765,29.0797559 509.563811,29.4101562 507.102861,29.4101562 C503.696269,29.4101562 501.263839,28.7094797 499.805498,27.3081055 C498.278798,25.8383716 497.515459,23.4572105 497.515459,20.1645508 C497.515459,16.985824 498.216135,14.667325 499.61751,13.2089844 C501.087244,11.682284 503.52537,10.9189453 506.931963,10.9189453 C510.224622,10.9189453 512.600087,11.6253185 514.058428,13.0380859 C515.573735,14.5078198 516.331377,16.8832844 516.331377,20.1645508 L516.331377,21.4975586 L500.540361,21.4975586 C500.608721,23.1154052 501.058749,24.328772 501.890459,25.1376953 C502.756349,25.9694052 504.493799,26.3852539 507.102861,26.3852539 C509.096686,26.3852539 510.549309,26.1630882 511.460771,25.71875 C512.269695,25.319985 512.845047,24.6477912 513.186846,23.7021484 L516.02376,24.7275391 C515.408522,26.4251387 514.331873,27.6555951 512.793779,28.4189453 Z M500.557451,18.831543 L513.323564,18.831543 C513.129879,17.0997635 512.67985,15.8920933 511.973467,15.2084961 C511.096184,14.3653929 509.415699,13.9438477 506.931963,13.9438477 C504.368473,13.9438477 502.65381,14.3938757 501.78792,15.2939453 C501.127109,15.9889358 500.716957,17.1681232 500.557451,18.831543 Z M533.240478,4.16845703 L533.240478,15.0717773 L547.442139,15.0717773 L547.442139,4.16845703 L550.449951,4.16845703 L550.449951,29 L547.442139,29 L547.442139,18.0966797 L533.240478,18.0966797 L533.240478,29 L530.232666,29 L530.232666,4.16845703 L533.240478,4.16845703 Z M559.05831,4.16845703 L559.05831,29 L556.050498,29 L556.050498,4.16845703 L559.05831,4.16845703 Z M582.432295,7.74023438 C581.122067,7.11360364 579.264989,6.80029297 576.861006,6.80029297 C573.34048,6.80029297 570.919443,7.52375579 569.597822,8.97070312 C568.310381,10.3834706 567.66667,12.9241353 567.66667,16.5927734 C567.66667,20.3639511 568.36165,22.9558849 569.751631,24.3686523 C571.061859,25.7016668 573.431627,26.3681641 576.861006,26.3681641 C580.278992,26.3681641 582.643063,25.7016668 583.953291,24.3686523 C585.160979,23.1381774 585.844566,21.0475408 586.004072,18.0966797 L576.861006,18.0966797 L576.861006,15.0717773 L589.046064,15.0717773 L589.046064,16.5927734 C589.046064,21.1728745 588.06056,24.4654848 586.089521,26.4707031 C584.186843,28.4075618 581.110701,29.3759766 576.861006,29.3759766 C572.599917,29.3759766 569.518079,28.4075618 567.6154,26.4707031 C565.644362,24.4654848 564.658857,21.1728745 564.658857,16.5927734 C564.658857,12.1493918 565.56461,8.93083679 567.376142,6.93701172 C569.290215,4.84064707 572.451804,3.79248047 576.861006,3.79248047 C579.709327,3.79248047 581.999343,4.20263262 583.731123,5.02294922 C585.667982,5.9458054 587.069335,7.44969661 587.935224,9.53466797 L585.14958,10.6796875 C584.591309,9.32388645 583.685556,8.34407854 582.432295,7.74023438 Z" fill="#000000"></path>
        </g>
    </g>
</svg>