<?xml version="1.0" encoding="UTF-8"?>
<svg width="600px" height="40px" viewBox="0 0 600 40" version="1.1" xmlns="http://www.w3.org/2000/svg" xmlns:xlink="http://www.w3.org/1999/xlink">
    <!-- Generator: Sketch 41.2 (35397) - http://www.bohemiancoding.com/sketch -->
    <title>4</title>
    <desc>Created with Sketch.</desc>
    <defs></defs>
    <g id="Page-1" stroke="none" stroke-width="1" fill="none" fill-rule="evenodd">
        <g id="4">
            <rect id="base" fill="#FFFFFF" x="0" y="0" width="600" height="40"></rect>
            <path d="M44.2890821,6.16845703 L51.7744337,26.625 L59.2597853,6.16845703 L62.4726759,6.16845703 L69.9580275,26.625 L77.4604689,6.16845703 L80.6733595,6.16845703 L71.5644728,31 L68.3515821,31 L60.8662306,10.543457 L53.380879,31 L50.1679884,31 L41.0932814,6.16845703 L44.2890821,6.16845703 Z M97.3481251,30.4189453 C96.0151106,31.0797559 94.1181569,31.4101562 91.6572071,31.4101562 C88.2506146,31.4101562 85.8181845,30.7094797 84.3598439,29.3081055 C82.8331435,27.8383716 82.0698048,25.4572105 82.0698048,22.1645508 C82.0698048,18.985824 82.7704814,16.667325 84.1718556,15.2089844 C85.6415895,13.682284 88.0797161,12.9189453 91.4863087,12.9189453 C94.7789684,12.9189453 97.1544329,13.6253185 98.6127735,15.0380859 C100.128081,16.5078198 100.885723,18.8832844 100.885723,22.1645508 L100.885723,23.4975586 L85.0947071,23.4975586 C85.1630668,25.1154052 85.6130949,26.328772 86.4448048,27.1376953 C87.3106945,27.9694052 89.0481446,28.3852539 91.6572071,28.3852539 C93.6510322,28.3852539 95.1036544,28.1630882 96.0151173,27.71875 C96.8240406,27.319985 97.3993929,26.6477912 97.7411915,25.7021484 L100.578106,26.7275391 C99.9628681,28.4251387 98.8862187,29.6555951 97.3481251,30.4189453 Z M85.111797,20.831543 L97.8779103,20.831543 C97.6842244,19.0997635 97.2341963,17.8920933 96.5278126,17.2084961 C95.6505296,16.3653929 93.9700451,15.9438477 91.4863087,15.9438477 C88.9228193,15.9438477 87.2081555,16.3938757 86.3422657,17.2939453 C85.6814551,17.9889358 85.271303,19.1681232 85.111797,20.831543 Z M110.177676,17.1743164 C109.289,18.0288129 108.833275,19.6409387 108.810488,22.0107422 L108.810488,22.25 C108.833275,24.6198035 109.289,26.2376259 110.177676,27.1035156 C111.043566,27.9352255 112.667085,28.3510742 115.048281,28.3510742 C117.418085,28.3510742 119.041604,27.9352255 119.918887,27.1035156 C120.818956,26.2262326 121.268984,24.5685343 121.268984,22.1303711 C121.268984,19.7605676 120.847439,18.1370487 120.004336,17.2597656 C119.138446,16.359696 117.486445,15.909668 115.048281,15.909668 C112.667085,15.909668 111.043566,16.3312132 110.177676,17.1743164 Z M108.810488,6.16845703 L108.810488,15.3457031 C109.835884,13.7050699 111.915128,12.8847656 115.048281,12.8847656 C118.329548,12.8847656 120.705012,13.6481043 122.174746,15.1748047 C123.57612,16.6331453 124.276797,18.9516443 124.276797,22.1303711 C124.276797,25.4230308 123.519155,27.8041919 122.003848,29.2739258 C120.545507,30.6753 118.227008,31.3759766 115.048281,31.3759766 C111.915128,31.3759766 109.778919,30.4987067 108.63959,28.7441406 L108.63959,31 L105.802676,31 L105.802676,6.16845703 L108.810488,6.16845703 Z M141.015,24.2666016 C141.015,25.7135489 141.516297,26.716143 142.518906,27.2744141 C143.863314,28.0263709 146.164723,28.4023438 149.423203,28.4023438 C152.579143,28.4023438 154.829284,28.0491572 156.173691,27.3427734 C157.267447,26.7731091 157.814316,25.7249425 157.814316,24.1982422 C157.814316,22.6829351 157.267447,21.6404651 156.173691,21.0708008 C154.81789,20.364417 152.56775,20.0112305 149.423203,20.0112305 C145.777352,20.0112305 143.060094,19.5441127 141.271348,18.6098633 C139.09523,17.4705347 138.007188,15.5792775 138.007188,12.9360352 C138.007188,10.3725458 139.021175,8.52116455 141.04918,7.38183594 C142.849319,6.36783347 145.640632,5.86083984 149.423203,5.86083984 C153.057661,5.86083984 155.769223,6.32226101 157.557969,7.24511719 C159.734086,8.3844458 160.822129,10.3041857 160.822129,13.0043945 L157.814316,13.0043945 C157.814316,11.5232673 157.267447,10.497887 156.173691,9.92822266 C154.829284,9.22183892 152.579143,8.86865234 149.423203,8.86865234 C146.164723,8.86865234 143.863314,9.24462515 142.518906,9.99658203 C141.516297,10.5662463 141.015,11.5460542 141.015,12.9360352 C141.015,14.3715892 141.56187,15.3741833 142.655625,15.9438477 C144.011426,16.6388381 146.267263,16.9863281 149.423203,16.9863281 C153.057661,16.9863281 155.769223,17.4534458 157.557969,18.3876953 C159.734086,19.5270239 160.822129,21.4638535 160.822129,24.1982422 C160.822129,26.9440241 159.734086,28.8865503 157.557969,30.0258789 C155.769223,30.9487351 153.057661,31.4101562 149.423203,31.4101562 C145.640632,31.4101562 142.849319,30.9031626 141.04918,29.8891602 C139.021175,28.7612248 138.007188,26.8870574 138.007188,24.2666016 L141.015,24.2666016 Z M180.504707,30.4189453 C179.171693,31.0797559 177.274739,31.4101562 174.813789,31.4101562 C171.407197,31.4101562 168.974766,30.7094797 167.516426,29.3081055 C165.989726,27.8383716 165.226387,25.4572105 165.226387,22.1645508 C165.226387,18.985824 165.927063,16.667325 167.328438,15.2089844 C168.798171,13.682284 171.236298,12.9189453 174.642891,12.9189453 C177.93555,12.9189453 180.311015,13.6253185 181.769356,15.0380859 C183.284663,16.5078198 184.042305,18.8832844 184.042305,22.1645508 L184.042305,23.4975586 L168.251289,23.4975586 C168.319649,25.1154052 168.769677,26.328772 169.601387,27.1376953 C170.467277,27.9694052 172.204727,28.3852539 174.813789,28.3852539 C176.807614,28.3852539 178.260236,28.1630882 179.171699,27.71875 C179.980623,27.319985 180.555975,26.6477912 180.897774,25.7021484 L183.734688,26.7275391 C183.11945,28.4251387 182.042801,29.6555951 180.504707,30.4189453 Z M168.268379,20.831543 L181.034492,20.831543 C180.840806,19.0997635 180.390778,17.8920933 179.684395,17.2084961 C178.807112,16.3653929 177.126627,15.9438477 174.642891,15.9438477 C172.079401,15.9438477 170.364737,16.3938757 169.498848,17.2939453 C168.838037,17.9889358 168.427885,19.1681232 168.268379,20.831543 Z M191.796172,15.8583984 C192.935501,13.8759667 195.07171,12.8847656 198.204863,12.8847656 C201.372197,12.8847656 203.690696,13.6481043 205.16043,15.1748047 C206.561804,16.6331453 207.262481,18.9516443 207.262481,22.1303711 L204.254668,22.1303711 C204.254668,19.7605676 203.833123,18.1370487 202.99002,17.2597656 C202.12413,16.359696 200.529094,15.909668 198.204863,15.909668 C195.823667,15.909668 194.200148,16.3312132 193.334258,17.1743164 C192.445582,18.0288129 191.989857,19.6409387 191.96707,22.0107422 L191.96707,31 L188.959258,31 L188.959258,13.2607422 L191.796172,13.2607422 L191.796172,15.8583984 Z M211.854727,13.2607422 L219.066641,27.6503906 L226.278555,13.2607422 L229.628164,13.2607422 L220.741445,31 L217.391836,31 L208.505117,13.2607422 L211.854727,13.2607422 Z M236.014844,13.2607422 L236.014844,31 L233.007031,31 L233.007031,13.2607422 L236.014844,13.2607422 Z M236.014844,6.16845703 L236.014844,9.19335938 L233.007031,9.19335938 L233.007031,6.16845703 L236.014844,6.16845703 Z M255.95377,30.453125 C254.632148,31.091149 252.877609,31.4101562 250.690098,31.4101562 C247.511371,31.4101562 245.192872,30.7094797 243.734531,29.3081055 C242.207831,27.8383716 241.444492,25.4572105 241.444492,22.1645508 C241.444492,18.985824 242.145169,16.667325 243.546543,15.2089844 C245.016277,13.682284 247.397438,12.9189453 250.690098,12.9189453 C252.877609,12.9189453 254.632148,13.2379525 255.95377,13.8759766 C257.48047,14.6051469 258.562816,15.7900309 259.20084,17.4306641 L256.398106,18.5073242 C256.044914,17.6186479 255.463865,16.9806334 254.654941,16.5932617 C253.754872,16.1603168 252.43327,15.9438477 250.690098,15.9438477 C248.240541,15.9438477 246.582843,16.3938757 245.716953,17.2939453 C244.87385,18.1712283 244.452305,19.7947473 244.452305,22.1645508 C244.452305,24.602714 244.908029,26.2604123 245.819492,27.1376953 C246.685382,27.9694052 248.308901,28.3852539 250.690098,28.3852539 C252.43327,28.3852539 253.754872,28.1744813 254.654941,27.7529297 C255.463865,27.365558 256.044914,26.7218469 256.398106,25.8217773 L259.20084,26.8984375 C258.562816,28.5390707 257.48047,29.7239547 255.95377,30.453125 Z M279.396113,30.4189453 C278.063099,31.0797559 276.166145,31.4101562 273.705195,31.4101562 C270.298603,31.4101562 267.866173,30.7094797 266.407832,29.3081055 C264.881132,27.8383716 264.117793,25.4572105 264.117793,22.1645508 C264.117793,18.985824 264.81847,16.667325 266.219844,15.2089844 C267.689578,13.682284 270.127704,12.9189453 273.534297,12.9189453 C276.826957,12.9189453 279.202421,13.6253185 280.660762,15.0380859 C282.176069,16.5078198 282.933711,18.8832844 282.933711,22.1645508 L282.933711,23.4975586 L267.142695,23.4975586 C267.211055,25.1154052 267.661083,26.328772 268.492793,27.1376953 C269.358683,27.9694052 271.096133,28.3852539 273.705195,28.3852539 C275.69902,28.3852539 277.151643,28.1630882 278.063105,27.71875 C278.872029,27.319985 279.447381,26.6477912 279.78918,25.7021484 L282.626094,26.7275391 C282.010856,28.4251387 280.934207,29.6555951 279.396113,30.4189453 Z M267.159785,20.831543 L279.925898,20.831543 C279.732213,19.0997635 279.282185,17.8920933 278.575801,17.2084961 C277.698518,16.3653929 276.018033,15.9438477 273.534297,15.9438477 C270.970808,15.9438477 269.256144,16.3938757 268.390254,17.2939453 C267.729443,17.9889358 267.319291,19.1681232 267.159785,20.831543 Z M290.260332,26.0268555 C290.260332,26.8357788 290.585036,27.3940414 291.234453,27.7016602 C292.191489,28.1573916 293.946029,28.3852539 296.498125,28.3852539 C299.050221,28.3852539 300.799064,28.1573916 301.744707,27.7016602 C302.394124,27.3940414 302.718828,26.8357788 302.718828,26.0268555 C302.718828,25.0470329 302.063724,24.3862322 300.753496,24.0444336 C299.978753,23.8393544 298.548917,23.7140302 296.463945,23.668457 C293.387758,23.6000973 291.274335,23.3380557 290.123613,22.8823242 C288.209541,22.118974 287.25252,20.5922966 287.25252,18.3022461 C287.25252,16.308421 288.084217,14.8785851 289.747637,14.0126953 C291.137618,13.283525 293.387758,12.9189453 296.498125,12.9189453 C299.494559,12.9189453 301.682037,13.2550422 303.060625,13.9272461 C304.837978,14.7817426 305.726641,16.2400613 305.726641,18.3022461 L302.718828,18.3022461 C302.718828,17.4933228 302.394124,16.9350601 301.744707,16.6274414 C300.799064,16.17171 299.050221,15.9438477 296.498125,15.9438477 C293.866276,15.9438477 292.077557,16.1887996 291.131914,16.6787109 C290.550856,16.9749364 290.260332,17.5161094 290.260332,18.3022461 C290.260332,19.2820687 290.915436,19.9428694 292.225664,20.284668 C293.011801,20.4897471 294.447333,20.6150714 296.532305,20.6606445 C299.597099,20.7403975 301.704825,21.0081357 302.855547,21.4638672 C304.769619,22.2158241 305.726641,23.736805 305.726641,26.0268555 C305.726641,28.0890403 304.837978,29.5530556 303.060625,30.4189453 C301.682037,31.0797559 299.494559,31.4101562 296.498125,31.4101562 C293.490297,31.4101562 291.302819,31.0797559 289.935625,30.4189453 C288.146879,29.5530556 287.25252,28.0890403 287.25252,26.0268555 L290.260332,26.0268555 Z M313.395059,27.9921875 L310.387246,27.9921875 L310.387246,31 L311.754434,31 L310.216348,34.6743164 L311.856973,34.6743164 L313.395059,31 L313.395059,27.9921875 Z M330.645957,18.0288086 L338.609824,18.0288086 C341.446752,17.9946287 343.406368,17.6243525 344.48873,16.9179688 C345.411587,16.3141246 345.873008,15.2089924 345.873008,13.6025391 C345.873008,11.9846924 345.40589,10.8738637 344.471641,10.2700195 C343.389278,9.56363579 341.412573,9.1990561 338.541465,9.17626953 L330.645957,9.17626953 L330.645957,18.0288086 Z M327.638145,31 L327.638145,6.16845703 L338.541465,6.16845703 C341.970844,6.16845703 344.494419,6.69254033 346.112266,7.74072266 C347.957978,8.9370177 348.88082,10.890937 348.88082,13.6025391 C348.858034,16.4622539 347.826957,18.40478 345.787559,19.4301758 C344.955849,19.8403341 343.919075,20.1308585 342.677207,20.3017578 C344.055795,21.0195348 345.160927,21.9480737 345.992637,23.0874023 C346.983853,24.4545967 348.140254,26.5908058 349.461875,29.4960938 L350.145469,31 L346.830039,31 L346.71041,30.7436523 C345.525508,28.10041 344.500128,26.18067 343.634238,24.984375 C342.141718,22.9221902 340.398571,21.6005888 338.404746,21.0195312 L330.645957,21.0195312 L330.645957,31 L327.638145,31 Z M371.229414,9.19335938 L355.848555,9.19335938 L355.848555,17.0717773 L369.46916,17.0717773 L369.46916,20.0966797 L355.848555,20.0966797 L355.848555,27.9921875 L371.229414,27.9921875 L371.229414,31 L352.840742,31 L352.840742,6.16845703 L371.229414,6.16845703 L371.229414,9.19335938 Z M377.667363,24.2666016 C377.667363,25.7135489 378.16866,26.716143 379.17127,27.2744141 C380.515677,28.0263709 382.817087,28.4023438 386.075566,28.4023438 C389.231507,28.4023438 391.481647,28.0491572 392.826055,27.3427734 C393.91981,26.7731091 394.46668,25.7249425 394.46668,24.1982422 C394.46668,22.6829351 393.91981,21.6404651 392.826055,21.0708008 C391.470254,20.364417 389.220113,20.0112305 386.075566,20.0112305 C382.429715,20.0112305 379.712457,19.5441127 377.923711,18.6098633 C375.747593,17.4705347 374.659551,15.5792775 374.659551,12.9360352 C374.659551,10.3725458 375.673538,8.52116455 377.701543,7.38183594 C379.501682,6.36783347 382.292995,5.86083984 386.075566,5.86083984 C389.710025,5.86083984 392.421586,6.32226101 394.210332,7.24511719 C396.38645,8.3844458 397.474492,10.3041857 397.474492,13.0043945 L394.46668,13.0043945 C394.46668,11.5232673 393.91981,10.497887 392.826055,9.92822266 C391.481647,9.22183892 389.231507,8.86865234 386.075566,8.86865234 C382.817087,8.86865234 380.515677,9.24462515 379.17127,9.99658203 C378.16866,10.5662463 377.667363,11.5460542 377.667363,12.9360352 C377.667363,14.3715892 378.214233,15.3741833 379.307988,15.9438477 C380.663789,16.6388381 382.919626,16.9863281 386.075566,16.9863281 C389.710025,16.9863281 392.421586,17.4534458 394.210332,18.3876953 C396.38645,19.5270239 397.474492,21.4638535 397.474492,24.1982422 C397.474492,26.9440241 396.38645,28.8865503 394.210332,30.0258789 C392.421586,30.9487351 389.710025,31.4101562 386.075566,31.4101562 C382.292995,31.4101562 379.501682,30.9031626 377.701543,29.8891602 C375.673538,28.7612248 374.659551,26.8870574 374.659551,24.2666016 L377.667363,24.2666016 Z M399.998867,6.16845703 L422.66,6.16845703 L422.66,9.17626953 L412.83334,9.17626953 L412.83334,31 L409.825527,31 L409.825527,9.17626953 L399.998867,9.17626953 L399.998867,6.16845703 Z M426.158496,31 L426.158496,16.1147461 L424.67168,16.1147461 L424.67168,13.0898438 L426.158496,13.0898438 L426.158496,11.4150391 C426.158496,10.777015 426.192675,10.1959662 426.261035,9.671875 C426.340788,9.10221069 426.466112,8.61230674 426.637012,8.20214844 L426.637012,8.18505859 C426.876271,7.63818086 427.200974,7.1482769 427.611133,6.71533203 C428.009898,6.28238716 428.482712,5.90641436 429.02959,5.58740234 C429.576468,5.26839033 430.225875,5.02913491 430.977832,4.86962891 C431.684216,4.73290947 432.453251,4.66455078 433.284961,4.66455078 C434.766088,4.66455078 436.156048,4.85823374 437.454883,5.24560547 L436.822559,8.18505859 C435.660443,7.84326001 434.481256,7.67236328 433.284961,7.67236328 C432.62415,7.67236328 432.054495,7.7236323 431.575977,7.82617188 C431.154425,7.90592488 430.806935,8.03124915 430.533496,8.20214844 L430.516406,8.20214844 C430.231574,8.36165444 429.998015,8.54394429 429.815723,8.74902344 C429.644823,8.93131602 429.508106,9.13639209 429.405566,9.36425781 C429.337207,9.52376382 429.280241,9.75732268 429.234668,10.0649414 C429.189095,10.4181333 429.166309,10.8681613 429.166309,11.4150391 L429.166309,13.0898438 L435.352832,13.0898438 L435.352832,16.1147461 L429.166309,16.1147461 L429.166309,31 L426.158496,31 Z M454.198008,29.0859375 C453.184005,30.6126378 451.110458,31.3759766 447.977305,31.3759766 C444.684645,31.3759766 442.303484,30.6126378 440.83375,29.0859375 C439.432376,27.6275969 438.731699,25.3090979 438.731699,22.1303711 L438.731699,13.2607422 L441.739512,13.2607422 L441.739512,22.1303711 C441.739512,24.5115679 442.161057,26.1350868 443.00416,27.0009766 C443.87005,27.9010462 445.527748,28.3510742 447.977305,28.3510742 C450.347108,28.3510742 451.970627,27.9352255 452.84791,27.1035156 C453.736586,26.2376259 454.186614,24.6198035 454.198008,22.25 L454.198008,13.2607422 L457.20582,13.2607422 L457.20582,31 L454.198008,31 L454.198008,29.0859375 Z M471.317109,31.0170898 C470.884164,31.062663 470.297419,31.0854492 469.556855,31.0854492 C467.927615,31.0854492 466.702856,30.9031594 465.882539,30.5385742 C464.162153,29.6840778 463.250704,27.6447101 463.148164,24.4204102 L463.148164,6.16845703 L466.155977,6.16845703 L466.155977,24.7792969 C466.20155,27.3086064 467.471882,28.5732422 469.967012,28.5732422 L470.325898,28.5732422 C470.724663,28.5732422 471.055064,28.5447594 471.317109,28.487793 L471.317109,31.0170898 Z M480.945937,31 L491.815078,6.16845703 L495.096328,6.16845703 L505.982559,31 L502.701309,31 L499.796035,24.3691406 L487.132461,24.3691406 L484.227187,31 L480.945937,31 Z M498.480117,21.3442383 L493.455703,9.91113281 L488.448379,21.3442383 L498.480117,21.3442383 Z M512.19834,19.5839844 L520.640723,19.5839844 C522.759874,19.5498045 524.206799,19.1909214 524.981543,18.5073242 C525.744893,17.8465136 526.126562,16.4679467 526.126562,14.371582 C526.126562,12.2752174 525.744893,10.8966504 524.981543,10.2358398 C524.195406,9.55224268 522.725694,9.1990561 520.572363,9.17626953 L512.19834,9.17626953 L512.19834,19.5839844 Z M512.19834,31 L509.190527,31 L509.190527,6.16845703 L520.589453,6.16845703 C523.460561,6.16845703 525.585377,6.77229214 526.963965,7.97998047 C528.410912,9.24463523 529.134375,11.3751478 529.134375,14.371582 C529.134375,17.3680163 528.416609,19.4985288 526.981055,20.7631836 C525.64804,21.9366921 523.54601,22.5405272 520.674902,22.574707 L512.19834,22.574707 L512.19834,31 Z M536.187559,6.16845703 L536.187559,31 L533.179746,31 L533.179746,6.16845703 L536.187559,6.16845703 Z M544.197773,26.0268555 C544.197773,26.8357788 544.522477,27.3940414 545.171894,27.7016602 C546.12893,28.1573916 547.88347,28.3852539 550.435566,28.3852539 C552.987662,28.3852539 554.736506,28.1573916 555.682148,27.7016602 C556.331566,27.3940414 556.656269,26.8357788 556.656269,26.0268555 C556.656269,25.0470329 556.001165,24.3862322 554.690937,24.0444336 C553.916194,23.8393544 552.486358,23.7140302 550.401387,23.668457 C547.325199,23.6000973 545.211776,23.3380557 544.061055,22.8823242 C542.146983,22.118974 541.189961,20.5922966 541.189961,18.3022461 C541.189961,16.308421 542.021658,14.8785851 543.685078,14.0126953 C545.075059,13.283525 547.325199,12.9189453 550.435566,12.9189453 C553.432001,12.9189453 555.619479,13.2550422 556.998066,13.9272461 C558.775419,14.7817426 559.664082,16.2400613 559.664082,18.3022461 L556.656269,18.3022461 C556.656269,17.4933228 556.331566,16.9350601 555.682148,16.6274414 C554.736506,16.17171 552.987662,15.9438477 550.435566,15.9438477 C547.803717,15.9438477 546.014998,16.1887996 545.069355,16.6787109 C544.488298,16.9749364 544.197773,17.5161094 544.197773,18.3022461 C544.197773,19.2820687 544.852877,19.9428694 546.163105,20.284668 C546.949242,20.4897471 548.384775,20.6150714 550.469746,20.6606445 C553.53454,20.7403975 555.642266,21.0081357 556.792988,21.4638672 C558.70706,22.2158241 559.664082,23.736805 559.664082,26.0268555 C559.664082,28.0890403 558.775419,29.5530556 556.998066,30.4189453 C555.619479,31.0797559 553.432001,31.4101562 550.435566,31.4101562 C547.427739,31.4101562 545.240261,31.0797559 543.873066,30.4189453 C542.08432,29.5530556 541.189961,28.0890403 541.189961,26.0268555 L544.197773,26.0268555 Z" fill="#000000"></path>
        </g>
    </g>
</svg>