<?xml version="1.0" encoding="UTF-8"?>
<svg width="600px" height="40px" viewBox="0 0 600 40" version="1.1" xmlns="http://www.w3.org/2000/svg" xmlns:xlink="http://www.w3.org/1999/xlink">
    <!-- Generator: Sketch 41.2 (35397) - http://www.bohemiancoding.com/sketch -->
    <title>5</title>
    <desc>Created with Sketch.</desc>
    <defs></defs>
    <g id="Page-1" stroke="none" stroke-width="1" fill="none" fill-rule="evenodd">
        <g id="5">
            <rect id="base" fill="#FFFFFF" x="0" y="0" width="600" height="40"></rect>
            <path d="M28.2598634,10.1933594 L12.879004,10.1933594 L12.879004,18.0717773 L26.4996095,18.0717773 L26.4996095,21.0966797 L12.879004,21.0966797 L12.879004,28.9921875 L28.2598634,28.9921875 L28.2598634,32 L9.87119153,32 L9.87119153,7.16845703 L28.2598634,7.16845703 L28.2598634,10.1933594 Z M34.1851173,14.277832 L40.0640236,20.8745117 L45.9600196,14.277832 L49.9932228,14.277832 L42.0806251,23.1303711 L49.9932228,32 L45.9600196,32 L40.0640236,25.4033203 L34.1851173,32 L30.1519142,32 L38.047422,23.1303711 L30.1519142,14.277832 L34.1851173,14.277832 Z M67.7104689,31.453125 C66.3888477,32.091149 64.6343079,32.4101562 62.446797,32.4101562 C59.2680702,32.4101562 56.9495712,31.7094797 55.4912306,30.3081055 C53.9645302,28.8383716 53.2011915,26.4572105 53.2011915,23.1645508 C53.2011915,19.985824 53.9018681,17.667325 55.3032423,16.2089844 C56.7729762,14.682284 59.1541373,13.9189453 62.446797,13.9189453 C64.6343079,13.9189453 66.3888477,14.2379525 67.7104689,14.8759766 C69.2371692,15.6051469 70.3195151,16.7900309 70.9575392,18.4306641 L68.1548048,19.5073242 C67.8016129,18.6186479 67.220564,17.9806334 66.4116407,17.5932617 C65.5115711,17.1603168 64.1899698,16.9438477 62.446797,16.9438477 C59.9972405,16.9438477 58.3395422,17.3938757 57.4736525,18.2939453 C56.6305493,19.1712283 56.209004,20.7947473 56.209004,23.1645508 C56.209004,25.602714 56.6647286,27.2604123 57.5761915,28.1376953 C58.4420813,28.9694052 60.0656002,29.3852539 62.446797,29.3852539 C64.1899698,29.3852539 65.5115711,29.1744813 66.4116407,28.7529297 C67.220564,28.365558 67.8016129,27.7218469 68.1548048,26.8217773 L70.9575392,27.8984375 C70.3195151,29.5390707 69.2371692,30.7239547 67.7104689,31.453125 Z M91.1528126,31.4189453 C89.8197981,32.0797559 87.9228444,32.4101562 85.4618946,32.4101562 C82.0553021,32.4101562 79.622872,31.7094797 78.1645314,30.3081055 C76.637831,28.8383716 75.8744923,26.4572105 75.8744923,23.1645508 C75.8744923,19.985824 76.5751689,17.667325 77.9765431,16.2089844 C79.446277,14.682284 81.8844036,13.9189453 85.2909962,13.9189453 C88.5836559,13.9189453 90.9591204,14.6253185 92.417461,16.0380859 C93.9327681,17.5078198 94.6904103,19.8832844 94.6904103,23.1645508 L94.6904103,24.4975586 L78.8993946,24.4975586 C78.9677543,26.1154052 79.4177824,27.328772 80.2494923,28.1376953 C81.115382,28.9694052 82.8528321,29.3852539 85.4618946,29.3852539 C87.4557197,29.3852539 88.9083419,29.1630882 89.8198048,28.71875 C90.6287281,28.319985 91.2040804,27.6477912 91.545879,26.7021484 L94.3827931,27.7275391 C93.7675556,29.4251387 92.6909062,30.6555951 91.1528126,31.4189453 Z M78.9164845,21.831543 L91.6825978,21.831543 C91.4889119,20.0997635 91.0388838,18.8920933 90.3325001,18.2084961 C89.4552171,17.3653929 87.7747326,16.9438477 85.2909962,16.9438477 C82.7275068,16.9438477 81.012843,17.3938757 80.1469532,18.2939453 C79.4861426,18.9889358 79.0759905,20.1681232 78.9164845,21.831543 Z M108.459902,32.0170898 C108.026958,32.062663 107.440212,32.0854492 106.699649,32.0854492 C105.070409,32.0854492 103.845649,31.9031594 103.025332,31.5385742 C101.304946,30.6840778 100.393497,28.6447101 100.290957,25.4204102 L100.290957,7.16845703 L103.29877,7.16845703 L103.29877,25.7792969 C103.344343,28.3086064 104.614675,29.5732422 107.109805,29.5732422 L107.468691,29.5732422 C107.867457,29.5732422 108.197857,29.5447594 108.459902,29.487793 L108.459902,32.0170898 Z M120.007715,32.0170898 C119.57477,32.062663 118.988025,32.0854492 118.247461,32.0854492 C116.618221,32.0854492 115.393461,31.9031594 114.573145,31.5385742 C112.852758,30.6840778 111.941309,28.6447101 111.83877,25.4204102 L111.83877,7.16845703 L114.846582,7.16845703 L114.846582,25.7792969 C114.892155,28.3086064 116.162488,29.5732422 118.657617,29.5732422 L119.016504,29.5732422 C119.415269,29.5732422 119.745669,29.5447594 120.007715,29.487793 L120.007715,32.0170898 Z M137.639512,31.4189453 C136.306497,32.0797559 134.409544,32.4101562 131.948594,32.4101562 C128.542001,32.4101562 126.109571,31.7094797 124.651231,30.3081055 C123.12453,28.8383716 122.361191,26.4572105 122.361191,23.1645508 C122.361191,19.985824 123.061868,17.667325 124.463242,16.2089844 C125.932976,14.682284 128.371103,13.9189453 131.777695,13.9189453 C135.070355,13.9189453 137.44582,14.6253185 138.90416,16.0380859 C140.419467,17.5078198 141.177109,19.8832844 141.177109,23.1645508 L141.177109,24.4975586 L125.386094,24.4975586 C125.454454,26.1154052 125.904482,27.328772 126.736191,28.1376953 C127.602081,28.9694052 129.339531,29.3852539 131.948594,29.3852539 C133.942419,29.3852539 135.395041,29.1630882 136.306504,28.71875 C137.115427,28.319985 137.69078,27.6477912 138.032578,26.7021484 L140.869492,27.7275391 C140.254255,29.4251387 139.177605,30.6555951 137.639512,31.4189453 Z M125.403184,21.831543 L138.169297,21.831543 C137.975611,20.0997635 137.525583,18.8920933 136.819199,18.2084961 C135.941916,17.3653929 134.261432,16.9438477 131.777695,16.9438477 C129.214206,16.9438477 127.499542,17.3938757 126.633652,18.2939453 C125.972842,18.9889358 125.56269,20.1681232 125.403184,21.831543 Z M148.930977,17.0292969 C150.070305,14.9329322 152.206514,13.8847656 155.339668,13.8847656 C158.620934,13.8847656 160.996399,14.6481043 162.466133,16.1748047 C163.867507,17.6331453 164.568184,19.9516443 164.568184,23.1303711 L164.568184,32 L161.560371,32 L161.560371,23.1303711 C161.560371,20.7605676 161.138826,19.1370487 160.295723,18.2597656 C159.429833,17.359696 157.777831,16.909668 155.339668,16.909668 C152.958471,16.909668 151.334952,17.3312132 150.469063,18.1743164 C149.580386,19.0288129 149.124662,20.6409387 149.101875,23.0107422 L149.101875,32 L146.094063,32 L146.094063,14.2607422 L148.930977,14.2607422 L148.930977,17.0292969 Z M179.619414,32 C179.186469,32.0455731 178.599724,32.0683594 177.85916,32.0683594 C176.22992,32.0683594 175.00516,31.8860695 174.184844,31.5214844 C172.464458,30.6669879 171.553008,28.6276203 171.450469,25.4033203 L171.450469,17.2685547 L169.314238,17.2685547 L169.314238,14.2607422 L171.450469,14.2607422 L171.450469,7.16845703 L174.458281,7.16845703 L174.458281,14.2607422 L178.388945,14.2607422 L178.388945,17.2685547 L174.458281,17.2685547 L174.458281,25.762207 C174.503854,28.2915166 175.774187,29.5561523 178.269316,29.5561523 L178.628203,29.5561523 C179.026968,29.5561523 179.357369,29.5276696 179.619414,29.4707031 L179.619414,32 Z M209.773145,10.449707 C208.964221,10.0623353 207.887572,9.85725923 206.543164,9.83447266 L201.50166,9.83447266 C199.21161,9.86865251 197.62227,10.5009704 196.733594,11.7314453 C195.696805,13.1783927 195.178418,15.8045057 195.178418,19.6098633 C195.178418,23.3924343 195.691108,26.0071542 196.716504,27.4541016 C197.60518,28.6845765 199.17743,29.3225909 201.433301,29.3681641 L206.577344,29.3681641 C207.910358,29.3453775 208.981311,29.1346049 209.790234,28.7358398 C210.564978,28.3598614 211.168813,27.773116 211.601758,26.9755859 L214.250684,28.4282227 C213.498727,29.795417 212.45056,30.8037077 211.106152,31.453125 C209.909857,32.0341826 208.417359,32.3417967 206.628613,32.3759766 L201.382031,32.3759766 C198.100765,32.3076168 195.730997,31.2480571 194.272656,29.1972656 C192.871282,27.2148338 192.170606,24.019065 192.170606,19.6098633 C192.170606,15.1664817 192.876979,11.9593198 194.289746,9.98828125 C195.75948,7.92609646 198.152034,6.8722333 201.467481,6.82666016 L206.577344,6.82666016 C208.377483,6.84944673 209.881374,7.15706084 211.089063,7.74951172 C212.43347,8.39892903 213.487333,9.40721973 214.250684,10.7744141 L211.601758,12.2270508 C211.15742,11.4181275 210.547888,10.8256855 209.773145,10.449707 Z M235.027012,16.0380859 C236.542319,17.5078198 237.299961,19.8832844 237.299961,23.1645508 C237.299961,26.4572105 236.542319,28.8383716 235.027012,30.3081055 C233.568671,31.7094797 231.250172,32.4101562 228.071445,32.4101562 C224.892719,32.4101562 222.57422,31.7094797 221.115879,30.3081055 C219.589179,28.8383716 218.82584,26.4572105 218.82584,23.1645508 C218.82584,19.985824 219.526516,17.667325 220.927891,16.2089844 C222.397625,14.682284 224.778786,13.9189453 228.071445,13.9189453 C231.250172,13.9189453 233.568671,14.6253185 235.027012,16.0380859 Z M228.071445,16.9438477 C225.621889,16.9438477 223.964191,17.3938757 223.098301,18.2939453 C222.255198,19.1712283 221.833652,20.7947473 221.833652,23.1645508 C221.833652,25.602714 222.289377,27.2604123 223.20084,28.1376953 C224.06673,28.9694052 225.690249,29.3852539 228.071445,29.3852539 C230.441249,29.3852539 232.064768,28.9694052 232.942051,28.1376953 C233.84212,27.2604123 234.292148,25.602714 234.292148,23.1645508 C234.292148,20.7263875 233.84212,19.0743858 232.942051,18.2084961 C232.064768,17.3653929 230.441249,16.9438477 228.071445,16.9438477 Z M245.395625,16.6020508 C246.443807,14.7905183 248.357851,13.8847656 251.137813,13.8847656 C254.214,13.8847656 256.367299,15.1835808 257.597773,17.78125 C258.759889,15.2975136 260.987243,13.9986985 264.279902,13.8847656 C267.230763,13.8847656 269.366973,14.6765871 270.688594,16.2602539 C271.907675,17.7072012 272.517207,19.9972174 272.517207,23.1303711 L272.517207,32 L269.492305,32 L269.492305,23.1303711 C269.492305,20.7149944 269.122028,19.0686893 268.381465,18.1914062 C267.675081,17.3369098 266.307907,16.909668 264.279902,16.909668 C262.297471,16.909668 260.947386,17.3027304 260.229609,18.0888672 C259.443473,18.9661502 259.05041,20.6466347 259.05041,23.1303711 L259.05041,32 L256.025508,32 L256.025508,23.1303711 C256.025508,20.7149944 255.655232,19.0686893 254.914668,18.1914062 C254.196891,17.3369098 252.824021,16.909668 250.796016,16.909668 C248.824977,16.909668 247.48059,17.3027304 246.762813,18.0888672 C245.976676,18.9547569 245.577917,20.5953655 245.566523,23.0107422 L245.566523,32 L242.558711,32 L242.558711,14.2607422 L245.395625,14.2607422 L245.395625,16.6020508 Z M280.612871,16.6020508 C281.661053,14.7905183 283.575097,13.8847656 286.355059,13.8847656 C289.431246,13.8847656 291.584545,15.1835808 292.81502,17.78125 C293.977135,15.2975136 296.204489,13.9986985 299.497148,13.8847656 C302.44801,13.8847656 304.584219,14.6765871 305.90584,16.2602539 C307.124921,17.7072012 307.734453,19.9972174 307.734453,23.1303711 L307.734453,32 L304.709551,32 L304.709551,23.1303711 C304.709551,20.7149944 304.339275,19.0686893 303.598711,18.1914062 C302.892327,17.3369098 301.525153,16.909668 299.497148,16.909668 C297.514717,16.909668 296.164633,17.3027304 295.446855,18.0888672 C294.660719,18.9661502 294.267656,20.6466347 294.267656,23.1303711 L294.267656,32 L291.242754,32 L291.242754,23.1303711 C291.242754,20.7149944 290.872478,19.0686893 290.131914,18.1914062 C289.414137,17.3369098 288.041267,16.909668 286.013262,16.909668 C284.042223,16.909668 282.697836,17.3027304 281.980059,18.0888672 C281.193922,18.9547569 280.795163,20.5953655 280.78377,23.0107422 L280.78377,32 L277.775957,32 L277.775957,14.2607422 L280.612871,14.2607422 L280.612871,16.6020508 Z M328.459512,30.0859375 C327.445509,31.6126378 325.371962,32.3759766 322.238809,32.3759766 C318.946149,32.3759766 316.564988,31.6126378 315.095254,30.0859375 C313.69388,28.6275969 312.993203,26.3090979 312.993203,23.1303711 L312.993203,14.2607422 L316.001016,14.2607422 L316.001016,23.1303711 C316.001016,25.5115679 316.422561,27.1350868 317.265664,28.0009766 C318.131554,28.9010462 319.789252,29.3510742 322.238809,29.3510742 C324.608612,29.3510742 326.232131,28.9352255 327.109414,28.1035156 C327.99809,27.2376259 328.448118,25.6198035 328.459512,23.25 L328.459512,14.2607422 L331.467324,14.2607422 L331.467324,32 L328.459512,32 L328.459512,30.0859375 Z M339.562988,17.0292969 C340.702317,14.9329322 342.838526,13.8847656 345.97168,13.8847656 C349.252946,13.8847656 351.628411,14.6481043 353.098145,16.1748047 C354.499519,17.6331453 355.200195,19.9516443 355.200195,23.1303711 L355.200195,32 L352.192383,32 L352.192383,23.1303711 C352.192383,20.7605676 351.770838,19.1370487 350.927734,18.2597656 C350.061845,17.359696 348.409843,16.909668 345.97168,16.909668 C343.590483,16.909668 341.966964,17.3312132 341.101074,18.1743164 C340.212398,19.0288129 339.756673,20.6409387 339.733887,23.0107422 L339.733887,32 L336.726074,32 L336.726074,14.2607422 L339.562988,14.2607422 L339.562988,17.0292969 Z M363.637656,14.2607422 L363.637656,32 L360.629844,32 L360.629844,14.2607422 L363.637656,14.2607422 Z M363.637656,7.16845703 L363.637656,10.1933594 L360.629844,10.1933594 L360.629844,7.16845703 L363.637656,7.16845703 Z M383.576582,31.453125 C382.254961,32.091149 380.500421,32.4101562 378.31291,32.4101562 C375.134183,32.4101562 372.815684,31.7094797 371.357344,30.3081055 C369.830643,28.8383716 369.067305,26.4572105 369.067305,23.1645508 C369.067305,19.985824 369.767981,17.667325 371.169355,16.2089844 C372.639089,14.682284 375.02025,13.9189453 378.31291,13.9189453 C380.500421,13.9189453 382.254961,14.2379525 383.576582,14.8759766 C385.103282,15.6051469 386.185628,16.7900309 386.823652,18.4306641 L384.020918,19.5073242 C383.667726,18.6186479 383.086677,17.9806334 382.277754,17.5932617 C381.377684,17.1603168 380.056083,16.9438477 378.31291,16.9438477 C375.863354,16.9438477 374.205655,17.3938757 373.339766,18.2939453 C372.496662,19.1712283 372.075117,20.7947473 372.075117,23.1645508 C372.075117,25.602714 372.530842,27.2604123 373.442305,28.1376953 C374.308194,28.9694052 375.931713,29.3852539 378.31291,29.3852539 C380.056083,29.3852539 381.377684,29.1744813 382.277754,28.7529297 C383.086677,28.365558 383.667726,27.7218469 384.020918,26.8217773 L386.823652,27.8984375 C386.185628,29.5390707 385.103282,30.7239547 383.576582,31.453125 Z M407.719609,30.034668 C406.603067,31.5955482 404.472555,32.3759766 401.328008,32.3759766 C398.297394,32.3759766 396.087129,32.0000038 394.697148,31.2480469 C392.953976,30.3137974 392.082402,28.7472441 392.082402,26.5483398 C392.082402,24.0304236 393.198928,22.389815 395.432012,21.6264648 C396.844779,21.2504864 399.24303,21.0625 402.626836,21.0625 C405.133359,21.0625 406.773967,20.9770516 407.548711,20.8061523 L407.548711,19.8491211 C407.537318,18.8009388 407.189828,18.0831725 406.50623,17.6958008 C405.571981,17.1717096 403.845924,16.909668 401.328008,16.909668 C399.334183,16.909668 397.875864,17.1033509 396.953008,17.4907227 C396.235231,17.7869481 395.705451,18.3110314 395.363652,19.0629883 L392.612187,17.8325195 C393.284391,16.3627856 394.343951,15.3260121 395.790898,14.722168 C397.101126,14.1638969 398.946811,13.8847656 401.328008,13.8847656 C404.358622,13.8847656 406.574583,14.2778281 407.975957,15.0639648 C409.571017,15.9640344 410.425501,17.3938704 410.539434,19.3535156 L410.556523,19.3535156 L410.556523,32 L407.719609,32 L407.719609,30.034668 Z M407.548711,23.3525391 C406.568888,23.4778652 404.916887,23.5405273 402.592656,23.5405273 C400.439325,23.5405273 398.736054,23.6430654 397.482793,23.8481445 C395.887733,24.2469095 395.090215,25.1469656 395.090215,26.5483398 C395.090215,27.550949 395.432008,28.2345359 396.115605,28.5991211 C397.061248,29.1004257 398.798698,29.3510742 401.328008,29.3510742 C403.857317,29.3510742 405.589071,29.1004257 406.52332,28.5991211 C407.195524,28.2459292 407.537318,27.5851285 407.548711,26.6166992 L407.548711,23.3525391 Z M425.607754,32 C425.174809,32.0455731 424.588064,32.0683594 423.8475,32.0683594 C422.21826,32.0683594 420.9935,31.8860695 420.173184,31.5214844 C418.452797,30.6669879 417.541348,28.6276203 417.438809,25.4033203 L417.438809,17.2685547 L415.302578,17.2685547 L415.302578,14.2607422 L417.438809,14.2607422 L417.438809,7.16845703 L420.446621,7.16845703 L420.446621,14.2607422 L424.377285,14.2607422 L424.377285,17.2685547 L420.446621,17.2685547 L420.446621,25.762207 C420.492194,28.2915166 421.762527,29.5561523 424.257656,29.5561523 L424.616543,29.5561523 C425.015308,29.5561523 425.345708,29.5276696 425.607754,29.4707031 L425.607754,32 Z M432.35332,14.2607422 L432.35332,32 L429.345508,32 L429.345508,14.2607422 L432.35332,14.2607422 Z M432.35332,7.16845703 L432.35332,10.1933594 L429.345508,10.1933594 L429.345508,7.16845703 L432.35332,7.16845703 Z M453.984141,16.0380859 C455.499448,17.5078198 456.25709,19.8832844 456.25709,23.1645508 C456.25709,26.4572105 455.499448,28.8383716 453.984141,30.3081055 C452.5258,31.7094797 450.207301,32.4101562 447.028574,32.4101562 C443.849847,32.4101562 441.531348,31.7094797 440.073008,30.3081055 C438.546307,28.8383716 437.782969,26.4572105 437.782969,23.1645508 C437.782969,19.985824 438.483645,17.667325 439.885019,16.2089844 C441.354753,14.682284 443.735914,13.9189453 447.028574,13.9189453 C450.207301,13.9189453 452.5258,14.6253185 453.984141,16.0380859 Z M447.028574,16.9438477 C444.579018,16.9438477 442.921319,17.3938757 442.05543,18.2939453 C441.212326,19.1712283 440.790781,20.7947473 440.790781,23.1645508 C440.790781,25.602714 441.246506,27.2604123 442.157969,28.1376953 C443.023858,28.9694052 444.647377,29.3852539 447.028574,29.3852539 C449.398378,29.3852539 451.021897,28.9694052 451.89918,28.1376953 C452.799249,27.2604123 453.249277,25.602714 453.249277,23.1645508 C453.249277,20.7263875 452.799249,19.0743858 451.89918,18.2084961 C451.021897,17.3653929 449.398378,16.9438477 447.028574,16.9438477 Z M464.352754,17.0292969 C465.492082,14.9329322 467.628292,13.8847656 470.761445,13.8847656 C474.042712,13.8847656 476.418176,14.6481043 477.88791,16.1748047 C479.289284,17.6331453 479.989961,19.9516443 479.989961,23.1303711 L479.989961,32 L476.982148,32 L476.982148,23.1303711 C476.982148,20.7605676 476.560603,19.1370487 475.7175,18.2597656 C474.85161,17.359696 473.199608,16.909668 470.761445,16.909668 C468.380248,16.909668 466.75673,17.3312132 465.89084,18.1743164 C465.002163,19.0288129 464.546439,20.6409387 464.523652,23.0107422 L464.523652,32 L461.51584,32 L461.51584,14.2607422 L464.352754,14.2607422 L464.352754,17.0292969 Z M496.728164,25.2666016 C496.728164,26.7135489 497.229461,27.716143 498.23207,28.2744141 C499.576478,29.0263709 501.877887,29.4023438 505.136367,29.4023438 C508.292307,29.4023438 510.542448,29.0491572 511.886855,28.3427734 C512.980611,27.7731091 513.52748,26.7249425 513.52748,25.1982422 C513.52748,23.6829351 512.980611,22.6404651 511.886855,22.0708008 C510.531054,21.364417 508.280914,21.0112305 505.136367,21.0112305 C501.490516,21.0112305 498.773258,20.5441127 496.984512,19.6098633 C494.808394,18.4705347 493.720351,16.5792775 493.720351,13.9360352 C493.720351,11.3725458 494.734339,9.52116455 496.762344,8.38183594 C498.562483,7.36783347 501.353796,6.86083984 505.136367,6.86083984 C508.770825,6.86083984 511.482387,7.32226101 513.271133,8.24511719 C515.44725,9.3844458 516.535293,11.3041857 516.535293,14.0043945 L513.52748,14.0043945 C513.52748,12.5232673 512.980611,11.497887 511.886855,10.9282227 C510.542448,10.2218389 508.292307,9.86865234 505.136367,9.86865234 C501.877887,9.86865234 499.576478,10.2446251 498.23207,10.996582 C497.229461,11.5662463 496.728164,12.5460542 496.728164,13.9360352 C496.728164,15.3715892 497.275034,16.3741833 498.368789,16.9438477 C499.72459,17.6388381 501.980427,17.9863281 505.136367,17.9863281 C508.770825,17.9863281 511.482387,18.4534458 513.271133,19.3876953 C515.44725,20.5270239 516.535293,22.4638535 516.535293,25.1982422 C516.535293,27.9440241 515.44725,29.8865503 513.271133,31.0258789 C511.482387,31.9487351 508.770825,32.4101562 505.136367,32.4101562 C501.353796,32.4101562 498.562483,31.9031626 496.762344,30.8891602 C494.734339,29.7612248 493.720351,27.8870574 493.720351,25.2666016 L496.728164,25.2666016 Z M534.594336,32 L527.074805,23.6430664 L524.28916,25.9331055 L524.28916,32 L521.281348,32 L521.281348,7.16845703 L524.28916,7.16845703 L524.28916,22.0366211 L533.739844,14.277832 L538.456641,14.277832 L529.416113,21.7290039 L538.644629,32 L534.594336,32 Z M544.535703,14.2607422 L544.535703,32 L541.527891,32 L541.527891,14.2607422 L544.535703,14.2607422 Z M544.535703,7.16845703 L544.535703,10.1933594 L541.527891,10.1933594 L541.527891,7.16845703 L544.535703,7.16845703 Z M558.817891,32.0170898 C558.384946,32.062663 557.7982,32.0854492 557.057637,32.0854492 C555.428397,32.0854492 554.203637,31.9031594 553.38332,31.5385742 C551.662934,30.6840778 550.751485,28.6447101 550.648945,25.4204102 L550.648945,7.16845703 L553.656758,7.16845703 L553.656758,25.7792969 C553.702331,28.3086064 554.972663,29.5732422 557.467793,29.5732422 L557.82668,29.5732422 C558.225445,29.5732422 558.555845,29.5447594 558.817891,29.487793 L558.817891,32.0170898 Z M570.365703,32.0170898 C569.932758,32.062663 569.346013,32.0854492 568.605449,32.0854492 C566.976209,32.0854492 565.751449,31.9031594 564.931133,31.5385742 C563.210746,30.6840778 562.299297,28.6447101 562.196758,25.4204102 L562.196758,7.16845703 L565.20457,7.16845703 L565.20457,25.7792969 C565.250143,28.3086064 566.520476,29.5732422 569.015605,29.5732422 L569.374492,29.5732422 C569.773257,29.5732422 570.103657,29.5447594 570.365703,29.487793 L570.365703,32.0170898 Z M575.470644,27.0268555 C575.470644,27.8357788 575.795348,28.3940414 576.444766,28.7016602 C577.401802,29.1573916 579.156341,29.3852539 581.708437,29.3852539 C584.260533,29.3852539 586.009377,29.1573916 586.955019,28.7016602 C587.604437,28.3940414 587.929141,27.8357788 587.929141,27.0268555 C587.929141,26.0470329 587.274036,25.3862322 585.963808,25.0444336 C585.189065,24.8393544 583.759229,24.7140302 581.674258,24.668457 C578.59807,24.6000973 576.484648,24.3380557 575.333926,23.8823242 C573.419854,23.118974 572.462832,21.5922966 572.462832,19.3022461 C572.462832,17.308421 573.294529,15.8785851 574.957949,15.0126953 C576.34793,14.283525 578.59807,13.9189453 581.708437,13.9189453 C584.704872,13.9189453 586.89235,14.2550422 588.270937,14.9272461 C590.04829,15.7817426 590.936953,17.2400613 590.936953,19.3022461 L587.929141,19.3022461 C587.929141,18.4933228 587.604437,17.9350601 586.955019,17.6274414 C586.009377,17.17171 584.260533,16.9438477 581.708437,16.9438477 C579.076588,16.9438477 577.287869,17.1887996 576.342226,17.6787109 C575.761169,17.9749364 575.470644,18.5161094 575.470644,19.3022461 C575.470644,20.2820687 576.125749,20.9428694 577.435976,21.284668 C578.222113,21.4897471 579.657646,21.6150714 581.742617,21.6606445 C584.807411,21.7403975 586.915137,22.0081357 588.065859,22.4638672 C589.979931,23.2158241 590.936953,24.736805 590.936953,27.0268555 C590.936953,29.0890403 590.04829,30.5530556 588.270937,31.4189453 C586.89235,32.0797559 584.704872,32.4101562 581.708437,32.4101562 C578.70061,32.4101562 576.513132,32.0797559 575.145937,31.4189453 C573.357191,30.5530556 572.462832,29.0890403 572.462832,27.0268555 L575.470644,27.0268555 Z" fill="#000000"></path>
        </g>
    </g>
</svg>