<?xml version="1.0" encoding="UTF-8"?>
<svg width="221px" height="37px" viewBox="0 0 221 37" version="1.1" xmlns="http://www.w3.org/2000/svg" xmlns:xlink="http://www.w3.org/1999/xlink">
    <!-- Generator: Sketch 42 (36781) - http://www.bohemiancoding.com/sketch -->
    <title>Accolite_Logo</title>
    <desc>Created with Sketch.</desc>
    <defs></defs>
    <g id="8" stroke="none" stroke-width="1" fill="none" fill-rule="evenodd">
        <g id="Accolite_Logo">
            <g id="Accolite" transform="translate(41.175474, 3.886869)">
                <polygon id="A" fill="#797979" points="16.5450542 0.0747474747 0 23.1717172 3.06944444 21.6020202 16.5450542 2.91515152 29.9457995 21.6020202 33.1649729 23.1717172"></polygon>
                <path d="M53.3783875,6.2040404 C53.3783875,6.2040404 49.9346206,0.0747474747 42.8973577,0.0747474747 C35.8600949,0.0747474747 31.4430894,6.05454545 31.4430894,11.6979798 C31.4430894,17.3414141 35.5606369,23.2464646 42.8973577,23.2464646 C50.2340786,23.2464646 53.3783875,16.9676768 53.3783875,16.9676768 L50.5335366,18.3131313 C50.5335366,18.3131313 46.6405827,23.3212121 39.8279133,21.1535354 C33.0152439,18.9858586 33.0152439,11.6979798 33.0152439,11.6979798 C33.0152439,11.6979798 33.0152439,4.26060606 39.8279133,2.09292929 C46.6405827,-0.0747474747 50.5335366,4.93333333 50.5335366,4.93333333 L53.3783875,6.2040404 Z" id="C" fill="#747474"></path>
                <path d="M77.4847561,6.2040404 C77.4847561,6.2040404 74.0409892,0.0747474747 67.0037263,0.0747474747 C59.9664634,0.0747474747 55.549458,6.05454545 55.549458,11.6979798 C55.549458,17.3414141 59.6670054,23.2464646 67.0037263,23.2464646 C74.3404472,23.2464646 77.4847561,16.9676768 77.4847561,16.9676768 L74.6399051,18.3131313 C74.6399051,18.3131313 70.7469512,23.3212121 63.9342818,21.1535354 C57.1216125,18.9858586 57.1216125,11.6979798 57.1216125,11.6979798 C57.1216125,11.6979798 57.1216125,4.26060606 63.9342818,2.09292929 C70.7469512,-0.0747474747 74.6399051,4.93333333 74.6399051,4.93333333 L77.4847561,6.2040404 Z" id="C" fill="#747474"></path>
                <path d="M91.2598238,23.2464646 C84.8511131,23.2464646 79.6558266,18.0592991 79.6558266,11.6606061 C79.6558266,5.26191305 84.8511131,0.0747474747 91.2598238,0.0747474747 C97.6685346,0.0747474747 102.863821,5.26191305 102.863821,11.6606061 C102.863821,18.0592991 97.6685346,23.2464646 91.2598238,23.2464646 Z M91.2966619,21.6281225 C96.7898426,21.6281225 101.242945,17.1819806 101.242945,11.6973866 C101.242945,6.21279256 96.7898426,1.76665063 91.2966619,1.76665063 C85.8034813,1.76665063 81.3503785,6.21279256 81.3503785,11.6973866 C81.3503785,17.1819806 85.8034813,21.6281225 91.2966619,21.6281225 Z" id="O" fill="#797979"></path>
                <path d="M106.533477,0 L106.533477,12.5575758 C106.533477,12.5575758 106.383748,15.7717172 109.303464,19.359596 C112.223179,22.9474747 116.715049,23.1717172 116.715049,23.1717172 L126.372569,23.1717172 L125.174737,21.6020202 L117.463694,21.6020202 C117.463694,21.6020202 113.645605,21.6020202 110.800754,18.3878788 C107.955903,15.1737374 108.255361,12.0343434 108.255361,12.0343434 L108.255361,2.01818182 L106.533477,0 Z" id="Path-2" fill="#797979"></path>
                <polygon id="Rectangle" fill="#797979" points="129.665312 0 131.312331 2.16767677 131.312331 23.1717172 129.665312 23.1717172"></polygon>
                <path d="M137.078193,0.0747474747 L137.078193,12.6323232 C137.078193,12.6323232 136.928464,15.8464646 139.848179,19.4343434 C142.767895,23.0222222 147.259764,23.2464646 147.259764,23.2464646 L156.917285,23.2464646 L155.719453,21.6767677 L148.008409,21.6767677 C148.008409,21.6767677 144.19032,21.6767677 141.345469,18.4626263 C138.500618,15.2484848 138.800076,12.1090909 138.800076,12.1090909 L138.800076,6.8020202 L152.724873,6.8020202 L151.826499,5.00808081 L138.800076,5.00808081 L138.800076,2.09292929 L137.078193,0.0747474747 Z" id="Path-2" fill="#797979"></path>
                <path d="M161.485861,5.49755977 C162.483881,4.14788713 163.952483,2.92040421 166.113556,2.23040912 C172.857871,0.0770598372 176.934105,5.49755977 176.934105,5.49755977 L178.350373,6.2443726 L179.750412,6.98262824 C179.750412,6.98262824 177.008218,-0.0714470102 169.152203,0.0770598372 C161.296188,0.225566685 157.664634,6.16584058 157.664634,11.7719741 C157.664634,17.3781076 161.592642,23.0956212 169.152203,23.244128 C176.711765,23.3926349 179.824526,16.412813 179.824526,16.412813 L177.008218,17.7493747 C177.008218,17.7493747 172.857871,23.3183815 166.113556,21.1650322 C159.369241,19.0116829 159.369241,11.7719741 159.369241,11.7719741 C159.369241,11.7719741 159.369241,9.41954823 160.580962,6.98262824 L179.750412,6.98262824 L176.934105,5.49755977 L161.485861,5.49755977 Z" id="Combined-Shape" fill="#797979"></path>
            </g>
            <g id="Logo">
                <path d="M0,22.7232323 C0,22.7232323 1.96367889,20.7060686 2.99457995,19.7333333 C4.025481,18.7605981 6.81266938,16.2949495 6.81266938,16.2949495 L14.2242547,26.610101 C14.2242547,26.610101 9.48241168,25.5386045 7.11212737,24.8909091 C4.74184307,24.2432137 0,22.7232323 0,22.7232323 Z" id="Path-6" fill="#D8D8D8" transform="translate(7.112127, 21.452525) scale(-1, 1) translate(-7.112127, -21.452525) "></path>
                <path d="M19.1653117,27.4323232 C19.1653117,27.4323232 19.3150407,30.1518445 19.3150407,31.5434343 C19.3150407,32.9350242 19.1653117,36.2525253 19.1653117,36.2525253 L0,26.610101 L14.2242547,22.7232323 L19.1653117,27.4323232 Z" id="Path-5" fill="#A6A6A6"></path>
                <path d="M38.3306233,27.4323232 L38.3306233,36.2525253 L19.1653117,26.610101 C19.1653117,26.610101 23.8073488,25.0701833 26.6517615,24.2929293 C29.4961743,23.5156753 33.3895664,22.7232323 33.3895664,22.7232323 C33.3895664,22.7232323 35.0459014,24.1930843 35.9349593,25.040404 C36.8240173,25.8877237 38.3306233,27.4323232 38.3306233,27.4323232 Z" id="Path-5" fill="#5F5F5F" transform="translate(28.747967, 29.487879) scale(-1, 1) translate(-28.747967, -29.487879) "></path>
                <path d="M24.1063686,22.7232323 C24.1063686,22.7232323 26.2373443,20.6065304 27.4004065,19.5090909 C28.5634687,18.4116514 30.9190379,16.2949495 30.9190379,16.2949495 L38.3306233,26.610101 L24.1063686,22.7232323 Z" id="Path-6" fill="#797979"></path>
                <path d="M11.0050813,19.4343434 C11.0050813,19.4343434 13.6611902,18.3980875 15.0477642,17.8646465 C16.4343382,17.3312054 19.1653117,16.2949495 19.1653117,16.2949495 L7.41158537,27.4323232 C7.41158537,27.4323232 8.71576262,24.2446644 9.43292683,22.6484848 C10.150091,21.0523053 11.0050813,19.4343434 11.0050813,19.4343434 Z" id="Path-4" fill="#3A88AA" transform="translate(13.288449, 21.863636) scale(-1, 1) translate(-13.288449, -21.863636) "></path>
                <path d="M15.6466802,20.8545455 L19.2401762,19.4343434 L15.6466802,27.4323232 C15.6466802,27.4323232 15.5718157,24.7652906 15.5718157,23.4333333 C15.5718157,22.1013761 15.6466802,20.8545455 15.6466802,20.8545455 Z" id="Path-4" fill="#114357" transform="translate(17.405996, 23.433333) scale(-1, 1) translate(-17.405996, -23.433333) "></path>
                <path d="M19.1653117,20.8545455 C19.1653117,20.8545455 20.196362,20.3956704 20.7374661,20.1818182 C21.2785703,19.9679659 22.7588076,19.4343434 22.7588076,19.4343434 C22.7588076,19.4343434 21.6255968,22.0857612 21.0369241,23.3959596 C20.4482514,24.706158 19.1653117,27.4323232 19.1653117,27.4323232 L19.1653117,20.8545455 Z" id="Path-4" fill="#0E202E"></path>
                <path d="M22.7588076,19.4343434 C22.7588076,19.4343434 25.5101851,18.211941 26.8014905,17.7151515 C28.092796,17.218362 30.9190379,16.2949495 30.9190379,16.2949495 L19.1653117,27.4323232 L22.7588076,19.4343434 Z" id="Path-4" fill="#28445D"></path>
                <path d="M7.56131436,0 L19.3150407,16.2949495 L7.56131436,20.8545455 C7.56131436,20.8545455 7.41158537,14.5980116 7.41158537,11.4363636 C7.41158537,8.27471572 7.56131436,0 7.56131436,0 Z" id="Rectangle-2" fill="#3CC8FF" transform="translate(13.363313, 10.427273) scale(-1, 1) translate(-13.363313, -10.427273) "></path>
                <polygon id="Rectangle-2" fill="#0967B1" points="19.1653117 0 30.9190379 16.2949495 19.1653117 20.8545455"></polygon>
            </g>
            <path d="M120.631487,36.127398 C121.00566,36.127398 121.364561,36.0511556 121.708189,35.9062949 C122.036544,35.7690586 122.334355,35.5708283 122.586349,35.3192283 C122.845979,35.060004 123.04452,34.7702828 123.181971,34.4348162 C123.327059,34.0993495 123.411057,33.7333859 123.411057,33.359798 C123.411057,32.9862101 123.327059,32.6278707 123.181971,32.2847798 C123.04452,31.9569374 122.845979,31.6595919 122.586349,31.4079919 C122.334355,31.1563919 122.036544,30.9505374 121.708189,30.813301 C121.364561,30.6684404 121.00566,30.5998222 120.631487,30.5998222 C120.257315,30.5998222 119.898414,30.6684404 119.554786,30.813301 C119.226431,30.9505374 118.92862,31.1563919 118.676626,31.4079919 C118.416996,31.6595919 118.218455,31.9569374 118.081004,32.2847798 C117.935916,32.6278707 117.851918,32.9862101 117.851918,33.359798 C117.851918,33.7333859 117.935916,34.0993495 118.081004,34.4348162 C118.218455,34.7702828 118.416996,35.060004 118.676626,35.3192283 C118.92862,35.5708283 119.226431,35.7690586 119.554786,35.9062949 C119.898414,36.0511556 120.257315,36.127398 120.631487,36.127398 Z M120.631487,31.1945131 C121.211837,31.1945131 121.761642,31.4156162 122.166359,31.8273253 C122.578713,32.2390343 122.792526,32.7803556 122.792526,33.359798 C122.792526,33.9392404 122.578713,34.4881859 122.166359,34.8998949 C121.761642,35.3039798 121.211837,35.5327071 120.631487,35.5327071 C120.051138,35.5327071 119.508969,35.3039798 119.096616,34.8998949 C118.684262,34.4881859 118.470449,33.9392404 118.470449,33.359798 C118.470449,32.7803556 118.684262,32.2390343 119.096616,31.8273253 C119.508969,31.4156162 120.051138,31.1945131 120.631487,31.1945131 Z M126.167717,32.6659919 C125.793544,32.6659919 125.457553,32.795604 125.190286,33.0090828 L125.190286,32.826101 L124.579392,32.826101 L124.579392,36.0282828 L125.190286,36.0282828 L125.190286,34.2594586 C125.190286,33.5885253 125.663729,33.2606828 126.167717,33.2606828 C126.709886,33.2606828 127.137512,33.7105131 127.137512,34.305204 L127.137512,36.0130343 L127.748406,36.0130343 L127.748406,34.305204 C127.748406,33.359798 127.038242,32.6659919 126.167717,32.6659919 Z M129.527636,36.0282828 L129.527636,30.6913131 L128.916742,30.6913131 L128.916742,36.0282828 L129.527636,36.0282828 Z M132.872282,32.826101 L132.01703,34.6482949 L131.215231,32.826101 L130.566156,32.826101 L131.673402,35.3649737 L130.91742,36.9660646 L131.574132,36.9660646 L133.53663,32.826101 L132.872282,32.826101 Z M138.668142,32.826101 L137.866343,32.826101 L137.866343,31.9035677 L137.255449,31.9035677 L137.255449,32.826101 L136.491831,32.826101 L136.491831,33.4207919 L137.255449,33.4207919 L137.255449,36.0282828 L137.866343,36.0282828 L137.866343,33.4207919 L138.668142,33.4207919 L138.668142,32.826101 Z M141.195717,32.6659919 C140.821544,32.6659919 140.485553,32.795604 140.218286,33.0090828 L140.218286,30.6913131 L139.607392,30.6913131 L139.607392,36.0282828 L140.218286,36.0282828 L140.218286,34.2594586 C140.218286,33.5885253 140.691729,33.2606828 141.195717,33.2606828 C141.737886,33.2606828 142.165512,33.7105131 142.165512,34.305204 L142.165512,36.0130343 L142.776406,36.0130343 L142.776406,34.305204 C142.776406,33.359798 142.066242,32.6659919 141.195717,32.6659919 Z M146.976305,34.6940404 C146.991577,34.5949253 146.999213,34.4958101 146.999213,34.3966949 C146.999213,33.9316162 146.815945,33.5046586 146.487589,33.1768162 C146.159233,32.8489737 145.723971,32.6659919 145.2658,32.6659919 C144.799994,32.6659919 144.364731,32.8489737 144.036376,33.1768162 C143.715656,33.5046586 143.524752,33.9316162 143.524752,34.3966949 C143.524752,34.8541495 143.715656,35.2887313 144.036376,35.6165737 C144.364731,35.9444162 144.799994,36.127398 145.2658,36.127398 C145.723971,36.127398 146.159233,35.9444162 146.487589,35.6165737 C146.594496,35.5098343 146.68613,35.3878465 146.762492,35.2582343 L146.243231,34.9608889 C146.044691,35.2963556 145.68579,35.5327071 145.2658,35.5327071 C144.738904,35.5327071 144.303642,35.1743677 144.173827,34.6940404 L146.976305,34.6940404 Z M144.173827,34.0993495 C144.303642,33.6190222 144.738904,33.2606828 145.2658,33.2606828 C145.785061,33.2606828 146.220323,33.6190222 146.350138,34.0993495 L144.173827,34.0993495 Z M153.215063,33.1768162 C152.886707,32.8489737 152.451445,32.6659919 151.985638,32.6659919 C151.565648,32.6659919 151.168567,32.8184768 150.855483,33.0929495 L150.855483,30.6913131 L150.244589,30.6913131 L150.244589,36.0282828 L150.855483,36.0282828 L150.855483,35.7004404 C151.168567,35.9749131 151.565648,36.127398 151.985638,36.127398 C152.451445,36.127398 152.886707,35.9444162 153.215063,35.6165737 C153.535782,35.2887313 153.726687,34.8541495 153.726687,34.3966949 C153.726687,33.9316162 153.535782,33.5046586 153.215063,33.1768162 Z M151.985638,35.5327071 C151.359471,35.5327071 150.86312,35.0218828 150.86312,34.3966949 C150.86312,33.7715071 151.359471,33.2606828 151.985638,33.2606828 C152.611805,33.2606828 153.115792,33.7715071 153.115792,34.3966949 C153.115792,35.0218828 152.611805,35.5327071 151.985638,35.5327071 Z M157.819679,34.6940404 C157.834951,34.5949253 157.842587,34.4958101 157.842587,34.3966949 C157.842587,33.9316162 157.659319,33.5046586 157.330963,33.1768162 C157.002607,32.8489737 156.567345,32.6659919 156.109174,32.6659919 C155.643368,32.6659919 155.208105,32.8489737 154.87975,33.1768162 C154.55903,33.5046586 154.368126,33.9316162 154.368126,34.3966949 C154.368126,34.8541495 154.55903,35.2887313 154.87975,35.6165737 C155.208105,35.9444162 155.643368,36.127398 156.109174,36.127398 C156.567345,36.127398 157.002607,35.9444162 157.330963,35.6165737 C157.43787,35.5098343 157.529504,35.3878465 157.605866,35.2582343 L157.086605,34.9608889 C156.888065,35.2963556 156.529164,35.5327071 156.109174,35.5327071 C155.582278,35.5327071 155.147016,35.1743677 155.017201,34.6940404 L157.819679,34.6940404 Z M155.017201,34.0993495 C155.147016,33.6190222 155.582278,33.2606828 156.109174,33.2606828 C156.628435,33.2606828 157.063697,33.6190222 157.193512,34.0993495 L155.017201,34.0993495 Z M160.843605,34.3890707 C160.606884,34.2442101 160.316709,34.1603434 159.965445,34.0612283 C159.927264,34.0459798 159.896719,34.0383556 159.866174,34.0307313 C159.31637,33.8782465 159.140737,33.7943798 159.140737,33.5961495 C159.140737,33.4055434 159.461457,33.2683071 159.927264,33.2683071 C160.240347,33.2683071 160.561067,33.3521737 160.813061,33.4970343 C160.851242,33.5199071 160.889422,33.5427798 160.919967,33.5732768 L161.332321,33.1310707 C161.263595,33.077701 161.19487,33.0319556 161.118508,32.9862101 C160.782516,32.7879798 160.347254,32.6736162 159.927264,32.6736162 C159.545455,32.6736162 159.217099,32.7422343 158.972742,32.8794707 C158.690203,33.047204 158.529843,33.298804 158.529843,33.5961495 C158.529843,33.9087434 158.682567,34.1527192 158.972742,34.3280768 C159.178918,34.4576889 159.438548,34.5263071 159.705815,34.6025495 C159.736359,34.6101737 159.766904,34.617798 159.797449,34.6330465 C160.102896,34.7169131 160.362526,34.7931556 160.538158,34.8998949 C160.683246,34.9913859 160.706154,35.0676283 160.706154,35.1667434 C160.706154,35.2277374 160.698518,35.311604 160.568703,35.3954707 C160.377798,35.5022101 160.087624,35.5250828 159.881447,35.5250828 C159.522546,35.5250828 159.194191,35.4412162 158.957469,35.2887313 C158.919288,35.2658586 158.888744,35.2429859 158.858199,35.2124889 L158.468754,35.6699434 C158.522207,35.7080646 158.57566,35.7538101 158.63675,35.7919313 C158.972742,36.0054101 159.41564,36.1197737 159.881447,36.1197737 C160.2938,36.1197737 160.622156,36.0511556 160.866514,35.9062949 C161.156689,35.7385616 161.317048,35.4793374 161.317048,35.1667434 C161.317048,34.838901 161.156689,34.5796768 160.843605,34.3890707 Z M164.234069,32.826101 L163.43227,32.826101 L163.43227,31.9035677 L162.821376,31.9035677 L162.821376,32.826101 L162.057758,32.826101 L162.057758,33.4207919 L162.821376,33.4207919 L162.821376,36.0282828 L163.43227,36.0282828 L163.43227,33.4207919 L164.234069,33.4207919 L164.234069,32.826101 Z M169.503032,32.826101 L168.701233,32.826101 L168.701233,31.9035677 L168.090339,31.9035677 L168.090339,32.826101 L167.326721,32.826101 L167.326721,33.4207919 L168.090339,33.4207919 L168.090339,36.0282828 L168.701233,36.0282828 L168.701233,33.4207919 L169.503032,33.4207919 L169.503032,32.826101 Z M173.680022,34.6940404 C173.695294,34.5949253 173.702931,34.4958101 173.702931,34.3966949 C173.702931,33.9316162 173.519662,33.5046586 173.191307,33.1768162 C172.862951,32.8489737 172.427689,32.6659919 171.969518,32.6659919 C171.503711,32.6659919 171.068449,32.8489737 170.740093,33.1768162 C170.419374,33.5046586 170.228469,33.9316162 170.228469,34.3966949 C170.228469,34.8541495 170.419374,35.2887313 170.740093,35.6165737 C171.068449,35.9444162 171.503711,36.127398 171.969518,36.127398 C172.427689,36.127398 172.862951,35.9444162 173.191307,35.6165737 C173.298213,35.5098343 173.389847,35.3878465 173.466209,35.2582343 L172.946949,34.9608889 C172.748408,35.2963556 172.389508,35.5327071 171.969518,35.5327071 C171.442622,35.5327071 171.007359,35.1743677 170.877544,34.6940404 L173.680022,34.6940404 Z M170.877544,34.0993495 C171.007359,33.6190222 171.442622,33.2606828 171.969518,33.2606828 C172.488778,33.2606828 172.92404,33.6190222 173.053855,34.0993495 L170.877544,34.0993495 Z M177.139211,34.9532646 C176.948307,35.2963556 176.58177,35.5327071 176.16178,35.5327071 C175.535613,35.5327071 175.031626,35.0218828 175.031626,34.3966949 C175.031626,33.7715071 175.535613,33.2606828 176.16178,33.2606828 C176.58177,33.2606828 176.948307,33.4970343 177.139211,33.832501 L177.666107,33.5351556 C177.589746,33.4055434 177.490475,33.2835556 177.383569,33.1768162 C177.055213,32.8489737 176.619951,32.6659919 176.16178,32.6659919 C175.695973,32.6659919 175.268347,32.8489737 174.939992,33.1768162 C174.611636,33.5046586 174.420731,33.9316162 174.420731,34.3966949 C174.420731,34.8541495 174.611636,35.2887313 174.939992,35.6165737 C175.268347,35.9444162 175.695973,36.127398 176.16178,36.127398 C176.619951,36.127398 177.055213,35.9444162 177.383569,35.6165737 C177.490475,35.5098343 177.589746,35.3878465 177.666107,35.2582343 L177.139211,34.9532646 Z M180.308225,32.6659919 C179.934053,32.6659919 179.598061,32.795604 179.330794,33.0090828 L179.330794,30.6913131 L178.7199,30.6913131 L178.7199,36.0282828 L179.330794,36.0282828 L179.330794,34.2594586 C179.330794,33.5885253 179.804237,33.2606828 180.308225,33.2606828 C180.850394,33.2606828 181.27802,33.7105131 181.27802,34.305204 L181.27802,36.0130343 L181.888914,36.0130343 L181.888914,34.305204 C181.888914,33.359798 181.17875,32.6659919 180.308225,32.6659919 Z M184.637939,32.6659919 C184.263766,32.6659919 183.927774,32.795604 183.660508,33.0090828 L183.660508,32.826101 L183.049613,32.826101 L183.049613,36.0282828 L183.660508,36.0282828 L183.660508,34.2594586 C183.660508,33.5885253 184.133951,33.2606828 184.637939,33.2606828 C185.180107,33.2606828 185.607733,33.7105131 185.607733,34.305204 L185.607733,36.0130343 L186.218628,36.0130343 L186.218628,34.305204 C186.218628,33.359798 185.508463,32.6659919 184.637939,32.6659919 Z M187.402235,32.826101 L187.402235,36.0282828 L188.01313,36.0282828 L188.01313,32.826101 L187.402235,32.826101 Z M187.707683,32.040804 C187.921496,32.040804 188.089492,31.8654465 188.089492,31.6519677 C188.089492,31.4384889 187.921496,31.2707556 187.707683,31.2707556 C187.49387,31.2707556 187.318237,31.4384889 187.318237,31.6519677 C187.318237,31.8654465 187.49387,32.040804 187.707683,32.040804 Z M191.785402,34.9532646 C191.594498,35.2963556 191.227961,35.5327071 190.807971,35.5327071 C190.181805,35.5327071 189.677817,35.0218828 189.677817,34.3966949 C189.677817,33.7715071 190.181805,33.2606828 190.807971,33.2606828 C191.227961,33.2606828 191.594498,33.4970343 191.785402,33.832501 L192.312298,33.5351556 C192.235937,33.4055434 192.136666,33.2835556 192.02976,33.1768162 C191.701404,32.8489737 191.266142,32.6659919 190.807971,32.6659919 C190.342164,32.6659919 189.914538,32.8489737 189.586183,33.1768162 C189.257827,33.5046586 189.066922,33.9316162 189.066922,34.3966949 C189.066922,34.8541495 189.257827,35.2887313 189.586183,35.6165737 C189.914538,35.9444162 190.342164,36.127398 190.807971,36.127398 C191.266142,36.127398 191.701404,35.9444162 192.02976,35.6165737 C192.136666,35.5098343 192.235937,35.3878465 192.312298,35.2582343 L191.785402,34.9532646 Z M195.794396,32.826101 L195.794396,33.0929495 C195.481313,32.8184768 195.084231,32.6659919 194.664242,32.6659919 C194.198435,32.6659919 193.770809,32.8489737 193.442453,33.1768162 C193.114097,33.5046586 192.923193,33.9316162 192.923193,34.3966949 C192.923193,34.8541495 193.114097,35.2887313 193.442453,35.6165737 C193.770809,35.9444162 194.198435,36.127398 194.664242,36.127398 C195.084231,36.127398 195.481313,35.9749131 195.794396,35.7004404 L195.794396,36.0282828 L196.40529,36.0282828 L196.40529,32.826101 L195.794396,32.826101 Z M194.664242,35.5327071 C194.038075,35.5327071 193.534087,35.0218828 193.534087,34.3966949 C193.534087,33.7715071 194.038075,33.2606828 194.664242,33.2606828 C195.290408,33.2606828 195.78676,33.7715071 195.78676,34.3966949 C195.78676,35.0218828 195.290408,35.5327071 194.664242,35.5327071 Z M198.123431,36.0282828 L198.123431,30.6913131 L197.512536,30.6913131 L197.512536,36.0282828 L198.123431,36.0282828 Z M202.059234,32.835257 C202.030396,32.8518002 202.002092,32.8691598 201.974347,32.887301 L201.974347,32.826101 L201.965268,32.826101 L202.059234,32.835257 Z M201.965268,32.826101 L201.36117,32.826101 L201.36117,36.0282828 L201.972065,36.0282828 L201.972065,34.0154828 C201.972065,33.5885253 202.277512,33.2606828 202.666957,33.2606828 C203.056402,33.2606828 203.361849,33.6266465 203.361849,34.0154828 L203.361849,36.0282828 L203.972744,36.0282828 L203.972744,33.9697374 C203.972744,33.580901 204.285827,33.2606828 204.675272,33.2606828 C205.064717,33.2606828 205.370164,33.580901 205.370164,33.9697374 L205.370164,36.0282828 L205.981059,36.0282828 L205.981059,33.9697374 C205.981059,33.2530586 205.393073,32.6659919 204.675272,32.6659919 C204.270555,32.6659919 203.911654,32.856598 203.667296,33.1386949 C203.430575,32.856598 203.071674,32.6659919 202.666957,32.6659919 C202.434489,32.6659919 202.220388,32.7271158 202.035615,32.8329449 L201.965268,32.826101 Z M207.187575,32.826101 L207.187575,36.0282828 L207.798469,36.0282828 L207.798469,32.826101 L207.187575,32.826101 Z M207.493022,32.040804 C207.706835,32.040804 207.874831,31.8654465 207.874831,31.6519677 C207.874831,31.4384889 207.706835,31.2707556 207.493022,31.2707556 C207.279209,31.2707556 207.103577,31.4384889 207.103577,31.6519677 C207.103577,31.8654465 207.279209,32.040804 207.493022,32.040804 Z M210.593311,32.6659919 C210.219138,32.6659919 209.883146,32.795604 209.61588,33.0090828 L209.61588,32.826101 L209.004985,32.826101 L209.004985,36.0282828 L209.61588,36.0282828 L209.61588,34.2594586 C209.61588,33.5885253 210.089323,33.2606828 210.593311,33.2606828 C211.135479,33.2606828 211.563105,33.7105131 211.563105,34.305204 L211.563105,36.0130343 L212.174,36.0130343 L212.174,34.305204 C212.174,33.359798 211.463835,32.6659919 210.593311,32.6659919 Z M212.998707,34.3966949 C212.998707,34.8541495 213.189611,35.2887313 213.517967,35.6165737 C213.846323,35.9444162 214.273949,36.127398 214.739756,36.127398 C215.159746,36.127398 215.556827,35.9749131 215.86991,35.7004404 L215.86991,36.0282828 L216.480805,36.0282828 L216.480805,30.6913131 L215.86991,30.6913131 L215.86991,33.0929495 C215.556827,32.8184768 215.159746,32.6659919 214.739756,32.6659919 C214.273949,32.6659919 213.846323,32.8489737 213.517967,33.1768162 C213.189611,33.5046586 212.998707,33.9316162 212.998707,34.3966949 Z M213.609601,34.3966949 C213.609601,33.7715071 214.113589,33.2606828 214.739756,33.2606828 C215.365922,33.2606828 215.862274,33.7715071 215.862274,34.3966949 C215.862274,35.0218828 215.365922,35.5327071 214.739756,35.5327071 C214.113589,35.5327071 213.609601,35.0218828 213.609601,34.3966949 Z M219.985811,34.3890707 C219.749089,34.2442101 219.458914,34.1603434 219.10765,34.0612283 C219.069469,34.0459798 219.038924,34.0383556 219.00838,34.0307313 C218.458575,33.8782465 218.282943,33.7943798 218.282943,33.5961495 C218.282943,33.4055434 218.603662,33.2683071 219.069469,33.2683071 C219.382553,33.2683071 219.703272,33.3521737 219.955266,33.4970343 C219.993447,33.5199071 220.031628,33.5427798 220.062172,33.5732768 L220.474526,33.1310707 C220.4058,33.077701 220.337075,33.0319556 220.260713,32.9862101 C219.924721,32.7879798 219.489459,32.6736162 219.069469,32.6736162 C218.68766,32.6736162 218.359305,32.7422343 218.114947,32.8794707 C217.832408,33.047204 217.672048,33.298804 217.672048,33.5961495 C217.672048,33.9087434 217.824772,34.1527192 218.114947,34.3280768 C218.321124,34.4576889 218.580754,34.5263071 218.84802,34.6025495 C218.878565,34.6101737 218.909109,34.617798 218.939654,34.6330465 C219.245101,34.7169131 219.504731,34.7931556 219.680363,34.8998949 C219.825451,34.9913859 219.848359,35.0676283 219.848359,35.1667434 C219.848359,35.2277374 219.840723,35.311604 219.710908,35.3954707 C219.520004,35.5022101 219.229829,35.5250828 219.023652,35.5250828 C218.664752,35.5250828 218.336396,35.4412162 218.099674,35.2887313 C218.061494,35.2658586 218.030949,35.2429859 218.000404,35.2124889 L217.610959,35.6699434 C217.664412,35.7080646 217.717866,35.7538101 217.778955,35.7919313 C218.114947,36.0054101 218.557845,36.1197737 219.023652,36.1197737 C219.436006,36.1197737 219.764361,36.0511556 220.008719,35.9062949 C220.298894,35.7385616 220.459254,35.4793374 220.459254,35.1667434 C220.459254,34.838901 220.298894,34.5796768 219.985811,34.3890707 Z" id="Only-the-best-techni" fill="#0967B1"></path>
        </g>
    </g>
</svg>