<?xml version="1.0" encoding="UTF-8"?>
<svg width="150px" height="88px" viewBox="0 0 150 88" version="1.1" xmlns="http://www.w3.org/2000/svg" xmlns:xlink="http://www.w3.org/1999/xlink">
    <!-- Generator: Sketch 42 (36781) - http://www.bohemiancoding.com/sketch -->
    <title>BYG</title>
    <desc>Created with Sketch.</desc>
    <defs></defs>
    <g id="Home" stroke="none" stroke-width="1" fill="none" fill-rule="evenodd">
        <g id="BYG">
            <rect id="Rectangle-6" fill="#FFFFFF" opacity="0.00999999978" x="0" y="0" width="150" height="87.5"></rect>
            <path d="M32.9765625,73.6987305 L34.9101562,73.6987305 C35.522464,73.6928711 35.94287,73.6167 36.1713867,73.4702148 C36.355958,73.3500971 36.4482422,73.1245134 36.4482422,72.793457 C36.4482422,72.4624007 36.355958,72.236817 36.1713867,72.1166992 C35.9399402,71.9702141 35.513675,71.894043 34.8925781,71.8881836 L32.9765625,71.8881836 L32.9765625,73.6987305 Z M37.0634766,74.472168 C37.3037121,74.7036144 37.4238281,75.0786107 37.4238281,75.597168 C37.4238281,76.2797886 37.2202169,76.7749008 36.8129883,77.0825195 C36.4526349,77.3520521 35.8813516,77.4912109 35.0991211,77.5 L32.203125,77.5 L32.203125,71.1147461 L34.8969727,71.1191406 C35.6616249,71.1191406 36.2255841,71.2348621 36.5888672,71.4663086 C37.013674,71.7387709 37.2260742,72.1811493 37.2260742,72.793457 C37.2260742,73.2270529 37.1191417,73.5507802 36.9052734,73.7646484 C36.7294913,73.9433603 36.4599628,74.0590818 36.0966797,74.1118164 C36.5390647,74.1586916 36.8613271,74.2788076 37.0634766,74.472168 Z M32.9765625,74.472168 L32.9765625,76.7265625 L35.0947266,76.7265625 C35.7041046,76.7207031 36.1215809,76.6328133 36.347168,76.4628906 C36.5493174,76.3105461 36.6503906,76.0219748 36.6503906,75.597168 C36.6503906,75.1752909 36.5507822,74.8881844 36.3515625,74.7358398 C36.1289051,74.5659171 35.7158233,74.4780274 35.1123047,74.472168 L32.9765625,74.472168 Z M39.3701172,73.6064453 C39.6630874,73.0966771 40.2123983,72.8417969 41.0180664,72.8417969 C41.8325236,72.8417969 42.428709,73.038084 42.8066406,73.4306641 C43.166994,73.8056659 43.347168,74.4018514 43.347168,75.2192383 L42.5737305,75.2192383 C42.5737305,74.6098602 42.4653331,74.1923839 42.2485352,73.9667969 C42.0258778,73.7353504 41.6157256,73.6196289 41.0180664,73.6196289 C40.4057587,73.6196289 39.9882824,73.7280263 39.765625,73.9448242 C39.5371082,74.1645519 39.4199219,74.5790985 39.4140625,75.1884766 L39.4140625,77.5 L38.640625,77.5 L38.640625,72.9384766 L39.3701172,72.9384766 L39.3701172,73.6064453 Z M45.3154297,72.9384766 L45.3154297,77.5 L44.5419922,77.5 L44.5419922,72.9384766 L45.3154297,72.9384766 Z M45.3154297,71.1147461 L45.3154297,71.8925781 L44.5419922,71.8925781 L44.5419922,71.1147461 L45.3154297,71.1147461 Z M47.7451172,73.6503906 C48.0380874,73.1113254 48.5873983,72.8417969 49.3930664,72.8417969 C50.2368206,72.8417969 50.8476544,73.038084 51.2255859,73.4306641 C51.5859393,73.8056659 51.7661133,74.4018514 51.7661133,75.2192383 L51.7661133,77.5 L50.9926758,77.5 L50.9926758,75.2192383 C50.9926758,74.6098602 50.8842784,74.1923839 50.6674805,73.9667969 C50.4448231,73.7353504 50.0200227,73.6196289 49.3930664,73.6196289 C48.7807587,73.6196289 48.3632824,73.7280263 48.140625,73.9448242 C47.9121082,74.1645519 47.7949219,74.5790985 47.7890625,75.1884766 L47.7890625,77.5 L47.015625,77.5 L47.015625,72.9384766 L47.7451172,72.9384766 L47.7451172,73.6503906 Z M57.4433594,73.5229492 L57.4433594,72.9384766 L58.1728516,72.9384766 L58.1728516,77.4165039 C58.1728516,78.2631878 57.9780293,78.8754864 57.5883789,79.253418 C57.213377,79.6137713 56.6171916,79.7939453 55.7998047,79.7939453 C55.1406217,79.7939453 54.6293963,79.6796886 54.2661133,79.4511719 C53.8588847,79.1962878 53.5996099,78.783206 53.4882812,78.2119141 L54.2485352,78.0668945 C54.3159183,78.4155291 54.4594716,78.6586907 54.6791992,78.7963867 C54.9135754,78.9458015 55.2871068,79.0205078 55.7998047,79.0205078 C56.4091827,79.0205078 56.826659,78.9121105 57.0522461,78.6953125 C57.2836926,78.4697254 57.3994141,78.0434602 57.3994141,77.4165039 L57.3994141,76.9638672 C57.1386706,77.3857443 56.6054728,77.5966797 55.7998047,77.5966797 C54.9824178,77.5966797 54.3862323,77.4165057 54.0112305,77.0561523 C53.6186504,76.6782208 53.4223633,76.0659222 53.4223633,75.2192383 C53.4223633,74.4018514 53.6025373,73.8056659 53.9628906,73.4306641 C54.3408222,73.038084 54.9531208,72.8417969 55.7998047,72.8417969 C56.6054728,72.8417969 57.1533189,73.0688454 57.4433594,73.5229492 Z M55.7998047,73.6196289 C55.1699187,73.6196289 54.7436535,73.7353504 54.5209961,73.9667969 C54.3041981,74.1923839 54.1958008,74.6098602 54.1958008,75.2192383 C54.1958008,75.8461945 54.3129871,76.2724598 54.5473633,76.4980469 C54.7700206,76.7119151 55.1874969,76.8188477 55.7998047,76.8188477 C56.4091827,76.8188477 56.826659,76.7119151 57.0522461,76.4980469 C57.2836926,76.2724598 57.3994141,75.8461945 57.3994141,75.2192383 C57.3994141,74.592282 57.2836926,74.1674816 57.0522461,73.9448242 C56.826659,73.7280263 56.4091827,73.6196289 55.7998047,73.6196289 Z M64.7119141,71.1147461 L66.8300781,74.2348633 L68.9482422,71.1147461 L69.8798828,71.1147461 L67.2211914,75.0390625 L67.2211914,77.5 L66.4433594,77.5 L66.4433594,75.0390625 L63.7802734,71.1147461 L64.7119141,71.1147461 Z M74.9248047,73.3955078 C75.3144551,73.7734394 75.5092773,74.3842731 75.5092773,75.2280273 C75.5092773,76.0747113 75.3144551,76.6870098 74.9248047,77.0649414 C74.5498028,77.4252948 73.9536174,77.6054688 73.1362305,77.6054688 C72.3188436,77.6054688 71.7226581,77.4252948 71.3476562,77.0649414 C70.9550762,76.6870098 70.7587891,76.0747113 70.7587891,75.2280273 C70.7587891,74.4106404 70.938963,73.814455 71.2993164,73.4394531 C71.677248,73.046873 72.2895465,72.8505859 73.1362305,72.8505859 C73.9536174,72.8505859 74.5498028,73.0322247 74.9248047,73.3955078 Z M73.1362305,73.628418 C72.5063445,73.628418 72.0800792,73.7441395 71.8574219,73.9755859 C71.6406239,74.201173 71.5322266,74.6186493 71.5322266,75.2280273 C71.5322266,75.8549836 71.6494129,76.2812489 71.8837891,76.5068359 C72.1064464,76.7207042 72.5239227,76.8276367 73.1362305,76.8276367 C73.7456085,76.8276367 74.1630848,76.7207042 74.3886719,76.5068359 C74.6201183,76.2812489 74.7358398,75.8549836 74.7358398,75.2280273 C74.7358398,74.6010711 74.6201183,74.1762706 74.3886719,73.9536133 C74.1630848,73.7368153 73.7456085,73.628418 73.1362305,73.628418 Z M80.8925781,77.0078125 C80.6318346,77.4003926 80.0986368,77.5966797 79.2929688,77.5966797 C78.4462848,77.5966797 77.8339863,77.4003926 77.4560547,77.0078125 C77.0957013,76.6328106 76.9155273,76.0366252 76.9155273,75.2192383 L76.9155273,72.9384766 L77.6889648,72.9384766 L77.6889648,75.2192383 C77.6889648,75.831546 77.7973622,76.2490223 78.0141602,76.4716797 C78.2368175,76.7031262 78.6630828,76.8188477 79.2929688,76.8188477 C79.9023468,76.8188477 80.3198231,76.7119151 80.5454102,76.4980469 C80.7739269,76.2753895 80.8896484,75.859378 80.8925781,75.25 L80.8925781,72.9384766 L81.6660156,72.9384766 L81.6660156,77.5 L80.8925781,77.5 L80.8925781,77.0078125 Z M83.8017578,73.6064453 C84.094728,73.0966771 84.6440389,72.8417969 85.449707,72.8417969 C86.2641642,72.8417969 86.8603497,73.038084 87.2382812,73.4306641 C87.5986346,73.8056659 87.7788086,74.4018514 87.7788086,75.2192383 L87.0053711,75.2192383 C87.0053711,74.6098602 86.8969737,74.1923839 86.6801758,73.9667969 C86.4575184,73.7353504 86.0473663,73.6196289 85.449707,73.6196289 C84.8373993,73.6196289 84.419923,73.7280263 84.1972656,73.9448242 C83.9687489,74.1645519 83.8515625,74.5790985 83.8457031,75.1884766 L83.8457031,77.5 L83.0722656,77.5 L83.0722656,72.9384766 L83.8017578,72.9384766 L83.8017578,73.6064453 Z M97.9785156,72.0332031 C97.6415999,71.8720695 97.1640656,71.7915039 96.5458984,71.7915039 C95.6406205,71.7915039 95.0180681,71.9775372 94.6782227,72.3496094 C94.3471663,72.7128924 94.1816406,73.3662062 94.1816406,74.3095703 C94.1816406,75.2793017 94.3603498,75.945799 94.7177734,76.309082 C95.0546892,76.6518572 95.6640581,76.8232422 96.5458984,76.8232422 C97.4248091,76.8232422 98.0327132,76.6518572 98.3696289,76.309082 C98.6801773,75.9926742 98.8559568,75.4550819 98.8969727,74.6962891 L96.5458984,74.6962891 L96.5458984,73.918457 L99.6791992,73.918457 L99.6791992,74.3095703 C99.6791992,75.4873106 99.4257838,76.3339818 98.9189453,76.8496094 C98.4296851,77.3476587 97.6386773,77.5966797 96.5458984,77.5966797 C95.4501898,77.5966797 94.6577173,77.3476587 94.168457,76.8496094 C93.6616186,76.3339818 93.4082031,75.4873106 93.4082031,74.3095703 C93.4082031,73.1669865 93.641111,72.339358 94.1069336,71.8266602 C94.5991236,71.287595 95.4121037,71.0180664 96.5458984,71.0180664 C97.278324,71.0180664 97.8671853,71.1235341 98.3125,71.3344727 C98.8105494,71.5717785 99.1708973,71.9584934 99.3935547,72.4946289 L98.6772461,72.7890625 C98.5336907,72.4404279 98.3007829,72.1884773 97.9785156,72.0332031 Z M105.106445,76.9946289 C104.819335,77.3959981 104.271488,77.5966797 103.462891,77.5966797 C102.68359,77.5966797 102.115236,77.500001 101.757812,77.3066406 C101.309568,77.066405 101.085449,76.663577 101.085449,76.0981445 C101.085449,75.4506804 101.372556,75.0288096 101.946777,74.8325195 C102.31006,74.7358394 102.926753,74.6875 103.796875,74.6875 C104.441409,74.6875 104.86328,74.6655276 105.0625,74.621582 L105.0625,74.3754883 C105.05957,74.1059557 104.970216,73.9213872 104.794434,73.8217773 C104.554198,73.687011 104.110355,73.6196289 103.462891,73.6196289 C102.950193,73.6196289 102.575196,73.6694331 102.337891,73.769043 C102.153319,73.8452152 102.01709,73.9799795 101.929199,74.1733398 L101.22168,73.8569336 C101.394532,73.479002 101.66699,73.2124031 102.039062,73.0571289 C102.375978,72.9135735 102.850583,72.8417969 103.462891,72.8417969 C104.242191,72.8417969 104.81201,72.9428701 105.172363,73.1450195 C105.582522,73.376466 105.802246,73.7441381 105.831543,74.2480469 L105.835938,74.2480469 L105.835938,77.5 L105.106445,77.5 L105.106445,76.9946289 Z M105.0625,75.2763672 C104.810546,75.3085939 104.385745,75.324707 103.788086,75.324707 C103.234372,75.324707 102.796388,75.351074 102.474121,75.4038086 C102.063963,75.5063482 101.858887,75.7377912 101.858887,76.0981445 C101.858887,76.3559583 101.946776,76.5317378 102.122559,76.6254883 C102.365724,76.7543952 102.812497,76.8188477 103.462891,76.8188477 C104.113285,76.8188477 104.558593,76.7543952 104.798828,76.6254883 C104.971681,76.5346675 105.05957,76.3647473 105.0625,76.1157227 L105.0625,75.2763672 Z M107.97168,73.6503906 C108.26465,73.1113254 108.813961,72.8417969 109.619629,72.8417969 C110.463383,72.8417969 111.074217,73.038084 111.452148,73.4306641 C111.812502,73.8056659 111.992676,74.4018514 111.992676,75.2192383 L111.992676,77.5 L111.219238,77.5 L111.219238,75.2192383 C111.219238,74.6098602 111.110841,74.1923839 110.894043,73.9667969 C110.671386,73.7353504 110.246585,73.6196289 109.619629,73.6196289 C109.007321,73.6196289 108.589845,73.7280263 108.367188,73.9448242 C108.138671,74.1645519 108.021484,74.5790985 108.015625,75.1884766 L108.015625,77.5 L107.242188,77.5 L107.242188,72.9384766 L107.97168,72.9384766 L107.97168,73.6503906 Z M117.419922,73.5229492 L117.419922,72.9384766 L118.149414,72.9384766 L118.149414,77.4165039 C118.149414,78.2631878 117.954592,78.8754864 117.564941,79.253418 C117.18994,79.6137713 116.593754,79.7939453 115.776367,79.7939453 C115.117184,79.7939453 114.605959,79.6796886 114.242676,79.4511719 C113.835447,79.1962878 113.576172,78.783206 113.464844,78.2119141 L114.225098,78.0668945 C114.292481,78.4155291 114.436034,78.6586907 114.655762,78.7963867 C114.890138,78.9458015 115.263669,79.0205078 115.776367,79.0205078 C116.385745,79.0205078 116.803222,78.9121105 117.028809,78.6953125 C117.260255,78.4697254 117.375977,78.0434602 117.375977,77.4165039 L117.375977,76.9638672 C117.115233,77.3857443 116.582035,77.5966797 115.776367,77.5966797 C114.95898,77.5966797 114.362795,77.4165057 113.987793,77.0561523 C113.595213,76.6782208 113.398926,76.0659222 113.398926,75.2192383 C113.398926,74.4018514 113.5791,73.8056659 113.939453,73.4306641 C114.317385,73.038084 114.929683,72.8417969 115.776367,72.8417969 C116.582035,72.8417969 117.129881,73.0688454 117.419922,73.5229492 Z M115.776367,73.6196289 C115.146481,73.6196289 114.720216,73.7353504 114.497559,73.9667969 C114.280761,74.1923839 114.172363,74.6098602 114.172363,75.2192383 C114.172363,75.8461945 114.28955,76.2724598 114.523926,76.4980469 C114.746583,76.7119151 115.164059,76.8188477 115.776367,76.8188477 C116.385745,76.8188477 116.803222,76.7119151 117.028809,76.4980469 C117.260255,76.2724598 117.375977,75.8461945 117.375977,75.2192383 C117.375977,74.592282 117.260255,74.1674816 117.028809,73.9448242 C116.803222,73.7280263 116.385745,73.6196289 115.776367,73.6196289 Z" id="Bring-Your-Gang" fill="#222222"></path>
            <path d="M46,67 L31.5,67 L31.5,20 L54.5,20 L64,34.5 C64,34.5 64,36.5 62.5,38.5 C61,40.5 59,41.5 59,41.5 C59,41.5 67.5,44 66.5,55 C65.5,66 55,67 55,67 L48,67 L48,55 C48,55 54.5,55.5 54.5,52.5 C54.5,49.5 48,50 48,50 L48,37.5 C48,37.5 52,37.5 52,35 C52,32.5 48,32.5 48,32.5 L46,32.5 L46,67 Z" id="Path" fill="#222222"></path>
            <path d="M56,20 L69.5,40.5 L69.5,67 L83,67 L83,52.5 C83,52.5 80.5,41.5 84.5,32.5 C88.5,23.5 97,20 97,20 L82.5,20 L76,29.5 L70,20 L56,20 Z" id="Path-2" fill="#222222"></path>
            <path d="M106.5,68.5 C119.5,68.5 123.5,58.5 123.5,52.5 C123.5,51.0545256 123.5,49 122,45.5 C120.5,42 119,41.5 119,41.5 L106,41.5 L106,52 C106,52 111.5,51 111.5,53 C111.5,55 108.5,55 106.5,55 C104.5,55 97,53 97.5,43.75 C97.7893537,38.3969558 101.290656,34.4500978 106,33.5 C110.709344,32.5499022 114.506932,34.5 114.506932,34.5 C114.506932,34.5 114.506932,22.0197649 114.506932,21.0098825 C114.506932,20 109.315819,19.5 106.5,19.5 C93.7974508,19.5 83.5,30.3570948 83.5,43.75 C83.5,57.1429052 93.5,68.5 106.5,68.5 Z" id="Oval" fill="#F24038"></path>
            <path d="M109.75,18 C113.20178,18 116,15.2017797 116,11.75 C116,8.29822031 113.20178,5.5 109.75,5.5 C106.29822,5.5 103.5,8.29822031 103.5,11.75 C103.5,15.2017797 106.29822,18 109.75,18 Z" id="Oval-2" fill="#EF3E38"></path>
            <circle id="Oval-3" fill="#F79421" cx="120.25" cy="18.75" r="3.25"></circle>
            <circle id="Oval-4" fill="#F9931B" cx="97.75" cy="13.75" r="3.25"></circle>
        </g>
    </g>
</svg>