<?xml version="1.0" encoding="UTF-8"?>
<svg width="184px" height="149px" viewBox="0 0 184 149" version="1.1" xmlns="http://www.w3.org/2000/svg" xmlns:xlink="http://www.w3.org/1999/xlink">
    <!-- Generator: Sketch 42 (36781) - http://www.bohemiancoding.com/sketch -->
    <title>BYG</title>
    <desc>Created with Sketch.</desc>
    <defs></defs>
    <g id="Home" stroke="none" stroke-width="1" fill="none" fill-rule="evenodd">
        <g id="BYG" transform="translate(-63.000000, -11.000000)">
            <rect id="Rectangle-6" fill="#FFFFFF" opacity="0" x="0" y="0" width="300" height="175"></rect>
            <path d="M65.953125,147.397461 L69.8203125,147.397461 C71.044928,147.385742 71.8857399,147.2334 72.3427734,146.94043 C72.7119159,146.700194 72.8964844,146.249027 72.8964844,145.586914 C72.8964844,144.924801 72.7119159,144.473634 72.3427734,144.233398 C71.8798805,143.940428 71.02735,143.788086 69.7851562,143.776367 L65.953125,143.776367 L65.953125,147.397461 Z M74.1269531,148.944336 C74.6074243,149.407229 74.8476562,150.157221 74.8476562,151.194336 C74.8476562,152.559577 74.4404338,153.549802 73.6259766,154.165039 C72.9052698,154.704104 71.7627031,154.982422 70.1982422,155 L64.40625,155 L64.40625,142.229492 L69.7939453,142.238281 C71.3232498,142.238281 72.4511682,142.469724 73.1777344,142.932617 C74.027348,143.477542 74.4521484,144.362299 74.4521484,145.586914 C74.4521484,146.454106 74.2382834,147.10156 73.8105469,147.529297 C73.4589826,147.886721 72.9199255,148.118164 72.1933594,148.223633 C73.0781294,148.317383 73.7226542,148.557615 74.1269531,148.944336 Z M65.953125,148.944336 L65.953125,153.453125 L70.1894531,153.453125 C71.4082092,153.441406 72.2431618,153.265627 72.6943359,152.925781 C73.0986348,152.621092 73.3007812,152.04395 73.3007812,151.194336 C73.3007812,150.350582 73.1015645,149.776369 72.703125,149.47168 C72.2578103,149.131834 71.4316467,148.956055 70.2246094,148.944336 L65.953125,148.944336 Z M78.7402344,147.212891 C79.3261748,146.193354 80.4247966,145.683594 82.0361328,145.683594 C83.6650472,145.683594 84.8574181,146.076168 85.6132812,146.861328 C86.333988,147.611332 86.6943359,148.803703 86.6943359,150.438477 L85.1474609,150.438477 C85.1474609,149.21972 84.9306662,148.384768 84.4970703,147.933594 C84.0517556,147.470701 83.2314513,147.239258 82.0361328,147.239258 C80.8115173,147.239258 79.9765647,147.456053 79.53125,147.889648 C79.0742165,148.329104 78.8398438,149.158197 78.828125,150.376953 L78.828125,155 L77.28125,155 L77.28125,145.876953 L78.7402344,145.876953 L78.7402344,147.212891 Z M90.6308594,145.876953 L90.6308594,155 L89.0839844,155 L89.0839844,145.876953 L90.6308594,145.876953 Z M90.6308594,142.229492 L90.6308594,143.785156 L89.0839844,143.785156 L89.0839844,142.229492 L90.6308594,142.229492 Z M95.4902344,147.300781 C96.0761748,146.222651 97.1747966,145.683594 98.7861328,145.683594 C100.473641,145.683594 101.695309,146.076168 102.451172,146.861328 C103.171879,147.611332 103.532227,148.803703 103.532227,150.438477 L103.532227,155 L101.985352,155 L101.985352,150.438477 C101.985352,149.21972 101.768557,148.384768 101.334961,147.933594 C100.889646,147.470701 100.040045,147.239258 98.7861328,147.239258 C97.5615173,147.239258 96.7265647,147.456053 96.28125,147.889648 C95.8242165,148.329104 95.5898438,149.158197 95.578125,150.376953 L95.578125,155 L94.03125,155 L94.03125,145.876953 L95.4902344,145.876953 L95.4902344,147.300781 Z M114.886719,147.045898 L114.886719,145.876953 L116.345703,145.876953 L116.345703,154.833008 C116.345703,156.526376 115.956059,157.750973 115.176758,158.506836 C114.426754,159.227543 113.234383,159.587891 111.599609,159.587891 C110.281243,159.587891 109.258793,159.359377 108.532227,158.902344 C107.717769,158.392576 107.19922,157.566412 106.976562,156.423828 L108.49707,156.133789 C108.631837,156.831058 108.918943,157.317381 109.358398,157.592773 C109.827151,157.891603 110.574214,158.041016 111.599609,158.041016 C112.818365,158.041016 113.653318,157.824221 114.104492,157.390625 C114.567385,156.939451 114.798828,156.08692 114.798828,154.833008 L114.798828,153.927734 C114.277341,154.771489 113.210946,155.193359 111.599609,155.193359 C109.964836,155.193359 108.772465,154.833011 108.022461,154.112305 C107.237301,153.356442 106.844727,152.131844 106.844727,150.438477 C106.844727,148.803703 107.205075,147.611332 107.925781,146.861328 C108.681644,146.076168 109.906242,145.683594 111.599609,145.683594 C113.210946,145.683594 114.306638,146.137691 114.886719,147.045898 Z M111.599609,147.239258 C110.339837,147.239258 109.487307,147.470701 109.041992,147.933594 C108.608396,148.384768 108.391602,149.21972 108.391602,150.438477 C108.391602,151.692389 108.625974,152.54492 109.094727,152.996094 C109.540041,153.42383 110.374994,153.637695 111.599609,153.637695 C112.818365,153.637695 113.653318,153.42383 114.104492,152.996094 C114.567385,152.54492 114.798828,151.692389 114.798828,150.438477 C114.798828,149.184564 114.567385,148.334963 114.104492,147.889648 C113.653318,147.456053 112.818365,147.239258 111.599609,147.239258 Z M129.423828,142.229492 L133.660156,148.469727 L137.896484,142.229492 L139.759766,142.229492 L134.442383,150.078125 L134.442383,155 L132.886719,155 L132.886719,150.078125 L127.560547,142.229492 L129.423828,142.229492 Z M149.849609,146.791016 C150.62891,147.546879 151.018555,148.768546 151.018555,150.456055 C151.018555,152.149423 150.62891,153.37402 149.849609,154.129883 C149.099606,154.85059 147.907235,155.210938 146.272461,155.210938 C144.637687,155.210938 143.445316,154.85059 142.695312,154.129883 C141.910152,153.37402 141.517578,152.149423 141.517578,150.456055 C141.517578,148.821281 141.877926,147.62891 142.598633,146.878906 C143.354496,146.093746 144.579093,145.701172 146.272461,145.701172 C147.907235,145.701172 149.099606,146.064449 149.849609,146.791016 Z M146.272461,147.256836 C145.012689,147.256836 144.160158,147.488279 143.714844,147.951172 C143.281248,148.402346 143.064453,149.237299 143.064453,150.456055 C143.064453,151.709967 143.298826,152.562498 143.767578,153.013672 C144.212893,153.441408 145.047845,153.655273 146.272461,153.655273 C147.491217,153.655273 148.32617,153.441408 148.777344,153.013672 C149.240237,152.562498 149.47168,151.709967 149.47168,150.456055 C149.47168,149.202142 149.240237,148.352541 148.777344,147.907227 C148.32617,147.473631 147.491217,147.256836 146.272461,147.256836 Z M161.785156,154.015625 C161.263669,154.800785 160.197274,155.193359 158.585938,155.193359 C156.89257,155.193359 155.667973,154.800785 154.912109,154.015625 C154.191403,153.265621 153.831055,152.07325 153.831055,150.438477 L153.831055,145.876953 L155.37793,145.876953 L155.37793,150.438477 C155.37793,151.663092 155.594724,152.498045 156.02832,152.943359 C156.473635,153.406252 157.326166,153.637695 158.585938,153.637695 C159.804694,153.637695 160.639646,153.42383 161.09082,152.996094 C161.547854,152.550779 161.779297,151.718756 161.785156,150.5 L161.785156,145.876953 L163.332031,145.876953 L163.332031,155 L161.785156,155 L161.785156,154.015625 Z M167.603516,147.212891 C168.189456,146.193354 169.288078,145.683594 170.899414,145.683594 C172.528328,145.683594 173.720699,146.076168 174.476562,146.861328 C175.197269,147.611332 175.557617,148.803703 175.557617,150.438477 L174.010742,150.438477 C174.010742,149.21972 173.793947,148.384768 173.360352,147.933594 C172.915037,147.470701 172.094733,147.239258 170.899414,147.239258 C169.674799,147.239258 168.839846,147.456053 168.394531,147.889648 C167.937498,148.329104 167.703125,149.158197 167.691406,150.376953 L167.691406,155 L166.144531,155 L166.144531,145.876953 L167.603516,145.876953 L167.603516,147.212891 Z M195.957031,144.066406 C195.2832,143.744139 194.328131,143.583008 193.091797,143.583008 C191.281241,143.583008 190.036136,143.955074 189.356445,144.699219 C188.694333,145.425785 188.363281,146.732412 188.363281,148.619141 C188.363281,150.558603 188.7207,151.891598 189.435547,152.618164 C190.109378,153.303714 191.328116,153.646484 193.091797,153.646484 C194.849618,153.646484 196.065426,153.303714 196.739258,152.618164 C197.360355,151.985348 197.711914,150.910164 197.793945,149.392578 L193.091797,149.392578 L193.091797,147.836914 L199.358398,147.836914 L199.358398,148.619141 C199.358398,150.974621 198.851568,152.667964 197.837891,153.699219 C196.85937,154.695317 195.277355,155.193359 193.091797,155.193359 C190.90038,155.193359 189.315435,154.695317 188.336914,153.699219 C187.323237,152.667964 186.816406,150.974621 186.816406,148.619141 C186.816406,146.333973 187.282222,144.678716 188.213867,143.65332 C189.198247,142.57519 190.824207,142.036133 193.091797,142.036133 C194.556648,142.036133 195.734371,142.247068 196.625,142.668945 C197.621099,143.143557 198.341795,143.916987 198.787109,144.989258 L197.354492,145.578125 C197.067381,144.880856 196.601566,144.376955 195.957031,144.066406 Z M210.212891,153.989258 C209.638669,154.791996 208.542977,155.193359 206.925781,155.193359 C205.36718,155.193359 204.230472,155.000002 203.515625,154.613281 C202.619136,154.13281 202.170898,153.327154 202.170898,152.196289 C202.170898,150.901361 202.745111,150.057619 203.893555,149.665039 C204.620121,149.471679 205.853507,149.375 207.59375,149.375 C208.882819,149.375 209.726561,149.331055 210.125,149.243164 L210.125,148.750977 C210.119141,148.211911 209.940431,147.842774 209.588867,147.643555 C209.108396,147.374022 208.22071,147.239258 206.925781,147.239258 C205.900385,147.239258 205.150393,147.338866 204.675781,147.538086 C204.306639,147.69043 204.034181,147.959959 203.858398,148.34668 L202.443359,147.713867 C202.789064,146.958004 203.333981,146.424806 204.078125,146.114258 C204.751956,145.827147 205.701166,145.683594 206.925781,145.683594 C208.484383,145.683594 209.62402,145.88574 210.344727,146.290039 C211.165043,146.752932 211.604492,147.488276 211.663086,148.496094 L211.671875,148.496094 L211.671875,155 L210.212891,155 L210.212891,153.989258 Z M210.125,150.552734 C209.621091,150.617188 208.77149,150.649414 207.576172,150.649414 C206.468744,150.649414 205.592777,150.702148 204.948242,150.807617 C204.127926,151.012696 203.717773,151.475582 203.717773,152.196289 C203.717773,152.711917 203.893553,153.063476 204.245117,153.250977 C204.731448,153.50879 205.624993,153.637695 206.925781,153.637695 C208.226569,153.637695 209.117185,153.50879 209.597656,153.250977 C209.943361,153.069335 210.119141,152.729495 210.125,152.231445 L210.125,150.552734 Z M215.943359,147.300781 C216.5293,146.222651 217.627922,145.683594 219.239258,145.683594 C220.926766,145.683594 222.148434,146.076168 222.904297,146.861328 C223.625004,147.611332 223.985352,148.803703 223.985352,150.438477 L223.985352,155 L222.438477,155 L222.438477,150.438477 C222.438477,149.21972 222.221682,148.384768 221.788086,147.933594 C221.342771,147.470701 220.49317,147.239258 219.239258,147.239258 C218.014642,147.239258 217.17969,147.456053 216.734375,147.889648 C216.277341,148.329104 216.042969,149.158197 216.03125,150.376953 L216.03125,155 L214.484375,155 L214.484375,145.876953 L215.943359,145.876953 L215.943359,147.300781 Z M234.839844,147.045898 L234.839844,145.876953 L236.298828,145.876953 L236.298828,154.833008 C236.298828,156.526376 235.909184,157.750973 235.129883,158.506836 C234.379879,159.227543 233.187508,159.587891 231.552734,159.587891 C230.234368,159.587891 229.211918,159.359377 228.485352,158.902344 C227.670894,158.392576 227.152345,157.566412 226.929688,156.423828 L228.450195,156.133789 C228.584962,156.831058 228.872068,157.317381 229.311523,157.592773 C229.780276,157.891603 230.527339,158.041016 231.552734,158.041016 C232.77149,158.041016 233.606443,157.824221 234.057617,157.390625 C234.52051,156.939451 234.751953,156.08692 234.751953,154.833008 L234.751953,153.927734 C234.230466,154.771489 233.164071,155.193359 231.552734,155.193359 C229.917961,155.193359 228.72559,154.833011 227.975586,154.112305 C227.190426,153.356442 226.797852,152.131844 226.797852,150.438477 C226.797852,148.803703 227.1582,147.611332 227.878906,146.861328 C228.634769,146.076168 229.859367,145.683594 231.552734,145.683594 C233.164071,145.683594 234.259763,146.137691 234.839844,147.045898 Z M231.552734,147.239258 C230.292962,147.239258 229.440432,147.470701 228.995117,147.933594 C228.561521,148.384768 228.344727,149.21972 228.344727,150.438477 C228.344727,151.692389 228.579099,152.54492 229.047852,152.996094 C229.493166,153.42383 230.328119,153.637695 231.552734,153.637695 C232.77149,153.637695 233.606443,153.42383 234.057617,152.996094 C234.52051,152.54492 234.751953,151.692389 234.751953,150.438477 C234.751953,149.184564 234.52051,148.334963 234.057617,147.889648 C233.606443,147.456053 232.77149,147.239258 231.552734,147.239258 Z" id="Bring-Your-Gang" fill="#FFFFFF"></path>
            <path d="M92,134 L63,134 L63,40 L109,40 L128,69 C128,69 128,73 125,77 C122,81 118,83 118,83 C118,83 135,88 133,110 C131,132 110,134 110,134 L96,134 L96,110 C96,110 109,111 109,105 C109,99 96,100 96,100 L96,75 C96,75 104,75 104,70 C104,65 96,65 96,65 L92,65 L92,134 Z" id="Path" fill="#FFFFFF"></path>
            <path d="M112,40 L139,81 L139,134 L166,134 L166,105 C166,105 161,83 169,65 C177,47 194,40 194,40 L165,40 L152,59 L140,40 L112,40 Z" id="Path-2" fill="#FFFFFF"></path>
            <path d="M213,137 C239,137 247,117 247,105 C247,102.109051 247,98 244,91 C241,84 238,83 238,83 L212,83 L212,104 C212,104 223,102 223,106 C223,110 217,110 213,110 C209,110 194,106 195,87.5 C195.578707,76.7939117 202.581312,68.9001957 212,67 C221.418688,65.0998043 229.013864,69 229.013864,69 C229.013864,69 229.013864,44.0395298 229.013864,42.0197649 C229.013864,40 218.631637,39 213,39 C187.594902,39 167,60.7141896 167,87.5 C167,114.28581 187,137 213,137 Z" id="Oval" fill="#F24038"></path>
            <path d="M219.5,36 C226.403559,36 232,30.4035594 232,23.5 C232,16.5964406 226.403559,11 219.5,11 C212.596441,11 207,16.5964406 207,23.5 C207,30.4035594 212.596441,36 219.5,36 Z" id="Oval-2" fill="#EF3E38"></path>
            <circle id="Oval-3" fill="#F79421" cx="240.5" cy="37.5" r="6.5"></circle>
            <circle id="Oval-4" fill="#F9931B" cx="195.5" cy="27.5" r="6.5"></circle>
        </g>
    </g>
</svg>