<?xml version="1.0" encoding="UTF-8"?>
<svg width="721px" height="1280px" viewBox="0 0 721 1280" version="1.1" xmlns="http://www.w3.org/2000/svg" xmlns:xlink="http://www.w3.org/1999/xlink">
    <!-- Generator: Sketch 42 (36781) - http://www.bohemiancoding.com/sketch -->
    <title>Small</title>
    <desc>Created with Sketch.</desc>
    <defs>
        <rect id="path-1" x="58.125" y="27.65625" width="1.40625" height="7.96875" rx="0.703125"></rect>
        <mask id="mask-2" maskContentUnits="userSpaceOnUse" maskUnits="objectBoundingBox" x="0" y="0" width="1.40625" height="7.96875" fill="white">
            <use xlink:href="#path-1"></use>
        </mask>
        <rect id="path-3" x="13.3999799" y="74.6676434" width="4.6875" height="6.5625" rx="2.34375"></rect>
        <mask id="mask-4" maskContentUnits="userSpaceOnUse" maskUnits="objectBoundingBox" x="0" y="0" width="4.6875" height="6.5625" fill="white">
            <use xlink:href="#path-3"></use>
        </mask>
        <rect id="path-5" x="0.35836795" y="0.0664195735" width="28.125" height="4.6875"></rect>
        <mask id="mask-6" maskContentUnits="userSpaceOnUse" maskUnits="objectBoundingBox" x="0" y="0" width="28.125" height="4.6875" fill="white">
            <use xlink:href="#path-5"></use>
        </mask>
        <rect id="path-7" x="44.59375" y="21.625" width="1.40625" height="7.96875" rx="0.703125"></rect>
        <mask id="mask-8" maskContentUnits="userSpaceOnUse" maskUnits="objectBoundingBox" x="0" y="0" width="1.40625" height="7.96875" fill="white">
            <use xlink:href="#path-7"></use>
        </mask>
        <rect id="path-9" x="25.3125" y="55.78125" width="10.3125" height="7.09000015"></rect>
        <mask id="mask-10" maskContentUnits="userSpaceOnUse" maskUnits="objectBoundingBox" x="0" y="0" width="10.3125" height="7.09000015" fill="white">
            <use xlink:href="#path-9"></use>
        </mask>
    </defs>
    <g id="Home" stroke="none" stroke-width="1" fill="none" fill-rule="evenodd">
        <g id="Small">
            <rect id="Rectangle-5" fill="#FFFFFF" x="0" y="0" width="720" height="1280"></rect>
            <g id="characters" transform="translate(0.000000, 790.000000)">
                <g id="lines" transform="translate(0.000000, 103.625000)" stroke="#000000">
                    <path d="M116,4 L154.5,5.875" id="Path-101" stroke-width="1.5"></path>
                    <path d="M197.5,4.375 L224,4.375" id="Path-102" stroke-width="1.5"></path>
                    <path d="M247,4.375 L283,3.375" id="Path-103" stroke-width="1.5"></path>
                    <path d="M293,1.375 L354,1.3984375" id="Path-104" stroke-width="1.5"></path>
                    <path d="M389.921395,0.1875 L426.464862,2.5625" id="Path-105" stroke-width="1.5"></path>
                    <path d="M434.366476,2.5625 L489.181676,3.15625" id="Path-106" stroke-width="1.5"></path>
                    <path d="M523.382613,4.15625 L564.142634,3.5625" id="Path-107" stroke-width="1.5"></path>
                    <path d="M596.501041,3.65625 L620.863352,4.25" id="Path-108" stroke-width="1.5"></path>
                    <path d="M83,4.375 L0,4.37496948" id="Path-100" stroke-width="1.5"></path>
                    <path d="M655,3.375 L720,4.375" id="Path-109" stroke-width="2"></path>
                </g>
                <g id="1" transform="translate(42.250000, 1.000000)" stroke="#000000">
                    <polyline id="Line" stroke-width="1.5" stroke-linecap="square" fill="#000000" points="48.515625 75.234375 49.7456907 102.705843 49.921875 106.640625 41.25 106.875 49.7456907 102.705843"></polyline>
                    <polyline id="Line" stroke-width="1.5" stroke-linecap="square" fill="#000000" transform="translate(69.803743, 91.054688) scale(-1, 1) translate(-69.803743, -91.054688) " points="72.65625 75.234375 73.8863157 102.705843 74.0625 106.640625 65.5449852 106.875 73.8863157 102.705843"></polyline>
                    <path d="M39.1853012,74.8994914 L73.274529,74.9380983 C73.274529,74.9380983 75.0824852,74.9375493 75.4802664,73.9187104 C75.8780475,72.8998716 75.8994118,68.2149731 75.8994118,68.2149731 L77.6097313,26.2067577 C77.6097313,26.2067577 77.6352918,22.3567422 77.1608626,20.5616303 C76.6864334,18.7665185 74.8766196,15.8654018 74.8766196,15.8654018 C74.8766196,15.8654018 72.9575977,12.8824522 71.0140963,11.451687 C69.070595,10.0209218 64.9645045,8.56830886 64.9645045,8.56830886 C64.9645045,8.56830886 58.0486054,7.64869903 54.5935458,8.17478453 C51.1384861,8.70087003 45.8166341,11.483864 45.8166341,11.483864 C45.8166341,11.483864 41.8427349,14.5322194 40.4083292,17.2403236 C39.6792712,18.6167578 39.1154664,19.9699763 38.7557201,21.7808157 C38.3959738,23.591655 38.2518288,25.7659332 38.2518288,25.7659332 L39.1853012,74.8994914 Z" id="Path" stroke-width="1.5"></path>
                    <path d="M39.140625,53.75 L76.171875,53.75" id="Line" stroke-width="1.5" stroke-linecap="square"></path>
                    <circle id="Oval" stroke-width="1.5" fill="#000000" cx="51.5625" cy="24.84375" r="1.875"></circle>
                    <circle id="Oval" stroke-width="1.5" fill="#000000" cx="65.625" cy="24.84375" r="1.875"></circle>
                    <use id="Rectangle" mask="url(#mask-2)" stroke-width="3" fill="#000000" xlink:href="#path-1"></use>
                    <path d="M45.5097342,11.3583738 L53.9993056,0.696535279 L52.8483354,5.70584574 L62.2900233,0.00537399505 L59.1730403,4.99634358 L65.4256689,1.94017511 L62.5101138,8.22562414 C62.5101138,8.22562414 56.4875133,7.69767546 53.6225133,8.22562414 C51.8006405,8.56135025 49.1873492,9.8401205 47.4005623,10.651641 C45.6137754,11.4631615 45.5097342,11.3583738 45.5097342,11.3583738 Z" id="Path-2" stroke-width="1.5" fill="#000000"></path>
                    <path d="M48.9735164,36.4303459 C48.9735164,36.4303459 51.5774647,40.3749469 52.9332142,41.6800183 C53.4479969,42.1755584 54.0021243,42.7419947 54.6659439,43.1237989 C55.3297635,43.5056031 56.8929119,44.0537133 56.8929119,44.0537133 C56.8929119,44.0537133 58.6772235,44.4947535 59.4792967,44.4819887 C60.2813698,44.4692239 61.7857418,43.975845 61.7857418,43.975845 C61.7857418,43.975845 62.7283455,43.753657 63.8328405,43.1237989 C64.9373355,42.4939408 65.2617686,42.1229361 65.6878427,41.6800183 C66.8563769,40.4652894 68.9402907,36.5384605 68.9402907,36.5384605 C68.9402907,36.5384605 62.4823956,40.4753928 58.9569036,40.4563032 C55.4314115,40.4372136 48.9735164,36.4303459 48.9735164,36.4303459 Z" id="Path-3" stroke-width="1.5"></path>
                    <path d="M48.2997307,53.738659 L50.7387449,62.1973405 L59.5288492,53.8252151 C59.5288492,53.8252151 64.1608012,57.8703729 66.2100749,60.0887838 C68.2593487,62.3071946 67.8601099,62.8440976 67.8601099,62.8440976 C67.8601099,62.8440976 68.9085008,61.64469 69.166173,60.6135901 C69.4238453,59.5824902 70.0799989,53.9610019 70.0799989,53.9610019 L48.2997307,53.738659 Z" id="Path-4" stroke-width="1.5"></path>
                    <polygon id="Path-5" stroke-width="1.5" fill="#000000" points="56.3166224 54.5899534 58.1587539 58.4656692 57.1281256 67.4707156 59.5796888 70.7752903 63.3675615 64.9268045 60.9243643 58.9933715 62.8269885 55.0388221"></polygon>
                    <path d="M76.8583631,47.2543108 L97.265625,23.203125" id="Line" stroke-width="1.5" stroke-linecap="square"></path>
                    <path d="M94.6760737,21.7653707 C94.6760737,21.7653707 94.2121744,23.4608816 94.0235247,24.4939777 C93.8348751,25.5270737 93.679553,27.2225846 93.679553,27.2225846 C93.679553,27.2225846 95.8365689,27.0875696 96.7395827,26.795918 C97.6425964,26.5042664 99.7996124,25.2459534 99.7996124,25.2459534" id="Path-6" stroke-width="1.5"></path>
                    <path d="M38.5633809,45.9786812 L21.796875,69.609375" id="Line" stroke-width="1.5" stroke-linecap="square"></path>
                    <polyline id="Path-7" stroke-width="1.5" points="27.1059802 71.5463587 26.942843 62.4409202 18.9130805 65.7310152"></polyline>
                    <path d="M10.0931201,64.8152587 L5.68392131,70.1912096 C3.64293058,72.679704 1.60193986,75.1681983 1.60193986,75.1681983 C1.60193986,75.1681983 0.151798667,77.0663727 0.211573046,78.1529339 C0.271347426,79.2394951 1.90794283,80.7306308 1.90794283,80.7306308 C1.90794283,80.7306308 11.3091868,87.1615472 15.4756834,90.3740683 C19.6421799,93.5865894 21.5362154,95.8647462 21.5362154,95.8647462 L31.6841877,80.1984238 C31.6841877,80.1984238 29.7825756,78.3903861 26.7833136,76.4684696 C23.7840517,74.546553 19.5052172,72.3922597 17.2959345,70.8181939 C12.9323782,67.7092552 10.0931201,64.8152587 10.0931201,64.8152587 Z" id="Path-8" stroke-width="1.5"></path>
                    <path d="M5.78591107,70.1022564 C5.78591107,70.1022564 7.45127118,71.8130452 10.0619084,73.6944931 C12.6725457,75.575941 18.8286753,79.5122031 21.7781862,81.7403441 C26.8657168,85.5836035 27.4702919,86.4832293 27.4702919,86.4832293" id="Path-9" stroke-width="1.5"></path>
                    <use id="Rectangle-2" mask="url(#mask-4)" stroke-width="3" transform="translate(15.743730, 77.948893) rotate(51.000000) translate(-15.743730, -77.948893) " xlink:href="#path-3"></use>
                    <path d="M15.6742153,69.549456 C15.6742153,69.549456 16.980719,68.0107964 18.8465426,67.2989989 C20.7123662,66.5872013 22.3553804,66.894277 23.0227913,67.2989989 C23.7155239,67.719076 24.4244961,68.4706714 24.6554507,70.1431211 C24.8864054,71.8155709 24.6554507,74.9957297 24.6554507,74.9957297" id="Path-10" stroke-width="1.5"></path>
                </g>
                <g id="2" transform="translate(136.468750, 15.437500)">
                    <path d="M25.9148223,69.6886839 L25.3238711,44.0739627 C25.3238711,44.0739627 18.0433783,29.3078746 18.0433783,16.7376636 C18.0433783,4.16745262 32.6441026,2.25230932 32.6441026,2.25230932 C32.6441026,2.25230932 47.4294191,-0.653734768 51.8346333,9.17900064 C56.2398474,19.011736 54.2554821,38.9399942 54.2554821,38.9399942 L62.0045057,63.3523028 L25.9148223,69.6886839 Z" id="Path-86" stroke="#000000" stroke-width="1.5"></path>
                    <path d="M25.5084633,43.9368005 L54.2997073,39.0406226" id="Path-87" stroke="#000000" stroke-width="1.5"></path>
                    <path d="M39.232375,1.93632349 C39.232375,1.93632349 31.5564192,1.93632349 30.5853877,10.2791825 C29.6143562,18.6220416 23.8804633,18.6220416 23.8804633,18.6220416 C23.8804633,18.6220416 20.825079,18.8043904 20.825079,14.5417864 C20.825079,10.2791825 25.0476239,9.56933607 25.0476239,9.56933607 C25.0476239,9.56933607 26.6807515,9.56933607 26.6807515,11.3633408 C26.6807515,13.1573455 24.7168963,14.6654888 24.7168963,14.6654888" id="Path-88" stroke="#000000" stroke-width="1.5"></path>
                    <path d="M40.7482097,1.97221641 C40.7482097,1.97221641 29.0503247,-3.02266704 23.8522617,3.08169199 C20.8093439,6.65515057 17.1630763,10.8201622 14.7194381,13.1650368 C12.2757999,15.5099115 11.895435,15.2763093 11.895435,15.2763093 C11.895435,15.2763093 9.15347277,16.6665187 9.15347277,13.1650368 C9.15347277,9.66355496 13.8304476,8.65791245 13.8304476,8.65791245 C13.8304476,8.65791245 15.7423861,8.65791245 14.7194381,9.89557701 C13.6964901,11.1332416 12.6966161,11.4120526 12.6966161,11.4120526" id="Path-89" stroke="#000000" stroke-width="1.5"></path>
                    <circle id="Oval-12" fill="#000000" cx="45.234375" cy="18.140625" r="1.640625"></circle>
                    <path d="M52.734375,19.75 L57.421875,19.75" id="Line" stroke="#000000" stroke-width="1.5" stroke-linecap="square"></path>
                    <path d="M54.6015923,35.0674053 C54.6015923,35.0674053 58.4177781,41.233936 64.791975,44.8879627 C71.1661718,48.5419895 75.3124442,47.1863911 75.3124442,47.1863911" id="Path-90" stroke="#000000" stroke-width="1.5"></path>
                    <polyline id="Path-91" stroke="#000000" stroke-width="1.5" points="74.4830616 44.6232525 69.1241214 46.6672257 72.1154112 49.5880115"></polyline>
                    <path d="M54.6567136,23.2144116 C54.6567136,23.2144116 51.6936254,26.2172384 48.384427,26.8992037 C45.0752286,27.5811691 40.7078302,25.1571155 40.7078302,25.1571155 C40.7078302,25.1571155 41.3404428,30.3917124 46.1827813,32.1030352 C51.0251199,33.814358 54.6567136,30.7852525 54.6567136,30.7852525 C54.6567136,30.7852525 54.6567136,27.9206702 50.988586,28.8688273 C47.3204585,29.8169845 46.1827813,32.1030352 46.1827813,32.1030352" id="Path-92" stroke="#000000" stroke-width="1.5"></path>
                    <path d="M29.4784759,49.8668226 C29.4784759,49.8668226 30.1367263,53.071547 34.1810884,52.2306273 C38.2254506,51.3897076 37.4691357,48.3253501 37.4691357,48.3253501" id="Path-93" stroke="#000000" stroke-width="1.5"></path>
                    <path d="M43.0722259,47.0543226 C43.0722259,47.0543226 43.7304763,50.259047 47.7748384,49.4181273 C51.8192006,48.5772076 51.0628857,45.5128501 51.0628857,45.5128501" id="Path-93" stroke="#000000" stroke-width="1.5"></path>
                    <path d="M23.3036129,39.546969 C23.3036129,39.546969 20.7340649,43.5022399 14.1451515,41.4819816 C7.55623813,39.4617234 1.28395154,25.0135439 1.28395154,25.0135439" id="Path-94" stroke="#000000" stroke-width="1.5"></path>
                    <polyline id="Path-95" stroke="#000000" stroke-width="1.5" points="0.123200358 27.7247407 3.81632476 30.1513581 5.21037987 24.9725234"></polyline>
                    <polyline id="Path-96" stroke="#000000" stroke-width="1.5" fill="#000000" points="32.6235924 68.6093327 31.5743656 92.676813 30.0393026 92.8549957 30.1931294 90.2457091 18.65625 93.5625 31.5743656 85.2053185"></polyline>
                    <polyline id="Path-96" stroke="#000000" stroke-width="1.5" fill="#000000" transform="translate(55.405640, 78.664147) scale(-1, 1) translate(-55.405640, -78.664147) " points="61.875 65.8795485 60.9074924 91.270563 59.3724295 91.4487457 59.5262562 88.8394591 48.9362805 91.4487457 60.9074924 84.2678185"></polyline>
                </g>
                <g id="3" transform="translate(190.312500, 0.000000)" stroke="#000000">
                    <path d="M27.8269779,69.600684 L27.0304451,15.27367 C27.0304451,15.27367 27.780505,9.46147656 31.4452644,7.67503656 C35.1100239,5.88859655 49.4434304,4.34813621 49.4434304,4.34813621 C49.4434304,4.34813621 50.8444993,4.37666218 52.7761854,5.07208761 C54.7078715,5.76751304 57.8979594,7.44312907 59.3233338,8.83652623 C60.4996432,9.98644602 61.8674875,11.5769691 62.5173558,13.3407066 C63.1672241,15.1044442 63.2839846,17.8781875 63.2839846,17.8781875 L63.1015062,69.7055367 L27.8269779,69.600684 Z" id="Path-11" stroke-width="1.5"></path>
                    <path d="M51.8431379,5.74990755 C48.4553582,8.16978445 46.580421,8.41558906 45.2564639,9.52222832 C43.9325068,10.6288676 43.8774438,12.2854468 43.8774438,12.2854468 C43.8774438,12.2854468 43.2772249,10.6338328 43.2398776,10.0805033 C43.2025303,9.52717379 43.5945845,8.09466252 43.5945845,8.09466252 C43.5945845,8.09466252 42.3065176,8.42549875 40.9753847,9.04421547 C39.6442519,9.66293218 38.9096872,10.2481552 38.3209085,10.6478402 C36.9696715,11.5651104 34.6864574,14.1418325 34.6864574,14.1418325 C34.6864574,14.1418325 35.3537022,11.2546488 35.8424912,10.0805033 C36.3312802,8.90635783 37.5739528,7.20562982 37.5739528,7.20562982 C37.5739528,7.20562982 36.5049995,7.11120424 34.6864574,7.20562982 C32.8679152,7.3000554 30.8970536,7.53653351 29.9153908,7.74157381 C27.7807845,8.18742986 23.1112322,10.2264639 23.1112322,10.2264639 C23.1112322,10.2264639 29.4862611,6.02557938 33.7013043,4.39516023 C37.9163475,2.76474108 42.7055518,2.64719313 42.7055518,2.64719313 C42.7055518,2.64719313 45.863763,2.64392435 48.7727873,3.39220707 C50.6251612,3.86868963 50.497795,3.80366869 51.2130154,4.01294413 C51.9282358,4.22221957 52.9202824,4.98050779 51.8431379,5.74990755 Z" id="Path-12" stroke-width="1.5" fill="#000000"></path>
                    <ellipse id="Oval-2" stroke-width="1.5" cx="37.328125" cy="19.984375" rx="6.328125" ry="3.515625"></ellipse>
                    <ellipse id="Oval-2" stroke-width="1.5" cx="53.265625" cy="19.984375" rx="6.328125" ry="3.515625"></ellipse>
                    <path d="M43.890625,19.75 L46.703125,19.75" id="Line" stroke-width="1.5" stroke-linecap="square"></path>
                    <path d="M27.2046016,18.1645262 L30.765625,19.515625" id="Line" stroke-width="1.5" stroke-linecap="square"></path>
                    <path d="M63.109375,18.578125 L59.828125,19.515625" id="Line" stroke-width="1.5" stroke-linecap="square"></path>
                    <g id="Group-2" transform="translate(68.397809, 20.692361) scale(-1, 1) rotate(9.000000) translate(-68.397809, -20.692361) translate(60.397809, 5.192361)" stroke-width="1.5">
                        <path d="M2.44172943,1.80984267 L15.5346029,30.2603424" id="Line" stroke-linecap="square"></path>
                        <polyline id="Path-14" points="0.144996221 3.98950462 4.82021134 6.68237195 6.35554689 0.312982642"></polyline>
                    </g>
                    <g id="Group-2" transform="translate(20.087185, 24.129050) rotate(-1.000000) translate(-20.087185, -24.129050) translate(12.087185, 8.629050)" stroke-width="1.5">
                        <path d="M3.27694906,2.35812451 L15.0332758,30.1660943" id="Line" stroke-linecap="square"></path>
                        <polyline id="Path-14" points="0.25778658 3.2730432 4.44888929 5.11014169 8.3677811 0.312182473"></polyline>
                    </g>
                    <g id="Group" transform="translate(15.182271, 7.638616) rotate(-21.000000) translate(-15.182271, -7.638616) translate(0.682271, 5.138616)">
                        <path d="M1.640625,1.234375 L1.640625,2.171875" id="Line" stroke-linecap="square"></path>
                        <use id="Rectangle-3" mask="url(#mask-6)" stroke-width="2" xlink:href="#path-5"></use>
                        <path d="M2.578125,1.234375 L2.578125,2.171875 M3.515625,1.234375 L3.515625,2.171875 M4.453125,1.234375 L4.453125,2.171875" id="Line" stroke-linecap="square"></path>
                        <path d="M5.390625,1.234375 L5.390625,3.109375 M10.078125,1.234375 L10.078125,3.109375 M6.328125,1.234375 L6.328125,2.171875 M7.265625,1.234375 L7.265625,2.171875 M8.203125,1.234375 L8.203125,2.171875 M9.140625,1.234375 L9.140625,2.171875" id="Line" stroke-linecap="square"></path>
                        <path d="M14.765625,1.234375 L14.765625,3.109375 M11.015625,1.234375 L11.015625,2.171875 M11.953125,1.234375 L11.953125,2.171875 M12.890625,1.234375 L12.890625,2.171875 M13.828125,1.234375 L13.828125,2.171875" id="Line" stroke-linecap="square"></path>
                        <path d="M19.453125,1.234375 L19.453125,3.109375 M15.703125,1.234375 L15.703125,2.171875 M16.640625,1.234375 L16.640625,2.171875 M17.578125,1.234375 L17.578125,2.171875 M18.515625,1.234375 L18.515625,2.171875" id="Line" stroke-linecap="square"></path>
                        <path d="M24.140625,1.234375 L24.140625,3.109375 M20.390625,1.234375 L20.390625,2.171875 M21.328125,1.234375 L21.328125,2.171875 M22.265625,1.234375 L22.265625,2.171875 M23.203125,1.234375 L23.203125,2.171875" id="Line" stroke-linecap="square"></path>
                        <path d="M25.078125,1.234375 L25.078125,2.171875 M26.015625,1.234375 L26.015625,2.171875 M26.953125,1.234375 L26.953125,2.171875 M27.890625,1.234375 L27.890625,2.171875" id="Line" stroke-linecap="square"></path>
                    </g>
                    <circle id="Oval-3" stroke-width="1.5" fill="#000000" cx="39.203125" cy="20.453125" r="1.640625"></circle>
                    <circle id="Oval-3" stroke-width="1.5" fill="#000000" cx="52.328125" cy="19.984375" r="1.640625"></circle>
                    <use id="Rectangle" mask="url(#mask-8)" stroke-width="3" fill="#000000" xlink:href="#path-7"></use>
                    <path d="M35.9770105,29.4382316 C35.9770105,29.4382316 37.6142385,34.3618044 38.7972637,36.6090545 C39.980289,38.8563047 41.6175169,40.1528203 41.6175169,40.1528203 C41.6175169,40.1528203 44.1030769,41.8620698 45.2788832,41.8529561 C45.8161378,41.8487918 46.7622542,41.6455005 47.5156655,41.2476914 C48.2690768,40.8498822 49.078349,40.0949911 49.078349,40.0949911 C49.078349,40.0949911 49.8213332,39.5630069 50.5428523,38.7852025 C51.2643715,38.007398 51.5005924,37.5329412 51.8586828,36.9864549 C52.1507417,36.5407402 52.6958398,35.7511829 53.1561719,34.8787094 C53.616504,34.0062359 54.9413253,31.1474302 54.9413253,31.1474302 C54.9413253,31.1474302 53.0884736,32.9881029 50.5428523,34.3168166 C47.9972311,35.6455302 46.8541628,35.7713389 45.4591679,35.645612 C44.1910348,35.5313189 42.2674497,35.3042262 40.79604,34.3168166 C39.3246302,33.3294069 35.9770105,29.4382316 35.9770105,29.4382316 Z" id="Path-13" stroke-width="1.5"></path>
                    <path d="M27.484375,47.75 L63.109375,47.75" id="Line" stroke-width="1.5" stroke-linecap="square"></path>
                    <path d="M27.953125,57.015625 L62.8768848,56.6053315" id="Line" stroke-width="1.5" stroke-linecap="square"></path>
                    <path d="M27.953125,60.765625 L62.974717,60.5978972" id="Line" stroke-width="1.5" stroke-linecap="square"></path>
                    <path d="M27.953125,63.75 L63.109375,63.75" id="Line" stroke-width="1.5" stroke-linecap="square"></path>
                    <path d="M38.2816375,47.7204492 L41.7819156,52.8566446 C41.7819156,52.8566446 42.4031337,51.013109 43.0754198,50.2885469 C43.747706,49.5639848 45.5434159,48.8026559 45.5434159,48.8026559 L47.0312462,50.2978846 L48.6074829,52.1148337 C48.6074829,52.1148337 49.2916518,50.3132521 49.8470281,49.4980721 C50.4024044,48.682892 51.6690285,47.6211041 51.6690285,47.6211041" id="Path-15" stroke-width="1.5" fill="#000000"></path>
                    <path d="M37.8300288,69.7355558 L39.5285816,103.811299 C39.6328408,105.90291 39.7371,107.99452 39.7371,107.99452 L32.875,108.34375 L39.5285816,103.811299" id="Path-16" stroke-width="1.5" fill="#000000"></path>
                    <path d="M55.8116788,69.7355558 L57.5102315,103.811299 C57.6144908,105.90291 57.71875,107.99452 57.71875,107.99452 L50.3681468,108.34375 L57.5102315,103.811299" id="Path-16-Copy" stroke-width="1.5" fill="#000000" transform="translate(54.043448, 89.039653) scale(-1, 1) translate(-54.043448, -89.039653) "></path>
                </g>
                <g id="4" transform="translate(469.750000, 7.000000)" stroke="#000000" stroke-width="1.5">
                    <path d="M19.0784286,71.6771886 L19.2513859,20.6363586 C19.2571247,18.9427843 19.0726897,17.4766921 19.0784286,15.7831178 C19.0841674,14.0895435 19.2767037,13.1649116 19.2767037,13.1649116 C19.2767037,13.1649116 19.4260857,12.3655033 19.9849768,11.2577203 C20.323081,10.5875611 20.8110536,9.80454562 21.5064857,9.01738694 C23.3514773,6.9290436 25.3778822,6.01845706 26.7261044,5.32004422 C29.9776633,3.6356552 37.6550702,3.64445725 37.6550702,3.64445725 C37.6550702,3.64445725 40.72903,3.52476989 44.0394196,4.20352797 C47.3498091,4.88228605 48.6700827,5.69709403 50.0916852,6.5649517 C52.0653621,7.76983884 54.351645,9.39545472 55.8154213,11.5772535 C56.9685096,13.2959633 57.538919,15.7831178 57.538919,15.7831178 C57.538919,15.7831178 58.0093479,18.6356563 58.150538,20.8927642 C58.2917281,23.1498722 58.1568996,25.7824937 58.150538,27.5718175 C58.1387651,30.8831534 57.3390187,72.0087306 57.3390187,72.0087306 L19.0784286,71.6771886 Z" id="Path-17"></path>
                    <path d="M57.5514208,50.3773273 L19.2854396,50.6262666" id="Path-18"></path>
                    <path d="M50.6556062,9.163993 C50.6556062,9.163993 47.1826483,5.90315151 44.4272557,4.92940908 C41.6718631,3.95566666 34.7329834,3.53701511 34.7329834,3.53701511 C34.7329834,3.53701511 36.2487024,2.37686724 38.5435481,1.67682662 C40.8383939,0.976786006 43.5914381,0.818101192 45.6322534,0.712186775 C49.8378934,0.493922087 56.5315234,2.4057125 56.5315234,2.4057125" id="Path-19"></path>
                    <ellipse id="Oval-4" fill="#000000" cx="47.8125" cy="21.1875" rx="1.875" ry="1.875"></ellipse>
                    <path d="M55.078125,25.640625 L65.3523984,24.5282493" id="Line" stroke-linecap="square"></path>
                    <path d="M54.5979035,7.11434208 C54.5979035,7.11434208 52.1047522,5.29174757 49.9856698,4.22253219 C47.8665874,3.15331681 46.8648915,3.16373161 45.4720624,2.91823785 C42.434629,2.38287355 35.1268406,3.68246045 35.1268406,3.68246045" id="Path-20"></path>
                    <path d="M58.1489806,33.0185568 C58.1489806,33.0185568 51.9333952,33.9410686 48.8506753,33.0185568 C45.7679554,32.096045 41.0022304,27.8873479 41.0022304,27.8873479 C41.0022304,27.8873479 44.3800541,35.6253903 48.0242178,37.7399652 C51.6683815,39.85454 57.9817905,37.7399652 57.9817905,37.7399652" id="Path-21"></path>
                    <path d="M49.0474006,50.4158285 C50.6760544,59.6608651 57.6315877,60.1677098 57.6315877,60.1677098" id="Path-23"></path>
                    <polygon id="Path-22" fill="#FFFFFF" points="23.5869323 59.5618935 15.3066299 42.0130718 14.6123423 35.5514654 18.8814406 39.6317985 27.1934822 57.4378159"></polygon>
                    <path d="M31.1005637,50.4105544 C28.5083248,61.5031215 19.0860772,60.1239344 19.0860772,60.1239344" id="Path-24"></path>
                    <path d="M15.4428367,42.0413435 L18.984375,40.171875" id="Line" stroke-linecap="square"></path>
                    <path d="M21.2054916,59.8091229 C21.2054916,59.8091229 21.3583521,59.8366057 21.487529,59.8091229 C21.6167059,59.7816401 22.3082343,59.5717964 22.5303193,59.5021135 C22.843549,59.4038323 23.3764644,59.1279432 23.3764644,59.1279432 L17.2498223,46.3365008 L7.93638993,36.419907 L7.30228307,35.7952827 C7.30228307,35.7952827 6.00188642,35.2096848 4.61501223,35.3297738 C3.22813804,35.4498627 2.2210124,36.1494059 1.65950759,36.5117504 C0.430209212,37.3050285 0.358387517,40.2256966 0.358387517,40.2256966 L19.4154191,60.1653754 L20.214852,60.0741939 C20.214852,60.0741939 20.7941509,59.9948059 21.0614762,59.9232762 C21.3288014,59.8517465 21.2054916,59.8091229 21.2054916,59.8091229 L4.8635777,41.625378 C4.8635777,41.625378 6.47260519,40.6217021 6.89211182,39.6775961 C7.31161845,38.7334901 7.30228307,36.1407047 7.30228307,36.1407047 C7.30228307,36.1407047 7.016521,36.2984374 6.58231469,36.9815204 C6.06122661,37.8012837 5.3263456,38.8073823 4.61501223,39.2664126 C3.31094714,40.1079384 0.358387517,40.2256966 0.358387517,40.2256966" id="Path-25" fill="#FFFFFF"></path>
                    <path d="M13.2692546,53.8717093 C4.33239193,64.618931 6.60180147,72.6553747 6.60180147,72.6553747" id="Path-26"></path>
                    <polyline id="Path-27" transform="translate(6.557937, 70.135698) rotate(5.000000) translate(-6.557937, -70.135698) " points="3.63531529 72.0827517 6.15907279 68.1886435 9.480558 71.366633"></polyline>
                    <path d="M58.0585259,47.2112199 C67.0306876,41.5332618 70.6212479,36.6419021 70.6212479,36.6419021 L72.0599048,28.5164211 L70.9658915,26.9778728" id="Path-29"></path>
                    <path d="M77.109375,27.984375 L74.765625,31.265625" id="Line" stroke-linecap="square"></path>
                    <polyline id="Path-30" points="73.8568436 35.2957645 76.2623457 36.8748591 77.4367144 30.4165687"></polyline>
                    <path d="M76.2752762,18.84375 C80.1243243,18.84375 82.1389597,13.5541631 80.7357883,8.36719715 C79.3326168,3.18023119 78.2196154,0.0600846532 78.289132,0.0600846532 C78.3413946,0.0600846532 78.4508633,2.43105226 76.8289405,5.81484528 C75.2070176,9.1986383 74.6225666,8.16451391 73.9982467,9.45191733 C71.4828535,14.6388833 72.4262281,18.84375 76.2752762,18.84375 Z" id="Oval-5"></path>
                    <path d="M69.0413357,45.3699062 C69.0413357,45.3699062 68.5723052,48.718083 69.0413357,48.718083 C69.2387573,48.718083 70.226875,48.5697429 70.7044054,47.8827239 C71.1819357,47.1957048 71.514962,45.3699062 71.514962,45.3699062 L77.5509559,18.7074627 C77.5509559,18.7074627 76.1992347,19.0960831 75.5526504,18.967626 C74.906066,18.8391689 73.9885883,17.9997262 73.9885883,17.9997262 L69.0413357,45.3699062 Z" id="Path-28" fill="#FFFFFF"></path>
                    <polyline id="Path-31" fill="#000000" points="30.7408126 71.8688778 27.2821148 94.1320954 26.8829942 99.3946516 19.5 100.125 26.8829942 94.1320954"></polyline>
                    <polyline id="Path-32" fill="#000000" points="49.42445 71.998097 45.0164079 99.8813077 53.90625 100.40625 46.1418655 94.3498923"></polyline>
                </g>
                <g id="5" transform="translate(272.406250, 13.187500)" stroke="#000000" stroke-width="1.5">
                    <path d="M42.421875,21.75 L47.5019749,21.75" id="Line" stroke-linecap="square"></path>
                    <path d="M10.5488506,70.5034156 L10.2263609,13.4831609 C10.2263609,13.4831609 10.0972251,10.996262 11.2413946,8.42844533 C12.3855641,5.86062865 14.2122798,4.2570768 15.4713359,3.27955138 C16.7235588,2.30733121 19.1535411,1.24187388 21.5230105,0.743394103 C23.8924798,0.244914325 27.3544599,0.18498288 27.3544599,0.18498288 C27.3544599,0.18498288 31.6457699,0.259758909 35.555114,2.02954738 C39.464458,3.79933585 40.9769535,6.1105969 42.2917223,7.74065774 C45.3767906,11.5655502 44.9953078,22.0562477 44.9953078,22.0562477 L42.2822093,43.2934732 L41.4940599,50.6117995 L49.4678297,64.2895449 L10.5488506,70.5034156 Z" id="Path"></path>
                    <path d="M10.5773895,42.75 L42.361167,42.75" id="Path-2"></path>
                    <polyline id="Path-3" points="10.1949681 19.9624434 27.1989229 21.9539833 27.7292708 9.80877699 43.4171064 10.6440156"></polyline>
                    <circle id="Oval" fill="#000000" cx="35.390625" cy="18.515625" r="1.640625"></circle>
                    <path d="M10.2710005,25.7072371 C10.2710005,25.7072371 13.2578434,28.3083222 14.6034946,29.26002 C15.9491459,30.2117178 17.7445369,31.0517544 17.7445369,31.0517544 C17.7445369,31.0517544 18.6660525,31.4387499 19.255348,31.6039413 C19.8446436,31.7691326 20.1561489,31.8630731 21.2172748,32.0388524 C23.7404622,32.4568272 24.835569,32.4568272 24.835569,32.4568272 C24.835569,32.4568272 25.5352941,32.5164903 26.2748339,32.4568272 C27.0143736,32.3971641 27.6356045,32.2450808 27.6901324,32.0388524 C27.749587,31.8139903 28.2352891,31.0517544 27.2127208,30.2723656 C26.7434793,29.9147156 26.0822815,29.4076491 24.835569,29.2468334 C24.2687175,29.1737142 21.8781608,28.8253618 20.3918705,29.2468334 C19.7655823,29.4244317 19.3724194,29.5442135 18.9241654,29.8879438 C18.7379105,30.0307678 18.5027749,30.2558337 18.2915365,30.4701379 C17.9943937,30.7715933 17.7445369,31.0517544 17.7445369,31.0517544" id="Path-4"></path>
                    <path d="M10.4054308,30.5881356 C10.4054308,30.5881356 9.01317418,31.0737271 7.43141466,31.9394657 C5.84965514,32.8052043 5.40160516,33.2903992 4.85987943,33.7468458 C4.29322823,34.2242941 3.22144219,35.2366981 2.55329026,36.112366 C1.88513833,36.9880339 1.06053355,38.5533763 1.06053355,38.5533763 C1.06053355,38.5533763 0.530403969,39.5573959 0.467732002,40.6727188 C0.405060036,41.7880417 0.730085907,42.3475594 1.06053355,42.6410459 C1.45091426,42.9877618 2.53477739,43.1770788 3.54786752,43.0978293 C4.56095764,43.0185798 5.66299716,42.6410459 5.66299716,42.6410459 C5.66299716,42.6410459 8.92608112,41.6201584 11.2784898,40.0583089 C12.5403108,39.2205401 14.2974826,38.0938228 15.8692646,36.7446424 C17.4410466,35.395462 18.5060623,34.1140688 18.5060623,34.1140688" id="Path-5"></path>
                    <path d="M15.2876441,31.5848012 C15.2876441,36.040606 15.8373513,36.860263 15.8373513,36.860263 C15.8373513,36.860263 18.1292093,36.7720074 19.1895383,36.5050783 C20.2498672,36.2381492 21.401211,35.459607 21.401211,35.459607" id="Path-6"></path>
                    <path d="M44.0490862,28.1780814 C44.0490862,28.1780814 42.6784473,27.4264641 41.9851848,27.5682121 C41.7228989,27.6218403 41.3666956,27.7174388 41.0656353,27.9535892 C40.7645749,28.1897396 40.1698312,28.9204339 40.1698312,28.9204339 C40.1698312,28.9204339 39.6408772,28.3907958 38.9739156,28.1780814 C38.3069539,27.965367 37.8161995,28.1446354 37.4761768,28.1780814 C36.701765,28.2542557 34.00606,29.8079893 34.00606,29.8079893" id="Path-7"></path>
                    <path d="M34.2094524,29.9509055 C34.2094524,29.9509055 32.5700891,27.4972375 31.9501429,27.0537525 C31.3301966,26.6102675 31.8352275,27.1296376 32.4443881,27.9680807 C33.0535488,28.8065237 33.8893969,29.6481704 34.4454081,30.2033514 C34.8706396,30.6279481 35.5182132,31.1173827 36.1490482,31.5559207 C37.1305446,32.2382283 38.1395463,32.6391163 38.1395463,32.6391163 C38.1395463,32.6391163 38.7275878,32.8606627 39.3621172,32.9586112 C39.9966466,33.0565597 40.1951807,32.9907533 40.4745527,32.9586112 C40.8123152,32.9197511 41.3217684,32.8326259 41.7758891,32.6391163 C42.2300097,32.4456067 42.7311344,32.094236 42.7311344,32.094236 C42.7311344,32.094236 43.0748162,31.8776471 43.3252858,31.5559207 C43.5757555,31.2341943 43.6741735,30.8999737 43.7356509,30.5898482 C43.8666339,29.9290983 43.7356509,28.1839188 43.7356509,28.1839188" id="Path-8"></path>
                    <path d="M42.518638,38.2568553 L60.667123,51.1618926" id="Path-9"></path>
                    <polyline id="Path-10" points="60.7651185 47.1592607 56.7624866 48.333136 57.467778 52.849209"></polyline>
                    <path d="M18.0046187,48.0492229 C18.0046187,48.0492229 18.3871883,49.2174615 19.3304092,50.0574295 C19.6888031,50.3765906 20.0783034,50.6627869 20.473883,50.8440785 C20.8694626,51.02537 21.7589783,51.224596 22.1417895,51.2239653 C22.48266,51.2234037 23.0658054,51.0984036 23.6032278,50.8440785 C24.1406503,50.5897533 24.3881685,50.3712719 24.676971,50.0574295 C25.342593,49.3340962 25.609437,48.0366931 25.609437,48.0366931" id="Path-11"></path>
                    <path d="M29.7233687,48.0492229 C29.7233687,48.0492229 30.1059383,49.2174615 31.0491592,50.0574295 C31.4075531,50.3765906 31.7970534,50.6627869 32.192633,50.8440785 C32.5882126,51.02537 33.4777283,51.224596 33.8605395,51.2239653 C34.20141,51.2234037 34.7845554,51.0984036 35.3219778,50.8440785 C35.8594003,50.5897533 36.1069185,50.3712719 36.395721,50.0574295 C37.061343,49.3340962 37.328187,48.0366931 37.328187,48.0366931" id="Path-11"></path>
                    <polyline id="Path-12" fill="#000000" points="20.9123163 69.0713359 20.7822126 92.2562706 19.8468822 92.4631691 19.8468822 89.9300604 11.25 92.8125 20.7822126 84.9767983"></polyline>
                    <polyline id="Path-12-Copy" fill="#000000" transform="translate(51.540951, 69.935511) scale(-1, 1) rotate(52.000000) translate(-51.540951, -69.935511) " points="56.07557 57.8151724 55.9454662 81.0001071 55.0101359 81.2070056 55.0101359 78.6738969 47.0063325 82.0558486 55.9454662 73.7206348"></polyline>
                </g>
                <g id="6" transform="translate(346.843750, 25.375000)">
                    <path d="M6.0703125,38.9296868 C6.0703125,38.9296868 8.5533086,39.8211711 12.515625,38.9296868 C16.4779414,38.0382025 19.6262868,35.9307347 20.5078125,35.5781244 C22.6716519,34.7125886 26.4375,34.0312494 26.4375,34.0312494 C26.4375,34.0312494 30.4352398,33.2787996 32.3671875,30.4218745 C34.2991352,27.5649494 33.65625,23.4837685 33.65625,22.1718746 C33.65625,22.1718746 32.9091953,10.3075594 32.8828125,9.53906234 C32.7022125,4.27841246 28.4392941,1.52962185 27.2109375,1.03124998 C25.2615666,0.240346397 20.7290465,0.214302481 20.25,0.257812496 C19.7690547,0.301494972 18.5079304,0.348741922 17.15625,0.515624991 C15.8045696,0.68250806 14.897597,0.897385477 14.0625,1.03124998 C11.383806,1.46063966 2.88815611,3.54504477 1.171875,7.73437487 C-0.204827418,11.0948156 -0.36751328,21.4545482 1.171875,28.8749995 C2.71126328,36.2954508 5.296875,38.4140618 5.296875,38.4140618 L6.0703125,38.9296868 Z" id="Path-33" stroke="#F13F38" stroke-width="2"></path>
                    <path d="M50.671875,52.0781241 C50.671875,52.0781241 52.1214599,55.2351014 44.2265625,57.4921865 C41.0003488,58.414534 35.9765625,59.5546865 31.8515625,60.5859365 C27.7265625,61.6171864 21.9410876,60.1644522 21.0234375,60.0703115 C17.4504021,59.7037575 9.37159713,57.3610548 7.1015625,55.687499 C4.83152787,54.0139433 5.0512897,51.4583499 5.296875,50.5312491 C5.78078462,48.7044582 7.8063692,47.8137729 8.6484375,47.4374992 C10.4256167,46.6433762 12.8010404,46.3464058 14.3203125,45.8906242 C16.8984375,45.1171867 17.997336,44.8257541 21.28125,44.0859367 C27.5334927,42.6773987 35.2658684,43.3073389 38.5546875,43.3124993 C41.7666971,43.3175391 46.1958145,45.3590679 48.3515625,47.4374992 C50.5073105,49.5159304 50.671875,52.0781241 50.671875,52.0781241 Z" id="Path-34" stroke="#F13F38" stroke-width="2"></path>
                    <path d="M5.8125,50.7890616 C10.1953125,51.3046866 10.7687596,52.1594267 13.546875,53.180283 C16.3249904,54.2011393 20.7153317,55.197814 26.6953125,55.9453115 C27.9928258,56.1075007 29.2744963,56.1210215 30.5395543,56.0341638 C34.5934202,55.7558292 38.4766972,54.4467326 42.1640625,53.695908 C44.3318198,53.2545074 46.4194282,53.297638 47.8359375,52.8515616 C49.2524468,52.4054852 50.15625,50.7890616 50.15625,50.7890616" id="Path-35" stroke="#F13F38" stroke-width="2"></path>
                    <polygon id="Path-36" stroke="#F13F38" fill="#F13F38" points="22.3125 35.3203119 22.5703125 43.5703118 15.3515625 45.6328117 14.8359375 38.1562493"></polygon>
                    <path d="M25.8333333,61.1015615 L25.8333333,65.9999989" id="Line" stroke="#F13F38" stroke-width="2" stroke-linecap="square"></path>
                    <path d="M22,60.5859365 L22,67.2890613" id="Line" stroke="#F13F38" stroke-width="2" stroke-linecap="square"></path>
                    <path d="M13.546875,39.1874993 C12.2578125,47.1796867 14.578125,46.1484367 14.578125,46.1484367" id="Path-37" stroke="#F13F38" stroke-width="2"></path>
                    <path d="M23.34375,68.8359363 L22.0546875,68.3203113 C22.0546875,68.3203113 17.4140625,68.3203113 13.03125,70.6406238 C8.6484375,72.9609363 8.1328125,76.3124987 8.1328125,76.3124987 C8.1328125,76.3124987 7.3489008,78.6457186 7.6171875,80.4374986 C7.8854742,82.2292786 8.99546628,82.7875498 9.6796875,83.0156236 C11.2265625,83.5312486 12.4434115,82.7432848 13.03125,82.4999986 C14.3079321,81.9716236 15.3515625,78.6328112 15.3515625,78.6328112 C15.3515625,78.6328112 15.3515625,75.5390612 17.9296875,73.2187487 C20.5078125,70.8984363 24.1171875,69.3515613 24.1171875,69.3515613 C24.1171875,69.3515613 25.581026,67.4511964 27.7265625,65.7421864 C29.872099,64.0331763 31.7002328,63.2196264 33.140625,62.6484364 C34.7729445,62.0011373 38.5726977,62.2803783 39.5859375,64.4531239 C40.5991773,66.6258695 38.8125,70.6406238 38.8125,70.6406238 C38.8125,70.6406238 41.6484375,71.1562488 42.6796875,74.5078112 C43.7109375,77.8593737 42.421875,81.7265611 37.78125,80.6953111 C36.4845111,80.4071469 38.3839356,79.1245499 36.4921875,76.8281237 C35.9781748,76.2041547 32.3671875,74.2499987 26.953125,72.1874988 C21.5390625,70.1249988 23.34375,68.8359363 23.34375,68.8359363 Z" id="Path-38" stroke="#F13F38" stroke-width="2"></path>
                    <path d="M13.9335937,62.9062489 C12.6561921,62.6311163 11.2237441,62.4658879 9.421875,62.3906239 C7.31315355,62.3025428 5.5546875,63.4218739 5.5546875,63.4218739 C5.5546875,63.4218739 2.9765625,64.4531239 3.4921875,68.5781238 C4.0078125,72.7031238 6.328125,71.9296863 6.328125,71.9296863 C6.328125,71.9296863 7.875,72.1874988 9.421875,69.6093738 C9.97498545,68.6875231 12.5747537,67.9310406 14.8359375,67.8046863 C17.0971213,67.6783321 22.5703125,67.8046863 22.5703125,67.8046863 C22.5703125,67.8046863 16.9500878,63.5559553 13.9335937,62.9062489 Z" id="Path-39" stroke="#F13F38" stroke-width="2"></path>
                    <path d="M38.8125,70.6406238 C38.8125,70.6406238 37.78125,70.1249988 31.4648438,68.8359363 C25.1484375,67.5468738 24.1171875,69.5197498 24.1171875,69.5197498" id="Path-40" stroke="#F13F38" stroke-width="2"></path>
                    <path d="M16.125,39.9609368 C16.125,39.9609368 16.8984375,38.6718743 18.703125,38.6718743 C20.5078125,38.6718743 21.28125,37.3828119 21.28125,37.3828119" id="Path-41" stroke="#FFFFFF"></path>
                    <path d="M16.125,41.5078118 C16.125,41.5078118 16.8984375,40.2187493 18.703125,40.2187493 C20.5078125,40.2187493 21.28125,38.9296868 21.28125,38.9296868" id="Path-41" stroke="#FFFFFF"></path>
                    <path d="M16.125,43.0546868 C16.125,43.0546868 16.8984375,41.7656243 18.703125,41.7656243 C20.5078125,41.7656243 21.28125,40.4765618 21.28125,40.4765618" id="Path-41" stroke="#FFFFFF"></path>
                </g>
                <g id="7" transform="translate(399.906250, 13.187500)">
                    <g id="Group-6" stroke="#000000" stroke-width="1.5">
                        <path d="M22.03125,69.140625 L56.71875,69.140625 L55.078125,13.59375 C55.078125,13.59375 55.1098162,12.0505497 54.375,10.546875 C53.6401838,9.0432003 51.7878207,7.04410714 49.453125,5.625 C45.0750753,2.96387313 39.0301901,3.63696663 36.328125,3.984375 C33.8270736,4.30593875 28.0769684,5.60875505 25.546875,8.4375 C23.0167816,11.266245 22.734375,16.640625 22.734375,16.640625 L22.03125,69.140625 Z" id="Path-42"></path>
                        <path d="M25.546875,21.09375 C28.5586769,19.587849 38.4032208,9.69507309 39.84375,6.09375 C40.3125,4.921875 40.546875,4.21875 40.78125,3.984375 C41.015625,3.75 41.71875,3.046875 40.078125,2.109375 C39.1132556,1.55802106 34.7350593,-0.242387742 31.875,0.234375 C30.2340773,0.507911572 29.53125,0.46875 27.890625,0.9375 C24.6631815,1.8596267 20.625,6.19487285 20.625,10.078125 C20.625,11.8890979 20.15625,17.8125 21.5625,20.15625 C22.96875,22.5 24.140625,21.796875 25.546875,21.09375 Z" id="Oval-6"></path>
                        <path d="M41.25,3.75 C41.25,3.75 41.71875,8.203125 45.9375,11.71875 C50.15625,15.234375 55.078125,15 55.078125,15" id="Path-43"></path>
                        <path d="M22.265625,43.125 L55.78125,42.1875" id="Path-44"></path>
                        <path d="M22.6046651,37.3251755 C22.6046651,37.3251755 17.34375,43.359375 11.015625,47.34375 C4.6875,51.328125 0,52.265625 0,52.265625" id="Path-45"></path>
                        <polyline id="Path-46" points="3.28125 54.375 5.15625 50.390625 0.234375 49.453125"></polyline>
                    </g>
                    <path d="M22.5,21.328125 C22.5,21.328125 19.921875,26.015625 16.8183769,26.953125 C13.7148788,27.890625 11.71875,27.1875 11.25,23.90625 C10.78125,20.625 11.8536416,19.9881096 12.890625,19.21875 C13.9276084,18.4493904 16.40625,18.75 17.0891003,20.625 C17.7719507,22.5 15.3695879,23.7715399 16.40625,23.90625 M16.640625,16.171875 C16.640625,16.171875 18.515625,15.234375 18.515625,13.125 C18.515625,11.015625 15.703125,11.25 15.703125,11.25 C15.703125,11.25 13.359375,11.25 13.359375,14.0625 C13.359375,16.875 14.0625,18.984375 14.0625,18.984375" id="Path-47" stroke="#000000" stroke-width="1.5"></path>
                    <g id="Group-5" transform="translate(28.593750, 17.343750)" stroke="#000000" stroke-width="1.5">
                        <path d="M1.40625,10.078125 C1.40625,10.078125 3.984375,15.46875 11.015625,15.46875 C18.046875,15.46875 19.21875,10.078125 19.21875,10.078125 C19.21875,10.078125 16.300926,12.3668675 11.015625,12.3046875 C5.73032398,12.2425075 1.40625,10.078125 1.40625,10.078125 Z" id="Path-48"></path>
                        <path d="M9.75,3.515625 L9.75,7.734375" id="Line" stroke-linecap="square"></path>
                        <circle id="Oval-7" fill="#000000" cx="16.40625" cy="1.40625" r="1.40625"></circle>
                        <circle id="Oval-7" fill="#000000" cx="4.21875" cy="1.40625" r="1.40625"></circle>
                        <path d="M0.234375,30 C0.234375,30 0.9375,33.046875 4.1015625,33.046875 C7.265625,33.046875 7.96875,30 7.96875,30" id="Path-49"></path>
                        <path d="M12.421875,30 C12.421875,30 13.125,33.046875 16.2890625,33.046875 C19.453125,33.046875 20.15625,30 20.15625,30" id="Path-49"></path>
                        <path d="M18.8087368,38.6001207 C18.8087368,38.6001207 18.6601551,41.483628 21.2997158,43.7591848 C23.9392766,46.0347416 28.0080318,45.2522395 28.0080318,45.2522395" id="Path-50"></path>
                    </g>
                    <g id="Group-3" transform="translate(15.937500, 47.343750)" stroke="#000000">
                        <path d="M0.365426651,4.85790474 L8.53784731,0.188436633 L14.7723195,10.8407672 C14.7723195,10.8407672 13.9732138,13.6799979 11.4294435,14.573617 C8.8856733,15.467236 6.41725827,14.573617 6.41725827,14.573617 L0.365426651,4.85790474 Z" id="Path-51" fill="#FFFFFF"></path>
                        <path d="M2.93601823,8.85726501 L11.0381925,4.37128895" id="Path-52"></path>
                    </g>
                    <g id="Group-4" transform="translate(20.625000, 32.343750)">
                        <path d="M0.9375,25.78125 C1.45526695,25.78125 1.875,25.361517 1.875,24.84375 C1.875,24.325983 1.45526695,23.90625 0.9375,23.90625 C0.419733047,23.90625 0,24.325983 0,24.84375 C0,25.361517 0.419733047,25.78125 0.9375,25.78125 Z" id="Oval-8" fill="#000000"></path>
                        <path d="M3.28125,24.375 C3.79901695,24.375 4.21875,23.955267 4.21875,23.4375 C4.21875,22.919733 3.79901695,22.5 3.28125,22.5 C2.76348305,22.5 2.34375,22.919733 2.34375,23.4375 C2.34375,23.955267 2.76348305,24.375 3.28125,24.375 Z" id="Oval-8" fill="#000000"></path>
                        <path d="M5.625,22.96875 C6.14276695,22.96875 6.5625,22.549017 6.5625,22.03125 C6.5625,21.513483 6.14276695,21.09375 5.625,21.09375 C5.10723305,21.09375 4.6875,21.513483 4.6875,22.03125 C4.6875,22.549017 5.10723305,22.96875 5.625,22.96875 Z" id="Oval-8" fill="#000000"></path>
                        <path d="M2.34375,28.125 C2.86151695,28.125 3.28125,27.705267 3.28125,27.1875 C3.28125,26.669733 2.86151695,26.25 2.34375,26.25 C1.82598305,26.25 1.40625,26.669733 1.40625,27.1875 C1.40625,27.705267 1.82598305,28.125 2.34375,28.125 Z" id="Oval-8" fill="#000000"></path>
                        <path d="M4.6875,26.71875 C5.20526695,26.71875 5.625,26.299017 5.625,25.78125 C5.625,25.263483 5.20526695,24.84375 4.6875,24.84375 C4.16973305,24.84375 3.75,25.263483 3.75,25.78125 C3.75,26.299017 4.16973305,26.71875 4.6875,26.71875 Z" id="Oval-8" fill="#000000"></path>
                        <path d="M7.03125,25.3125 C7.54901695,25.3125 7.96875,24.892767 7.96875,24.375 C7.96875,23.857233 7.54901695,23.4375 7.03125,23.4375 C6.51348305,23.4375 6.09375,23.857233 6.09375,24.375 C6.09375,24.892767 6.51348305,25.3125 7.03125,25.3125 Z" id="Oval-8" fill="#000000"></path>
                        <path d="M4.21875,30.46875 C4.73651695,30.46875 5.15625,30.049017 5.15625,29.53125 C5.15625,29.013483 4.73651695,28.59375 4.21875,28.59375 C3.70098305,28.59375 3.28125,29.013483 3.28125,29.53125 C3.28125,30.049017 3.70098305,30.46875 4.21875,30.46875 Z" id="Oval-8" fill="#000000"></path>
                        <path d="M6.5625,29.0625 C7.08026695,29.0625 7.5,28.642767 7.5,28.125 C7.5,27.607233 7.08026695,27.1875 6.5625,27.1875 C6.04473305,27.1875 5.625,27.607233 5.625,28.125 C5.625,28.642767 6.04473305,29.0625 6.5625,29.0625 Z" id="Oval-8" fill="#000000"></path>
                        <path d="M8.90625,27.65625 C9.42401695,27.65625 9.84375,27.236517 9.84375,26.71875 C9.84375,26.200983 9.42401695,25.78125 8.90625,25.78125 C8.38848305,25.78125 7.96875,26.200983 7.96875,26.71875 C7.96875,27.236517 8.38848305,27.65625 8.90625,27.65625 Z" id="Oval-8" fill="#000000"></path>
                        <path d="M1.46498681,23.6001207 C1.46498681,23.6001207 1.31640509,26.483628 3.95596584,28.7591848 C6.59552658,31.0347416 10.6642818,30.2522395 10.6642818,30.2522395" id="Path-50" stroke="#000000" stroke-width="1.5" transform="translate(6.063874, 26.991148) scale(-1, 1) translate(-6.063874, -26.991148) "></path>
                        <path d="M35.1355282,0.208077922 C35.1355282,0.208077922 44.5796211,7.9764755 44.5796211,11.0417718 C44.5796211,14.1070682 36.4812784,19.9051614 36.4812784,19.9051614 L37.4459953,27.7548745" id="Path-53" stroke="#000000" stroke-width="1.5"></path>
                        <polyline id="Path-54" stroke="#000000" stroke-width="1.5" points="41.4547218 22.3731658 37.5328454 23.5247806 39.5844653 25.5687372"></polyline>
                        <path d="M27.171718,37.1099886 L34.6757337,55.2458996 L35.6549256,55.1658614 L35.016748,53.3151887 L43.4305607,52.7617324 C43.4305607,52.7617324 34.5377954,49.9169671 32.3418512,49.4303513" id="Path-55" stroke="#000000" stroke-width="1.5" fill="#000000"></path>
                        <polyline id="Path-56" stroke="#000000" stroke-width="1.5" fill="#000000" points="12.3782572 37.1065828 14.550786 61.5063417 13.4102403 61.6468345 12.8972289 59.3580799 5.78914725 60.8460258 13.908351 54.4327446"></polyline>
                    </g>
                </g>
                <g id="8" transform="translate(551.312500, 1.468750)">
                    <path d="M14.1109466,69.0213256 L12.5991076,21.6840064 C12.5991076,21.6840064 12.6671314,12.7084759 18.0383043,9.76273232 C23.4094773,6.81698879 29.6748697,6.81698879 29.6748697,6.81698879 C29.6748697,6.81698879 36.9439503,6.38947532 42.5682977,9.20592868 C48.1926452,12.022382 48.9900096,19.3874166 48.9900096,19.3874166 L48.702598,68.8541944 L14.1109466,69.0213256 Z" id="Path-57" stroke="#000000" stroke-width="1.5"></path>
                    <path d="M13.4478277,48.6227611 L48.8255813,47.9326129" id="Path-58" stroke="#000000" stroke-width="1.5"></path>
                    <path d="M21.1453227,31.4059961 C21.1453227,31.4059961 24.1671988,35.9721464 30.5706659,35.9721464 C36.974133,35.9721464 39.9960091,31.4019418 39.9960091,31.4019418" id="Path-59" stroke="#000000" stroke-width="1.5"></path>
                    <path d="M30.75,23.90625 L30.75,30.703125" id="Line" stroke="#000000" stroke-width="1.5" stroke-linecap="square"></path>
                    <path d="M16.2710384,21.213246 C16.2710384,21.213246 16.2710384,24.4955044 22.6184197,24.4955044 C28.965801,24.4955044 28.965801,21.0042194 28.965801,21.0042194 C28.965801,21.0042194 28.965801,19.4743609 26.503882,19.4743609 C24.041963,19.4743609 22.5571533,19.4743609 22.5571533,19.4743609 C22.5571533,19.4743609 20.7696154,19.4743609 18.0747939,19.4743609 C15.3799724,19.4743609 16.2710384,21.213246 16.2710384,21.213246 Z" id="Path-60" fill="#000000"></path>
                    <path d="M32.6772884,21.213246 C32.6772884,21.213246 32.6772884,24.4955044 39.0246697,24.4955044 C45.372051,24.4955044 45.372051,21.0042194 45.372051,21.0042194 C45.372051,21.0042194 45.372051,19.4743609 42.910132,19.4743609 C40.448213,19.4743609 38.9634033,19.4743609 38.9634033,19.4743609 C38.9634033,19.4743609 37.1758654,19.4743609 34.4810439,19.4743609 C31.7862224,19.4743609 32.6772884,21.213246 32.6772884,21.213246 Z" id="Path-60" fill="#000000"></path>
                    <path d="M28.828125,20.75 L33.046875,20.75" id="Line" stroke="#000000" stroke-width="1.5" stroke-linecap="square"></path>
                    <path d="M12.9054397,18.8436771 C12.9054397,18.8436771 14.4021364,20.5453883 15.2768106,21.232617 C16.1514847,21.9198458 16.6899926,21.232617 16.6899926,21.232617" id="Path-61" stroke="#000000" stroke-width="1.5"></path>
                    <path d="M44.7804397,18.6824023 C44.7804397,18.6824023 46.5088939,20.5453883 47.383568,21.232617 C48.2582422,21.9198458 48.7967501,21.232617 48.7967501,21.232617" id="Path-61" stroke="#000000" stroke-width="1.5" transform="translate(46.788595, 20.110227) scale(-1, 1) translate(-46.788595, -20.110227) "></path>
                    <path d="M29.7672199,6.79896926 C29.7672199,6.79896926 30.574495,1.25435825 26.7223689,0.320045348 C22.8702427,-0.614267556 20.1668619,3.30813479 20.1668619,3.30813479 C20.1668619,3.30813479 11.2025936,2.30219423 10.3399084,8.40991571 C9.47722313,14.5176372 17.6508843,14.2036468 17.6508843,14.2036468 C17.6508843,14.2036468 22.9125886,14.2036468 30.8497434,10.4785584 C38.7868982,6.75346993 44.3468258,3.12793943 44.3468258,3.12793943" id="Path-62" stroke="#000000" stroke-width="1.5"></path>
                    <use id="Rectangle-4" stroke="#000000" mask="url(#mask-10)" stroke-width="3" xlink:href="#path-9"></use>
                    <circle id="Oval-9" stroke="#000000" cx="31.875" cy="59.0625" r="1.40625"></circle>
                    <polyline id="Path-63" stroke="#000000" stroke-width="1.5" points="20.592123 48.6169048 30.7542399 56.0801458 39.3540631 48.1857874"></polyline>
                    <polyline id="Path-64" stroke="#000000" stroke-width="1.5" points="13.301419 42.1298721 4.51606249 23.8246294 2.11038662 18.8121429"></polyline>
                    <polyline id="Path-65" stroke="#000000" stroke-width="1.5" points="0.105262832 21.2821707 4.05514497 22.8899638 4.7245707 18.1183908"></polyline>
                    <path d="M48.7886413,41.7235316 L58.6732574,22.1894543" id="Path-66" stroke="#000000" stroke-width="1.5"></path>
                    <polyline id="Path-67" stroke="#000000" stroke-width="1.5" points="54.9319514 21.5898543 56.1356563 26.9164289 60.3630393 25.0766344"></polyline>
                    <path d="M25.5826333,69.0519588 L21.0061218,99.7297671 L20.8903463,104.817132 L13.125,105.46875 C13.125,105.46875 19.1694807,101.510998 20.0299135,100.620383 C20.8903463,99.7297671 25.5826333,69.0519588 25.5826333,69.0519588 Z" id="Path-68" stroke="#000000" stroke-width="1.5" fill="#000000"></path>
                    <polyline id="Path-69" stroke="#000000" stroke-width="1.5" fill="#000000" points="37.7169883 68.908253 37.3196576 105.136979 45 105.9375 37.3196576 100.792469"></polyline>
                </g>
                <g id="9" transform="translate(611.781250, 11.312500)">
                    <path d="M10.0263564,69.8930718 L14.6405524,17.6782432 C14.6405524,17.6782432 14.213312,8.99012521 30.0191873,8.99012521 C45.8250625,8.99012521 46.7979595,18.9895683 46.7979595,18.9895683 L42.7442221,71.6787347 L10.0263564,69.8930718 Z" id="Path-70" stroke="#000000" stroke-width="1.5"></path>
                    <circle id="Oval-10" fill="#000000" cx="25.078125" cy="22.734375" r="1.640625"></circle>
                    <circle id="Oval-10" fill="#000000" cx="35.859375" cy="23.671875" r="1.640625"></circle>
                    <path d="M46.7454796,20.9097951 C46.7454796,20.9097951 41.9758623,20.9097951 38.0741821,18.6948734 C34.1725019,16.4799517 29.8106132,9.52905361 29.8106132,9.52905361 C29.8106132,9.52905361 25.0981856,16.6306632 21.0357016,18.6948734 C16.9732175,20.7590836 14.612294,19.4443943 14.612294,19.4443943" id="Path-71" stroke="#000000" stroke-width="1.5"></path>
                    <path d="M22.770903,9.73291791 C22.770903,9.73291791 20.1267224,5.10418896 22.0536774,2.4590665 C23.9806324,-0.186055953 29.6912727,0.102179863 29.6912727,0.102179863 C29.6912727,0.102179863 34.6280007,-0.186055953 37.1927886,2.4590665 C39.7575764,5.10418896 35.625792,9.43620452 35.625792,9.43620452" id="Path-72" stroke="#000000" stroke-width="1.5"></path>
                    <path d="M29.75,25.3125 L29.75,29.765625" id="Line" stroke="#000000" stroke-width="1.5" stroke-linecap="square"></path>
                    <path d="M21.3525995,30.9314413 C21.3525995,30.9314413 23.441704,37.3292817 28.8854865,38.0263227 C31.6406433,38.3791027 34.0109618,36.9546977 35.6802553,35.4616488 C37.3092389,34.0046539 38.2706454,32.4822902 38.2706454,32.4822902" id="Path-73" stroke="#000000" stroke-width="1.5"></path>
                    <path d="M23.3979708,34.2854464 C23.3979708,34.2854464 25.8712552,33.3273515 29.5916105,33.3273515 C33.3119658,33.3273515 35.7852502,35.0820647 35.7852502,35.0820647" id="Path-74" stroke="#000000" stroke-width="1.5"></path>
                    <path d="M18.3195293,51.658991 C18.3195293,51.658991 19.20025,55.3325854 22.3271786,55.3325854 C25.4541071,55.3325854 26.3348278,52.3271008 26.3348278,52.3271008" id="Path-75" stroke="#000000" stroke-width="1.5"></path>
                    <path d="M30.5070293,52.596491 C30.5070293,52.596491 31.38775,56.2700854 34.5146786,56.2700854 C37.6416071,56.2700854 38.5223278,53.2646008 38.5223278,53.2646008" id="Path-75" stroke="#000000" stroke-width="1.5"></path>
                    <path d="M12.6113288,42.2025132 L1.47549362,23.7706236" id="Path-76" stroke="#000000" stroke-width="1.5"></path>
                    <polyline id="Path-77" stroke="#000000" stroke-width="1.5" points="0.18704431 26.2190137 3.58276423 27.4193236 3.78528289 22.8044548"></polyline>
                    <path d="M44.6146603,43.9397331 L61.5865317,29.2318993" id="Path-78" stroke="#000000" stroke-width="1.5"></path>
                    <path d="M12.6917222,45.2640244 L44.30046,47.6970313 L12.6917222,45.2640244 Z" id="Path-84" stroke="#000000" stroke-width="1.5"></path>
                    <polyline id="Path-79" stroke="#000000" stroke-width="1.5" points="60.3135572 25.762842 59.6649592 30.6468387 63.8680625 31.4602774"></polyline>
                    <g id="Group-7" transform="translate(59.531250, 12.656250)">
                        <path d="M0.208597386,5.74661974 C0.208597386,5.74661974 2.32109048,9.03994483 1.49539311,10.5897963 C0.669695732,12.1396478 3.03302177,24.4278901 3.03302177,24.4278901 C3.03302177,24.4278901 3.39669718,26.0192991 5.39183477,25.8019212 C7.38697236,25.5845434 7.32247356,24.1038918 7.32247356,24.1038918 C7.32247356,24.1038918 7.32247356,11.6398291 5.92606529,10.3568109 C4.52965702,9.07379259 6.34822212,5.10965541 6.34822212,5.10965541 L2.70262999,0.0787495548 L0.208597386,5.74661974 Z" id="Path-80" stroke="#000000" stroke-width="1.5" fill="#FFFFFF"></path>
                        <path d="M1.49163225,14.7895515 C1.49163225,14.7895515 2.43542071,16.3222911 4.49355274,16.1161958 C6.55168478,15.9101005 6.93360038,14.2840916 6.93360038,14.2840916" id="Path-81" stroke="#000000"></path>
                        <path d="M1.31374345,11.8684896 C1.31374345,11.8684896 2.47340542,12.6556381 4.13871536,12.4574406 C5.8040253,12.2592432 6.43002088,11.3746883 6.43002088,11.3746883" id="Path-82" stroke="#000000"></path>
                        <path d="M1.51363329,10.6195071 C1.51363329,10.6195071 2.62402796,11.0600922 3.90272124,11.0600922 C5.18141451,11.0600922 5.77638296,10.196222 5.77638296,10.196222" id="Path-83" stroke="#000000"></path>
                        <path id="Line" stroke="#000000" stroke-width="1.5" stroke-linecap="square"></path>
                        <circle id="Oval-11" fill="#000000" cx="3.515625" cy="6.796875" r="0.703125"></circle>
                    </g>
                    <polyline id="Path-85" stroke="#000000" stroke-width="1.5" fill="#000000" points="18.2254014 70.6300578 18.4807818 97.1331576 17.1356034 97.2290073 16.9813247 94.8340777 9.375 96.09375 18.2254014 89.8177243"></polyline>
                    <polyline id="Path-85" stroke="#000000" stroke-width="1.5" fill="#000000" transform="translate(37.549511, 83.611975) scale(-1, 1) rotate(8.000000) translate(-37.549511, -83.611975) " points="42.0311407 70.3125 42.2865211 96.8155998 40.9413427 96.9114495 40.7870641 94.5165199 32.8125 96.0770318 42.0311407 89.5001665"></polyline>
                </g>
            </g>
            <g id="Blue" transform="translate(336.000000, 621.000000)">
                <g id="Red" transform="translate(95.000000, 87.000000) scale(-1, 1) translate(-95.000000, -87.000000) ">
                    <path d="M92.0680147,157.862903 C143.875167,157.862903 189,122.594604 189,81.0362903 C189,39.4779764 143.875167,7.36693548 92.0680147,7.36693548 C40.2608625,7.36693548 0.347426471,37.3731377 0.347426471,78.9314516 C0.347426471,89.9134674 -0.694852941,109.451613 17.0238971,125.237903 C34.7426471,141.024194 8.68566176,173.649194 8.68566176,173.649194 C8.68566176,173.649194 26.4044118,173.649194 38.9117647,167.334677 C51.4191176,161.020161 56.6305147,150.495968 56.6305147,150.495968 C56.6305147,150.495968 56.831946,152.174552 67.0533088,154.705645 C77.2746717,157.236739 87.1187288,157.862903 92.0680147,157.862903 Z" id="Oval" fill="#00789D"></path>
                    <path d="M95.1948529,150.495968 C147.002005,150.495968 189,116.806298 189,75.2479839 C189,33.6896699 147.002005,0 95.1948529,0 C43.3877008,0 1.38970588,33.6896699 1.38970588,75.2479839 C1.38970588,86.2299997 4.51654412,105.241935 22.2352941,121.028226 C39.9540441,136.814516 20.1507353,167.334677 20.1507353,167.334677 C20.1507353,167.334677 33.7003676,164.177419 40.9963235,157.862903 C48.2922794,151.548387 52.4613971,141.024194 52.4613971,141.024194 C52.4613971,141.024194 59.9587842,144.807616 70.1801471,147.33871 C80.4015099,149.869803 90.245567,150.495968 95.1948529,150.495968 Z" id="Oval" fill="#00C0E7"></path>
                </g>
                <path d="M37.4995117,52.7158203 L43.9155273,70.25 L50.331543,52.7158203 L53.0854492,52.7158203 L59.5014648,70.25 L65.9321289,52.7158203 L68.6860352,52.7158203 L60.878418,74 L58.1245117,74 L51.7084961,56.4658203 L45.2924805,74 L42.5385742,74 L34.7602539,52.7158203 L37.4995117,52.7158203 Z M84.418457,73.5019531 C83.2758732,74.0683622 81.6499129,74.3515625 79.5405273,74.3515625 C76.6205909,74.3515625 74.5356508,73.7509826 73.2856445,72.5498047 C71.9770442,71.2900328 71.3227539,69.2490375 71.3227539,66.4267578 C71.3227539,63.7021348 71.9233338,61.71485 73.1245117,60.4648438 C74.3842836,59.1562435 76.4741065,58.5019531 79.394043,58.5019531 C82.2163227,58.5019531 84.2524352,59.1074158 85.5024414,60.3183594 C86.801276,61.5781313 87.4506836,63.6142437 87.4506836,66.4267578 L87.4506836,67.5693359 L73.9155273,67.5693359 C73.9741214,68.9560616 74.3598597,69.9960903 75.0727539,70.6894531 C75.8149451,71.4023473 77.304188,71.7587891 79.5405273,71.7587891 C81.2495203,71.7587891 82.494625,71.5683613 83.2758789,71.1875 C83.9692417,70.8457014 84.4624009,70.2695353 84.7553711,69.4589844 L87.1870117,70.3378906 C86.6596653,71.792976 85.736823,72.847653 84.418457,73.5019531 Z M73.9301758,65.2841797 L84.8725586,65.2841797 C84.7065421,63.7997973 84.3208038,62.7646514 83.715332,62.1787109 C82.9633751,61.4560511 81.5229599,61.0947266 79.394043,61.0947266 C77.1967664,61.0947266 75.7270545,61.4804649 74.9848633,62.2519531 C74.4184542,62.8476592 74.0668952,63.8583913 73.9301758,65.2841797 Z M113.129395,72.3154297 C112.172358,73.653327 110.346205,74.3222656 107.650879,74.3222656 C105.05321,74.3222656 103.158697,74.0000032 101.967285,73.3554688 C100.473137,72.5546835 99.7260742,71.2119235 99.7260742,69.3271484 C99.7260742,67.1689345 100.683096,65.7626986 102.597168,65.1083984 C103.808112,64.7861312 105.863755,64.625 108.76416,64.625 C110.912608,64.625 112.318844,64.5517585 112.98291,64.4052734 L112.98291,63.5849609 C112.973144,62.6865189 112.675296,62.0712907 112.089355,61.7392578 C111.28857,61.2900368 109.809093,61.0654297 107.650879,61.0654297 C105.941886,61.0654297 104.691898,61.2314437 103.900879,61.5634766 C103.285641,61.8173841 102.831544,62.2665983 102.538574,62.9111328 L100.180176,61.8564453 C100.756351,60.5966734 101.664545,59.7080104 102.904785,59.1904297 C104.027838,58.7119117 105.609853,58.4726562 107.650879,58.4726562 C110.248548,58.4726562 112.147943,58.8095669 113.349121,59.4833984 C114.716315,60.2548867 115.44873,61.4804604 115.546387,63.1601562 L115.561035,63.1601562 L115.561035,74 L113.129395,74 L113.129395,72.3154297 Z M112.98291,66.5878906 C112.143062,66.695313 110.727061,66.7490234 108.734863,66.7490234 C106.889151,66.7490234 105.429205,66.8369132 104.35498,67.0126953 C102.987786,67.3544939 102.304199,68.1259706 102.304199,69.3271484 C102.304199,70.1865277 102.597165,70.7724594 103.183105,71.0849609 C103.993656,71.5146506 105.482899,71.7294922 107.650879,71.7294922 C109.818858,71.7294922 111.303219,71.5146506 112.104004,71.0849609 C112.680179,70.782225 112.973144,70.2158245 112.98291,69.3857422 L112.98291,66.5878906 Z M122.680176,61.0214844 C123.656743,59.3222571 125.48778,58.4726562 128.17334,58.4726562 C130.888197,58.4726562 132.875482,59.1269466 134.135254,60.4355469 C135.336432,61.6855531 135.937012,63.6728379 135.937012,66.3974609 L133.358887,66.3974609 C133.358887,64.3662008 132.997562,62.9746131 132.274902,62.2226562 C131.532711,61.451168 130.165537,61.0654297 128.17334,61.0654297 C126.132314,61.0654297 124.740726,61.4267542 123.998535,62.1494141 C123.236813,62.8818396 122.846192,64.2636617 122.82666,66.2949219 L122.82666,74 L120.248535,74 L120.248535,58.7949219 L122.680176,58.7949219 L122.680176,61.0214844 Z M151.742676,73.5019531 C150.600092,74.0683622 148.974132,74.3515625 146.864746,74.3515625 C143.94481,74.3515625 141.85987,73.7509826 140.609863,72.5498047 C139.301263,71.2900328 138.646973,69.2490375 138.646973,66.4267578 C138.646973,63.7021348 139.247553,61.71485 140.44873,60.4648438 C141.708502,59.1562435 143.798325,58.5019531 146.718262,58.5019531 C149.540541,58.5019531 151.576654,59.1074158 152.82666,60.3183594 C154.125495,61.5781313 154.774902,63.6142437 154.774902,66.4267578 L154.774902,67.5693359 L141.239746,67.5693359 C141.29834,68.9560616 141.684078,69.9960903 142.396973,70.6894531 C143.139164,71.4023473 144.628407,71.7587891 146.864746,71.7587891 C148.573739,71.7587891 149.818844,71.5683613 150.600098,71.1875 C151.29346,70.8457014 151.78662,70.2695353 152.07959,69.4589844 L154.51123,70.3378906 C153.983884,71.792976 153.061042,72.847653 151.742676,73.5019531 Z M141.254395,65.2841797 L152.196777,65.2841797 C152.030761,63.7997973 151.645023,62.7646514 151.039551,62.1787109 C150.287594,61.4560511 148.847179,61.0947266 146.718262,61.0947266 C144.520985,61.0947266 143.051273,61.4804649 142.309082,62.2519531 C141.742673,62.8476592 141.391114,63.8583913 141.254395,65.2841797 Z M44.4282227,87.7158203 L44.4282227,97.0615234 L56.6010742,97.0615234 L56.6010742,87.7158203 L59.1791992,87.7158203 L59.1791992,109 L56.6010742,109 L56.6010742,99.6542969 L44.4282227,99.6542969 L44.4282227,109 L41.8500977,109 L41.8500977,87.7158203 L44.4282227,87.7158203 Z M66.5913086,93.7949219 L66.5913086,109 L64.0131836,109 L64.0131836,93.7949219 L66.5913086,93.7949219 Z M66.5913086,87.7158203 L66.5913086,90.3085938 L64.0131836,90.3085938 L64.0131836,87.7158203 L66.5913086,87.7158203 Z M73.8569336,96.0214844 C74.833501,94.3222571 76.6645374,93.4726562 79.3500977,93.4726562 C82.064955,93.4726562 84.0522398,94.1269466 85.3120117,95.4355469 C86.5131896,96.6855531 87.1137695,98.6728379 87.1137695,101.397461 L84.5356445,101.397461 C84.5356445,99.3662008 84.17432,97.9746131 83.4516602,97.2226562 C82.7094689,96.451168 81.3422951,96.0654297 79.3500977,96.0654297 C77.3090718,96.0654297 75.9174842,96.4267542 75.175293,97.1494141 C74.4135704,97.8818396 74.0229493,99.2636617 74.003418,101.294922 L74.003418,109 L71.425293,109 L71.425293,93.7949219 L73.8569336,93.7949219 L73.8569336,96.0214844 Z M92.8413086,93.7949219 L92.8413086,109 L90.2631836,109 L90.2631836,93.7949219 L92.8413086,93.7949219 Z M92.8413086,87.7158203 L92.8413086,90.3085938 L90.2631836,90.3085938 L90.2631836,87.7158203 L92.8413086,87.7158203 Z M100.106934,96.1679688 C101.083501,94.3710848 102.914537,93.4726562 105.600098,93.4726562 C108.412612,93.4726562 110.448724,94.1269466 111.708496,95.4355469 C112.909674,96.6855531 113.510254,98.6728379 113.510254,101.397461 L113.510254,109 L110.932129,109 L110.932129,101.397461 C110.932129,99.3662008 110.570804,97.9746131 109.848145,97.2226562 C109.105953,96.451168 107.689952,96.0654297 105.600098,96.0654297 C103.559072,96.0654297 102.167484,96.4267542 101.425293,97.1494141 C100.66357,97.8818396 100.272949,99.2636617 100.253418,101.294922 L100.253418,109 L97.675293,109 L97.675293,93.7949219 L100.106934,93.7949219 L100.106934,96.1679688 Z M131.601074,95.7431641 L131.601074,93.7949219 L134.032715,93.7949219 L134.032715,108.72168 C134.032715,111.543959 133.383307,113.584955 132.084473,114.844727 C130.834466,116.045904 128.847182,116.646484 126.122559,116.646484 C123.925282,116.646484 122.221197,116.265629 121.010254,115.503906 C119.652825,114.654293 118.788576,113.277353 118.41748,111.373047 L120.95166,110.889648 C121.176271,112.051764 121.654781,112.862302 122.387207,113.321289 C123.168461,113.819338 124.413566,114.068359 126.122559,114.068359 C128.153819,114.068359 129.545406,113.707035 130.297363,112.984375 C131.068852,112.232418 131.45459,110.811534 131.45459,108.72168 L131.45459,107.212891 C130.585445,108.619148 128.808119,109.322266 126.122559,109.322266 C123.397936,109.322266 121.410651,108.721686 120.160645,107.520508 C118.852044,106.260736 118.197754,104.219741 118.197754,101.397461 C118.197754,98.6728379 118.798334,96.6855531 119.999512,95.4355469 C121.259284,94.1269466 123.300279,93.4726562 126.122559,93.4726562 C128.808119,93.4726562 130.634273,94.2294846 131.601074,95.7431641 Z M126.122559,96.0654297 C124.022939,96.0654297 122.602054,96.451168 121.859863,97.2226562 C121.137203,97.9746131 120.775879,99.3662008 120.775879,101.397461 C120.775879,103.487315 121.1665,104.908199 121.947754,105.660156 C122.689945,106.37305 124.081533,106.729492 126.122559,106.729492 C128.153819,106.729492 129.545406,106.37305 130.297363,105.660156 C131.068852,104.908199 131.45459,103.487315 131.45459,101.397461 C131.45459,99.3076067 131.068852,97.8916053 130.297363,97.1494141 C129.545406,96.4267542 128.153819,96.0654297 126.122559,96.0654297 Z M139.452637,102.920898 L138.866699,94.5859375 L138.866699,87.7158203 L141.444824,87.7158203 L141.444824,94.5859375 L140.858887,102.920898 L139.452637,102.920898 Z M138.866699,109 L138.866699,106.421875 L141.444824,106.421875 L141.444824,109 L138.866699,109 Z M147.01123,102.920898 L146.425293,94.5859375 L146.425293,87.7158203 L149.003418,87.7158203 L149.003418,94.5859375 L148.41748,102.920898 L147.01123,102.920898 Z M146.425293,109 L146.425293,106.421875 L149.003418,106.421875 L149.003418,109 L146.425293,109 Z" id="We-are-Hiring!!" fill="#000000"></path>
            </g>
            <g id="Green" transform="translate(130.000000, 646.000000)">
                <g id="Red" transform="translate(100.648421, 79.462353) rotate(-10.000000) translate(-100.648421, -79.462353) translate(10.648421, 15.462353)">
                    <path d="M87.1966912,115.669119 C136.262724,115.669119 179,89.8273726 179,59.3768142 C179,28.9262559 136.262724,5.3978922 87.1966912,5.3978922 C38.1306582,5.3978922 0.329044118,27.384001 0.329044118,57.8345593 C0.329044118,65.8812889 -0.658088235,80.1972556 16.1231618,91.7641675 C32.9044118,103.331079 8.22610294,127.23603 8.22610294,127.23603 C8.22610294,127.23603 25.0073529,127.23603 36.8529412,122.609266 C48.6985294,117.982501 53.6341912,110.271226 53.6341912,110.271226 C53.6341912,110.271226 53.8249647,111.501156 63.5055147,113.355736 C73.1860647,115.210316 82.5092722,115.669119 87.1966912,115.669119 Z" id="Oval" fill="#79B234"></path>
                    <path d="M90.1580882,110.271226 C139.224121,110.271226 179,85.5861716 179,55.1356132 C179,24.6850549 139.224121,1.42108547e-14 90.1580882,1.42108547e-14 C41.0920552,1.42108547e-14 1.31617647,24.6850549 1.31617647,55.1356132 C1.31617647,63.1823428 4.27757353,77.1127458 21.0588235,88.6796576 C37.8400735,100.246569 19.0845588,122.609266 19.0845588,122.609266 C19.0845588,122.609266 31.9172794,120.295883 38.8272059,115.669119 C45.7371324,111.042354 49.6856618,103.331079 49.6856618,103.331079 C49.6856618,103.331079 56.7863617,106.103264 66.4669118,107.957844 C76.1474618,109.812424 85.4706693,110.271226 90.1580882,110.271226 Z" id="Oval" fill="#D0E147"></path>
                </g>
                <path d="M28.921875,62.7158203 L28.921875,72.0615234 L41.0947266,72.0615234 L41.0947266,62.7158203 L43.6728516,62.7158203 L43.6728516,84 L41.0947266,84 L41.0947266,74.6542969 L28.921875,74.6542969 L28.921875,84 L26.34375,84 L26.34375,62.7158203 L28.921875,62.7158203 Z M62.2470703,70.3183594 C63.5459049,71.5781313 64.1953125,73.6142437 64.1953125,76.4267578 C64.1953125,79.2490375 63.5459049,81.2900328 62.2470703,82.5498047 C60.9970641,83.7509826 59.0097792,84.3515625 56.2851562,84.3515625 C53.5605333,84.3515625 51.5732484,83.7509826 50.3232422,82.5498047 C49.0146419,81.2900328 48.3603516,79.2490375 48.3603516,76.4267578 C48.3603516,73.7021348 48.9609315,71.71485 50.1621094,70.4648438 C51.4218813,69.1562435 53.4628765,68.5019531 56.2851562,68.5019531 C59.0097792,68.5019531 60.9970641,69.1074158 62.2470703,70.3183594 Z M56.2851562,71.0947266 C54.1855364,71.0947266 52.7646521,71.4804649 52.0224609,72.2519531 C51.2998011,73.00391 50.9384766,74.3954977 50.9384766,76.4267578 C50.9384766,78.516612 51.3290977,79.9374962 52.1103516,80.6894531 C52.8525428,81.4023473 54.2441304,81.7587891 56.2851562,81.7587891 C58.3164164,81.7587891 59.7080041,81.4023473 60.4599609,80.6894531 C61.2314492,79.9374962 61.6171875,78.516612 61.6171875,76.4267578 C61.6171875,74.3369036 61.2314492,72.9209021 60.4599609,72.1787109 C59.7080041,71.4560511 58.3164164,71.0947266 56.2851562,71.0947266 Z M77.2763672,84 C76.9052716,84.0390627 76.4023469,84.0585938 75.7675781,84.0585938 C74.3710868,84.0585938 73.3212926,83.9023453 72.6181641,83.5898438 C71.1435473,82.8574182 70.3623051,81.1093888 70.2744141,78.3457031 L70.2744141,71.3730469 L68.4433594,71.3730469 L68.4433594,68.7949219 L70.2744141,68.7949219 L70.2744141,62.7158203 L72.8525391,62.7158203 L72.8525391,68.7949219 L76.2216797,68.7949219 L76.2216797,71.3730469 L72.8525391,71.3730469 L72.8525391,78.6533203 C72.8916018,80.8212999 73.9804581,81.9052734 76.1191406,81.9052734 L76.4267578,81.9052734 C76.7685564,81.9052734 77.0517567,81.8808596 77.2763672,81.8320312 L77.2763672,84 Z M101.973633,62.7158203 L101.973633,78.0087891 C101.973633,80.2841911 101.290046,81.9345652 99.9228516,82.9599609 C98.7216737,83.8681686 96.8173958,84.3320312 94.2099609,84.3515625 L94.1953125,84.3515625 C91.5878776,84.3320312 89.6835998,83.8681686 88.4824219,82.9599609 C87.1249932,81.9345652 86.4462891,80.2841911 86.4462891,78.0087891 L89.0244141,78.0087891 C89.0244141,79.4248118 89.3613248,80.3867162 90.0351562,80.8945312 C90.7871131,81.4609403 92.1787008,81.7539062 94.2099609,81.7734375 C96.2314554,81.7539062 97.6181603,81.4609403 98.3701172,80.8945312 C99.0439487,80.3867162 99.3808594,79.4248118 99.3808594,78.0087891 L99.3808594,62.7158203 L101.973633,62.7158203 Z M120.547852,70.3183594 C121.846686,71.5781313 122.496094,73.6142437 122.496094,76.4267578 C122.496094,79.2490375 121.846686,81.2900328 120.547852,82.5498047 C119.297845,83.7509826 117.31056,84.3515625 114.585938,84.3515625 C111.861315,84.3515625 109.87403,83.7509826 108.624023,82.5498047 C107.315423,81.2900328 106.661133,79.2490375 106.661133,76.4267578 C106.661133,73.7021348 107.261713,71.71485 108.462891,70.4648438 C109.722663,69.1562435 111.763658,68.5019531 114.585938,68.5019531 C117.31056,68.5019531 119.297845,69.1074158 120.547852,70.3183594 Z M114.585938,71.0947266 C112.486318,71.0947266 111.065433,71.4804649 110.323242,72.2519531 C109.600582,73.00391 109.239258,74.3954977 109.239258,76.4267578 C109.239258,78.516612 109.629879,79.9374962 110.411133,80.6894531 C111.153324,81.4023473 112.544912,81.7587891 114.585938,81.7587891 C116.617198,81.7587891 118.008785,81.4023473 118.760742,80.6894531 C119.53223,79.9374962 119.917969,78.516612 119.917969,76.4267578 C119.917969,74.3369036 119.53223,72.9209021 118.760742,72.1787109 C118.008785,71.4560511 116.617198,71.0947266 114.585938,71.0947266 Z M130.933594,72.1494141 C130.171871,72.8818396 129.78125,74.2636617 129.761719,76.2949219 L129.761719,76.5 C129.78125,78.5312602 130.171871,79.917965 130.933594,80.6601562 C131.675785,81.3730504 133.067373,81.7294922 135.108398,81.7294922 C137.139659,81.7294922 138.531246,81.3730504 139.283203,80.6601562 C140.054691,79.9081994 140.44043,78.4873151 140.44043,76.3974609 C140.44043,74.3662008 140.079105,72.9746131 139.356445,72.2226562 C138.614254,71.451168 137.198253,71.0654297 135.108398,71.0654297 C133.067373,71.0654297 131.675785,71.4267542 130.933594,72.1494141 Z M129.761719,62.7158203 L129.761719,70.5820312 C130.640629,69.1757742 132.422838,68.4726562 135.108398,68.4726562 C137.920912,68.4726562 139.957025,69.1269466 141.216797,70.4355469 C142.417975,71.6855531 143.018555,73.6728379 143.018555,76.3974609 C143.018555,79.2197407 142.369147,81.2607359 141.070312,82.5205078 C139.820306,83.7216857 137.833021,84.3222656 135.108398,84.3222656 C132.422838,84.3222656 130.591802,83.57032 129.615234,82.0664062 L129.615234,84 L127.183594,84 L127.183594,62.7158203 L129.761719,62.7158203 Z M149.771484,79.7373047 C149.771484,80.4306675 150.049802,80.9091784 150.606445,81.1728516 C151.426762,81.5634785 152.930653,81.7587891 155.118164,81.7587891 C157.305675,81.7587891 158.804683,81.5634785 159.615234,81.1728516 C160.171878,80.9091784 160.450195,80.4306675 160.450195,79.7373047 C160.450195,78.8974567 159.888677,78.3310562 158.765625,78.0380859 C158.101559,77.8623038 156.875985,77.754883 155.088867,77.7158203 C152.452135,77.6572263 150.64063,77.4326191 149.654297,77.0419922 C148.013664,76.387692 147.193359,75.0791114 147.193359,73.1162109 C147.193359,71.407218 147.906243,70.1816443 149.332031,69.4394531 C150.523443,68.81445 152.452135,68.5019531 155.118164,68.5019531 C157.686536,68.5019531 159.561518,68.7900362 160.743164,69.3662109 C162.266609,70.0986365 163.02832,71.348624 163.02832,73.1162109 L160.450195,73.1162109 C160.450195,72.4228481 160.171878,71.9443373 159.615234,71.6806641 C158.804683,71.2900371 157.305675,71.0947266 155.118164,71.0947266 C152.862293,71.0947266 151.329106,71.3046854 150.518555,71.7246094 C150.020505,71.9785169 149.771484,72.4423794 149.771484,73.1162109 C149.771484,73.9560589 150.333002,74.5224595 151.456055,74.8154297 C152.129886,74.9912118 153.360343,75.0986326 155.147461,75.1376953 C157.774427,75.206055 159.58105,75.4355449 160.567383,75.8261719 C162.208016,76.4707063 163.02832,77.7744042 163.02832,79.7373047 C163.02832,81.5048917 162.266609,82.7597619 160.743164,83.5019531 C159.561518,84.0683622 157.686536,84.3515625 155.118164,84.3515625 C152.540026,84.3515625 150.665045,84.0683622 149.493164,83.5019531 C147.959953,82.7597619 147.193359,81.5048917 147.193359,79.7373047 L149.771484,79.7373047 Z M167.935547,77.9208984 L167.349609,69.5859375 L167.349609,62.7158203 L169.927734,62.7158203 L169.927734,69.5859375 L169.341797,77.9208984 L167.935547,77.9208984 Z M167.349609,84 L167.349609,81.421875 L169.927734,81.421875 L169.927734,84 L167.349609,84 Z" id="Hot-Jobs!" fill="#000000"></path>
            </g>
        </g>
    </g>
</svg>