<?xml version="1.0" encoding="UTF-8"?>
<svg width="1920px" height="1080px" viewBox="0 0 1920 1080" version="1.1" xmlns="http://www.w3.org/2000/svg" xmlns:xlink="http://www.w3.org/1999/xlink">
    <!-- Generator: Sketch 42 (36781) - http://www.bohemiancoding.com/sketch -->
    <title>Big</title>
    <desc>Created with Sketch.</desc>
    <defs>
        <rect id="path-1" x="116.25" y="55.3125" width="2.8125" height="15.9375" rx="1.40625"></rect>
        <mask id="mask-2" maskContentUnits="userSpaceOnUse" maskUnits="objectBoundingBox" x="0" y="0" width="2.8125" height="15.9375" fill="white">
            <use xlink:href="#path-1"></use>
        </mask>
        <rect id="path-3" x="26.7999597" y="149.335287" width="9.375" height="13.125" rx="4.6875"></rect>
        <mask id="mask-4" maskContentUnits="userSpaceOnUse" maskUnits="objectBoundingBox" x="0" y="0" width="9.375" height="13.125" fill="white">
            <use xlink:href="#path-3"></use>
        </mask>
        <rect id="path-5" x="0" y="0" width="56.25" height="9.375"></rect>
        <mask id="mask-6" maskContentUnits="userSpaceOnUse" maskUnits="objectBoundingBox" x="0" y="0" width="56.25" height="9.375" fill="white">
            <use xlink:href="#path-5"></use>
        </mask>
        <rect id="path-7" x="87.1875" y="41.25" width="2.8125" height="15.9375" rx="1.40625"></rect>
        <mask id="mask-8" maskContentUnits="userSpaceOnUse" maskUnits="objectBoundingBox" x="0" y="0" width="2.8125" height="15.9375" fill="white">
            <use xlink:href="#path-7"></use>
        </mask>
        <rect id="path-9" x="50.625" y="111.5625" width="20.625" height="12.1875"></rect>
        <mask id="mask-10" maskContentUnits="userSpaceOnUse" maskUnits="objectBoundingBox" x="0" y="0" width="20.625" height="12.1875" fill="white">
            <use xlink:href="#path-9"></use>
        </mask>
    </defs>
    <g id="Home" stroke="none" stroke-width="1" fill="none" fill-rule="evenodd">
        <g id="Big">
            <rect id="Rectangle" fill="#FFFFFF" x="0" y="0" width="1920" height="1080"></rect>
            <g id="characters" transform="translate(0.000000, 660.000000)">
                <g id="lines" transform="translate(0.000000, 204.250000)" stroke="#000000" stroke-width="2">
                    <path d="M470,8.75 L550,11.75" id="Path-101"></path>
                    <path d="M636,7.75 L686,10.75" id="Path-102"></path>
                    <path d="M733.865174,10.875 L806,5.75" id="Path-103"></path>
                    <path d="M825,3.75 L946.566892,0.187789917" id="Path-104"></path>
                    <path d="M1018.84279,1.375 L1091.92972,6.125" id="Path-105"></path>
                    <path d="M1107.73295,6.125 L1219,7.75" id="Path-106"></path>
                    <path d="M1285,8.75 L1370,6.75" id="Path-107"></path>
                    <path d="M1430,7.75 L1483,7.75" id="Path-108"></path>
                    <path d="M409,8.75 L0,9.75" id="Path-100"></path>
                    <path d="M1551,7.05078125 L1920,7.05078125" id="Path-109"></path>
                </g>
                <g id="1" transform="translate(323.500000, 0.000000)" stroke="#000000">
                    <polyline id="Line" stroke-width="2" stroke-linecap="square" fill="#000000" points="97.03125 150.46875 99.4913814 205.411685 99.84375 213.28125 82.5 213.75 99.4913814 205.411685"></polyline>
                    <polyline id="Line" stroke-width="2" stroke-linecap="square" fill="#000000" transform="translate(139.607485, 182.109375) scale(-1, 1) translate(-139.607485, -182.109375) " points="145.3125 150.46875 147.772631 205.411685 148.125 213.28125 131.08997 213.75 147.772631 205.411685"></polyline>
                    <path d="M78.3706025,149.798983 L146.549058,149.876197 C146.549058,149.876197 150.16497,149.875099 150.960533,147.837421 C151.756095,145.799743 151.798824,136.429946 151.798824,136.429946 L155.219463,52.4135154 C155.219463,52.4135154 155.270584,44.7134843 154.321725,41.1232607 C153.372867,37.533037 149.753239,31.7308035 149.753239,31.7308035 C149.753239,31.7308035 145.915195,25.7649045 142.028193,22.903374 C138.14119,20.0418435 129.929009,17.1366177 129.929009,17.1366177 C129.929009,17.1366177 116.097211,15.2973981 109.187092,16.3495691 C102.276972,17.4017401 91.6332681,22.9677279 91.6332681,22.9677279 C91.6332681,22.9677279 83.6854698,29.0644387 80.8166584,34.4806473 C79.3585424,37.2335157 78.2309328,39.9399527 77.5114402,43.5616313 C76.7919476,47.18331 76.5036575,51.5318664 76.5036575,51.5318664 L78.3706025,149.798983 Z" id="Path" stroke-width="2"></path>
                    <path d="M78.28125,107.8125 L152.34375,107.8125" id="Line" stroke-width="2" stroke-linecap="square"></path>
                    <circle id="Oval" stroke-width="2" fill="#000000" cx="103.125" cy="49.6875" r="3.75"></circle>
                    <circle id="Oval" stroke-width="2" fill="#000000" cx="131.25" cy="49.6875" r="3.75"></circle>
                    <use id="Rectangle" mask="url(#mask-2)" stroke-width="4" fill="#000000" xlink:href="#path-1"></use>
                    <path d="M91.0194684,22.7167476 L107.998611,1.39307056 L105.696671,11.4116915 L124.580047,0.0107479901 L118.346081,9.99268716 L130.851338,3.88035022 L125.020228,16.4512483 C125.020228,16.4512483 112.975027,15.3953509 107.245027,16.4512483 C103.601281,17.1227005 98.3746984,19.680241 94.8011246,21.303282 C91.2275507,22.9263229 91.0194684,22.7167476 91.0194684,22.7167476 Z" id="Path-2" stroke-width="2" fill="#000000"></path>
                    <path d="M97.9470329,72.8606918 C97.9470329,72.8606918 103.154929,80.7498939 105.866428,83.3600366 C106.895994,84.3511168 108.004249,85.4839894 109.331888,86.2475978 C110.659527,87.0112061 113.785824,88.1074265 113.785824,88.1074265 C113.785824,88.1074265 117.354447,88.9895071 118.958593,88.9639774 C120.56274,88.9384478 123.571484,87.95169 123.571484,87.95169 C123.571484,87.95169 125.456691,87.5073139 127.665681,86.2475978 C129.874671,84.9878816 130.523537,84.2458722 131.375685,83.3600366 C133.712754,80.9305787 137.880581,73.076921 137.880581,73.076921 C137.880581,73.076921 124.964791,80.9507856 117.913807,80.9126064 C110.862823,80.8744273 97.9470329,72.8606918 97.9470329,72.8606918 Z" id="Path-3" stroke-width="2"></path>
                    <path d="M96.5994614,107.477318 L101.47749,124.394681 L119.057698,107.65043 C119.057698,107.65043 128.321602,115.740746 132.42015,120.177568 C136.518697,124.614389 135.72022,125.688195 135.72022,125.688195 C135.72022,125.688195 137.817002,123.28938 138.332346,121.22718 C138.847691,119.16498 140.159998,107.922004 140.159998,107.922004 L96.5994614,107.477318 Z" id="Path-4" stroke-width="2"></path>
                    <polygon id="Path-5" stroke-width="2" fill="#000000" points="112.633245 107.179907 116.317508 114.931338 114.256251 132.941431 119.159378 139.550581 126.735123 127.853609 121.848729 115.986743 125.653977 108.077644"></polygon>
                    <path d="M153.716726,94.5086216 L194.53125,46.40625" id="Line" stroke-width="2" stroke-linecap="square"></path>
                    <path d="M189.352147,43.5307414 C189.352147,43.5307414 188.424349,46.9217633 188.047049,48.9879553 C187.66975,51.0541473 187.359106,54.4451692 187.359106,54.4451692 C187.359106,54.4451692 191.673138,54.1751392 193.479165,53.591836 C195.285193,53.0085327 199.599225,50.4919068 199.599225,50.4919068" id="Path-6" stroke-width="2"></path>
                    <path d="M77.1267619,91.9573624 L43.59375,139.21875" id="Line" stroke-width="2" stroke-linecap="square"></path>
                    <polyline id="Path-7" stroke-width="2" points="54.2119604 143.092717 53.885686 124.88184 37.826161 131.46203"></polyline>
                    <path d="M20.1862402,129.630517 L11.3678426,140.382419 C7.28586117,145.359408 3.20387971,150.336397 3.20387971,150.336397 C3.20387971,150.336397 0.303597334,154.132745 0.423146093,156.305868 C0.542694852,158.47899 3.81588565,161.461262 3.81588565,161.461262 C3.81588565,161.461262 22.6183736,174.323094 30.9513667,180.748137 C39.2843598,187.173179 43.0724308,191.729492 43.0724308,191.729492 L63.3683754,160.396848 C63.3683754,160.396848 59.5651512,156.780772 53.5666273,152.936939 C47.5681034,149.093106 39.0104344,144.784519 34.591869,141.636388 C25.8647564,135.41851 20.1862402,129.630517 20.1862402,129.630517 Z" id="Path-8" stroke-width="2"></path>
                    <path d="M11.5718221,140.204513 C11.5718221,140.204513 14.9025424,143.62609 20.1238168,147.388986 C25.3450913,151.151882 37.6573507,159.024406 43.5563724,163.480688 C53.7314336,171.167207 54.9405838,172.966459 54.9405838,172.966459" id="Path-9" stroke-width="2"></path>
                    <use id="Rectangle-2" mask="url(#mask-4)" stroke-width="4" transform="translate(31.487460, 155.897787) rotate(51.000000) translate(-31.487460, -155.897787) " xlink:href="#path-3"></use>
                    <path d="M31.3484305,139.098912 C31.3484305,139.098912 33.961438,136.021593 37.6930852,134.597998 C41.4247324,133.174403 44.7107608,133.788554 46.0455827,134.597998 C47.4310479,135.438152 48.8489922,136.941343 49.3109014,140.286242 C49.7728107,143.631142 49.3109014,149.991459 49.3109014,149.991459" id="Path-10" stroke-width="2"></path>
                </g>
                <g id="2" transform="translate(511.937500, 28.875000)">
                    <path d="M51.8296447,139.377368 L50.6477423,88.1479255 C50.6477423,88.1479255 36.0867565,58.6157492 36.0867565,33.4753272 C36.0867565,8.33490524 65.2882052,4.50461864 65.2882052,4.50461864 C65.2882052,4.50461864 94.8588382,-1.30746954 103.669267,18.3580013 C112.479695,38.0234721 108.510964,77.8799885 108.510964,77.8799885 L124.009011,126.704606 L51.8296447,139.377368 Z" id="Path-86" stroke="#000000" stroke-width="2"></path>
                    <path d="M51.0169265,87.8736011 L108.599415,78.0812452" id="Path-87" stroke="#000000" stroke-width="2"></path>
                    <path d="M78.4647501,3.87264698 C78.4647501,3.87264698 63.1128383,3.87264698 61.1707753,20.558365 C59.2287123,37.2440831 47.7609266,37.2440831 47.7609266,37.2440831 C47.7609266,37.2440831 41.6501581,37.6087807 41.6501581,29.0835729 C41.6501581,20.558365 50.0952478,19.1386721 50.0952478,19.1386721 C50.0952478,19.1386721 53.3615029,19.1386721 53.3615029,22.7266816 C53.3615029,26.314691 49.4337927,29.3309776 49.4337927,29.3309776" id="Path-88" stroke="#000000" stroke-width="2"></path>
                    <path d="M81.4964194,3.94443281 C81.4964194,3.94443281 58.1006494,-6.04533409 47.7045234,6.16338398 C41.6186878,13.3103011 34.3261526,21.6403244 29.4388762,26.3300737 C24.5515998,31.019823 23.7908699,30.5526186 23.7908699,30.5526186 C23.7908699,30.5526186 18.3069455,33.3330374 18.3069455,26.3300737 C18.3069455,19.3271099 27.6608951,17.3158249 27.6608951,17.3158249 C27.6608951,17.3158249 31.4847723,17.3158249 29.4388762,19.791154 C27.3929802,22.2664831 25.3932321,22.8241052 25.3932321,22.8241052" id="Path-89" stroke="#000000" stroke-width="2"></path>
                    <circle id="Oval-12" fill="#000000" cx="90.46875" cy="36.28125" r="3.28125"></circle>
                    <path d="M105.46875,37.21875 L114.84375,37.21875" id="Line" stroke="#000000" stroke-width="3" stroke-linecap="square"></path>
                    <path d="M109.203185,70.1348106 C109.203185,70.1348106 116.835556,82.4678719 129.58395,89.7759255 C142.332344,97.083979 150.624888,94.3727821 150.624888,94.3727821" id="Path-90" stroke="#000000" stroke-width="2"></path>
                    <polyline id="Path-91" stroke="#000000" stroke-width="2" points="148.966123 89.246505 138.248243 93.3344514 144.230822 99.1760231"></polyline>
                    <path d="M109.313427,46.4288232 C109.313427,46.4288232 103.387251,52.4344768 96.768854,53.7984075 C90.1504571,55.1623382 81.4156603,50.3142311 81.4156603,50.3142311 C81.4156603,50.3142311 82.6808855,60.7834248 92.3655626,64.2060704 C102.05024,67.6287161 109.313427,61.5705051 109.313427,61.5705051 C109.313427,61.5705051 109.313427,55.8413403 101.977172,57.7376547 C94.640917,59.6339691 92.3655626,64.2060704 92.3655626,64.2060704" id="Path-92" stroke="#000000" stroke-width="2"></path>
                    <path d="M58.9569517,99.7336451 C58.9569517,99.7336451 60.2734525,106.143094 68.3621769,104.461255 C76.4509013,102.779415 74.9382714,96.6507002 74.9382714,96.6507002" id="Path-93" stroke="#000000" stroke-width="2"></path>
                    <path d="M86.1444517,94.1086451 C86.1444517,94.1086451 87.4609525,100.518094 95.5496769,98.8362546 C103.638401,97.1544152 102.125771,91.0257002 102.125771,91.0257002" id="Path-93" stroke="#000000" stroke-width="2"></path>
                    <path d="M46.6072258,79.0939381 C46.6072258,79.0939381 41.4681297,87.0044798 28.290303,82.9639633 C15.1124763,78.9234468 2.56790307,50.0270878 2.56790307,50.0270878" id="Path-94" stroke="#000000" stroke-width="2"></path>
                    <polyline id="Path-95" stroke="#000000" stroke-width="2" points="0.246400716 55.4494815 7.63264951 60.3027161 10.4207597 49.9450468"></polyline>
                    <polyline id="Path-96" stroke="#000000" stroke-width="2" fill="#000000" points="65.2471848 137.218665 63.1487312 185.353626 60.0786053 185.709991 60.3862588 180.491418 37.3125 187.125 63.1487312 170.410637"></polyline>
                    <polyline id="Path-96" stroke="#000000" stroke-width="2" fill="#000000" transform="translate(110.811281, 157.328294) scale(-1, 1) translate(-110.811281, -157.328294) " points="123.75 131.759097 121.814985 182.541126 118.744859 182.897491 119.052512 177.678918 97.8725611 182.897491 121.814985 168.535637"></polyline>
                </g>
                <g id="3" transform="translate(621.625000, 0.000000)" stroke="#000000">
                    <path d="M53.6539558,137.201368 L52.0608902,28.54734 C52.0608902,28.54734 53.5610099,16.9229531 60.8905289,13.3500731 C68.2200478,9.7771931 96.8868607,6.69627242 96.8868607,6.69627242 C96.8868607,6.69627242 99.6889985,6.75332435 103.552371,8.14417522 C107.415743,9.53502608 113.795919,12.8862581 116.646668,15.6730525 C118.999286,17.972892 121.734975,21.1539382 123.034712,24.6814133 C124.334448,28.2088883 124.567969,33.756375 124.567969,33.756375 L124.203012,137.411073 L53.6539558,137.201368 Z" id="Path-11" stroke-width="2"></path>
                    <path d="M101.686276,9.4998151 C94.9107165,14.3395689 91.1608421,14.8311781 88.5129279,17.0444566 C85.8650137,19.2577351 85.7548876,22.5708936 85.7548876,22.5708936 C85.7548876,22.5708936 84.5544497,19.2676657 84.4797551,18.1610066 C84.4050606,17.0543476 85.1891689,14.189325 85.1891689,14.189325 C85.1891689,14.189325 82.6130352,14.8509975 79.9507695,16.0884309 C77.2885037,17.3258644 75.8193744,18.4963103 74.641817,19.2956803 C71.939343,21.1302208 67.3729148,26.283665 67.3729148,26.283665 C67.3729148,26.283665 68.7074043,20.5092976 69.6849824,18.1610066 C70.6625604,15.8127157 73.1479055,12.4112596 73.1479055,12.4112596 C73.1479055,12.4112596 71.0099991,12.2224085 67.3729148,12.4112596 C63.7358305,12.6001108 59.7941072,13.073067 57.8307815,13.4831476 C53.5615689,14.3748597 44.2224644,18.4529278 44.2224644,18.4529278 C44.2224644,18.4529278 56.9725222,10.0511588 65.4026086,6.79032046 C73.832695,3.52948217 83.4111035,3.29438627 83.4111035,3.29438627 C83.4111035,3.29438627 89.727526,3.28784869 95.5455746,4.78441414 C99.2503224,5.73737926 98.99559,5.60733738 100.426031,6.02588827 C101.856472,6.44443915 103.840565,7.96101558 101.686276,9.4998151 Z" id="Path-12" fill="#000000"></path>
                    <ellipse id="Oval-2" stroke-width="2" cx="72.65625" cy="37.96875" rx="12.65625" ry="7.03125"></ellipse>
                    <ellipse id="Oval-2" stroke-width="2" cx="104.53125" cy="37.96875" rx="12.65625" ry="7.03125"></ellipse>
                    <path d="M85.78125,37.5 L91.40625,37.5" id="Line" stroke-width="2" stroke-linecap="square"></path>
                    <path d="M52.4092031,34.3290524 L59.53125,37.03125" id="Line" stroke-width="2" stroke-linecap="square"></path>
                    <path d="M124.21875,35.15625 L117.65625,37.03125" id="Line" stroke-width="2" stroke-linecap="square"></path>
                    <g id="Group-2" transform="translate(134.774243, 38.850235) scale(-1, 1) rotate(9.000000) translate(-134.774243, -38.850235) translate(118.836743, 8.381485)" stroke-width="2">
                        <path d="M4.88345886,3.61968535 L31.0692058,60.5206848" id="Line" stroke-linecap="square"></path>
                        <polyline id="Path-14" points="0.289992443 7.97900924 9.64042268 13.3647439 12.7110938 0.625965284"></polyline>
                    </g>
                    <g id="Group-2" transform="translate(37.633930, 45.736203) rotate(-1.000000) translate(-37.633930, -45.736203) translate(22.165180, 15.267453)" stroke-width="2">
                        <path d="M6.55389812,4.71624901 L30.0665517,60.3321885" id="Line" stroke-linecap="square"></path>
                        <polyline id="Path-14" points="0.51557316 6.5460864 8.89777858 10.2202834 16.7355622 0.624364946"></polyline>
                    </g>
                    <g id="Group" transform="translate(28.590022, 14.998236) rotate(-21.000000) translate(-28.590022, -14.998236) translate(-0.003728, 10.310736)">
                        <path d="M3.28125,0.46875 L3.28125,2.34375" id="Line" stroke-linecap="square"></path>
                        <use id="Rectangle-3" mask="url(#mask-6)" stroke-width="2" xlink:href="#path-5"></use>
                        <path d="M5.15625,0.46875 L5.15625,2.34375 M7.03125,0.46875 L7.03125,2.34375 M8.90625,0.46875 L8.90625,2.34375" id="Line" stroke-linecap="square"></path>
                        <path d="M10.78125,0.46875 L10.78125,4.21875 M20.15625,0.46875 L20.15625,4.21875 M12.65625,0.46875 L12.65625,2.34375 M14.53125,0.46875 L14.53125,2.34375 M16.40625,0.46875 L16.40625,2.34375 M18.28125,0.46875 L18.28125,2.34375" id="Line" stroke-linecap="square"></path>
                        <path d="M29.53125,0.46875 L29.53125,4.21875 M22.03125,0.46875 L22.03125,2.34375 M23.90625,0.46875 L23.90625,2.34375 M25.78125,0.46875 L25.78125,2.34375 M27.65625,0.46875 L27.65625,2.34375" id="Line" stroke-linecap="square"></path>
                        <path d="M38.90625,0.46875 L38.90625,4.21875 M31.40625,0.46875 L31.40625,2.34375 M33.28125,0.46875 L33.28125,2.34375 M35.15625,0.46875 L35.15625,2.34375 M37.03125,0.46875 L37.03125,2.34375" id="Line" stroke-linecap="square"></path>
                        <path d="M48.28125,0.46875 L48.28125,4.21875 M40.78125,0.46875 L40.78125,2.34375 M42.65625,0.46875 L42.65625,2.34375 M44.53125,0.46875 L44.53125,2.34375 M46.40625,0.46875 L46.40625,2.34375" id="Line" stroke-linecap="square"></path>
                        <path d="M50.15625,0.46875 L50.15625,2.34375 M52.03125,0.46875 L52.03125,2.34375 M53.90625,0.46875 L53.90625,2.34375 M55.78125,0.46875 L55.78125,2.34375" id="Line" stroke-linecap="square"></path>
                    </g>
                    <circle id="Oval-3" stroke-width="2" fill="#000000" cx="76.40625" cy="38.90625" r="3.28125"></circle>
                    <circle id="Oval-3" stroke-width="2" fill="#000000" cx="102.65625" cy="37.96875" r="3.28125"></circle>
                    <use id="Rectangle" mask="url(#mask-8)" stroke-width="4" fill="#000000" xlink:href="#path-7"></use>
                    <path d="M69.954021,56.8764633 C69.954021,56.8764633 73.2284769,66.7236087 75.5945274,71.218109 C77.9605779,75.7126093 81.2350339,78.3056406 81.2350339,78.3056406 C81.2350339,78.3056406 86.2061537,81.7241397 88.5577663,81.7059122 C89.6322755,81.6975836 91.5245083,81.291001 93.031331,80.4953827 C94.5381536,79.6997644 96.156698,78.1899821 96.156698,78.1899821 C96.156698,78.1899821 97.6426665,77.1260138 99.0857047,75.5704049 C100.528743,74.014796 101.001185,73.0658823 101.717366,71.9729098 C102.301483,71.0814805 103.39168,69.5023659 104.312344,67.7574188 C105.233008,66.0124718 107.882651,60.2948605 107.882651,60.2948605 C107.882651,60.2948605 104.176947,63.9762058 99.0857047,66.6336331 C93.9944623,69.2910605 91.7083256,69.5426777 88.9183358,69.2912241 C86.3820696,69.0626378 82.5348994,68.6084524 79.5920799,66.6336331 C76.6492604,64.6588139 69.954021,56.8764633 69.954021,56.8764633 Z" id="Path-13" stroke-width="2"></path>
                    <path d="M52.96875,94.6875 L124.21875,94.6875" id="Line" stroke-width="2" stroke-linecap="square"></path>
                    <path d="M53.90625,112.03125 L123.75377,111.210663" id="Line" stroke-width="2" stroke-linecap="square"></path>
                    <path d="M53.90625,119.53125 L123.949434,119.195794" id="Line" stroke-width="2" stroke-linecap="square"></path>
                    <path d="M53.90625,126.5625 L124.21875,126.5625" id="Line" stroke-width="2" stroke-linecap="square"></path>
                    <path d="M72.5632751,95.4408985 L79.5638311,105.713289 C79.5638311,105.713289 80.8062673,102.026218 82.1508396,100.577094 C83.495412,99.1279697 87.0868318,97.6053119 87.0868318,97.6053119 L90.0624925,100.595769 L93.2149658,104.229667 C93.2149658,104.229667 94.5833037,100.626504 95.6940563,98.9961441 C96.8048088,97.365784 99.338057,95.2422082 99.338057,95.2422082" id="Path-15" stroke-width="2" fill="#000000"></path>
                    <path d="M73.6600576,137.471112 L77.0571632,205.622598 C77.2656816,209.805819 77.4742001,213.98904 77.4742001,213.98904 L63.75,214.6875 L77.0571632,205.622598" id="Path-16" stroke-width="2" fill="#000000"></path>
                    <path d="M109.623358,137.471112 L113.020463,205.622598 C113.228982,209.805819 113.4375,213.98904 113.4375,213.98904 L98.7362935,214.6875 L113.020463,205.622598" id="Path-16-Copy" stroke-width="2" fill="#000000" transform="translate(106.086897, 176.079306) scale(-1, 1) translate(-106.086897, -176.079306) "></path>
                </g>
                <g id="4" transform="translate(1178.500000, 12.000000)" stroke="#000000" stroke-width="2">
                    <path d="M38.1568572,143.354377 L38.5027717,41.2727172 C38.5142494,37.8855685 38.1453794,34.9533843 38.1568572,31.5662357 C38.1683349,28.179087 38.5534073,26.3298232 38.5534073,26.3298232 C38.5534073,26.3298232 38.8521714,24.7310066 39.9699536,22.5154407 C40.6461619,21.1751221 41.6221071,19.6090912 43.0129715,18.0347739 C46.7029546,13.8580872 50.7557645,12.0369141 53.4522087,10.6400884 C59.9553267,7.2713104 75.3101405,7.2889145 75.3101405,7.2889145 C75.3101405,7.2889145 81.45806,7.04953979 88.0788391,8.40705595 C94.6996182,9.7645721 97.3401653,11.3941881 100.18337,13.1299034 C104.130724,15.5396777 108.70329,18.7909094 111.630843,23.154507 C113.937019,26.5919267 115.077838,31.5662357 115.077838,31.5662357 C115.077838,31.5662357 116.018696,37.2713126 116.301076,41.7855284 C116.583456,46.2997443 116.313799,51.5649874 116.301076,55.1436349 C116.27753,61.7663069 114.678037,144.017461 114.678037,144.017461 L38.1568572,143.354377 Z" id="Path-17"></path>
                    <path d="M115.102842,100.754655 L38.5708792,101.252533" id="Path-18"></path>
                    <path d="M101.311212,18.327986 C101.311212,18.327986 94.3652966,11.806303 88.8545114,9.85881817 C83.3437261,7.91133332 69.4659668,7.07403023 69.4659668,7.07403023 C69.4659668,7.07403023 72.4974047,4.75373448 77.0870963,3.35365325 C81.6767878,1.95357201 87.1828762,1.63620238 91.2645068,1.42437355 C99.6757868,0.987844173 113.063047,4.811425 113.063047,4.811425" id="Path-19"></path>
                    <ellipse id="Oval-4" fill="#000000" cx="95.625" cy="42.375" rx="3.75" ry="3.75"></ellipse>
                    <path d="M110.15625,51.28125 L130.704797,49.0564987" id="Line" stroke-linecap="square"></path>
                    <path d="M109.195807,14.2286842 C109.195807,14.2286842 104.209504,10.5834951 99.9713395,8.44506437 C95.7331747,6.30663362 93.729783,6.32746323 90.9441248,5.8364757 C84.869258,4.76574709 70.2536813,7.3649209 70.2536813,7.3649209" id="Path-20"></path>
                    <path d="M116.297961,66.0371135 C116.297961,66.0371135 103.86679,67.8821372 97.7013505,66.0371135 C91.5359107,64.1920899 82.0044609,55.7746957 82.0044609,55.7746957 C82.0044609,55.7746957 88.7601083,71.2507807 96.0484357,75.4799303 C103.336763,79.7090799 115.963581,75.4799303 115.963581,75.4799303" id="Path-21"></path>
                    <path d="M98.0948012,100.831657 C101.352109,119.32173 115.263175,120.33542 115.263175,120.33542" id="Path-23"></path>
                    <polygon id="Path-22" fill="#FFFFFF" points="47.1738646 119.123787 30.6132597 84.0261436 29.2246847 71.1029308 37.7628812 79.2635969 54.3869644 114.875632"></polygon>
                    <path d="M62.2011273,100.821109 C57.0166496,123.006243 38.1721544,120.247869 38.1721544,120.247869" id="Path-24"></path>
                    <path d="M30.8856733,84.082687 L37.96875,80.34375" id="Line" stroke-linecap="square"></path>
                    <path d="M42.4109832,119.618246 C42.4109832,119.618246 42.7167042,119.673211 42.975058,119.618246 C43.2334117,119.56328 44.6164686,119.143593 45.0606385,119.004227 C45.687098,118.807665 46.7529289,118.255886 46.7529289,118.255886 L34.4996446,92.6730017 L15.8727799,72.8398139 L14.6045661,71.5905655 C14.6045661,71.5905655 12.0037728,70.4193695 9.23002445,70.6595475 C6.45627607,70.8997255 4.44202479,72.2988118 3.31901517,73.0235007 C0.860418425,74.6100569 0.716775034,80.4513931 0.716775034,80.4513931 L38.8308382,120.330751 L40.4297039,120.148388 C40.4297039,120.148388 41.5883018,119.989612 42.1229523,119.846552 C42.6576028,119.703493 42.4109832,119.618246 42.4109832,119.618246 L9.72715541,83.250756 C9.72715541,83.250756 12.9452104,81.2434041 13.7842236,79.3551921 C14.6232369,77.4669801 14.6045661,72.2814094 14.6045661,72.2814094 C14.6045661,72.2814094 14.033042,72.5968748 13.1646294,73.9630408 C12.1224532,75.6025675 10.6526912,77.6147646 9.23002445,78.5328252 C6.62189427,80.2158767 0.716775034,80.4513931 0.716775034,80.4513931" id="Path-25" fill="#FFFFFF"></path>
                    <path d="M26.5385092,107.743419 C8.66478387,129.237862 13.2036029,145.310749 13.2036029,145.310749" id="Path-26"></path>
                    <polyline id="Path-27" transform="translate(13.115873, 140.271395) rotate(5.000000) translate(-13.115873, -140.271395) " points="7.27063058 144.165503 12.3181456 136.377287 18.961116 142.733266"></polyline>
                    <path d="M116.117052,94.4224398 C134.061375,83.0665235 141.242496,73.2838042 141.242496,73.2838042 L144.11981,57.0328422 L141.931783,53.9557457" id="Path-29"></path>
                    <path d="M154.21875,55.96875 L149.53125,62.53125" id="Line" stroke-linecap="square"></path>
                    <polyline id="Path-30" points="147.713687 70.591529 152.524691 73.7497181 154.873429 60.8331375"></polyline>
                    <path d="M152.550552,37.6875 C160.248649,37.6875 164.277919,27.1083262 161.471577,16.7343943 C158.665234,6.36046238 156.439231,0.120169306 156.578264,0.120169306 C156.682789,0.120169306 156.901727,4.86210452 153.657881,11.6296906 C150.414035,18.3972766 149.245133,16.3290278 147.996493,18.9038347 C142.965707,29.2777666 144.852456,37.6875 152.550552,37.6875 Z" id="Oval-5"></path>
                    <path d="M138.082671,90.7398124 C138.082671,90.7398124 137.14461,97.436166 138.082671,97.436166 C138.477515,97.436166 140.45375,97.1394858 141.408811,95.7654477 C142.363871,94.3914097 143.029924,90.7398124 143.029924,90.7398124 L155.101912,37.4149253 C155.101912,37.4149253 152.398469,38.1921661 151.105301,37.935252 C149.812132,37.6783378 147.977177,35.9994523 147.977177,35.9994523 L138.082671,90.7398124 Z" id="Path-28" fill="#FFFFFF"></path>
                    <polyline id="Path-31" fill="#000000" points="61.4816252 143.737756 54.5642297 188.264191 53.7659885 198.789303 39 200.25 53.7659885 188.264191"></polyline>
                    <polyline id="Path-32" fill="#000000" points="98.8489 143.996194 90.0328159 199.762615 107.8125 200.8125 92.283731 188.699785"></polyline>
                </g>
                <g id="5" transform="translate(783.812500, 24.375000)" stroke="#000000" stroke-width="2">
                    <path d="M84.84375,44.0625 L95.0039498,44.0625" id="Line" stroke-linecap="square"></path>
                    <path d="M21.0977011,141.006831 L20.4527219,26.9663218 C20.4527219,26.9663218 20.1944503,21.992524 22.4827893,16.8568907 C24.7711282,11.7212573 28.4245595,8.5141536 30.9426717,6.55910276 C33.4471176,4.61466241 38.3070822,2.48374776 43.046021,1.48678821 C47.7849597,0.489828651 54.7089198,0.36996576 54.7089198,0.36996576 C54.7089198,0.36996576 63.2915399,0.519517817 71.1102279,4.05909476 C78.928916,7.59867171 81.9539071,12.2211938 84.5834446,15.4813155 C90.7535813,23.1311005 89.9906156,44.1124954 89.9906156,44.1124954 L84.5644186,86.5869463 L82.9881198,101.223599 L98.9356594,128.57909 L21.0977011,141.006831 Z" id="Path"></path>
                    <path d="M21.1547789,86.25 L84.7223339,86.25" id="Path-2"></path>
                    <polyline id="Path-3" points="20.3899363 39.9248868 54.3978457 43.9079666 55.4585416 19.617554 86.8342128 21.2880312"></polyline>
                    <circle id="Oval" fill="#000000" cx="70.78125" cy="37.03125" r="3.28125"></circle>
                    <path d="M20.5420009,51.4144742 C20.5420009,51.4144742 26.5156868,56.6166443 29.2069893,58.5200399 C31.8982917,60.4234355 35.4890739,62.1035087 35.4890739,62.1035087 C35.4890739,62.1035087 37.332105,62.8774999 38.5106961,63.2078825 C39.6892871,63.5382652 40.3122978,63.7261463 42.4345497,64.0777047 C47.4809244,64.9136543 49.6711379,64.9136543 49.6711379,64.9136543 C49.6711379,64.9136543 51.0705883,65.0329805 52.5496678,64.9136543 C54.0287472,64.7943281 55.271209,64.4901616 55.3802647,64.0777047 C55.4991741,63.6279807 56.4705782,62.1035087 54.4254415,60.5447311 C53.4869585,59.8294311 52.164563,58.8152982 49.6711379,58.4936668 C48.537435,58.3474284 43.7563216,57.6507235 40.7837409,58.4936668 C39.5311647,58.8488635 38.7448389,59.088427 37.8483307,59.7758876 C37.475821,60.0615356 37.0055497,60.5116674 36.5830729,60.9402758 C35.9887874,61.5431866 35.4890739,62.1035087 35.4890739,62.1035087" id="Path-4"></path>
                    <path d="M20.8108616,61.1762713 C20.8108616,61.1762713 18.0263484,62.1474541 14.8628293,63.8789313 C11.6993103,65.6104085 10.8032103,66.5807983 9.71975887,67.4936916 C8.58645647,68.4485883 6.44288438,70.4733962 5.10658053,72.224732 C3.77027667,73.9760678 2.1210671,77.1067527 2.1210671,77.1067527 C2.1210671,77.1067527 1.06080794,79.1147918 0.935464004,81.3454376 C0.810120071,83.5760835 1.46017181,84.6951188 2.1210671,85.2820917 C2.90182852,85.9755235 5.06955479,86.3541577 7.09573503,86.1956586 C9.12191528,86.0371595 11.3259943,85.2820917 11.3259943,85.2820917 C11.3259943,85.2820917 17.8521622,83.2403167 22.5569796,80.1166178 C25.0806216,78.4410802 28.5949651,76.1876455 31.7385292,73.4892847 C34.8820933,70.7909239 37.0121246,68.2281377 37.0121246,68.2281377" id="Path-5"></path>
                    <path d="M30.5752881,63.1696023 C30.5752881,72.081212 31.6747027,73.720526 31.6747027,73.720526 C31.6747027,73.720526 36.2584186,73.5440148 38.3790765,73.0101566 C40.4997344,72.4762983 42.802422,70.9192139 42.802422,70.9192139" id="Path-6"></path>
                    <path d="M88.0981723,56.3561628 C88.0981723,56.3561628 85.3568946,54.8529283 83.9703695,55.1364241 C83.4457978,55.2436807 82.7333912,55.4348776 82.1312705,55.9071784 C81.5291499,56.3794792 80.3396624,57.8408677 80.3396624,57.8408677 C80.3396624,57.8408677 79.2817545,56.7815916 77.9478312,56.3561628 C76.6139078,55.9307341 75.6323989,56.2892708 74.9523535,56.3561628 C73.40353,56.5085115 68.01212,59.6159786 68.01212,59.6159786" id="Path-7"></path>
                    <path d="M68.4189049,59.9018109 C68.4189049,59.9018109 65.1401781,54.9944749 63.9002857,54.107505 C62.6603933,53.2205351 63.670455,54.2592753 64.8887763,55.9361614 C66.1070976,57.6130475 67.7787938,59.2963408 68.8908162,60.4067029 C69.7412793,61.2558962 71.0364264,62.2347653 72.2980965,63.1118414 C74.2610893,64.4764566 76.2790927,65.2782326 76.2790927,65.2782326 C76.2790927,65.2782326 77.4551755,65.7213253 78.7242344,65.9172224 C79.9932933,66.1131194 80.3903614,65.9815066 80.9491054,65.9172224 C81.6246305,65.8395023 82.6435369,65.6652519 83.5517782,65.2782326 C84.4600195,64.8912133 85.4622689,64.1884721 85.4622689,64.1884721 C85.4622689,64.1884721 86.1496323,63.7552943 86.6505716,63.1118414 C87.151511,62.4683886 87.3483471,61.7999474 87.4713018,61.1796964 C87.7332678,59.8581965 87.4713018,56.3678375 87.4713018,56.3678375" id="Path-8"></path>
                    <path d="M85.0372761,76.5137107 L121.334246,102.323785" id="Path-9"></path>
                    <polyline id="Path-10" points="121.530237 94.3185214 113.524973 96.6662721 114.935556 105.698418"></polyline>
                    <path d="M36.0092374,96.0984457 C36.0092374,96.0984457 36.7743767,98.434923 38.6608183,100.114859 C39.3776062,100.753181 40.1566068,101.325574 40.947766,101.688157 C41.7389251,102.05074 43.5179567,102.449192 44.2835789,102.447931 C44.9653201,102.446807 46.1316108,102.196807 47.2064557,101.688157 C48.2813005,101.179507 48.7763371,100.742544 49.353942,100.114859 C50.6851861,98.6681925 51.2188739,96.0733863 51.2188739,96.0733863" id="Path-11"></path>
                    <path d="M59.4467374,96.0984457 C59.4467374,96.0984457 60.2118767,98.434923 62.0983183,100.114859 C62.8151062,100.753181 63.5941068,101.325574 64.385266,101.688157 C65.1764251,102.05074 66.9554567,102.449192 67.7210789,102.447931 C68.4028201,102.446807 69.5691108,102.196807 70.6439557,101.688157 C71.7188005,101.179507 72.2138371,100.742544 72.791442,100.114859 C74.1226861,98.6681925 74.6563739,96.0733863 74.6563739,96.0733863" id="Path-11"></path>
                    <polyline id="Path-12" fill="#000000" points="41.8246326 138.142672 41.5644251 184.512541 39.6937644 184.926338 39.6937644 179.860121 22.5 185.625 41.5644251 169.953597"></polyline>
                    <polyline id="Path-12-Copy" fill="#000000" transform="translate(103.081902, 139.871021) scale(-1, 1) rotate(52.000000) translate(-103.081902, -139.871021) " points="112.15114 115.630345 111.890932 162.000214 110.020272 162.414011 110.020272 157.347794 94.0126649 164.111697 111.890932 147.44127"></polyline>
                </g>
                <g id="6" transform="translate(932.687500, 48.750000)">
                    <path d="M12.140625,77.8593737 C12.140625,77.8593737 17.1066172,79.6423423 25.03125,77.8593737 C32.9558828,76.0764051 39.2525736,71.8614693 41.015625,71.1562488 C45.3433038,69.4251773 52.875,68.0624988 52.875,68.0624988 C52.875,68.0624988 60.8704796,66.5575992 64.734375,60.843749 C68.5982704,55.1298988 67.3125,46.9675371 67.3125,44.3437492 C67.3125,44.3437492 65.8183905,20.6151187 65.765625,19.0781247 C65.4044251,8.55682493 56.8785881,3.0592437 54.421875,2.06249996 C50.5231332,0.480692795 41.4580931,0.428604962 40.5,0.515624991 C39.5381093,0.602989943 37.0158608,0.697483845 34.3125,1.03124998 C31.6091392,1.36501612 29.7951941,1.79477095 28.125,2.06249996 C22.767612,2.92127931 5.77631222,7.09008955 2.34375,15.4687497 C-0.409654835,22.1896311 -0.735026561,42.9090963 2.34375,57.749999 C5.42252656,72.5909017 10.59375,76.8281237 10.59375,76.8281237 L12.140625,77.8593737 Z" id="Path-33" stroke="#F13F38" stroke-width="3"></path>
                    <path d="M101.34375,104.156248 C101.34375,104.156248 104.24292,110.470203 88.453125,114.984373 C82.0006975,116.829068 71.953125,119.109373 63.703125,121.171873 C55.453125,123.234373 43.8821752,120.328904 42.046875,120.140623 C34.9008041,119.407515 18.7431943,114.72211 14.203125,111.374998 C9.66305574,108.027887 10.1025794,102.9167 10.59375,101.062498 C11.5615692,97.4089164 15.6127384,95.6275458 17.296875,94.8749984 C20.8512334,93.2867523 25.6020808,92.6928117 28.640625,91.7812484 C33.796875,90.2343735 35.9946721,89.6515083 42.5625,88.1718735 C55.0669854,85.3547973 70.5317367,86.6146779 77.109375,86.6249985 C83.5333942,86.6350781 92.391629,90.7181359 96.703125,94.8749984 C101.014621,99.0318609 101.34375,104.156248 101.34375,104.156248 Z" id="Path-34" stroke="#F13F38" stroke-width="3"></path>
                    <path d="M11.625,101.578123 C20.390625,102.609373 21.5375191,104.318853 27.09375,106.360566 C32.6499809,108.402279 41.4306634,110.395628 53.390625,111.890623 C55.9856516,112.215001 58.5489925,112.242043 61.0791086,112.068328 C69.1868403,111.511658 76.9533943,108.893465 84.328125,107.391816 C88.6636396,106.509015 92.8388563,106.595276 95.671875,105.703123 C98.5048937,104.81097 100.3125,101.578123 100.3125,101.578123" id="Path-35" stroke="#F13F38" stroke-width="3"></path>
                    <polygon id="Path-36" stroke="#F13F38" fill="#F13F38" points="44.625 70.6406238 45.140625 87.1406235 30.703125 91.2656234 29.671875 76.3124987"></polygon>
                    <path d="M53.1328125,122.203123 L53.1328125,131.999998" id="Line" stroke="#F13F38" stroke-width="2.5" stroke-linecap="square"></path>
                    <path d="M44.8828125,121.171873 L44.8828125,134.578123" id="Line" stroke="#F13F38" stroke-width="2.5" stroke-linecap="square"></path>
                    <path d="M27.09375,78.3749987 C24.515625,94.3593734 29.15625,92.2968734 29.15625,92.2968734" id="Path-37" stroke="#F13F38" stroke-width="2"></path>
                    <path d="M46.6875,137.671873 L44.109375,136.640623 C44.109375,136.640623 34.828125,136.640623 26.0625,141.281248 C17.296875,145.921873 16.265625,152.624997 16.265625,152.624997 C16.265625,152.624997 14.6978016,157.291437 15.234375,160.874997 C15.7709484,164.458557 17.9909326,165.5751 19.359375,166.031247 C22.453125,167.062497 24.8868229,165.48657 26.0625,164.999997 C28.6158642,163.943247 30.703125,157.265622 30.703125,157.265622 C30.703125,157.265622 30.703125,151.078122 35.859375,146.437497 C41.015625,141.796873 48.234375,138.703123 48.234375,138.703123 C48.234375,138.703123 51.162052,134.902393 55.453125,131.484373 C59.744198,128.066353 63.4004656,126.439253 66.28125,125.296873 C69.5458889,124.002275 77.1453954,124.560757 79.171875,128.906248 C81.1983546,133.251739 77.625,141.281248 77.625,141.281248 C77.625,141.281248 83.296875,142.312498 85.359375,149.015622 C87.421875,155.718747 84.84375,163.453122 75.5625,161.390622 C72.9690221,160.814294 76.7678713,158.2491 72.984375,153.656247 C71.9563497,152.408309 64.734375,148.499997 53.90625,144.374998 C43.078125,140.249998 46.6875,137.671873 46.6875,137.671873 Z" id="Path-38" stroke="#F13F38" stroke-width="2.5"></path>
                    <path d="M27.8671875,125.812498 C25.3123842,125.262233 22.4474882,124.931776 18.84375,124.781248 C14.6263071,124.605086 11.109375,126.843748 11.109375,126.843748 C11.109375,126.843748 5.953125,128.906248 6.984375,137.156248 C8.015625,145.406248 12.65625,143.859373 12.65625,143.859373 C12.65625,143.859373 15.75,144.374998 18.84375,139.218748 C19.9499709,137.375046 25.1495073,135.862081 29.671875,135.609373 C34.1942427,135.356664 45.140625,135.609373 45.140625,135.609373 C45.140625,135.609373 33.9001756,127.111911 27.8671875,125.812498 Z" id="Path-39" stroke="#F13F38" stroke-width="2.5"></path>
                    <path d="M77.625,141.281248 C77.625,141.281248 75.5625,140.249998 62.9296875,137.671873 C50.296875,135.093748 48.234375,139.0395 48.234375,139.0395" id="Path-40" stroke="#F13F38" stroke-width="2.5"></path>
                    <path d="M32.25,79.9218736 C32.25,79.9218736 33.796875,77.3437487 37.40625,77.3437487 C41.015625,77.3437487 42.5625,74.7656237 42.5625,74.7656237" id="Path-41" stroke="#FFFFFF"></path>
                    <path d="M32.25,83.0156236 C32.25,83.0156236 33.796875,80.4374986 37.40625,80.4374986 C41.015625,80.4374986 42.5625,77.8593737 42.5625,77.8593737" id="Path-41" stroke="#FFFFFF"></path>
                    <path d="M32.25,86.1093735 C32.25,86.1093735 33.796875,83.5312486 37.40625,83.5312486 C41.015625,83.5312486 42.5625,80.9531236 42.5625,80.9531236" id="Path-41" stroke="#FFFFFF"></path>
                </g>
                <g id="7" transform="translate(1038.812500, 24.375000)">
                    <g id="Group-6" stroke="#000000" stroke-width="2">
                        <path d="M44.0625,138.28125 L113.4375,138.28125 L110.15625,27.1875 C110.15625,27.1875 110.219632,24.1010994 108.75,21.09375 C107.280368,18.0864006 103.575641,14.0882143 98.90625,11.25 C90.1501507,5.92774626 78.0603803,7.27393325 72.65625,7.96875 C67.6541472,8.6118775 56.1539367,11.2175101 51.09375,16.875 C46.0335633,22.5324899 45.46875,33.28125 45.46875,33.28125 L44.0625,138.28125 Z" id="Path-42"></path>
                        <path d="M51.09375,42.1875 C57.1173538,39.1756981 76.8064415,19.3901462 79.6875,12.1875 C80.625,9.84375 81.09375,8.4375 81.5625,7.96875 C82.03125,7.5 83.4375,6.09375 80.15625,4.21875 C78.2265112,3.11604212 69.4701186,-0.484775483 63.75,0.46875 C60.4681545,1.01582314 59.0625,0.9375 55.78125,1.875 C49.3263631,3.7192534 41.25,12.3897457 41.25,20.15625 C41.25,23.7781957 40.3125,35.625 43.125,40.3125 C45.9375,45 48.28125,43.59375 51.09375,42.1875 Z" id="Oval-6"></path>
                        <path d="M82.5,7.5 C82.5,7.5 83.4375,16.40625 91.875,23.4375 C100.3125,30.46875 110.15625,30 110.15625,30" id="Path-43"></path>
                        <path d="M44.53125,86.25 L111.5625,84.375" id="Path-44"></path>
                        <path d="M45.2093301,74.650351 C45.2093301,74.650351 34.6875,86.71875 22.03125,94.6875 C9.375,102.65625 0,104.53125 0,104.53125" id="Path-45"></path>
                        <polyline id="Path-46" points="6.5625 108.75 10.3125 100.78125 0.46875 98.90625"></polyline>
                    </g>
                    <path d="M45,42.65625 C45,42.65625 39.84375,52.03125 33.6367538,53.90625 C27.4297576,55.78125 23.4375,54.375 22.5,47.8125 C21.5625,41.25 23.7072832,39.9762192 25.78125,38.4375 C27.8552168,36.8987808 32.8125,37.5 34.1782007,41.25 C35.5439014,45 30.7391758,47.5430797 32.8125,47.8125 M33.28125,32.34375 C33.28125,32.34375 37.03125,30.46875 37.03125,26.25 C37.03125,22.03125 31.40625,22.5 31.40625,22.5 C31.40625,22.5 26.71875,22.5 26.71875,28.125 C26.71875,33.75 28.125,37.96875 28.125,37.96875" id="Path-47" stroke="#000000" stroke-width="2"></path>
                    <g id="Group-5" transform="translate(57.187500, 34.687500)" stroke="#000000">
                        <path d="M2.8125,20.15625 C2.8125,20.15625 7.96875,30.9375 22.03125,30.9375 C36.09375,30.9375 38.4375,20.15625 38.4375,20.15625 C38.4375,20.15625 32.601852,24.733735 22.03125,24.609375 C11.460648,24.485015 2.8125,20.15625 2.8125,20.15625 Z" id="Path-48" stroke-width="2"></path>
                        <path d="M20.15625,7.03125 L20.15625,15.46875" id="Line" stroke-width="3" stroke-linecap="square"></path>
                        <circle id="Oval-7" fill="#000000" cx="32.8125" cy="2.8125" r="2.8125"></circle>
                        <circle id="Oval-7" fill="#000000" cx="8.4375" cy="2.8125" r="2.8125"></circle>
                        <path d="M0.46875,60 C0.46875,60 1.875,66.09375 8.203125,66.09375 C14.53125,66.09375 15.9375,60 15.9375,60" id="Path-49" stroke-width="2"></path>
                        <path d="M24.84375,60 C24.84375,60 26.25,66.09375 32.578125,66.09375 C38.90625,66.09375 40.3125,60 40.3125,60" id="Path-49" stroke-width="2"></path>
                        <path d="M37.6174736,77.2002414 C37.6174736,77.2002414 37.3203102,82.9672559 42.5994317,87.5183695 C47.8785532,92.0694831 56.0160635,90.504479 56.0160635,90.504479" id="Path-50" stroke-width="2"></path>
                    </g>
                    <g id="Group-3" transform="translate(31.875000, 94.687500)" stroke="#000000" stroke-width="1.5">
                        <path d="M0.730853301,9.71580948 L17.0756946,0.376873266 L29.544639,21.6815344 C29.544639,21.6815344 27.9464275,27.3599959 22.8588871,29.1472339 C17.7713466,30.934472 12.8345165,29.1472339 12.8345165,29.1472339 L0.730853301,9.71580948 Z" id="Path-51" fill="#FFFFFF"></path>
                        <path d="M5.87203646,17.71453 L22.076385,8.74257789" id="Path-52"></path>
                    </g>
                    <g id="Group-4" transform="translate(41.250000, 64.687500)">
                        <path d="M1.875,51.5625 C2.91053391,51.5625 3.75,50.7230339 3.75,49.6875 C3.75,48.6519661 2.91053391,47.8125 1.875,47.8125 C0.839466094,47.8125 0,48.6519661 0,49.6875 C0,50.7230339 0.839466094,51.5625 1.875,51.5625 Z" id="Oval-8" fill="#000000"></path>
                        <path d="M6.5625,48.75 C7.59803391,48.75 8.4375,47.9105339 8.4375,46.875 C8.4375,45.8394661 7.59803391,45 6.5625,45 C5.52696609,45 4.6875,45.8394661 4.6875,46.875 C4.6875,47.9105339 5.52696609,48.75 6.5625,48.75 Z" id="Oval-8" fill="#000000"></path>
                        <path d="M11.25,45.9375 C12.2855339,45.9375 13.125,45.0980339 13.125,44.0625 C13.125,43.0269661 12.2855339,42.1875 11.25,42.1875 C10.2144661,42.1875 9.375,43.0269661 9.375,44.0625 C9.375,45.0980339 10.2144661,45.9375 11.25,45.9375 Z" id="Oval-8" fill="#000000"></path>
                        <path d="M4.6875,56.25 C5.72303391,56.25 6.5625,55.4105339 6.5625,54.375 C6.5625,53.3394661 5.72303391,52.5 4.6875,52.5 C3.65196609,52.5 2.8125,53.3394661 2.8125,54.375 C2.8125,55.4105339 3.65196609,56.25 4.6875,56.25 Z" id="Oval-8" fill="#000000"></path>
                        <path d="M9.375,53.4375 C10.4105339,53.4375 11.25,52.5980339 11.25,51.5625 C11.25,50.5269661 10.4105339,49.6875 9.375,49.6875 C8.33946609,49.6875 7.5,50.5269661 7.5,51.5625 C7.5,52.5980339 8.33946609,53.4375 9.375,53.4375 Z" id="Oval-8" fill="#000000"></path>
                        <path d="M14.0625,50.625 C15.0980339,50.625 15.9375,49.7855339 15.9375,48.75 C15.9375,47.7144661 15.0980339,46.875 14.0625,46.875 C13.0269661,46.875 12.1875,47.7144661 12.1875,48.75 C12.1875,49.7855339 13.0269661,50.625 14.0625,50.625 Z" id="Oval-8" fill="#000000"></path>
                        <path d="M8.4375,60.9375 C9.47303391,60.9375 10.3125,60.0980339 10.3125,59.0625 C10.3125,58.0269661 9.47303391,57.1875 8.4375,57.1875 C7.40196609,57.1875 6.5625,58.0269661 6.5625,59.0625 C6.5625,60.0980339 7.40196609,60.9375 8.4375,60.9375 Z" id="Oval-8" fill="#000000"></path>
                        <path d="M13.125,58.125 C14.1605339,58.125 15,57.2855339 15,56.25 C15,55.2144661 14.1605339,54.375 13.125,54.375 C12.0894661,54.375 11.25,55.2144661 11.25,56.25 C11.25,57.2855339 12.0894661,58.125 13.125,58.125 Z" id="Oval-8" fill="#000000"></path>
                        <path d="M17.8125,55.3125 C18.8480339,55.3125 19.6875,54.4730339 19.6875,53.4375 C19.6875,52.4019661 18.8480339,51.5625 17.8125,51.5625 C16.7769661,51.5625 15.9375,52.4019661 15.9375,53.4375 C15.9375,54.4730339 16.7769661,55.3125 17.8125,55.3125 Z" id="Oval-8" fill="#000000"></path>
                        <path d="M2.92997363,47.2002414 C2.92997363,47.2002414 2.63281018,52.9672559 7.91193167,57.5183695 C13.1910532,62.0694831 21.3285635,60.504479 21.3285635,60.504479" id="Path-50" stroke="#000000" stroke-width="2" transform="translate(12.127747, 53.982296) scale(-1, 1) translate(-12.127747, -53.982296) "></path>
                        <path d="M70.2710564,0.416155844 C70.2710564,0.416155844 89.1592422,15.952951 89.1592422,22.0835437 C89.1592422,28.2141364 72.9625569,39.8103228 72.9625569,39.8103228 L74.8919906,55.5097489" id="Path-53" stroke="#000000" stroke-width="2"></path>
                        <polyline id="Path-54" stroke="#000000" stroke-width="2" points="82.9094436 44.7463316 75.0656908 47.0495612 79.1689305 51.1374745"></polyline>
                        <path d="M54.343436,74.2199773 L69.3514675,110.491799 L71.3098513,110.331723 L70.0334959,106.630377 L86.8611214,105.523465 C86.8611214,105.523465 69.0755908,99.8339342 64.6837023,98.8607026" id="Path-55" stroke="#000000" stroke-width="2" fill="#000000"></path>
                        <polyline id="Path-56" stroke="#000000" stroke-width="2" fill="#000000" points="24.7565144 74.2131655 29.101572 123.012683 26.8204806 123.293669 25.7944578 118.71616 11.5782945 121.692052 27.8167019 108.865489"></polyline>
                    </g>
                </g>
                <g id="8" transform="translate(1341.625000, 0.937500)">
                    <path d="M28.2218933,138.042651 L25.1982152,43.3680128 C25.1982152,43.3680128 25.3342627,25.4169517 36.0766087,19.5254646 C46.8189546,13.6339776 59.3497395,13.6339776 59.3497395,13.6339776 C59.3497395,13.6339776 73.8879005,12.7789506 85.1365954,18.4118574 C96.3852903,24.0447641 97.9800192,38.7748332 97.9800192,38.7748332 L97.405196,137.708389 L28.2218933,138.042651 Z" id="Path-57" stroke="#000000" stroke-width="2"></path>
                    <path d="M26.8956555,97.2455223 L97.6511627,95.8652259" id="Path-58" stroke="#000000" stroke-width="2"></path>
                    <path d="M42.2906454,62.8119923 C42.2906454,62.8119923 48.3343976,71.9442928 61.1413318,71.9442928 C73.948266,71.9442928 79.9920181,62.8038835 79.9920181,62.8038835" id="Path-59" stroke="#000000" stroke-width="2.5"></path>
                    <path d="M61.171875,47.8125 L61.171875,61.40625" id="Line" stroke="#000000" stroke-width="2.5" stroke-linecap="square"></path>
                    <path d="M32.5420768,42.426492 C32.5420768,42.426492 32.5420768,48.9910087 45.2368394,48.9910087 C57.931602,48.9910087 57.931602,42.0084388 57.931602,42.0084388 C57.931602,42.0084388 57.931602,38.9487217 53.007764,38.9487217 C48.083926,38.9487217 45.1143066,38.9487217 45.1143066,38.9487217 C45.1143066,38.9487217 41.5392308,38.9487217 36.1495878,38.9487217 C30.7599448,38.9487217 32.5420768,42.426492 32.5420768,42.426492 Z" id="Path-60" fill="#000000"></path>
                    <path d="M65.3545768,42.426492 C65.3545768,42.426492 65.3545768,48.9910087 78.0493394,48.9910087 C90.744102,48.9910087 90.744102,42.0084388 90.744102,42.0084388 C90.744102,42.0084388 90.744102,38.9487217 85.820264,38.9487217 C80.896426,38.9487217 77.9268066,38.9487217 77.9268066,38.9487217 C77.9268066,38.9487217 74.3517308,38.9487217 68.9620878,38.9487217 C63.5724448,38.9487217 65.3545768,42.426492 65.3545768,42.426492 Z" id="Path-60" fill="#000000"></path>
                    <path d="M57.65625,41.25 L66.09375,41.25" id="Line" stroke="#000000" stroke-width="2" stroke-linecap="square"></path>
                    <path d="M25.8108794,37.6873543 C25.8108794,37.6873543 28.8042728,41.0907765 30.5536211,42.465234 C32.3029694,43.8396915 33.3799852,42.465234 33.3799852,42.465234" id="Path-61" stroke="#000000" stroke-width="2"></path>
                    <path d="M89.5608794,37.3648046 C89.5608794,37.3648046 93.0177878,41.0907765 94.7671361,42.465234 C96.5164844,43.8396915 97.5935002,42.465234 97.5935002,42.465234" id="Path-61" stroke="#000000" stroke-width="2" transform="translate(93.577190, 40.220454) scale(-1, 1) translate(-93.577190, -40.220454) "></path>
                    <path d="M59.5344397,13.5979385 C59.5344397,13.5979385 61.1489901,2.5087165 53.4447378,0.640090696 C45.7404855,-1.22853511 40.3337239,6.61626957 40.3337239,6.61626957 C40.3337239,6.61626957 22.4051873,4.60438846 20.6798168,16.8198314 C18.9544463,29.0352744 35.3017687,28.4072936 35.3017687,28.4072936 C35.3017687,28.4072936 45.8251773,28.4072936 61.6994869,20.9571167 C77.5737965,13.5069399 88.6936517,6.25587887 88.6936517,6.25587887" id="Path-62" stroke="#000000" stroke-width="2"></path>
                    <use id="Rectangle-4" stroke="#000000" mask="url(#mask-10)" stroke-width="4" xlink:href="#path-9"></use>
                    <circle id="Oval-9" stroke="#000000" cx="63.75" cy="118.125" r="2.8125"></circle>
                    <polyline id="Path-63" stroke="#000000" stroke-width="2" points="41.184246 97.2338096 61.5084798 112.160292 78.7081262 96.3715748"></polyline>
                    <polyline id="Path-64" stroke="#000000" stroke-width="2" points="26.602838 84.2597442 9.03212498 47.6492588 4.22077324 37.6242859"></polyline>
                    <polyline id="Path-65" stroke="#000000" stroke-width="2" points="0.210525665 42.5643415 8.11028993 45.7799275 9.4491414 36.2367817"></polyline>
                    <path d="M97.5772826,83.4470631 L117.346515,44.3789087" id="Path-66" stroke="#000000" stroke-width="2"></path>
                    <polyline id="Path-67" stroke="#000000" stroke-width="2" points="109.863903 43.1797086 112.271313 53.8328579 120.726079 50.1532688"></polyline>
                    <path d="M51.1652666,138.103918 L42.0122436,199.459534 L41.7806926,209.634265 L26.25,210.9375 C26.25,210.9375 38.3389613,203.021996 40.059827,201.240765 C41.7806926,199.459534 51.1652666,138.103918 51.1652666,138.103918 Z" id="Path-68" stroke="#000000" stroke-width="2" fill="#000000"></path>
                    <polyline id="Path-69" stroke="#000000" stroke-width="2" fill="#000000" points="75.4339767 137.816506 74.6393152 210.273958 90 211.875 74.6393152 201.584938"></polyline>
                </g>
                <g id="9" transform="translate(1462.562500, 20.625000)">
                    <path d="M20.0527128,139.786144 L29.2811048,35.3564863 C29.2811048,35.3564863 28.4266241,17.9802504 60.0383746,17.9802504 C91.650125,17.9802504 93.595919,37.9791367 93.595919,37.9791367 L85.4884442,143.357469 L20.0527128,139.786144 Z" id="Path-70" stroke="#000000" stroke-width="2"></path>
                    <circle id="Oval-10" fill="#000000" cx="50.15625" cy="45.46875" r="3.28125"></circle>
                    <circle id="Oval-10" fill="#000000" cx="71.71875" cy="47.34375" r="3.28125"></circle>
                    <path d="M93.4909591,41.8195903 C93.4909591,41.8195903 83.9517245,41.8195903 76.1483642,37.3897468 C68.3450039,32.9599033 59.6212265,19.0581072 59.6212265,19.0581072 C59.6212265,19.0581072 50.1963712,33.2613265 42.0714031,37.3897468 C33.9464351,41.5181671 29.224588,38.8887886 29.224588,38.8887886" id="Path-71" stroke="#000000" stroke-width="2"></path>
                    <path d="M45.541806,19.4658358 C45.541806,19.4658358 40.2534449,10.2083779 44.1073549,4.91813301 C47.9612649,-0.372111907 59.3825454,0.204359725 59.3825454,0.204359725 C59.3825454,0.204359725 69.2560014,-0.372111907 74.3855772,4.91813301 C79.5151529,10.2083779 71.251584,18.872409 71.251584,18.872409" id="Path-72" stroke="#000000" stroke-width="2"></path>
                    <path d="M60.234375,50.625 L60.234375,59.53125" id="Line" stroke="#000000" stroke-width="2.5" stroke-linecap="square"></path>
                    <path d="M42.7051991,61.8628826 C42.7051991,61.8628826 46.8834081,74.6585635 57.7709729,76.0526455 C63.2812867,76.7582053 68.0219236,73.9093955 71.3605107,70.9232976 C74.6184778,68.0093078 76.5412908,64.9645804 76.5412908,64.9645804" id="Path-73" stroke="#000000" stroke-width="2"></path>
                    <path d="M46.7959415,68.5708928 C46.7959415,68.5708928 51.7425104,66.6547029 59.183221,66.6547029 C66.6239316,66.6547029 71.5705005,70.1641294 71.5705005,70.1641294" id="Path-74" stroke="#000000" stroke-width="2"></path>
                    <path d="M36.6390586,103.317982 C36.6390586,103.317982 38.4005,110.665171 44.6543571,110.665171 C50.9082142,110.665171 52.6696556,104.654202 52.6696556,104.654202" id="Path-75" stroke="#000000" stroke-width="2"></path>
                    <path d="M61.0140586,105.192982 C61.0140586,105.192982 62.7755,112.540171 69.0293571,112.540171 C75.2832142,112.540171 77.0446556,106.529202 77.0446556,106.529202" id="Path-75" stroke="#000000" stroke-width="2"></path>
                    <path d="M25.2226577,84.4050265 L2.95098723,47.5412471" id="Path-76" stroke="#000000" stroke-width="2"></path>
                    <polyline id="Path-77" stroke="#000000" stroke-width="2" points="0.374088621 52.4380273 7.16552846 54.8386472 7.57056579 45.6089096"></polyline>
                    <path d="M89.2293206,87.8794663 L123.173063,58.4637986" id="Path-78" stroke="#000000" stroke-width="2"></path>
                    <path d="M25.3834444,90.5280489 L88.60092,95.3940626 L25.3834444,90.5280489 Z" id="Path-84" stroke="#000000" stroke-width="2"></path>
                    <polyline id="Path-79" stroke="#000000" stroke-width="2" points="120.627114 51.5256841 119.329918 61.2936773 127.736125 62.9205548"></polyline>
                    <g id="Group-7" transform="translate(119.062500, 25.312500)">
                        <path d="M0.417194772,11.4932395 C0.417194772,11.4932395 4.64218097,18.0798897 2.99078622,21.1795926 C1.33939146,24.2792955 6.06604353,48.8557802 6.06604353,48.8557802 C6.06604353,48.8557802 6.79339435,52.0385982 10.7836695,51.6038425 C14.7739447,51.1690868 14.6449471,48.2077836 14.6449471,48.2077836 C14.6449471,48.2077836 14.6449471,23.2796582 11.8521306,20.7136217 C9.05931405,18.1475852 12.6964442,10.2193108 12.6964442,10.2193108 L5.40525998,0.15749911 L0.417194772,11.4932395 Z" id="Path-80" stroke="#000000" fill="#FFFFFF"></path>
                        <path d="M2.98326449,29.579103 C2.98326449,29.579103 4.87084141,32.6445821 8.98710549,32.2323916 C13.1033696,31.820201 13.8672008,28.5681832 13.8672008,28.5681832" id="Path-81" stroke="#000000"></path>
                        <path d="M2.62748689,23.7369791 C2.62748689,23.7369791 4.94681084,25.3112762 8.27743072,24.9148813 C11.6080506,24.5184864 12.8600418,22.7493766 12.8600418,22.7493766" id="Path-82" stroke="#000000"></path>
                        <path d="M3.02726658,21.2390142 C3.02726658,21.2390142 5.24805593,22.1201843 7.80544247,22.1201843 C10.362829,22.1201843 11.5527659,20.392444 11.5527659,20.392444" id="Path-83" stroke="#000000"></path>
                        <path d="M5.82196355,3.95709856 L6.75954659,12.927884" id="Line" stroke="#000000" stroke-linecap="square"></path>
                        <circle id="Oval-11" fill="#000000" cx="7.03125" cy="13.59375" r="1.40625"></circle>
                    </g>
                    <polyline id="Path-85" stroke="#000000" stroke-width="2" fill="#000000" points="36.4508028 141.260116 36.9615635 194.266315 34.2712067 194.458015 33.9626495 189.668155 18.75 192.1875 36.4508028 179.635449"></polyline>
                    <polyline id="Path-85" stroke="#000000" stroke-width="2" fill="#000000" transform="translate(75.099021, 167.223949) scale(-1, 1) rotate(8.000000) translate(-75.099021, -167.223949) " points="84.0622815 140.625 84.5730422 193.6312 81.8826855 193.822899 81.5741282 189.03304 65.625 192.154064 84.0622815 179.000333"></polyline>
                </g>
            </g>
            <g id="Green" transform="translate(536.000000, 447.000000)">
                <g id="Red" transform="translate(151.000000, 120.500000) rotate(-10.000000) translate(-151.000000, -120.500000) translate(15.000000, 23.000000)">
                    <path d="M132.5,176.915323 C207.058441,176.915323 272,137.390505 272,90.8165323 C272,44.2425597 207.058441,8.25604839 132.5,8.25604839 C57.9415588,8.25604839 0.5,41.8836888 0.5,88.4576613 C0.5,100.765093 -1,122.66129 24.5,140.352823 C50,158.044355 12.5,194.606855 12.5,194.606855 C12.5,194.606855 38,194.606855 56,187.530242 C74,180.453629 81.5,168.659274 81.5,168.659274 C81.5,168.659274 81.7898905,170.540446 96.5,173.377016 C111.21011,176.213586 125.377218,176.915323 132.5,176.915323 Z" id="Oval" fill="#79B234"></path>
                    <path d="M137,168.659274 C211.558441,168.659274 272,130.90361 272,84.3296371 C272,37.7556646 211.558441,-5.68434189e-14 137,-5.68434189e-14 C62.4415588,-5.68434189e-14 2,37.7556646 2,84.3296371 C2,96.6370686 6.5,117.943548 32,135.635081 C57.5,153.326613 29,187.530242 29,187.530242 C29,187.530242 48.5,183.991935 59,176.915323 C69.5,169.83871 75.5,158.044355 75.5,158.044355 C75.5,158.044355 86.2898905,162.284397 101,165.120968 C115.71011,167.957538 129.877218,168.659274 137,168.659274 Z" id="Oval" fill="#D0E147"></path>
                </g>
                <path d="M57.5625,102.621094 L57.5625,115.082031 L73.7929688,115.082031 L73.7929688,102.621094 L77.2304688,102.621094 L77.2304688,131 L73.7929688,131 L73.7929688,118.539062 L57.5625,118.539062 L57.5625,131 L54.125,131 L54.125,102.621094 L57.5625,102.621094 Z M101.996094,112.757812 C103.727873,114.437508 104.59375,117.152325 104.59375,120.902344 C104.59375,124.665383 103.727873,127.38671 101.996094,129.066406 C100.329419,130.667977 97.6797057,131.46875 94.046875,131.46875 C90.4140443,131.46875 87.7643312,130.667977 86.0976562,129.066406 C84.3528559,127.38671 83.4804688,124.665383 83.4804688,120.902344 C83.4804688,117.269513 84.281242,114.6198 85.8828125,112.953125 C87.5625084,111.208325 90.2838354,110.335938 94.046875,110.335938 C97.6797057,110.335938 100.329419,111.143221 101.996094,112.757812 Z M94.046875,113.792969 C91.2473818,113.792969 89.3528695,114.307287 88.3632812,115.335938 C87.3997348,116.338547 86.9179688,118.193997 86.9179688,120.902344 C86.9179688,123.688816 87.4387969,125.583328 88.4804688,126.585938 C89.470057,127.536463 91.3255072,128.011719 94.046875,128.011719 C96.7552219,128.011719 98.6106721,127.536463 99.6132812,126.585938 C100.641932,125.583328 101.15625,123.688816 101.15625,120.902344 C101.15625,118.115871 100.641932,116.22787 99.6132812,115.238281 C98.6106721,114.274735 96.7552219,113.792969 94.046875,113.792969 Z M122.035156,131 C121.540362,131.052084 120.869796,131.078125 120.023437,131.078125 C118.161449,131.078125 116.761723,130.869794 115.824219,130.453125 C113.858063,129.476558 112.816407,127.145852 112.699219,123.460938 L112.699219,114.164062 L110.257812,114.164062 L110.257812,110.726562 L112.699219,110.726562 L112.699219,102.621094 L116.136719,102.621094 L116.136719,110.726562 L120.628906,110.726562 L120.628906,114.164062 L116.136719,114.164062 L116.136719,123.871094 C116.188802,126.761733 117.640611,128.207031 120.492187,128.207031 L120.902344,128.207031 C121.358075,128.207031 121.735676,128.174479 122.035156,128.109375 L122.035156,131 Z M154.964844,102.621094 L154.964844,123.011719 C154.964844,126.045588 154.053395,128.246087 152.230469,129.613281 C150.628898,130.824225 148.089861,131.442708 144.613281,131.46875 L144.59375,131.46875 C141.11717,131.442708 138.578133,130.824225 136.976562,129.613281 C135.166658,128.246087 134.261719,126.045588 134.261719,123.011719 L137.699219,123.011719 C137.699219,124.899749 138.148433,126.182288 139.046875,126.859375 C140.049484,127.614587 141.904934,128.005208 144.613281,128.03125 C147.308607,128.005208 149.157547,127.614587 150.160156,126.859375 C151.058598,126.182288 151.507812,124.899749 151.507812,123.011719 L151.507812,102.621094 L154.964844,102.621094 Z M179.730469,112.757812 C181.462248,114.437508 182.328125,117.152325 182.328125,120.902344 C182.328125,124.665383 181.462248,127.38671 179.730469,129.066406 C178.063794,130.667977 175.414081,131.46875 171.78125,131.46875 C168.148419,131.46875 165.498706,130.667977 163.832031,129.066406 C162.087231,127.38671 161.214844,124.665383 161.214844,120.902344 C161.214844,117.269513 162.015617,114.6198 163.617188,112.953125 C165.296883,111.208325 168.01821,110.335938 171.78125,110.335938 C175.414081,110.335938 178.063794,111.143221 179.730469,112.757812 Z M171.78125,113.792969 C168.981757,113.792969 167.087245,114.307287 166.097656,115.335938 C165.13411,116.338547 164.652344,118.193997 164.652344,120.902344 C164.652344,123.688816 165.173172,125.583328 166.214844,126.585938 C167.204432,127.536463 169.059882,128.011719 171.78125,128.011719 C174.489597,128.011719 176.345047,127.536463 177.347656,126.585938 C178.376307,125.583328 178.890625,123.688816 178.890625,120.902344 C178.890625,118.115871 178.376307,116.22787 177.347656,115.238281 C176.345047,114.274735 174.489597,113.792969 171.78125,113.792969 Z M193.578125,115.199219 C192.562495,116.175786 192.041667,118.018216 192.015625,120.726562 L192.015625,121 C192.041667,123.708347 192.562495,125.557287 193.578125,126.546875 C194.567713,127.497401 196.423163,127.972656 199.144531,127.972656 C201.852878,127.972656 203.708328,127.497401 204.710938,126.546875 C205.739588,125.544266 206.253906,123.649754 206.253906,120.863281 C206.253906,118.154934 205.77214,116.299484 204.808594,115.296875 C203.819005,114.268224 201.931004,113.753906 199.144531,113.753906 C196.423163,113.753906 194.567713,114.235672 193.578125,115.199219 Z M192.015625,102.621094 L192.015625,113.109375 C193.187506,111.234366 195.563784,110.296875 199.144531,110.296875 C202.89455,110.296875 205.609367,111.169262 207.289062,112.914062 C208.890633,114.580737 209.691406,117.230451 209.691406,120.863281 C209.691406,124.626321 208.825529,127.347648 207.09375,129.027344 C205.427075,130.628914 202.777362,131.429688 199.144531,131.429688 C195.563784,131.429688 193.122402,130.427093 191.820312,128.421875 L191.820312,131 L188.578125,131 L188.578125,102.621094 L192.015625,102.621094 Z M218.695312,125.316406 C218.695312,126.24089 219.066403,126.878904 219.808594,127.230469 C220.902349,127.751305 222.907537,128.011719 225.824219,128.011719 C228.7409,128.011719 230.739578,127.751305 231.820312,127.230469 C232.562504,126.878904 232.933594,126.24089 232.933594,125.316406 C232.933594,124.196609 232.184903,123.441408 230.6875,123.050781 C229.802079,122.816405 228.167981,122.673177 225.785156,122.621094 C222.269514,122.542968 219.854173,122.243492 218.539062,121.722656 C216.351552,120.850256 215.257812,119.105482 215.257812,116.488281 C215.257812,114.209624 216.208324,112.575526 218.109375,111.585938 C219.697925,110.7526 222.269513,110.335938 225.824219,110.335938 C229.248715,110.335938 231.74869,110.720048 233.324219,111.488281 C235.355479,112.464849 236.371094,114.131499 236.371094,116.488281 L232.933594,116.488281 C232.933594,115.563797 232.562504,114.925783 231.820312,114.574219 C230.739578,114.053383 228.7409,113.792969 225.824219,113.792969 C222.816391,113.792969 220.772141,114.072914 219.691406,114.632812 C219.02734,114.971356 218.695312,115.589839 218.695312,116.488281 C218.695312,117.608079 219.444003,118.363279 220.941406,118.753906 C221.839848,118.988282 223.480457,119.13151 225.863281,119.183594 C229.365903,119.27474 231.774733,119.580727 233.089844,120.101562 C235.277355,120.960942 236.371094,122.699206 236.371094,125.316406 C236.371094,127.673189 235.355479,129.346349 233.324219,130.335938 C231.74869,131.09115 229.248715,131.46875 225.824219,131.46875 C222.386702,131.46875 219.886727,131.09115 218.324219,130.335938 C216.279938,129.346349 215.257812,127.673189 215.257812,125.316406 L218.695312,125.316406 Z M243.414062,122.894531 L242.632812,111.78125 L242.632812,102.621094 L246.070312,102.621094 L246.070312,111.78125 L245.289062,122.894531 L243.414062,122.894531 Z M242.632812,131 L242.632812,127.5625 L246.070312,127.5625 L246.070312,131 L242.632812,131 Z" id="Hot-Jobs!" fill="#000000"></path>
            </g>
            <g id="Blue" transform="translate(974.000000, 428.000000)">
                <g id="Red" transform="translate(136.000000, 124.000000) scale(-1, 1) translate(-136.000000, -124.000000) ">
                    <path d="M132.5,225 C207.058441,225 272,174.732539 272,115.5 C272,56.2674606 207.058441,10.5 132.5,10.5 C57.9415588,10.5 0.5,53.2674606 0.5,112.5 C0.5,128.152528 -1,156 24.5,178.5 C50,201 12.5,247.5 12.5,247.5 C12.5,247.5 38,247.5 56,238.5 C74,229.5 81.5,214.5 81.5,214.5 C81.5,214.5 81.7898905,216.892464 96.5,220.5 C111.21011,224.107536 125.377218,225 132.5,225 Z" id="Oval" fill="#00789D"></path>
                    <path d="M137,214.5 C211.558441,214.5 272,166.482539 272,107.25 C272,48.0174606 211.558441,0 137,0 C62.4415588,0 2,48.0174606 2,107.25 C2,122.902528 6.5,150 32,172.5 C57.5,195 29,238.5 29,238.5 C29,238.5 48.5,234 59,225 C69.5,216 75.5,201 75.5,201 C75.5,201 86.2898905,206.392464 101,210 C115.71011,213.607536 129.877218,214.5 137,214.5 Z" id="Oval" fill="#00C0E7"></path>
                </g>
                <path d="M58.6660156,74.6210938 L67.2207031,98 L75.7753906,74.6210938 L79.4472656,74.6210938 L88.0019531,98 L96.5761719,74.6210938 L100.248047,74.6210938 L89.8378906,103 L86.1660156,103 L77.6113281,79.6210938 L69.0566406,103 L65.3847656,103 L55.0136719,74.6210938 L58.6660156,74.6210938 Z M121.224609,102.335938 C119.701164,103.09115 117.533217,103.46875 114.720703,103.46875 C110.827454,103.46875 108.047534,102.667977 106.380859,101.066406 C104.636059,99.3867104 103.763672,96.6653834 103.763672,92.9023438 C103.763672,89.2695131 104.564445,86.6198 106.166016,84.953125 C107.845712,83.2083246 110.632142,82.3359375 114.525391,82.3359375 C118.28843,82.3359375 121.003247,83.1432211 122.669922,84.7578125 C124.401701,86.4375084 125.267578,89.152325 125.267578,92.9023438 L125.267578,94.4257812 L107.220703,94.4257812 C107.298829,96.2747488 107.813146,97.6614537 108.763672,98.5859375 C109.75326,99.5364631 111.738917,100.011719 114.720703,100.011719 C116.99936,100.011719 118.6595,99.757815 119.701172,99.25 C120.625656,98.7942686 121.283201,98.0260471 121.673828,96.9453125 L124.916016,98.1171875 C124.212887,100.057301 122.982431,101.463537 121.224609,102.335938 Z M107.240234,91.3789062 L121.830078,91.3789062 C121.608723,89.3997297 121.094405,88.0195352 120.287109,87.2382812 C119.2845,86.2747348 117.363946,85.7929688 114.525391,85.7929688 C111.595688,85.7929688 109.636073,86.3072865 108.646484,87.3359375 C107.891272,88.1302123 107.422527,89.4778551 107.240234,91.3789062 Z M159.505859,100.753906 C158.229811,102.537769 155.79494,103.429688 152.201172,103.429688 C148.737613,103.429688 146.211596,103.000004 144.623047,102.140625 C142.630849,101.072911 141.634766,99.2825646 141.634766,96.7695312 C141.634766,93.8919127 142.910795,92.0169314 145.462891,91.1445312 C147.077482,90.7148416 149.81834,90.5 153.685547,90.5 C156.550145,90.5 158.425126,90.4023447 159.310547,90.2070312 L159.310547,89.1132812 C159.297526,87.9153586 158.900395,87.0950543 158.119141,86.6523438 C157.051427,86.0533824 155.07879,85.7539062 152.201172,85.7539062 C149.922515,85.7539062 148.255865,85.9752582 147.201172,86.4179688 C146.380855,86.7565121 145.775393,87.3554645 145.384766,88.2148438 L142.240234,86.8085938 C143.008467,85.1288979 144.219393,83.9440139 145.873047,83.2539062 C147.37045,82.6158822 149.479804,82.296875 152.201172,82.296875 C155.664731,82.296875 158.197258,82.7460893 159.798828,83.6445312 C161.621754,84.6731822 162.598307,86.3072805 162.728516,88.546875 L162.748047,88.546875 L162.748047,103 L159.505859,103 L159.505859,100.753906 Z M159.310547,93.1171875 C158.19075,93.2604174 156.302748,93.3320312 153.646484,93.3320312 C151.185535,93.3320312 149.238939,93.4492176 147.806641,93.6835938 C145.983715,94.1393252 145.072266,95.1679607 145.072266,96.7695312 C145.072266,97.9153703 145.462887,98.6966125 146.244141,99.1132812 C147.324875,99.6862008 149.310532,99.9726562 152.201172,99.9726562 C155.091811,99.9726562 157.070958,99.6862008 158.138672,99.1132812 C158.906905,98.7096334 159.297526,97.9544326 159.310547,96.8476562 L159.310547,93.1171875 Z M172.240234,85.6953125 C173.542324,83.4296762 175.983706,82.296875 179.564453,82.296875 C183.184263,82.296875 185.833976,83.1692621 187.513672,84.9140625 C189.115242,86.5807375 189.916016,89.2304506 189.916016,92.8632812 L186.478516,92.8632812 C186.478516,90.1549344 185.99675,88.2994842 185.033203,87.296875 C184.043615,86.268224 182.220716,85.7539062 179.564453,85.7539062 C176.843085,85.7539062 174.987635,86.2356723 173.998047,87.1992188 C172.982417,88.1757861 172.461589,90.0182156 172.435547,92.7265625 L172.435547,103 L168.998047,103 L168.998047,82.7265625 L172.240234,82.7265625 L172.240234,85.6953125 Z M210.990234,102.335938 C209.466789,103.09115 207.298842,103.46875 204.486328,103.46875 C200.593079,103.46875 197.813159,102.667977 196.146484,101.066406 C194.401684,99.3867104 193.529297,96.6653834 193.529297,92.9023438 C193.529297,89.2695131 194.33007,86.6198 195.931641,84.953125 C197.611337,83.2083246 200.397767,82.3359375 204.291016,82.3359375 C208.054055,82.3359375 210.768872,83.1432211 212.435547,84.7578125 C214.167326,86.4375084 215.033203,89.152325 215.033203,92.9023438 L215.033203,94.4257812 L196.986328,94.4257812 C197.064454,96.2747488 197.578771,97.6614537 198.529297,98.5859375 C199.518885,99.5364631 201.504542,100.011719 204.486328,100.011719 C206.764985,100.011719 208.425125,99.757815 209.466797,99.25 C210.391281,98.7942686 211.048826,98.0260471 211.439453,96.9453125 L214.681641,98.1171875 C213.978512,100.057301 212.748056,101.463537 210.990234,102.335938 Z M197.005859,91.3789062 L211.595703,91.3789062 C211.374348,89.3997297 210.86003,88.0195352 210.052734,87.2382812 C209.050125,86.2747348 207.129571,85.7929688 204.291016,85.7929688 C201.361313,85.7929688 199.401698,86.3072865 198.412109,87.3359375 C197.656897,88.1302123 197.188152,89.4778551 197.005859,91.3789062 Z M65.0542969,121.621094 L65.0542969,134.082031 L81.2847656,134.082031 L81.2847656,121.621094 L84.7222656,121.621094 L84.7222656,150 L81.2847656,150 L81.2847656,137.539062 L65.0542969,137.539062 L65.0542969,150 L61.6167969,150 L61.6167969,121.621094 L65.0542969,121.621094 Z M94.6050781,129.726562 L94.6050781,150 L91.1675781,150 L91.1675781,129.726562 L94.6050781,129.726562 Z M94.6050781,121.621094 L94.6050781,125.078125 L91.1675781,125.078125 L91.1675781,121.621094 L94.6050781,121.621094 Z M104.292578,132.695312 C105.594668,130.429676 108.03605,129.296875 111.616797,129.296875 C115.236607,129.296875 117.88632,130.169262 119.566016,131.914062 C121.167586,133.580737 121.968359,136.230451 121.968359,139.863281 L118.530859,139.863281 C118.530859,137.154934 118.049093,135.299484 117.085547,134.296875 C116.095959,133.268224 114.27306,132.753906 111.616797,132.753906 C108.895429,132.753906 107.039979,133.235672 106.050391,134.199219 C105.034761,135.175786 104.513932,137.018216 104.487891,139.726562 L104.487891,150 L101.050391,150 L101.050391,129.726562 L104.292578,129.726562 L104.292578,132.695312 Z M129.605078,129.726562 L129.605078,150 L126.167578,150 L126.167578,129.726562 L129.605078,129.726562 Z M129.605078,121.621094 L129.605078,125.078125 L126.167578,125.078125 L126.167578,121.621094 L129.605078,121.621094 Z M139.292578,132.890625 C140.594668,130.49478 143.03605,129.296875 146.616797,129.296875 C150.366816,129.296875 153.081632,130.169262 154.761328,131.914062 C156.362899,133.580737 157.163672,136.230451 157.163672,139.863281 L157.163672,150 L153.726172,150 L153.726172,139.863281 C153.726172,137.154934 153.244406,135.299484 152.280859,134.296875 C151.291271,133.268224 149.403269,132.753906 146.616797,132.753906 C143.895429,132.753906 142.039979,133.235672 141.050391,134.199219 C140.034761,135.175786 139.513932,137.018216 139.487891,139.726562 L139.487891,150 L136.050391,150 L136.050391,129.726562 L139.292578,129.726562 L139.292578,132.890625 Z M181.284766,132.324219 L181.284766,129.726562 L184.526953,129.726562 L184.526953,149.628906 C184.526953,153.391946 183.661076,156.113273 181.929297,157.792969 C180.262622,159.394539 177.612909,160.195312 173.980078,160.195312 C171.050376,160.195312 168.778263,159.687505 167.163672,158.671875 C165.353767,157.539057 164.201435,155.703138 163.706641,153.164062 L167.085547,152.519531 C167.385028,154.069018 168.023042,155.149737 168.999609,155.761719 C170.041281,156.425785 171.701421,156.757812 173.980078,156.757812 C176.688425,156.757812 178.543875,156.276046 179.546484,155.3125 C180.575135,154.309891 181.089453,152.415379 181.089453,149.628906 L181.089453,147.617188 C179.930593,149.492197 177.560825,150.429688 173.980078,150.429688 C170.347247,150.429688 167.697534,149.628914 166.030859,148.027344 C164.286059,146.347648 163.413672,143.626321 163.413672,139.863281 C163.413672,136.230451 164.214445,133.580737 165.816016,131.914062 C167.495712,130.169262 170.217038,129.296875 173.980078,129.296875 C177.560825,129.296875 179.995697,130.305979 181.284766,132.324219 Z M173.980078,132.753906 C171.180585,132.753906 169.286073,133.268224 168.296484,134.296875 C167.332938,135.299484 166.851172,137.154934 166.851172,139.863281 C166.851172,142.649754 167.372,144.544266 168.413672,145.546875 C169.40326,146.497401 171.25871,146.972656 173.980078,146.972656 C176.688425,146.972656 178.543875,146.497401 179.546484,145.546875 C180.575135,144.544266 181.089453,142.649754 181.089453,139.863281 C181.089453,137.076809 180.575135,135.188807 179.546484,134.199219 C178.543875,133.235672 176.688425,132.753906 173.980078,132.753906 Z M193.753516,141.894531 L192.972266,130.78125 L192.972266,121.621094 L196.409766,121.621094 L196.409766,130.78125 L195.628516,141.894531 L193.753516,141.894531 Z M192.972266,150 L192.972266,146.5625 L196.409766,146.5625 L196.409766,150 L192.972266,150 Z M205.831641,141.894531 L205.050391,130.78125 L205.050391,121.621094 L208.487891,121.621094 L208.487891,130.78125 L207.706641,141.894531 L205.831641,141.894531 Z M205.050391,150 L205.050391,146.5625 L208.487891,146.5625 L208.487891,150 L205.050391,150 Z" id="We-are-Hiring!!" fill="#000000"></path>
            </g>
        </g>
    </g>
</svg>