<?xml version="1.0" encoding="UTF-8"?>
<svg width="1920px" height="1080px" viewBox="0 0 1920 1080" version="1.1" xmlns="http://www.w3.org/2000/svg" xmlns:xlink="http://www.w3.org/1999/xlink">
    <!-- Generator: Sketch 42 (36781) - http://www.bohemiancoding.com/sketch -->
    <title>Big</title>
    <desc>Created with Sketch.</desc>
    <defs></defs>
    <g id="Home" stroke="none" stroke-width="1" fill="none" fill-rule="evenodd">
        <g id="8_01">
            <g id="Big">
                <rect id="base" fill="#FFFFFF" opacity="0.1" x="0" y="0" width="1920" height="1080"></rect>
                <g id="Accolite_Logo" transform="translate(739.000000, 503.000000)">
                    <g id="Accolite" transform="translate(82.499998, 7.800000)">
                        <polygon id="A" fill="#797979" points="33.1499991 0.15 0 46.5 6.14999983 43.35 33.1499991 5.85 59.9999983 43.35 66.4499982 46.5"></polygon>
                        <path d="M106.949997,12.45 C106.949997,12.45 100.049997,0.15 85.9499976,0.15 C71.849998,0.15 62.9999983,12.15 62.9999983,23.475 C62.9999983,34.8 71.249998,46.65 85.9499976,46.65 C100.649997,46.65 106.949997,34.05 106.949997,34.05 L101.249997,36.75 C101.249997,36.75 93.4499974,46.8 79.7999978,42.45 C66.1499982,38.1 66.1499982,23.475 66.1499982,23.475 C66.1499982,23.475 66.1499982,8.55 79.7999978,4.2 C93.4499974,-0.15 101.249997,9.9 101.249997,9.9 L106.949997,12.45 Z" id="C" fill="#747474"></path>
                        <path d="M155.249996,12.45 C155.249996,12.45 148.349996,0.15 134.249996,0.15 C120.149997,0.15 111.299997,12.15 111.299997,23.475 C111.299997,34.8 119.549997,46.65 134.249996,46.65 C148.949996,46.65 155.249996,34.05 155.249996,34.05 L149.549996,36.75 C149.549996,36.75 141.749996,46.8 128.099996,42.45 C114.449997,38.1 114.449997,23.475 114.449997,23.475 C114.449997,23.475 114.449997,8.55 128.099996,4.2 C141.749996,-0.15 149.549996,9.9 149.549996,9.9 L155.249996,12.45 Z" id="C" fill="#747474"></path>
                        <path d="M182.849995,46.65 C170.009375,46.65 159.599996,36.2406204 159.599996,23.4 C159.599996,10.5593796 170.009375,0.15 182.849995,0.15 C195.690615,0.15 206.099994,10.5593796 206.099994,23.4 C206.099994,36.2406204 195.690615,46.65 182.849995,46.65 Z M182.923804,43.402381 C193.93005,43.402381 202.852375,34.4800556 202.852375,23.4738095 C202.852375,12.4675634 193.93005,3.5452381 182.923804,3.5452381 C171.917559,3.5452381 162.995234,12.4675634 162.995234,23.4738095 C162.995234,34.4800556 171.917559,43.402381 182.923804,43.402381 Z" id="O" fill="#797979"></path>
                        <path d="M213.45259,0 L213.45259,25.2 C213.45259,25.2 213.15259,31.65 219.00259,38.85 C224.85259,46.05 233.85259,46.5 233.85259,46.5 L253.202589,46.5 L250.802589,43.35 L235.35259,43.35 C235.35259,43.35 227.70259,43.35 222.00259,36.9 C216.30259,30.45 216.90259,24.15 216.90259,24.15 L216.90259,4.05 L213.45259,0 Z" id="Path-2" fill="#797979"></path>
                        <polygon id="Rectangle" fill="#797979" points="259.799993 0 263.099993 4.35 263.099993 46.5 259.799993 46.5"></polygon>
                        <path d="M274.652588,0.15 L274.652588,25.35 C274.652588,25.35 274.352588,31.8 280.202588,39 C286.052588,46.2 295.052588,46.65 295.052588,46.65 L314.402587,46.65 L312.002587,43.5 L296.552588,43.5 C296.552588,43.5 288.902588,43.5 283.202588,37.05 C277.502588,30.6 278.102588,24.3 278.102588,24.3 L278.102588,13.65 L306.002588,13.65 L304.202588,10.05 L278.102588,10.05 L278.102588,4.2 L274.652588,0.15 Z" id="Path-2" fill="#797979"></path>
                        <path d="M323.556276,11.0322652 C325.555929,8.32380053 328.498451,5.86054088 332.828419,4.47588858 C346.341462,0.154640349 354.508686,11.0322652 354.508686,11.0322652 L357.346348,12.5309369 L360.151495,14.0124364 C360.151495,14.0124364 354.657181,-0.14337677 338.916713,0.154640349 C323.176245,0.452657468 315.899991,12.3733422 315.899991,23.6234885 C315.899991,34.8736348 323.770225,46.3472939 338.916713,46.645311 C354.063201,46.9433281 360.29999,32.9365235 360.29999,32.9365235 L354.657181,35.6186776 C354.657181,35.6186776 346.341462,46.7943195 332.828419,42.4730713 C319.315376,38.1518231 319.315376,23.6234885 319.315376,23.6234885 C319.315376,23.6234885 319.315376,18.902742 321.743203,14.0124364 L360.151495,14.0124364 L354.508686,11.0322652 L323.556276,11.0322652 Z" id="Combined-Shape" fill="#797979"></path>
                    </g>
                    <g id="Logo">
                        <path d="M0,45.6 C0,45.6 3.93446602,41.552043 5.99999983,39.6 C8.06553365,37.647957 13.6499996,32.7 13.6499996,32.7 L28.4999992,53.4 C28.4999992,53.4 18.9991483,51.249767 14.2499996,49.95 C9.50085091,48.650233 0,45.6 0,45.6 Z" id="Path-6" fill="#D8D8D8" transform="translate(14.250000, 43.050000) scale(-1, 1) translate(-14.250000, -43.050000) "></path>
                        <path d="M38.3999989,55.05 C38.3999989,55.05 38.6999989,60.5074176 38.6999989,63.3 C38.6999989,66.0925824 38.3999989,72.75 38.3999989,72.75 L0,53.4 L28.4999992,45.6 L38.3999989,55.05 Z" id="Path-5" fill="#A6A6A6"></path>
                        <path d="M76.7999979,55.05 L76.7999979,72.75 L38.3999989,53.4 C38.3999989,53.4 47.7008767,50.3097597 53.3999985,48.75 C59.0991204,47.1902403 66.8999982,45.6 66.8999982,45.6 C66.8999982,45.6 70.2186638,48.5496355 71.999998,50.25 C73.7813322,51.9503645 76.7999979,55.05 76.7999979,55.05 Z" id="Path-5" fill="#5F5F5F" transform="translate(57.599998, 59.175000) scale(-1, 1) translate(-57.599998, -59.175000) "></path>
                        <path d="M48.2999987,45.6 C48.2999987,45.6 52.5696641,41.3522941 54.8999985,39.15 C57.2303329,36.9477059 61.9499983,32.7 61.9499983,32.7 L76.7999979,53.4 L48.2999987,45.6 Z" id="Path-6" fill="#797979"></path>
                        <path d="M22.0499994,39 C22.0499994,39 27.371832,36.9204865 30.1499992,35.85 C32.9281663,34.7795135 38.3999989,32.7 38.3999989,32.7 L14.8499996,55.05 C14.8499996,55.05 17.463075,48.6531442 18.8999995,45.45 C20.3369239,42.2468558 22.0499994,39 22.0499994,39 Z" id="Path-4" fill="#3A88AA" transform="translate(26.624999, 43.875000) scale(-1, 1) translate(-26.624999, -43.875000) "></path>
                        <path d="M31.3499991,41.85 L38.5499989,39 L31.3499991,55.05 C31.3499991,55.05 31.1999991,49.6979142 31.1999991,47.025 C31.1999991,44.3520858 31.3499991,41.85 31.3499991,41.85 Z" id="Path-4" fill="#114357" transform="translate(34.874999, 47.025000) scale(-1, 1) translate(-34.874999, -47.025000) "></path>
                        <path d="M38.3999989,41.85 C38.3999989,41.85 40.4658319,40.9291494 41.5499989,40.5 C42.6341658,40.0708506 45.5999987,39 45.5999987,39 C45.5999987,39 43.3294752,44.3207506 42.1499988,46.95 C40.9705225,49.5792494 38.3999989,55.05 38.3999989,55.05 L38.3999989,41.85 Z" id="Path-4" fill="#0E202E"></path>
                        <path d="M45.5999987,39 C45.5999987,39 51.1127133,36.5469356 53.6999985,35.55 C56.2872838,34.5530644 61.9499983,32.7 61.9499983,32.7 L38.3999989,55.05 L45.5999987,39 Z" id="Path-4" fill="#28445D"></path>
                        <path d="M15.1499996,0 L38.6999989,32.7 L15.1499996,41.85 C15.1499996,41.85 14.8499996,29.2946583 14.8499996,22.95 C14.8499996,16.6053417 15.1499996,0 15.1499996,0 Z" id="Rectangle-2" fill="#3CC8FF" transform="translate(26.774999, 20.925000) scale(-1, 1) translate(-26.774999, -20.925000) "></path>
                        <polygon id="Rectangle-2" fill="#0967B1" points="38.3999989 0 61.9499983 32.7 38.3999989 41.85"></polygon>
                    </g>
                    <path d="M241.699643,72.4989 C242.449343,72.4989 243.168443,72.3459 243.856943,72.0552 C244.514843,71.7798 245.111543,71.382 245.616443,70.8771 C246.136643,70.3569 246.534443,69.7755 246.809843,69.1023 C247.100543,68.4291 247.268843,67.6947 247.268843,66.945 C247.268843,66.1953 247.100543,65.4762 246.809843,64.7877 C246.534443,64.1298 246.136643,63.5331 245.616443,63.0282 C245.111543,62.5233 244.514843,62.1102 243.856943,61.8348 C243.168443,61.5441 242.449343,61.4064 241.699643,61.4064 C240.949943,61.4064 240.230843,61.5441 239.542343,61.8348 C238.884443,62.1102 238.287743,62.5233 237.782843,63.0282 C237.262643,63.5331 236.864843,64.1298 236.589443,64.7877 C236.298743,65.4762 236.130443,66.1953 236.130443,66.945 C236.130443,67.6947 236.298743,68.4291 236.589443,69.1023 C236.864843,69.7755 237.262643,70.3569 237.782843,70.8771 C238.287743,71.382 238.884443,71.7798 239.542343,72.0552 C240.230843,72.3459 240.949943,72.4989 241.699643,72.4989 Z M241.699643,62.5998 C242.862443,62.5998 243.964043,63.0435 244.774943,63.8697 C245.601143,64.6959 246.029543,65.7822 246.029543,66.945 C246.029543,68.1078 245.601143,69.2094 244.774943,70.0356 C243.964043,70.8465 242.862443,71.3055 241.699643,71.3055 C240.536843,71.3055 239.450543,70.8465 238.624343,70.0356 C237.798143,69.2094 237.369743,68.1078 237.369743,66.945 C237.369743,65.7822 237.798143,64.6959 238.624343,63.8697 C239.450543,63.0435 240.536843,62.5998 241.699643,62.5998 Z M252.792143,65.5527 C252.042443,65.5527 251.369243,65.8128 250.833743,66.2412 L250.833743,65.874 L249.609743,65.874 L249.609743,72.3 L250.833743,72.3 L250.833743,68.7504 C250.833743,67.404 251.782343,66.7461 252.792143,66.7461 C253.878443,66.7461 254.735243,67.6488 254.735243,68.8422 L254.735243,72.2694 L255.959243,72.2694 L255.959243,68.8422 C255.959243,66.945 254.536343,65.5527 252.792143,65.5527 Z M259.524143,72.3 L259.524143,61.59 L258.300143,61.59 L258.300143,72.3 L259.524143,72.3 Z M266.225543,65.874 L264.511943,69.5307 L262.905443,65.874 L261.604943,65.874 L263.823443,70.9689 L262.308743,74.1819 L263.624543,74.1819 L267.556643,65.874 L266.225543,65.874 Z M277.838242,65.874 L276.231742,65.874 L276.231742,64.0227 L275.007742,64.0227 L275.007742,65.874 L273.477742,65.874 L273.477742,67.0674 L275.007742,67.0674 L275.007742,72.3 L276.231742,72.3 L276.231742,67.0674 L277.838242,67.0674 L277.838242,65.874 Z M282.902542,65.5527 C282.152842,65.5527 281.479642,65.8128 280.944142,66.2412 L280.944142,61.59 L279.720142,61.59 L279.720142,72.3 L280.944142,72.3 L280.944142,68.7504 C280.944142,67.404 281.892742,66.7461 282.902542,66.7461 C283.988842,66.7461 284.845642,67.6488 284.845642,68.8422 L284.845642,72.2694 L286.069642,72.2694 L286.069642,68.8422 C286.069642,66.945 284.646742,65.5527 282.902542,65.5527 Z M294.484642,69.6225 C294.515242,69.4236 294.530542,69.2247 294.530542,69.0258 C294.530542,68.0925 294.163342,67.2357 293.505442,66.5778 C292.847542,65.9199 291.975442,65.5527 291.057442,65.5527 C290.124142,65.5527 289.252042,65.9199 288.594142,66.5778 C287.951542,67.2357 287.569042,68.0925 287.569042,69.0258 C287.569042,69.9438 287.951542,70.8159 288.594142,71.4738 C289.252042,72.1317 290.124142,72.4989 291.057442,72.4989 C291.975442,72.4989 292.847542,72.1317 293.505442,71.4738 C293.719642,71.2596 293.903242,71.0148 294.056242,70.7547 L293.015842,70.158 C292.618042,70.8312 291.898942,71.3055 291.057442,71.3055 C290.001742,71.3055 289.129642,70.5864 288.869542,69.6225 L294.484642,69.6225 Z M288.869542,68.4291 C289.129642,67.4652 290.001742,66.7461 291.057442,66.7461 C292.097842,66.7461 292.969942,67.4652 293.230042,68.4291 L288.869542,68.4291 Z M306.984742,66.5778 C306.326842,65.9199 305.454742,65.5527 304.521442,65.5527 C303.679942,65.5527 302.884342,65.8587 302.257042,66.4095 L302.257042,61.59 L301.033042,61.59 L301.033042,72.3 L302.257042,72.3 L302.257042,71.6421 C302.884342,72.1929 303.679942,72.4989 304.521442,72.4989 C305.454742,72.4989 306.326842,72.1317 306.984742,71.4738 C307.627342,70.8159 308.009842,69.9438 308.009842,69.0258 C308.009842,68.0925 307.627342,67.2357 306.984742,66.5778 Z M304.521442,71.3055 C303.266842,71.3055 302.272342,70.2804 302.272342,69.0258 C302.272342,67.7712 303.266842,66.7461 304.521442,66.7461 C305.776042,66.7461 306.785842,67.7712 306.785842,69.0258 C306.785842,70.2804 305.776042,71.3055 304.521442,71.3055 Z M316.210641,69.6225 C316.241241,69.4236 316.256541,69.2247 316.256541,69.0258 C316.256541,68.0925 315.889341,67.2357 315.231441,66.5778 C314.573541,65.9199 313.701441,65.5527 312.783441,65.5527 C311.850141,65.5527 310.978041,65.9199 310.320141,66.5778 C309.677541,67.2357 309.295041,68.0925 309.295041,69.0258 C309.295041,69.9438 309.677541,70.8159 310.320141,71.4738 C310.978041,72.1317 311.850141,72.4989 312.783441,72.4989 C313.701441,72.4989 314.573541,72.1317 315.231441,71.4738 C315.445641,71.2596 315.629241,71.0148 315.782241,70.7547 L314.741841,70.158 C314.344041,70.8312 313.624941,71.3055 312.783441,71.3055 C311.727741,71.3055 310.855641,70.5864 310.595541,69.6225 L316.210641,69.6225 Z M310.595541,68.4291 C310.855641,67.4652 311.727741,66.7461 312.783441,66.7461 C313.823841,66.7461 314.695941,67.4652 314.956041,68.4291 L310.595541,68.4291 Z M322.269441,69.0105 C321.795141,68.7198 321.213741,68.5515 320.509941,68.3526 C320.433441,68.322 320.372241,68.3067 320.311041,68.2914 C319.209441,67.9854 318.857541,67.8171 318.857541,67.4193 C318.857541,67.0368 319.500141,66.7614 320.433441,66.7614 C321.060741,66.7614 321.703341,66.9297 322.208241,67.2204 C322.284741,67.2663 322.361241,67.3122 322.422441,67.3734 L323.248641,66.486 C323.110941,66.3789 322.973241,66.2871 322.820241,66.1953 C322.147041,65.7975 321.274941,65.568 320.433441,65.568 C319.668441,65.568 319.010541,65.7057 318.520941,65.9811 C317.954841,66.3177 317.633541,66.8226 317.633541,67.4193 C317.633541,68.0466 317.939541,68.5362 318.520941,68.8881 C318.934041,69.1482 319.454241,69.2859 319.989741,69.4389 C320.050941,69.4542 320.112141,69.4695 320.173341,69.5001 C320.785341,69.6684 321.305541,69.8214 321.657441,70.0356 C321.948141,70.2192 321.994041,70.3722 321.994041,70.5711 C321.994041,70.6935 321.978741,70.8618 321.718641,71.0301 C321.336141,71.2443 320.754741,71.2902 320.341641,71.2902 C319.622541,71.2902 318.964641,71.1219 318.490341,70.8159 C318.413841,70.77 318.352641,70.7241 318.291441,70.6629 L317.511141,71.5809 C317.618241,71.6574 317.725341,71.7492 317.847741,71.8257 C318.520941,72.2541 319.408341,72.4836 320.341641,72.4836 C321.167841,72.4836 321.825741,72.3459 322.315341,72.0552 C322.896741,71.7186 323.218041,71.1984 323.218041,70.5711 C323.218041,69.9132 322.896741,69.393 322.269441,69.0105 Z M329.062641,65.874 L327.456141,65.874 L327.456141,64.0227 L326.232141,64.0227 L326.232141,65.874 L324.702141,65.874 L324.702141,67.0674 L326.232141,67.0674 L326.232141,72.3 L327.456141,72.3 L327.456141,67.0674 L329.062641,67.0674 L329.062641,65.874 Z M339.619641,65.874 L338.013141,65.874 L338.013141,64.0227 L336.789141,64.0227 L336.789141,65.874 L335.259141,65.874 L335.259141,67.0674 L336.789141,67.0674 L336.789141,72.3 L338.013141,72.3 L338.013141,67.0674 L339.619641,67.0674 L339.619641,65.874 Z M347.98874,69.6225 C348.01934,69.4236 348.03464,69.2247 348.03464,69.0258 C348.03464,68.0925 347.66744,67.2357 347.00954,66.5778 C346.35164,65.9199 345.47954,65.5527 344.561541,65.5527 C343.628241,65.5527 342.756141,65.9199 342.098241,66.5778 C341.455641,67.2357 341.073141,68.0925 341.073141,69.0258 C341.073141,69.9438 341.455641,70.8159 342.098241,71.4738 C342.756141,72.1317 343.628241,72.4989 344.561541,72.4989 C345.47954,72.4989 346.35164,72.1317 347.00954,71.4738 C347.22374,71.2596 347.40734,71.0148 347.56034,70.7547 L346.51994,70.158 C346.12214,70.8312 345.40304,71.3055 344.561541,71.3055 C343.505841,71.3055 342.633741,70.5864 342.373641,69.6225 L347.98874,69.6225 Z M342.373641,68.4291 C342.633741,67.4652 343.505841,66.7461 344.561541,66.7461 C345.60194,66.7461 346.47404,67.4652 346.73414,68.4291 L342.373641,68.4291 Z M354.91964,70.1427 C354.53714,70.8312 353.80274,71.3055 352.96124,71.3055 C351.70664,71.3055 350.69684,70.2804 350.69684,69.0258 C350.69684,67.7712 351.70664,66.7461 352.96124,66.7461 C353.80274,66.7461 354.53714,67.2204 354.91964,67.8936 L355.97534,67.2969 C355.82234,67.0368 355.62344,66.792 355.40924,66.5778 C354.75134,65.9199 353.87924,65.5527 352.96124,65.5527 C352.02794,65.5527 351.17114,65.9199 350.51324,66.5778 C349.85534,67.2357 349.47284,68.0925 349.47284,69.0258 C349.47284,69.9438 349.85534,70.8159 350.51324,71.4738 C351.17114,72.1317 352.02794,72.4989 352.96124,72.4989 C353.87924,72.4989 354.75134,72.1317 355.40924,71.4738 C355.62344,71.2596 355.82234,71.0148 355.97534,70.7547 L354.91964,70.1427 Z M361.26914,65.5527 C360.51944,65.5527 359.84624,65.8128 359.31074,66.2412 L359.31074,61.59 L358.08674,61.59 L358.08674,72.3 L359.31074,72.3 L359.31074,68.7504 C359.31074,67.404 360.25934,66.7461 361.26914,66.7461 C362.35544,66.7461 363.21224,67.6488 363.21224,68.8422 L363.21224,72.2694 L364.43624,72.2694 L364.43624,68.8422 C364.43624,66.945 363.01334,65.5527 361.26914,65.5527 Z M369.94424,65.5527 C369.19454,65.5527 368.52134,65.8128 367.98584,66.2412 L367.98584,65.874 L366.76184,65.874 L366.76184,72.3 L367.98584,72.3 L367.98584,68.7504 C367.98584,67.404 368.93444,66.7461 369.94424,66.7461 C371.03054,66.7461 371.88734,67.6488 371.88734,68.8422 L371.88734,72.2694 L373.11134,72.2694 L373.11134,68.8422 C373.11134,66.945 371.68844,65.5527 369.94424,65.5527 Z M375.48284,65.874 L375.48284,72.3 L376.70684,72.3 L376.70684,65.874 L375.48284,65.874 Z M376.09484,64.2981 C376.52324,64.2981 376.85984,63.9462 376.85984,63.5178 C376.85984,63.0894 376.52324,62.7528 376.09484,62.7528 C375.66644,62.7528 375.31454,63.0894 375.31454,63.5178 C375.31454,63.9462 375.66644,64.2981 376.09484,64.2981 Z M384.265039,70.1427 C383.882539,70.8312 383.148139,71.3055 382.306639,71.3055 C381.052039,71.3055 380.04224,70.2804 380.04224,69.0258 C380.04224,67.7712 381.052039,66.7461 382.306639,66.7461 C383.148139,66.7461 383.882539,67.2204 384.265039,67.8936 L385.320739,67.2969 C385.167739,67.0368 384.968839,66.792 384.754639,66.5778 C384.096739,65.9199 383.224639,65.5527 382.306639,65.5527 C381.373339,65.5527 380.51654,65.9199 379.85864,66.5778 C379.20074,67.2357 378.81824,68.0925 378.81824,69.0258 C378.81824,69.9438 379.20074,70.8159 379.85864,71.4738 C380.51654,72.1317 381.373339,72.4989 382.306639,72.4989 C383.224639,72.4989 384.096739,72.1317 384.754639,71.4738 C384.968839,71.2596 385.167739,71.0148 385.320739,70.7547 L384.265039,70.1427 Z M392.297539,65.874 L392.297539,66.4095 C391.670239,65.8587 390.874639,65.5527 390.033139,65.5527 C389.099839,65.5527 388.243039,65.9199 387.585139,66.5778 C386.927239,67.2357 386.544739,68.0925 386.544739,69.0258 C386.544739,69.9438 386.927239,70.8159 387.585139,71.4738 C388.243039,72.1317 389.099839,72.4989 390.033139,72.4989 C390.874639,72.4989 391.670239,72.1929 392.297539,71.6421 L392.297539,72.3 L393.521539,72.3 L393.521539,65.874 L392.297539,65.874 Z M390.033139,71.3055 C388.778539,71.3055 387.768739,70.2804 387.768739,69.0258 C387.768739,67.7712 388.778539,66.7461 390.033139,66.7461 C391.287739,66.7461 392.282239,67.7712 392.282239,69.0258 C392.282239,70.2804 391.287739,71.3055 390.033139,71.3055 Z M396.964039,72.3 L396.964039,61.59 L395.740039,61.59 L395.740039,72.3 L396.964039,72.3 Z M404.80257,65.887734 C404.759312,65.9125487 404.716857,65.9385882 404.675239,65.9658 L404.675239,65.874 L404.66162,65.874 L404.80257,65.887734 Z M404.66162,65.874 L403.451239,65.874 L403.451239,72.3 L404.675239,72.3 L404.675239,68.2608 C404.675239,67.404 405.287239,66.7461 406.067539,66.7461 C406.847839,66.7461 407.459839,67.4805 407.459839,68.2608 L407.459839,72.3 L408.683839,72.3 L408.683839,68.169 C408.683839,67.3887 409.311139,66.7461 410.091439,66.7461 C410.871739,66.7461 411.483739,67.3887 411.483739,68.169 L411.483739,72.3 L412.707739,72.3 L412.707739,68.169 C412.707739,66.7308 411.529639,65.5527 410.091439,65.5527 C409.280539,65.5527 408.561439,65.9352 408.071839,66.5013 C407.597539,65.9352 406.878439,65.5527 406.067539,65.5527 C405.601762,65.5527 405.172784,65.6753608 404.80257,65.887734 L404.66162,65.874 Z M415.125139,65.874 L415.125139,72.3 L416.349139,72.3 L416.349139,65.874 L415.125139,65.874 Z M415.737139,64.2981 C416.165539,64.2981 416.502139,63.9462 416.502139,63.5178 C416.502139,63.0894 416.165539,62.7528 415.737139,62.7528 C415.308739,62.7528 414.956839,63.0894 414.956839,63.5178 C414.956839,63.9462 415.308739,64.2981 415.737139,64.2981 Z M421.948938,65.5527 C421.199238,65.5527 420.526038,65.8128 419.990538,66.2412 L419.990538,65.874 L418.766538,65.874 L418.766538,72.3 L419.990538,72.3 L419.990538,68.7504 C419.990538,67.404 420.939138,66.7461 421.948938,66.7461 C423.035238,66.7461 423.892038,67.6488 423.892038,68.8422 L423.892038,72.2694 L425.116038,72.2694 L425.116038,68.8422 C425.116038,66.945 423.693138,65.5527 421.948938,65.5527 Z M426.768438,69.0258 C426.768438,69.9438 427.150938,70.8159 427.808838,71.4738 C428.466738,72.1317 429.323538,72.4989 430.256838,72.4989 C431.098338,72.4989 431.893938,72.1929 432.521238,71.6421 L432.521238,72.3 L433.745238,72.3 L433.745238,61.59 L432.521238,61.59 L432.521238,66.4095 C431.893938,65.8587 431.098338,65.5527 430.256838,65.5527 C429.323538,65.5527 428.466738,65.9199 427.808838,66.5778 C427.150938,67.2357 426.768438,68.0925 426.768438,69.0258 Z M427.992438,69.0258 C427.992438,67.7712 429.002238,66.7461 430.256838,66.7461 C431.511438,66.7461 432.505938,67.7712 432.505938,69.0258 C432.505938,70.2804 431.511438,71.3055 430.256838,71.3055 C429.002238,71.3055 427.992438,70.2804 427.992438,69.0258 Z M440.767938,69.0105 C440.293638,68.7198 439.712238,68.5515 439.008438,68.3526 C438.931938,68.322 438.870738,68.3067 438.809538,68.2914 C437.707938,67.9854 437.356038,67.8171 437.356038,67.4193 C437.356038,67.0368 437.998638,66.7614 438.931938,66.7614 C439.559238,66.7614 440.201838,66.9297 440.706738,67.2204 C440.783238,67.2663 440.859738,67.3122 440.920938,67.3734 L441.747138,66.486 C441.609438,66.3789 441.471738,66.2871 441.318738,66.1953 C440.645538,65.7975 439.773438,65.568 438.931938,65.568 C438.166938,65.568 437.509038,65.7057 437.019438,65.9811 C436.453338,66.3177 436.132038,66.8226 436.132038,67.4193 C436.132038,68.0466 436.438038,68.5362 437.019438,68.8881 C437.432538,69.1482 437.952738,69.2859 438.488238,69.4389 C438.549438,69.4542 438.610638,69.4695 438.671838,69.5001 C439.283838,69.6684 439.804038,69.8214 440.155938,70.0356 C440.446638,70.2192 440.492538,70.3722 440.492538,70.5711 C440.492538,70.6935 440.477238,70.8618 440.217138,71.0301 C439.834638,71.2443 439.253238,71.2902 438.840138,71.2902 C438.121038,71.2902 437.463138,71.1219 436.988838,70.8159 C436.912338,70.77 436.851138,70.7241 436.789938,70.6629 L436.009638,71.5809 C436.116738,71.6574 436.223838,71.7492 436.346238,71.8257 C437.019438,72.2541 437.906838,72.4836 438.840138,72.4836 C439.666338,72.4836 440.324238,72.3459 440.813838,72.0552 C441.395238,71.7186 441.716538,71.1984 441.716538,70.5711 C441.716538,69.9132 441.395238,69.393 440.767938,69.0105 Z" id="Only-the-best-techni" fill="#0967B1"></path>
                </g>
            </g>
        </g>
    </g>
</svg>