<?xml version="1.0" encoding="UTF-8"?>
<svg width="1920px" height="1080px" viewBox="0 0 1920 1080" version="1.1" xmlns="http://www.w3.org/2000/svg" xmlns:xlink="http://www.w3.org/1999/xlink">
    <!-- Generator: Sketch 42 (36781) - http://www.bohemiancoding.com/sketch -->
    <title>Big</title>
    <desc>Created with Sketch.</desc>
    <defs></defs>
    <g id="Android" stroke="none" stroke-width="1" fill="none" fill-rule="evenodd">
        <g id="7_01">
            <g id="Big">
                <rect id="Rectangle" fill="#FFFFFF" x="0" y="0" width="1920" height="1080"></rect>
                <g id="Andoid_Java" transform="translate(857.000000, 303.000000)">
                    <path d="M192.717,12.7746212 L179.868558,5.8895202 C174.265116,2.375 165.763674,2.61729798 156.393314,7.42967172 L35.8759884,68.7646465 C19.3087674,77.189899 6.07761628,96.6409091 6.07761628,111.994444 L5.93319767,446.010606 C5.93319767,453.76654 9.69530233,459.056313 14.9112209,461.661616 L28.4384302,468.882576 C34.0418721,472.157197 42.4470349,471.818939 51.6753837,467.148106 L172.134942,405.762753 C188.70457,397.342298 201.940535,377.88649 201.940535,362.532955 L202.084953,28.2241162 C202.084953,23.0734848 200.53486,19.0287879 197.829419,16.2363636 C196.043442,14.3555556 194.883279,13.9237374 192.709779,12.7674242 L192.717,12.7746212 Z" id="Shape" fill="#EBECEC"></path>
                    <path d="M190.98157,15.8573232 L178.128314,8.97222222 L177.887616,8.82828283 C175.716523,7.48005051 172.866663,6.85151515 169.535407,7.04343434 C166.105465,7.28333333 162.194128,8.39406566 158.034872,10.5123737 L37.565686,71.8929293 C29.8392907,75.7936869 22.8831279,82.2925505 17.8092209,89.6598485 C12.7834535,96.9767677 9.69048837,105.013384 9.69048837,111.994444 L9.54606977,446.010606 C9.54606977,449.093308 10.2200233,451.643434 11.385,453.718561 C12.6331156,455.791371 14.4404263,457.472985 16.6009186,458.571717 L16.6490581,458.571717 L28.4865698,464.881061 L28.5828488,464.881061 L30.2725465,465.845455 C32.494186,467.140909 35.3440465,467.723864 38.6295698,467.476768 C42.0571047,467.188889 45.9227093,466.085354 49.9784651,464.012626 L170.447651,402.680051 C178.174047,398.736111 185.130209,392.232449 190.201709,384.917929 C195.222663,377.60101 198.318035,369.516414 198.36136,362.535354 L198.45764,28.2289141 C198.45764,26.1106061 198.168802,24.232197 197.591128,22.5960859 C197.00864,21.0031566 196.243221,19.702904 195.17693,18.6449495 C194.11064,17.4886364 193.241721,17.0544192 191.93714,16.380303 C191.600163,16.1883838 191.215047,15.9964646 190.974349,15.8525253 L190.98157,15.8573232 Z M181.705081,2.85479798 L194.462058,9.69191919 C194.847174,9.88383838 195.136012,10.0277778 195.376709,10.1717172 C197.311919,11.1864899 198.56836,11.8582071 200.498756,13.8325758 C202.239,15.6150253 203.543581,17.7813131 204.458233,20.3338384 C205.281419,22.6416667 205.717081,25.2901515 205.717081,28.2265152 L205.572663,362.532955 C205.572663,370.953409 201.995895,380.388636 196.202302,388.813889 C190.502581,397.047222 182.626953,404.412121 173.836674,408.886237 L53.3193488,470.228409 C48.3465349,472.771338 43.5638721,474.174747 39.1735465,474.460227 C35.2068488,474.796086 31.5386163,474.172348 28.3999186,472.828914 L28.3517791,472.828914 L27.7211512,472.488258 C27.3360349,472.344318 26.9990581,472.104419 26.6091279,471.9125 L13.2311512,464.7875 C9.94562791,463.098611 7.04522093,460.550884 5.11482558,457.081944 C3.32884884,454.05202 2.31310465,450.340783 2.31310465,446.005808 L2.45752326,111.994444 C2.45752326,103.566793 6.02947674,94.1315657 11.8278837,85.7542929 C17.5251977,77.4729798 25.4032326,70.1080808 34.2416512,65.6315657 L154.710837,4.29419192 C159.775116,1.75126263 164.649244,0.355050505 169.049198,0.0647727273 C173.877593,-0.271085859 178.17164,0.688510101 181.702674,2.85719697 L181.705081,2.85479798 Z" id="Shape" fill="#B2B3B3"></path>
                    <path d="M186.492558,354.009343 L186.733256,29.6251263 L190.545907,23.6516414 L186.824721,21.0031566 L195.085465,14.1180556 L179.676,5.88472222 C174.067744,2.37020202 165.619256,2.6125 156.203163,7.42487374 L35.7339767,68.7598485 C19.1667558,77.185101 5.9307907,96.6361111 5.9307907,111.989646 L5.78637209,446.005808 C5.78637209,453.759343 9.55088372,459.051515 14.7692093,461.654419 L28.2482791,468.875379 L35.6376977,465.552778 L41.8645465,455.683333 L156.684558,397.236742 C173.251779,388.81149 186.487744,369.36048 186.487744,354.002146 L186.492558,354.009343 Z" id="Shape" fill="#EBECEC"></path>
                    <path d="M185.763244,354.009343 L186.003942,29.6251263 L186.14836,29.2820707 L189.580709,23.8435606 L186.389058,21.5813131 L185.666965,21.0535354 L186.340919,20.4777778 L193.826616,14.2643939 L179.336616,6.46767677 L179.288477,6.46767677 C176.585442,4.78118687 173.10736,4.00871212 169.193616,4.24861111 C165.378558,4.4885101 161.082105,5.74318182 156.537733,8.05340909 L36.0685465,69.3883838 C27.9088953,73.5266414 20.6109419,80.3637626 15.2481977,88.0669192 C9.93840698,95.8228535 6.6552907,104.440025 6.6552907,111.999242 L6.51087209,446.010606 C6.51087209,449.577904 7.32924419,452.607828 8.73010465,455.069192 C10.2232197,457.640149 12.4412042,459.717302 15.108593,461.042677 L15.108593,461.090657 L28.2940116,468.06452 L35.1538953,464.984217 L41.2387326,455.349874 L41.5275698,455.069192 L156.347581,396.625 C164.459093,392.484343 171.800372,385.649621 177.119791,377.946465 C182.477721,370.197727 185.760837,361.578157 185.760837,354.018939 L185.763244,354.009343 Z M187.452942,29.8170455 L187.212244,354.004545 C187.212244,361.858838 183.823221,370.71351 178.318465,378.702146 C172.861849,386.599621 165.373744,393.583081 157.016721,397.865278 L42.3483488,456.218308 L36.2586977,465.893434 L35.9217209,466.181313 L28.5804419,469.506313 L28.2434651,469.650253 L27.9064884,469.506313 L14.4274186,462.285354 C11.5799651,460.84596 9.11281395,458.677273 7.47125581,455.736111 C5.92597674,453.092424 5.05705814,449.822601 5.05705814,446.013005 L5.20147674,112.001641 C5.20147674,104.152146 8.58327907,95.2926768 14.0904419,87.3016414 C19.4989186,79.4089646 27.0327558,72.3799242 35.392186,68.1433081 L155.856558,6.80833333 C160.593488,4.40214646 165.0825,3.10429293 169.09493,2.86199495 C173.345651,2.57411616 177.062023,3.44255051 180.061116,5.27058081 L195.465767,13.5518939 L196.380419,14.0316919 L195.562047,14.6554293 L187.98007,20.9647727 L190.974349,23.1334596 L191.503884,23.517298 L191.113953,24.0450758 L187.445721,29.8266414 L187.452942,29.8170455 Z" id="Shape" fill="#B2B3B3"></path>
                    <path d="M201.80093,362.535354 L201.945349,28.2289141 C201.945349,23.3181818 200.542081,19.4174242 198.079744,16.627399 C192.813279,10.7090909 182.814698,9.93421717 171.513942,15.667803 L51.0447558,77.0027778 C34.4751279,85.4712121 21.2391628,104.92702 21.1982442,120.232576 L21.0947442,454.584596 C21.0466047,469.894949 34.9107907,475.575758 51.4780116,467.155303 L171.995337,405.765152 C188.562558,397.344697 201.80093,377.888889 201.80093,362.535354 L201.80093,362.535354 Z" id="Shape" fill="#FEFEFE"></path>
                    <path d="M201.064395,362.535354 L201.208814,28.2289141 C201.208814,25.9162879 200.871837,23.7979798 200.284535,21.9675505 C199.60336,20.0915404 198.681488,18.4554293 197.516512,17.107197 C194.936233,14.2236111 191.190977,12.6354798 186.670674,12.4891414 C182.249058,12.2972222 177.095721,13.5494949 171.646326,16.2939394 L50.3828372,77.6289141 C42.1654186,81.7695707 34.776,88.6546717 29.4276977,96.3578283 C24.0842093,104.106566 20.7746163,112.678157 20.7216628,120.237374 L20.5772442,454.584596 C20.5772442,457.959975 21.3041512,460.84596 22.567814,463.208965 C23.7789977,465.467354 25.6420558,467.311695 27.9161163,468.503535 C30.1546047,469.70303 32.8744884,470.333965 35.8832093,470.333965 C40.1194884,470.333965 45.0297209,469.124874 50.1325116,466.529167 L171.44414,405.143813 C179.615826,401.000758 187.002837,394.161237 192.35114,386.462879 C197.747581,378.706944 201.057174,370.089773 201.057174,362.532955 L201.064395,362.535354 Z M202.665035,28.2289141 L202.520616,362.532955 C202.520616,370.377652 199.114744,379.277904 193.573884,387.225758 C188.078756,395.118434 180.540105,402.154672 172.132535,406.384091 L50.813686,467.726263 C45.4701977,470.461111 40.362593,471.713384 35.8904302,471.713384 C32.6337907,471.713384 29.6659884,471.041667 27.1868023,469.739015 C24.6849664,468.404006 22.637466,466.35829 21.3041512,463.86149 C19.8912558,461.318561 19.1619419,458.183081 19.1619419,454.570202 L19.3063605,120.22298 C19.3063605,112.373485 22.7122326,103.514015 28.2555,95.5229798 C33.7024884,87.6782828 41.2892791,80.6492424 49.6968488,76.3646465 L170.967558,15.0368687 C176.655244,12.1484848 182.051686,10.8986111 186.721221,11.0905303 C191.679593,11.2344697 195.764233,13.0145202 198.587616,16.1931818 C199.958981,17.749387 200.998953,19.5669721 201.644477,21.5357323 C202.328058,23.510101 202.665035,25.7723485 202.665035,28.2289141 L202.665035,28.2289141 Z" id="Shape" fill="#B2B3B3"></path>
                    <path d="M44.7697674,436.959217 L52.2073256,428.538763 L59.6448837,420.108712 L59.6448837,438.935985 L52.2073256,437.966793 L44.7697674,436.959217 Z M116.107744,392.090909 C120.117767,390.07096 123.405698,392.042929 123.405698,396.423485 C123.405698,400.808838 120.117767,406.057828 116.107744,408.075379 C112.100128,410.049747 108.862744,408.075379 108.862744,403.699621 C108.862744,399.30947 112.100128,394.10846 116.107744,392.08851 L116.107744,392.090909 Z M168.712221,366.867929 L181.945779,360.270707 L181.945779,374.760606 L168.717035,381.40101 L168.712221,366.867929 Z" id="Shape" fill="#B2B3B3"></path>
                    <path d="M91.2292326,147.094066 L91.2292326,195.189015 C91.2292326,198.463636 92.634907,200.051768 94.1296395,200.531566 C96.6401163,201.299242 98.2840814,199.619949 101.422779,198.269318 C101.523872,198.845076 101.470919,211.751641 101.470919,212.711237 C101.470919,216.177778 101.085802,218.780682 104.226907,218.972601 C106.450953,219.068561 109.250267,217.142172 111.13493,214.01149 C112.343233,211.936364 112.14586,209.868434 112.14586,207.366288 C112.14586,206.406692 112.097721,193.500126 112.194,192.828409 L122.678791,187.478662 C122.871349,188.054419 122.72693,200.193308 122.72693,201.920581 C122.72693,205.101641 122.341814,208.038005 125.480512,208.181944 C126.154465,208.229924 127.12207,207.990025 128.036721,207.558207 C129.875651,206.641793 131.567756,204.861742 132.388535,203.264015 C133.736442,200.817045 133.447605,199.562374 133.447605,196.724369 L133.447605,182.09053 C136.588709,180.161742 138.280814,180.353662 140.793698,176.9375 C142.338977,174.819192 143.686884,171.978788 143.686884,168.608207 L143.686884,120.278157 L91.2292326,146.755808 L91.2292326,147.091667 L91.2292326,147.094066 Z M87.2240233,155.42096 C87.2240233,154.269444 87.2721628,153.446591 86.838907,152.676515 C86.5861159,152.116275 86.1149532,151.683065 85.5343256,151.47702 C84.5233953,151.040404 82.7783372,151.285101 81.042907,152.388636 C79.4536057,153.453876 78.1709058,154.914246 77.3217209,156.625253 C76.2626512,158.83952 76.4985349,160.427652 76.4985349,162.886616 L76.4985349,190.083965 C76.4985349,191.240278 76.4985349,192.060732 76.8836512,192.830808 C78.4337442,195.812753 83.8927674,193.790404 86.4032442,188.879672 C87.462314,186.761364 87.2216163,184.981313 87.2216163,182.623106 L87.2216163,155.418561 L87.2240233,155.42096 Z M135.575372,100.493687 C134.420023,99.9611111 133.209314,99.7212121 131.854186,99.5748737 C131.46907,99.5268939 130.795116,99.5748737 130.506279,99.4789141 C130.602558,98.9991162 131.42093,97.2166667 131.709767,96.5905303 C132.094884,95.7268939 134.754593,89.7054293 134.853279,89.3215909 C134.949558,88.6018939 134.655907,88.2612374 134.31893,88.3140152 C133.789395,88.357197 133.452419,88.8417929 133.211721,89.2736111 L128.766035,99.5268939 C128.429058,99.7188131 126.736953,99.9107323 126.250744,100.006692 C123.405698,100.587247 120.409012,101.79154 117.412326,103.283712 C114.327133,104.863799 111.399879,106.733049 108.670186,108.866162 C107.996233,109.393939 106.641105,110.696591 106.06343,111.034848 L101.665884,105.35404 C100.943791,104.437626 99.9328605,105.833838 99.9737791,106.745455 C100.021919,107.232449 101.569605,109.0125 101.810302,109.348359 C102.248372,109.883333 102.681628,110.46149 103.066744,110.989268 C103.307442,111.277146 104.277453,112.435859 104.373733,112.771717 C103.598686,113.443434 102.44093,114.794066 101.71643,115.660101 C99.1520193,118.752925 97.00742,122.168865 95.3379419,125.819823 C93.3064535,130.394697 91.3736512,136.749621 91.2268256,142.382449 L143.684477,115.854419 C143.588198,110.269571 141.609663,105.939394 139.532442,103.482828 C138.328953,102.038636 137.120651,101.220581 135.572965,100.498485 L135.575372,100.493687 Z M106.884209,125.380808 C103.163023,128.365152 101.665884,122.300505 105.531488,119.215404 C107.269326,117.82399 108.670186,118.591667 109.007163,120.035859 C109.440419,122.010227 108.188791,124.322854 106.881802,125.380808 L106.884209,125.380808 Z M125.769349,113.246717 C125.528651,112.239141 125.817488,111.082828 126.250744,110.166414 C126.63586,109.302778 127.124477,108.578283 127.942849,107.904167 C129.779372,106.407197 131.180233,107.273232 131.471477,108.767803 C132.337988,112.810101 126.741767,117.289015 125.774163,113.241919 L125.769349,113.246717 Z M158.518674,146.707828 L158.518674,119.407323 C158.518674,117.488131 158.422395,115.991162 156.88193,115.415404 C155.716953,115.031566 154.219814,115.175505 152.388105,116.32702 C150.746547,117.389773 149.393826,119.073864 148.67414,120.566035 C147.562116,122.780303 147.848547,124.322854 147.848547,126.731439 L147.848547,154.024747 C147.848547,156.047096 147.992965,157.395328 149.490105,157.975884 C152.053535,158.93548 156.109291,156.248611 157.705116,152.875631 C158.812326,150.467045 158.523488,149.310732 158.523488,146.710227 L158.518674,146.707828 Z" id="Shape" fill="#98CD00"></path>
                    <path d="M116.300302,296.627904 C116.011465,294.557576 112.485244,292.244949 111.763151,288.970328 C109.878488,280.357955 123.258872,270.001515 124.031512,258.647096 C124.17593,256.80947 123.983372,255.125379 123.357558,253.873106 C122.924302,253.105429 122.77507,253.249369 122.582512,253.153409 C122.678791,256.425631 123.015767,257.773864 121.951884,261.046086 C118.040547,272.889899 104.130628,283.188763 109.637791,291.234975 C111.568186,294.017803 113.792233,294.982197 116.300302,296.620707 L116.300302,296.627904 Z M135.04343,310.345328 C137.168791,313.76149 119.398081,323.155934 117.559151,324.16351 C113.602081,326.281818 99.8847209,333.214899 97.8075,331.432449 C98.2888953,329.266162 101.865663,327.049495 102.640709,326.327399 C102.977686,325.99154 102.929547,326.03952 103.073965,325.799621 C100.804186,325.607702 89.3541977,336.247222 95.8289651,335.282828 C102.1545,334.371212 119.159791,326.041919 126.067814,320.984848 C128.385733,319.300758 130.607372,317.808586 132.687,315.831818 C136.256547,312.463636 137.176012,309.817551 135.053058,310.345328 L135.04343,310.345328 Z M118.960012,297.630682 C120.652116,295.855429 123.405698,291.474874 123.405698,288.442551 C123.357558,285.218308 120.55343,284.541793 120.072035,281.893308 C119.441407,278.669066 122.486233,274.38447 123.836547,272.359722 L129.822698,264.563005 C128.373698,265.330682 124.070023,269.811995 122.673977,271.544066 C110.646314,285.890025 119.631558,289.169444 120.21164,292.055429 C120.596756,294.128157 119.393267,296.054545 118.955198,297.637879 L118.960012,297.630682 Z M125.868035,312.463636 C125.38664,312.031818 123.063907,311.791919 122.245535,312.218939 C120.262186,313.231313 112.051988,319.734975 107.851814,319.207197 C107.755535,318.190025 107.803674,318.573864 108.188791,317.659848 C103.163023,321.510227 105.050093,324.49697 112.728349,321.411869 C117.701163,319.444697 122.05057,316.261237 125.865628,312.456439 L125.868035,312.463636 Z M129.151151,293.446843 L116.350849,301.397096 C113.97757,302.745328 104.171547,308.474116 103.256895,306.698864 C103.882709,304.813258 107.45707,302.164773 109.194907,300.53346 C106.588151,301.541035 101.372233,305.92399 99.4370233,308.426136 C95.9156163,312.950631 106.393186,308.373359 107.652035,307.797601 C112.381744,305.681692 120.209233,301.449874 124.801744,297.786616 C126.977651,296.107323 127.36036,295.339646 129.148744,293.451641 L129.151151,293.446843 Z M126.927105,303.997601 L125.092988,303.369066 C124.178337,303.129167 123.745081,303.656944 122.734151,304.472601 C119.301802,307.080303 107.226,314.006187 106.258395,312.374874 C106.162116,311.501641 106.402814,311.168182 106.643512,310.400505 C102.152093,313.814268 101.721244,318.197222 112.107349,313.57197 C118.577302,310.681187 121.234605,308.222222 126.934326,303.990404 L126.927105,303.997601 Z M116.158291,329.318939 L112.338419,331.197348 C108.761651,333.027778 105.574814,333.891414 102.195419,335.385985 C105.957523,337.022096 139.094372,320.320328 138.709256,312.278914 C136.581488,317.475126 120.644895,327.056692 116.155884,329.318939 L116.158291,329.318939 Z M130.650698,290.277778 C132.672558,289.116667 133.495744,288.106692 135.139709,289.020707 C137.794605,290.560859 135.139709,296.193687 133.014349,299.276389 C131.7555,301.106818 129.921384,303.083586 129.439988,304.091162 C136.396151,299.760985 142.189744,287.92197 136.636849,286.902399 C134.992884,286.619318 131.851779,287.869192 130.643477,290.280177 L130.650698,290.277778 Z M116.93093,249.830808 C138.66593,238.953788 156.294628,251.661237 156.294628,278.282828 C156.294628,304.911616 138.66593,335.330808 116.928523,346.263005 C95.1935233,357.142424 77.5576047,344.384596 77.5576047,317.763005 C77.5576047,291.139015 95.1911163,260.763005 116.926116,249.833207 L116.93093,249.830808 Z" id="Shape" fill="#99999D"></path>
                </g>
            </g>
        </g>
    </g>
</svg>