<?xml version="1.0" encoding="UTF-8"?>
<svg width="1920px" height="1080px" viewBox="0 0 1920 1080" version="1.1" xmlns="http://www.w3.org/2000/svg" xmlns:xlink="http://www.w3.org/1999/xlink">
    <!-- Generator: Sketch 42 (36781) - http://www.bohemiancoding.com/sketch -->
    <title>iOS Development: XCode</title>
    <desc>Created with Sketch.</desc>
    <defs>
        <linearGradient x1="50%" y1="0%" x2="50%" y2="100%" id="linearGradient-1">
            <stop stop-color="#2C2255" offset="28.4199617%"></stop>
            <stop stop-color="#463788" offset="100%"></stop>
        </linearGradient>
        <linearGradient x1="90.520234%" y1="92.9489241%" x2="17.9812932%" y2="22.8884289%" id="linearGradient-2">
            <stop stop-color="#94C858" offset="0%"></stop>
            <stop stop-color="#6F9949" offset="100%"></stop>
        </linearGradient>
    </defs>
    <g id="Android" stroke="none" stroke-width="1" fill="none" fill-rule="evenodd">
        <g id="7_03">
            <g id="iOS-Development:-XCode">
                <rect id="Rectangle" fill="#FFFFFF" x="0" y="0" width="1920" height="1080"></rect>
                <g id="IDE" transform="translate(749.000000, 266.000000)">
                    <g id="window">
                        <path d="M12.9154451,12.84825 L23.9273901,6.75975 C30.3351429,2.55 40.0223077,2.37 50.7948626,7.275 L385.006698,159.519 C403.995214,168.16575 419.139544,189.50025 419.139544,206.832 L419.232511,503.4045 C419.232511,526.6515 407.930044,533.2125 401.661742,539.346 C395.68861,546.411 384.19556,547.905 371.191797,541.98525 L37.3588022,389.4825 C18.4167692,380.83575 3.22595604,359.54175 3.22595604,342.165 L3.18412088,37.1685 L3.18412088,30.27 C3.18412088,21.8325 6.88420879,15.83175 12.9154451,12.84825 L12.9154451,12.84825 Z" id="Shape" fill="#EBECEC"></path>
                        <path d="M9.25951648,11.5725 L9.25951648,11.5275 L9.92190659,11.145 C10.2984231,10.9335 10.7725549,10.677 11.2002033,10.46325 L11.2466868,10.42275 L22.2632802,4.32525 L22.2632802,4.37025 C26.0633077,1.8975 30.7651154,0.66675 36.0316978,0.75 C41.0170549,0.8355 46.5253516,2.1135 52.2219066,4.755 L386.426769,156.95625 C396.397484,161.5125 405.322319,169.30425 411.776555,178.25025 C418.284247,187.27725 422.316692,197.5395 422.316692,206.82525 L422.409659,503.39775 C422.409659,524.72775 413.387209,532.81875 406.651747,538.824 C405.698835,539.6745 404.843538,540.444 404.178824,541.1235 C400.571703,545.34225 395.351604,547.851 389.085626,548.364 C383.291456,548.8725 376.690797,547.6845 369.760104,544.48725 L35.9387308,392.03625 C25.9680165,387.48 17.0431813,379.68375 10.5889451,370.74225 C4.08125275,361.71975 0.0488076923,351.45525 0.0488076923,342.16725 L0,37.17075 L0,30.27 C0,25.66875 0.999395604,21.7065 2.84943956,18.42825 C4.35701923,15.6578004 6.56162181,13.2999185 9.25951648,11.5725 L9.25951648,11.5725 Z M25.5868516,9.1875 L16.5155934,14.16675 L16.5620769,14.295 L14.4284835,15.31875 C11.9090769,16.59675 9.86612637,18.46875 8.49253846,20.94375 C7.1143022,23.4525 6.30781319,26.60475 6.30781319,30.26775 L6.30781319,41.9295 L6.40078022,342.16275 C6.40078022,350.3415 10.0102253,359.49675 15.8973626,367.62825 C21.7845,375.80925 29.8563626,382.8765 38.7811978,386.96475 L372.656027,539.42475 C378.443225,542.10225 383.905038,543.12825 388.460423,542.74575 C392.922841,542.36325 396.629901,540.5745 399.144659,537.63375 L401.329385,535.03725 L401.654769,535.2915 L402.182357,534.82575 C408.115978,529.5 416.090225,522.39 416.043742,503.39325 L415.997258,206.82525 C415.997258,198.69375 412.343654,189.4935 406.456516,181.317 C400.569379,173.18325 392.499841,166.11375 383.575005,162.0255 L49.372467,9.822 C44.4847253,7.608 39.9270165,6.49875 35.9387308,6.41325 C31.9504451,6.36825 28.4850989,7.26375 25.7820824,9.0525 L25.5868516,9.18075 L25.5868516,9.1875 Z" id="Shape" fill="#B2B3B3"></path>
                        <path d="M16.6178571,251.715 L16.4737582,33.67425 L12.1554396,27.1155 L16.378467,23.88 L12.9154451,12.84825 L23.9273901,6.75975 C30.3351429,2.55 40.0223077,2.37 50.7948626,7.275 L385.006698,159.519 C403.995214,168.16575 419.139544,189.50025 419.139544,206.832 L419.232511,503.616 C419.232511,526.91025 407.930044,533.4285 401.661742,539.5575 L80.2305495,224.031 L16.6178571,251.715 Z" id="Shape" fill="#EBECEC"></path>
                        <path d="M15.9996264,251.715 L15.8601758,33.8025 L11.5836923,27.4125 L11.3466264,26.9895 L11.7277912,26.69025 L15.6672692,23.7045 L12.2972143,13.017 L12.1577637,12.5895 L12.5854121,12.37575 L23.6020055,6.285 C26.9720604,4.071 31.1950879,2.92125 35.9898626,3.00675 C40.5917308,3.09225 45.723511,4.3275 51.0877088,6.75525 L385.292571,158.99925 C394.837962,163.34175 403.428115,170.87925 409.645286,179.48325 C415.911264,188.16825 419.806582,198.00525 419.806582,206.82075 L419.853066,503.60475 C419.899549,524.0055 411.309396,531.70725 404.850511,537.4605 C403.902247,538.3155 402.951659,539.16375 402.14517,539.9355 L401.668714,540.399 L401.250363,539.931 L80.0910989,224.715 L16.8967582,252.22575 L15.994978,252.60825 L15.994978,251.715 L15.9996264,251.715 Z M17.091989,33.67425 L17.2779231,250.82175 L79.9446758,223.5225 L80.3723242,223.3065 L80.7093297,223.6485 L401.671038,538.7385 C402.438016,538.0185 403.198022,537.3345 404.002187,536.65725 C410.221681,531.03225 418.621253,523.53975 418.621253,503.6115 L418.528286,206.8275 C418.528286,198.2235 414.730582,188.6475 408.604055,180.084 C402.4845,171.651 394.082604,164.2845 384.727797,160.023 L50.5136374,7.779 C45.2888901,5.394 40.3523407,4.2465 35.9875385,4.1565 C31.4321538,4.07325 27.441544,5.1375 24.3062308,7.2255 L24.2597473,7.266 L13.628967,13.1025 L16.999022,23.75175 L17.091989,24.08925 L16.8084396,24.348 L12.9642527,27.24375 L17.0431813,33.375 L17.0896648,33.67425 L17.091989,33.67425 Z" id="Shape" fill="#B2B3B3"></path>
                        <path d="M3.18412088,37.16625 L3.18412088,30.27 C3.13763736,12.88875 19.035,5.77875 37.977033,14.42325 L371.807703,166.88325 C390.79622,175.56825 405.942874,196.86225 405.942874,214.2345 L406.035841,519.23775 L406.035841,526.134 C406.035841,543.46575 390.184962,550.623 371.196445,541.974 L37.3634505,389.4825 C18.4214176,380.83575 3.2306044,359.54175 3.2306044,342.165 L3.18412088,37.1685 L3.18412088,37.16625 Z" id="Shape" fill="#FEFEFE"></path>
                        <path d="M2.51708242,36.1875 L2.51708242,30.27 C2.51708242,26.00625 3.46534615,22.35 5.17129121,19.3215 C6.78082192,16.4389008 9.23612632,14.0823131 12.227489,12.549 C15.1675714,10.974 18.6724286,10.164 22.6049341,10.164 C27.3392802,10.164 32.6453736,11.3565 38.1862088,13.9125 L371.233632,166.3725 C380.753456,170.76 389.327341,178.2525 395.530566,186.897 C401.782599,195.5865 405.663973,205.38075 405.663973,214.2345 L405.717429,519.24 L405.717429,526.1385 C405.717429,530.3955 404.764516,534.0585 403.109703,537.0375 C401.478156,539.914756 399.030626,542.280269 396.05583,543.855 C393.071588,545.385 389.564407,546.2355 385.680709,546.2355 C380.948687,546.2355 375.640269,545.0025 370.055275,542.4915 L37.0008791,389.99325 C27.4833791,385.64625 18.9118187,378.10875 12.7062692,369.50925 C6.45423626,360.81975 2.61934615,350.9805 2.61934615,342.16725 L2.52637912,37.17075 L2.52637912,36.192 L2.51708242,36.1875 Z M3.79537912,30.27 L3.79537912,38.1 L3.84186264,342.165 C3.84186264,350.769 7.63026923,360.35175 13.7428516,368.8725 C19.8507857,377.34375 28.2340879,384.7125 37.5656538,389.01 L370.613077,541.47 C376.012137,543.9405 381.125324,545.0925 385.673736,545.0925 C389.322692,545.0925 392.636967,544.3275 395.388791,542.87625 C398.179618,541.435444 400.468034,539.227891 401.966209,536.53125 C403.576863,533.71875 404.429835,530.18625 404.429835,526.13625 L404.429835,518.26125 L404.383352,214.24125 C404.383352,205.635 400.594945,196.01625 394.482363,187.4955 C388.376753,179.0625 379.991126,171.6555 370.65956,167.394 L37.6144615,14.934 C32.2130769,12.46575 27.1463736,11.316 22.6002857,11.316 C18.9048462,11.316 15.6370549,12.081 12.8433956,13.53225 C10.0732756,14.9859582 7.80121603,17.1901968 6.30548901,19.875 C4.69715934,22.6875 3.79537912,26.18175 3.79537912,30.27 L3.79537912,30.27 Z" id="Shape" fill="#B2B3B3"></path>
                        <path d="M26.25,43.5 C29.5637085,43.4999999 32.25,40.1421356 32.25,36 C32.25,31.8578644 29.5637085,28.5000001 26.25,28.5 C22.9362915,28.4999999 20.25,31.8578643 20.25,36 C20.25,40.1421357 22.9362915,43.5000001 26.25,43.5 Z" id="Oval" fill="#FF5F57" transform="translate(26.250000, 36.000000) rotate(-24.000000) translate(-26.250000, -36.000000) "></path>
                        <path d="M42.75,51 C46.0637085,50.9999999 48.75,47.6421356 48.75,43.5 C48.75,39.3578644 46.0637085,36.0000001 42.75,36 C39.4362915,35.9999999 36.75,39.3578643 36.75,43.5 C36.75,47.6421357 39.4362915,51.0000001 42.75,51 Z" id="Oval" fill="#FFBD2F" transform="translate(42.750000, 43.500000) rotate(-24.000000) translate(-42.750000, -43.500000) "></path>
                        <path d="M59.25,58.5 C62.5637085,58.4999999 65.25,55.1421356 65.25,51 C65.25,46.8578644 62.5637085,43.5000001 59.25,43.5 C55.9362915,43.4999999 53.25,46.8578643 53.25,51 C53.25,55.1421357 55.9362915,58.5000001 59.25,58.5 Z" id="Oval" fill="#48E285" transform="translate(59.250000, 51.000000) rotate(-24.000000) translate(-59.250000, -51.000000) "></path>
                        <polygon id="Shape" fill="#B3B2B2" points="3.46767033 49.4715 405.898714 233.319 418.807187 225.354 419.518385 226.33275 406.321714 234.417 405.989357 234.63075 405.659324 234.45975 2.90057143 50.4975"></polygon>
                    </g>
                    <g id="Eclipse" transform="translate(114.103208, 265.926606) rotate(25.000000) translate(-114.103208, -265.926606) translate(39.603208, 195.926606)">
                        <ellipse id="Oval" fill="#2C2255" cx="82.0695187" cy="70" rx="66.9304813" ry="66.8181818"></ellipse>
                        <ellipse id="Oval-2" fill="url(#linearGradient-1)" cx="82.4679144" cy="70.3977273" rx="43.4251337" ry="43.3522727"></ellipse>
                        <path d="M76.0935829,0.25066037 C74.1236679,0.0846779611 72.1305629,5.65204449e-15 70.1176471,5.65204449e-15 C31.3927399,5.65204449e-15 0,31.3400675 0,70 C0,108.659932 31.3927399,140 70.1176471,140 C72.1305629,140 74.1236679,139.915322 76.0935829,139.74934 C40.165852,136.722118 11.9518717,106.650395 11.9518717,70 C11.9518717,33.349605 40.165852,3.27788157 76.0935858,0.250660125 Z" id="Combined-Shape" fill="#F7941E"></path>
                        <polygon id="Rectangle" fill="#FFFFFF" points="15.9358289 81.9318182 148.203209 81.9318182 146.609626 89.0909091 17.5294118 89.0909091"></polygon>
                        <rect id="Rectangle" fill="#FFFFFF" x="15.1390374" y="66.8181818" width="133.860963" height="7.15909091"></rect>
                        <polygon id="Rectangle" fill="#FFFFFF" points="17.5294118 50.9090909 146.609626 50.9090909 148.203209 58.0681818 15.9358289 58.0681818"></polygon>
                    </g>
                    <g id="Android_Studio" transform="translate(288.412380, 335.281897) rotate(25.000000) translate(-288.412380, -335.281897) translate(219.912380, 258.781897)">
                        <path d="M0.159401913,68.3314504 C0.159212217,68.398028 0.159117305,68.4646279 0.159117305,68.53125 C0.159117305,106.380014 30.7919923,137.0625 68.5795587,137.0625 C106.367125,137.0625 137,106.380014 137,68.53125 C137,68.4646279 136.999905,68.398028 136.999715,68.3314504 C136.892137,105.868819 106.300611,136.265625 68.5795587,136.265625 C30.8585067,136.265625 0.266980589,105.868819 0.159401913,68.3314504 Z" id="Combined-Shape" fill="#6F9949"></path>
                        <path d="M0.159401913,0.118950437 C0.159212217,0.185528002 0.159117305,0.252127899 0.159117305,0.31875 C0.159117305,38.1675143 30.7919923,68.85 68.5795587,68.85 C106.367125,68.85 137,38.1675143 137,0.31875 C137,0.252127899 136.999905,0.185528002 136.999715,0.118950437 C136.892137,37.6563191 106.300611,68.053125 68.5795587,68.053125 C30.8585067,68.053125 0.266980589,37.6563191 0.159401913,0.118950437 Z" id="Combined-Shape-Copy-2" fill="#9DC673" transform="translate(68.579559, 34.484475) scale(1, -1) translate(-68.579559, -34.484475) "></path>
                        <path d="M0.159529559,67.8936891 L136.999588,67.8936891 C136.999863,67.9733445 137,68.053032 137,68.1327516 C137,105.761465 106.367125,136.265564 68.5795587,136.265564 C30.7919923,136.265564 0.159117305,105.761465 0.159117305,68.1327516 C0.159117305,68.053032 0.159254798,67.9733445 0.159529559,67.8936891 Z" id="semi_circle" fill="#93C757"></path>
                        <path d="M0.149945055,0.796875 L136.988537,0.796875 C136.773207,38.2422465 106.223345,68.53125 68.569241,68.53125 C30.9151375,68.53125 0.365274866,38.2422465 0.149945055,0.796875 Z" id="semi_circle-copy" fill="#87BA52" transform="translate(68.569241, 34.664063) scale(1, -1) translate(-68.569241, -34.664063) "></path>
                        <rect id="Rectangle-3" fill="#7CAF48" x="0.159117305" y="67.734375" width="136.840883" height="0.796875"></rect>
                        <rect id="Rectangle-3-Copy" fill="#94C858" x="0.159117305" y="68.53125" width="136.840883" height="0.796875"></rect>
                        <path d="M76.6945412,30.440625 L61.5783972,44.465625 L51.3948897,54.665625 L51.8722416,67.575 L61.5783972,77.296875 L32.9372822,126.225 C32.9372822,126.225 60.7828107,145.828125 94.8339141,131.325 C128.885017,116.821875 134.772358,85.584375 134.772358,85.584375 L117.905923,68.53125 L114.56446,68.53125 L76.6945412,30.440625 Z" id="Path-4" fill="url(#linearGradient-2)"></path>
                        <path d="M60.7828107,30.28125 L76.6945412,30.28125 L76.6945412,43.03125 L81.3089431,43.03125 C81.3089431,43.03125 83.0592334,43.03125 85.445993,44.94375 C87.8327526,46.85625 87.8327526,49.884375 87.8327526,49.884375 L87.8327526,65.6981218 C87.8327526,65.6981218 87.8327526,66.778125 87.6736353,67.25625 C87.514518,67.734375 86.4006969,68.85 86.4006969,68.85 L72.7166086,82.55625 C72.7166086,82.55625 71.1254355,84.46875 68.738676,84.46875 C66.3519164,84.46875 64.7607433,82.55625 64.7607433,82.55625 L51.0766551,68.85 C51.0766551,68.85 50.0446998,67.7866411 49.8037166,67.25625 C49.5627334,66.7258589 49.6445993,65.6981218 49.6445993,65.6981218 L49.6445993,49.725 C49.6445993,49.725 49.8037166,46.85625 52.0313589,44.94375 C54.2590012,43.03125 56.4866434,43.03125 56.4866434,43.03125 L60.7828107,43.03125 L60.7828107,30.28125 Z M68.738676,68.53125 C74.0113596,68.53125 78.2857143,64.2499729 78.2857143,58.96875 C78.2857143,53.6875271 74.0113596,49.40625 68.738676,49.40625 C63.4659923,49.40625 59.1916376,53.6875271 59.1916376,58.96875 C59.1916376,64.2499729 63.4659923,68.53125 68.738676,68.53125 Z" id="Combined-Shape" fill="#6E6E6E"></path>
                        <path d="M59.2004991,58.96875 C59.1946115,59.1008573 59.1916376,59.233689 59.1916376,59.3671875 C59.1916376,64.4283595 63.4659923,68.53125 68.738676,68.53125 C74.0113596,68.53125 78.2857143,64.4283595 78.2857143,59.3671875 C78.2857143,59.233689 78.2827404,59.1008573 78.2768528,58.96875 C78.0595305,63.8450737 73.8722821,67.734375 68.738676,67.734375 C63.6050698,67.734375 59.4178214,63.8450737 59.2004991,58.96875 Z" id="Combined-Shape" fill="#8DAD6F"></path>
                        <path d="M59.2004991,49.246875 C59.1946115,49.3789823 59.1916376,49.511814 59.1916376,49.6453125 C59.1916376,54.7064845 63.4659923,58.809375 68.738676,58.809375 C74.0113596,58.809375 78.2857143,54.7064845 78.2857143,49.6453125 C78.2857143,49.511814 78.2827404,49.3789823 78.2768528,49.246875 C78.0595305,54.1231987 73.8722821,58.0125 68.738676,58.0125 C63.6050698,58.0125 59.4178214,54.1231987 59.2004991,49.246875 Z" id="Combined-Shape-Copy" fill="#617F44" transform="translate(68.738676, 54.028125) scale(1, -1) translate(-68.738676, -54.028125) "></path>
                        <path d="M60.7828107,43.828125 L56.4866434,43.828125 C56.4866434,43.828125 54.4181185,43.828125 52.3495935,45.421875 C50.2810685,47.015625 49.6445993,49.725 49.6445993,49.725 C49.6445993,49.725 49.6445993,47.334375 51.7131243,45.2625 C53.7816492,43.190625 56.0092915,43.03125 56.3275261,43.03125 C56.6457607,43.03125 60.7828107,43.03125 60.7828107,43.03125 L60.7828107,43.828125 Z" id="Path-2" fill="#8B8B8B"></path>
                        <path d="M87.8327526,43.828125 L83.5365854,43.828125 C83.5365854,43.828125 81.4680604,43.828125 79.3995354,45.421875 C77.3310105,47.015625 76.6945412,49.725 76.6945412,49.725 C76.6945412,49.725 76.6945412,47.334375 78.7630662,45.2625 C80.8315912,43.190625 83.0592334,43.03125 83.3774681,43.03125 C83.6957027,43.03125 87.8327526,43.03125 87.8327526,43.03125 L87.8327526,43.828125 Z" id="Path-2-Copy" fill="#8B8B8B" transform="translate(82.263647, 46.378125) scale(-1, 1) translate(-82.263647, -46.378125) "></path>
                        <path d="M115.041812,71.08125 L76.3763066,138.178125 C76.3763066,138.178125 75.8989547,138.975 75.7398374,139.453125 C75.5807201,139.93125 75.5807201,141.20625 75.5807201,141.20625 L74.7851336,151.565625 C74.7851336,151.565625 74.7851336,152.521875 75.5807201,152.68125 C76.3763066,152.840625 77.1718931,152.203125 77.1718931,152.203125 L85.7642276,146.30625 C85.7642276,146.30625 86.8866735,145.451829 87.3554007,144.871875 C87.8241278,144.291921 88.4692218,142.959375 88.4692218,142.959375 L124.429733,80.484375 L115.041812,71.08125 Z" id="Path-3-Copy-3" fill="#BBBBBB" transform="translate(99.607433, 111.894039) scale(-1, 1) translate(-99.607433, -111.894039) "></path>
                        <path d="M115.213918,71.08125 L76.8666477,137.7 C76.8666477,137.7 76.248861,138.752758 76.0710612,139.134375 C75.8932614,139.515992 75.7528266,140.409375 75.7528266,140.409375 L75.1163573,150.928125 C75.1163573,150.928125 74.95724,151.725 75.7528266,151.884375 C76.5484131,152.04375 77.3439996,151.40625 77.3439996,151.40625 L85.9363341,145.509375 C85.9363341,145.509375 87.05878,144.654954 87.5275072,144.075 C87.9962343,143.495046 88.6413283,142.1625 88.6413283,142.1625 L124.283605,80.165625 L115.213918,71.08125 Z" id="Path-3-Copy-2" fill="#E1E1E1" transform="translate(99.693486, 111.495602) scale(-1, 1) translate(-99.693486, -111.495602) "></path>
                        <path d="M53.3042973,71.240625 L14.4796748,138.65625 C14.4796748,138.65625 14.1041396,139.389444 14.0023229,139.771875 C13.9005061,140.154306 13.8432056,141.046875 13.8432056,141.046875 L13.047619,151.884375 C13.047619,151.884375 13.047619,152.68125 13.8432056,152.840625 C14.6387921,153 15.4343786,152.3625 15.4343786,152.3625 L24.0267131,146.465625 C24.0267131,146.465625 25.149159,145.611204 25.6178862,145.03125 C26.0866133,144.451296 26.7317073,143.11875 26.7317073,143.11875 L44.8710801,111.5625 C44.8710801,111.5625 69.0569106,127.021875 94.8339141,110.2875 C120.610918,93.553125 117.905923,68.690625 117.905923,68.690625 L105.494774,68.690625 C105.494774,68.690625 106.767712,87.3375 88.1509872,99.45 C69.5342625,111.5625 51.2357724,100.565625 51.2357724,100.565625 L62.6922184,80.64375 L53.3042973,71.240625 Z" id="Path-3" fill="#CBCBCB"></path>
                        <path d="M53.3042973,71.240625 L14.9570267,137.859375 C14.9570267,137.859375 14.33924,138.912133 14.1614402,139.29375 C13.9836404,139.675367 13.8432056,140.56875 13.8432056,140.56875 L13.2067364,151.0875 C13.2067364,151.0875 13.047619,151.884375 13.8432056,152.04375 C14.6387921,152.203125 15.4343786,151.565625 15.4343786,151.565625 L24.0267131,145.66875 C24.0267131,145.66875 25.149159,144.814329 25.6178862,144.234375 C26.0866133,143.654421 26.7317073,142.321875 26.7317073,142.321875 L44.8710801,110.765625 C44.8710801,110.765625 67.4657375,125.772454 93.5609756,110.379977 C119.656214,94.9875 117.905923,68.53125 117.905923,68.53125 L105.494774,68.53125 C105.494774,68.53125 106.449477,87.975 87.6736353,99.76875 C68.8977933,111.5625 50.7584204,100.246875 50.7584204,100.246875 L62.3739837,80.325 L53.3042973,71.240625 Z" id="Path-3-Copy" fill="#F2F2F2"></path>
                    </g>
                </g>
            </g>
        </g>
    </g>
</svg>