<?xml version="1.0" encoding="UTF-8"?>
<svg width="1920px" height="1080px" viewBox="0 0 1920 1080" version="1.1" xmlns="http://www.w3.org/2000/svg" xmlns:xlink="http://www.w3.org/1999/xlink">
    <!-- Generator: Sketch 42 (36781) - http://www.bohemiancoding.com/sketch -->
    <title>Big</title>
    <desc>Created with Sketch.</desc>
    <defs></defs>
    <g id="Android" stroke="none" stroke-width="1" fill="none" fill-rule="evenodd">
        <g id="7_04">
            <g id="Big">
                <rect id="Rectangle" fill="#FFFFFF" x="0" y="0" width="1920" height="1080"></rect>
                <g id="Testing" transform="translate(857.000000, 303.000000)">
                    <g id="Andoid_Java">
                        <path d="M193.521662,13.2606626 L180.484272,6.38280146 C174.798427,2.87197687 166.171964,3.11402006 156.663804,7.92133347 L34.3741647,69.191813 C17.5633081,77.6082061 4.13758122,97.038763 4.13758122,112.376154 L3.99103882,446.041089 C3.99103882,453.788868 7.80846854,459.073078 13.1010918,461.675642 L26.8272307,468.889008 C32.5130761,472.160186 41.0418442,471.822284 50.4059041,467.156363 L172.636926,405.835557 C189.450225,397.423957 202.880837,377.988607 202.880837,362.651216 L203.027379,28.693912 C203.027379,23.5486967 201.454491,19.5082529 198.709263,16.7187649 C196.897022,14.8399346 195.719798,14.4085705 193.514335,13.2534732 L193.521662,13.2606626 Z" id="Shape" fill="#EBECEC"></path>
                        <path d="M191.76071,16.3401231 L178.718436,9.46226195 L178.474199,9.31847391 C176.271178,7.97165928 173.379408,7.34378485 169.999163,7.53550224 C166.518781,7.77514897 162.549924,8.88471333 158.329503,11.000794 L36.0887108,72.3168063 C28.248692,76.2134622 21.1902327,82.7054921 16.0417095,90.0650432 C10.9420337,97.3742684 7.80358379,105.402434 7.80358379,112.376154 L7.65704138,446.041089 C7.65704138,449.12055 8.34090595,451.667994 9.52301471,453.740939 C10.7894849,455.811569 12.6233738,457.491415 14.815638,458.588992 L14.8644855,458.588992 L26.8760781,464.891701 L26.9737731,464.891701 L28.6883193,465.855081 C30.94263,467.149173 33.8344001,467.731515 37.1682399,467.484679 C40.6461797,467.197102 44.5686315,466.094728 48.6840308,464.02418 L170.924823,402.756097 C178.764841,398.816304 185.823301,392.319482 190.969381,385.012653 C196.064173,377.703428 199.205065,369.627333 199.249028,362.653613 L199.346722,28.698705 C199.346722,26.5826244 199.053638,24.7061905 198.467468,23.0717998 C197.876414,21.4805455 197.099739,20.1816602 196.017767,19.1248181 C194.935796,17.9697209 194.054099,17.5359603 192.730333,16.862553 C192.3884,16.6708356 191.997621,16.4791182 191.753383,16.3353302 L191.76071,16.3401231 Z M182.347803,3.35127033 L195.292383,10.1812021 C195.683162,10.3729195 195.976247,10.5167076 196.220484,10.6604956 C198.184153,11.6742013 199.459072,12.3452121 201.417855,14.3175047 C203.183691,16.0980799 204.507458,18.2620899 205.43556,20.8119311 C206.270851,23.1173326 206.712921,25.7630325 206.712921,28.6963085 L206.566378,362.651216 C206.566378,371.062817 202.937011,380.488123 197.058219,388.904516 C191.274678,397.129191 183.283232,404.486346 174.363684,408.955758 L52.0740451,470.233427 C47.0281016,472.773682 42.1751055,474.175615 37.7202163,474.460795 C33.6951848,474.7963 29.9730077,474.173219 26.7881527,472.831197 L26.7393052,472.831197 L26.0994034,472.490899 C25.7086236,472.347111 25.3666913,472.107464 24.9710268,471.915747 L11.3963152,464.798239 C8.06247538,463.111126 5.11941536,460.566077 3.16063184,457.100786 C1.34839073,454.074048 0.317709131,450.366713 0.317709131,446.036296 L0.464251539,112.376154 C0.464251539,103.957364 4.08873376,94.5320582 9.97241142,86.1635944 C15.7535094,77.8909893 23.7473977,70.5338347 32.7157931,66.0620267 L154.956585,4.78915071 C160.095339,2.24889537 165.041145,0.854151398 169.505804,0.564178855 C174.405205,0.228673433 178.762399,1.18726035 182.345361,3.35366679 L182.347803,3.35127033 Z" id="Shape" fill="#B2B3B3"></path>
                        <path d="M187.205684,354.136568 L187.449921,30.0934489 L191.318641,24.1262454 L187.542732,21.4805455 L195.924957,14.6026843 L180.288882,6.37800853 C174.598152,2.86718393 166.025421,3.10922713 156.470856,7.91654054 L34.2300646,69.18702 C17.4192081,77.6034132 3.98859644,97.0339701 3.98859644,112.371361 L3.84205404,446.036296 C3.84205404,453.781679 7.66192613,459.068285 12.9569918,461.668452 L26.6342832,468.881819 L34.1323697,465.562712 L40.4507898,455.703645 L156.959331,397.318512 C173.770188,388.902119 187.200799,369.471562 187.200799,354.129379 L187.205684,354.136568 Z" id="Shape" fill="#EBECEC"></path>
                        <path d="M186.465645,354.136568 L186.709882,30.0934489 L186.856425,29.7507541 L190.339249,24.3179628 L187.100662,22.0580941 L186.36795,21.5308713 L187.051814,20.9557191 L194.647596,14.7488688 L179.944508,6.96035008 L179.89566,6.96035008 C177.152875,5.27563357 173.623645,4.5039711 169.652346,4.74361783 C165.781184,4.98326456 161.421547,6.23661696 156.810346,8.54441497 L34.5695545,69.8148945 C26.2899085,73.9488006 18.8846322,80.7787324 13.4430241,88.4737889 C8.05514826,96.2215677 4.72375085,104.829678 4.72375085,112.380947 L4.57720845,446.041089 C4.57720845,449.604636 5.40761542,452.631374 6.82907678,455.09015 C8.3441494,457.658403 10.5947513,459.733372 13.3013665,461.057353 L13.3013665,461.105283 L26.6806883,468.071813 L33.6414526,464.994749 L39.8157727,455.370536 L40.1088576,455.09015 L156.617399,396.707413 C164.848197,392.571111 172.297436,385.743575 177.695082,378.048519 C183.131805,370.307929 186.463202,361.697422 186.463202,354.146154 L186.465645,354.136568 Z M188.180191,30.2851663 L187.935954,354.131775 C187.935954,361.977809 184.497092,370.82317 178.911384,378.803406 C173.374523,386.692576 165.776299,393.668693 157.296379,397.946387 L40.9417069,456.238057 L34.7625021,465.90301 L34.4205698,466.190586 L26.9713307,469.51209 L26.6293984,469.655878 L26.2874661,469.51209 L12.6101748,462.298723 C9.72084696,460.860843 7.21741416,458.694436 5.55171546,455.756368 C3.9837117,453.115461 3.10201488,449.849076 3.10201488,446.043486 L3.24855728,112.383343 C3.24855728,104.542102 6.680092,95.6919484 12.2682425,87.7093158 C17.7562556,79.8249384 25.4008846,72.8032892 33.8832476,68.5711279 L156.119155,7.30064844 C160.925746,4.89699174 165.480772,3.60050293 169.552209,3.35845973 C173.86544,3.07088365 177.636465,3.93840482 180.679662,5.7645129 L196.310852,14.037118 L197.238954,14.5164115 L196.408547,15.139493 L188.715071,21.442202 L191.753383,23.6086084 L192.290706,23.9920432 L191.895041,24.519266 L188.172864,30.2947522 L188.180191,30.2851663 Z" id="Shape" fill="#B2B3B3"></path>
                        <path d="M202.739179,362.653613 L202.885722,28.698705 C202.885722,23.7931364 201.461818,19.8964806 198.96327,17.1093891 C193.619357,11.1973043 183.473737,10.4232453 172.006794,16.1508022 L49.7660022,77.4212817 C32.9527033,85.8808113 19.5220917,105.316161 19.4805713,120.605622 L19.3755492,454.606063 C19.3267018,469.900318 33.3947729,475.575152 50.2056294,467.163552 L172.495269,405.837954 C189.306125,397.426353 202.739179,377.991004 202.739179,362.653613 L202.739179,362.653613 Z" id="Shape" fill="#FEFEFE"></path>
                        <path d="M201.991813,362.653613 L202.138355,28.698705 C202.138355,26.3885105 201.796423,24.2724299 201.200484,22.4439253 C200.509292,20.5698879 199.573863,18.9354972 198.391754,17.5886826 C195.77353,14.7081289 191.973197,13.1216675 187.38642,12.975483 C182.89978,12.7837656 177.670658,14.0347216 172.141124,16.7762802 L49.0943495,78.0467597 C40.7560865,82.1830622 33.258,89.0609234 27.8310462,96.7559799 C22.4089771,104.496569 19.0507136,113.059147 18.9969814,120.610415 L18.850439,454.606063 C18.850439,457.977893 19.5880357,460.860843 20.8702818,463.221363 C22.0992771,465.477378 23.989733,467.31978 26.2972356,468.510367 C28.568643,469.7086 31.328525,470.338871 34.3814918,470.338871 C38.6800691,470.338871 43.6625109,469.131052 48.8403427,466.538074 L171.935965,405.217269 C180.227823,401.07857 187.723467,394.246241 193.150421,386.555978 C198.626222,378.808199 201.984486,370.200088 201.984486,362.651216 L201.991813,362.653613 Z M203.615991,28.698705 L203.469449,362.651216 C203.469449,370.487664 200.01349,379.378558 194.391147,387.318054 C188.815208,395.202432 181.165694,402.23127 172.634484,406.456242 L49.5315344,467.733911 C44.1094653,470.465884 38.9267488,471.71684 34.3888189,471.71684 C31.0842876,471.71684 28.0728411,471.045829 25.5571965,469.744547 C23.0185689,468.410942 20.9409582,466.367377 19.5880357,463.873202 C18.1543625,461.332947 17.4143234,458.200764 17.4143234,454.591684 L17.5608658,120.596037 C17.5608658,112.754796 21.0168242,103.904642 26.6416103,95.9220093 C32.1687014,88.0855612 39.8670626,81.063912 48.3982731,76.7838214 L171.452375,15.5205313 C177.223704,12.6351847 182.699505,11.3866252 187.437709,11.5783426 C192.468999,11.7221306 196.613707,13.5003094 199.478611,16.6756285 C200.870143,18.2301973 201.925409,20.0458712 202.580425,22.0125612 C203.274059,23.9848538 203.615991,26.2447225 203.615991,28.698705 L203.615991,28.698705 Z" id="Shape" fill="#B2B3B3"></path>
                        <path d="M43.3987346,436.999218 L50.9456686,428.587618 L58.4926026,420.166432 L58.4926026,438.973907 L50.9456686,438.005734 L43.3987346,436.999218 Z M115.785799,392.17809 C119.854793,390.160265 123.191076,392.130161 123.191076,396.50611 C123.191076,400.886852 119.854793,406.130323 115.785799,408.145752 C111.719247,410.118044 108.434255,408.145752 108.434255,403.774595 C108.434255,399.38906 111.719247,394.193519 115.785799,392.175694 L115.785799,392.17809 Z M169.163871,366.981633 L182.592041,360.391348 L182.592041,374.86601 L169.168756,381.499432 L169.163871,366.981633 Z" id="Shape" fill="#B2B3B3"></path>
                        <path d="M90.5414272,147.438867 L90.5414272,195.483243 C90.5414272,198.754421 91.9677733,200.340883 93.4844872,200.820176 C96.0318827,201.587046 97.7000238,199.909518 100.884879,198.560307 C100.987458,199.135459 100.933726,212.028454 100.933726,212.98704 C100.933726,216.449936 100.542946,219.050103 103.730244,219.24182 C105.986997,219.337679 108.827477,217.413316 110.739856,214.285926 C111.965927,212.212982 111.765653,210.147227 111.765653,207.647711 C111.765653,206.689124 111.716805,193.79613 111.8145,193.125119 L122.453479,187.780997 C122.648869,188.35615 122.502326,200.482274 122.502326,202.207731 C122.502326,205.385446 122.111547,208.318722 125.296402,208.46251 C125.980266,208.51044 126.9621,208.270793 127.890202,207.839429 C129.756175,206.923978 131.473164,205.145799 132.306013,203.549752 C133.673742,201.105356 133.380658,199.852003 133.380658,197.016982 L133.380658,182.398532 C136.567955,180.471772 138.284944,180.66349 140.834781,177.25092 C142.402785,175.134839 143.770514,172.297422 143.770514,168.930386 L143.770514,120.651155 L90.5414272,147.100965 L90.5414272,147.43647 L90.5414272,147.438867 Z M86.4773177,155.757005 C86.4773177,154.606701 86.5261652,153.784712 86.086538,153.015446 C85.8300294,152.455795 85.3519378,152.023041 84.7627715,151.817213 C83.7369747,151.381056 81.9662539,151.625495 80.2053027,152.72787 C78.5926294,153.79199 77.2910662,155.250824 76.4293933,156.960031 C75.354749,159.171971 75.5941016,160.758432 75.5941016,163.214811 L75.5941016,190.383561 C75.5941016,191.538658 75.5941016,192.35825 75.9848813,193.127516 C77.5577698,196.106325 83.0970728,194.086103 85.6444684,189.180534 C86.7191127,187.064454 86.4748753,185.286275 86.4748753,182.930548 L86.4748753,155.754608 L86.4773177,155.757005 Z M135.539716,100.88749 C134.367377,100.355474 133.138863,100.115827 131.763806,99.9696425 C131.373027,99.9217132 130.689162,99.9696425 130.396077,99.8737838 C130.493772,99.3944904 131.324179,97.6139152 131.617264,96.9884372 C132.008044,96.125709 134.706866,90.1105761 134.807004,89.7271413 C134.904699,89.0082011 134.606729,88.6679027 134.264797,88.720625 C133.727475,88.7637614 133.385542,89.2478478 133.141305,89.6792119 L128.630241,99.9217132 C128.288309,100.113431 126.57132,100.305148 126.077961,100.401007 C123.191076,100.980952 120.150321,102.183978 117.109566,103.674581 C113.979002,105.253007 111.008701,107.120291 108.238865,109.25116 C107.555001,109.778383 106.179944,111.079665 105.593775,111.417567 L101.131558,105.742732 C100.398846,104.827282 99.3730496,106.222026 99.4145699,107.132683 C99.4634174,107.619166 101.033864,109.397345 101.278101,109.73285 C101.722613,110.267263 102.16224,110.844811 102.55302,111.372034 C102.797257,111.65961 103.781534,112.817104 103.879229,113.152609 C103.092784,113.82362 101.918003,115.172831 101.182848,116.037956 C98.5807255,119.127527 96.4045879,122.539875 94.7105587,126.186995 C92.6491955,130.757058 90.6879696,137.1053 90.5389848,142.732205 L143.768072,116.23207 C143.670377,110.653094 141.662746,106.32747 139.554978,103.873488 C138.333791,102.430814 137.10772,101.613619 135.537273,100.892282 L135.539716,100.88749 Z M106.426624,125.748441 C102.650715,128.729647 101.131558,122.671377 105.05401,119.58952 C106.817404,118.199569 108.238865,118.966439 108.580798,120.409112 C109.020425,122.381405 107.750391,124.691599 106.424182,125.748441 L106.426624,125.748441 Z M125.589486,113.62711 C125.345249,112.620593 125.638334,111.465496 126.077961,110.550046 C126.468741,109.687317 126.964543,108.963584 127.79495,108.290177 C129.658481,106.794781 131.079942,107.659906 131.375469,109.152905 C132.254723,113.190953 126.576205,117.665157 125.594371,113.622317 L125.589486,113.62711 Z M158.82042,147.053036 L158.82042,119.781238 C158.82042,117.864064 158.722725,116.368668 157.159606,115.793516 C155.977497,115.410081 154.458341,115.553869 152.599694,116.704174 C150.933996,117.765809 149.561382,119.448129 148.831112,120.938731 C147.702736,123.150671 147.993378,124.691599 147.993378,127.097652 L147.993378,154.362261 C147.993378,156.382483 148.13992,157.729297 149.659077,158.309243 C152.260205,159.267829 156.375604,156.583786 157.994897,153.214353 C159.118389,150.8083 158.825304,149.653203 158.825304,147.055432 L158.82042,147.053036 Z" id="Shape" fill="#98CD00"></path>
                    </g>
                    <g id="bug" transform="translate(126.298269, 277.292902) rotate(-3.000000) translate(-126.298269, -277.292902) translate(94.798269, 249.292902)">
                        <path d="M23.8455882,10.488959 C23.8455882,10.488959 22.3235294,8.49106204 23.3382353,6.49316509 C24.3529412,4.49526814 27.3970588,4.49526814 27.3970588,4.49526814 L27.9044118,2.99684543 C27.9044118,2.99684543 26.3823529,0.998948475 26.8897059,0.499474238 C27.3970588,-3.84248189e-13 29.4264706,2.49737119 29.4264706,2.49737119 L32.4705882,2.49737119 C32.4705882,2.49737119 34.5,-3.82527343e-13 35.0073529,0.499474238 C35.5147059,0.998948475 33.9926471,2.99684543 33.9926471,2.99684543 L34.5,4.49526814 C34.5,4.49526814 37.5441176,4.49526814 38.5588235,6.49316509 C39.5735294,8.49106204 37.5441176,10.488959 37.5441176,10.488959 L23.8455882,10.488959 Z" id="Path-2" fill="#010000"></path>
                        <path d="M31.2022059,41.4563617 L31.4558824,9.9928794 C31.4558824,9.9928794 25.914091,9.65411114 24.878463,9.9928794 C22.1265614,10.8930646 19.6395955,12.3647037 17.5627354,14.2648813 C17.3663047,14.4446013 14.2665732,12.8050057 12.1351084,11.7740077 C11.682295,11.55498 12.5047646,8.13240271 12.1764706,7.9915878 C12.0063809,7.91863135 6.59558824,2.49737119 6.08823529,3.49631966 C5.58088235,4.49526814 10.6802226,8.96391314 10.6544118,8.99053628 C10.5764188,9.07098366 9.81586441,12.3306372 10.6544118,12.9863302 C11.4929591,13.6420232 16.1493195,15.6928257 15.9931971,15.8717772 C13.8517299,18.3263813 12.3128267,21.3052685 11.6023488,24.5860851 C11.5156712,24.9863415 5.58088235,22.4763407 5.07352941,22.9758149 C4.6947266,23.3487353 2.71974142,28.183225 2.02941176,30.9677457 C1.91921117,31.412252 -0.0115090525,31.1151935 -1.91121661e-13,31.466877 C0.0115090525,31.8185605 1.97864331,32.8852451 2.02941176,32.9652997 C2.40775359,33.5618902 5.78400056,24.8239568 6.08823529,24.9737119 C7.10294118,25.4731861 11.240846,26.9267374 11.2171261,27.2421162 C11.1804361,27.7299454 11.1617647,28.2227104 11.1617647,28.7197687 C11.1617647,31.860942 11.9074344,34.8306594 13.2340175,37.4667231 C13.4303674,37.8568915 7.61029412,40.9568875 7.61029412,41.4563617 C7.61029412,41.955836 9.58852176,48.9614599 11.2171261,52.444795 C11.4793335,53.0056163 8.42552201,55.11287 8.625,55.4416404 C8.82447799,55.7704107 13.1403157,53.9135246 13.2340175,53.9432177 C13.694677,54.0891956 9.13235294,42.4553102 9.63970588,41.955836 C10.1470588,41.4563617 14.2475589,39.2456139 14.3727949,39.4358424 C17.3947003,44.0259968 22.3015626,47.3017605 28.0142348,48.200745 C29.0524365,48.3641234 31.2022059,41.4563617 31.2022059,41.4563617 Z" id="Oval" fill="#F53735"></path>
                        <path d="M62.1507353,41.4563617 L62.4044118,9.9928794 C62.4044118,9.9928794 56.8626204,9.65411114 55.8269924,9.9928794 C53.0750908,10.8930646 50.5881249,12.3647037 48.5112649,14.2648813 C48.3148341,14.4446013 45.2151026,12.8050057 43.0836378,11.7740077 C42.6308245,11.55498 43.453294,8.13240271 43.125,7.9915878 C42.9549103,7.91863135 37.5441176,2.49737119 37.0367647,3.49631966 C36.5294118,4.49526814 41.6287521,8.96391314 41.6029412,8.99053628 C41.5249482,9.07098366 40.7643938,12.3306372 41.6029412,12.9863302 C42.4414885,13.6420232 47.0978489,15.6928257 46.9417265,15.8717772 C44.8002593,18.3263813 43.2613561,21.3052685 42.5508782,24.5860851 C42.4642006,24.9863415 36.5294118,22.4763407 36.0220588,22.9758149 C35.643256,23.3487353 33.6682708,28.183225 32.9779412,30.9677457 C32.8677406,31.412252 30.9370204,31.1151935 30.9485294,31.466877 C30.9600385,31.8185605 32.9271727,32.8852451 32.9779412,32.9652997 C33.356283,33.5618902 36.73253,24.8239568 37.0367647,24.9737119 C38.0514706,25.4731861 42.1893755,26.9267374 42.1656556,27.2421162 C42.1289655,27.7299454 42.1102941,28.2227104 42.1102941,28.7197687 C42.1102941,31.860942 42.8559638,34.8306594 44.1825469,37.4667231 C44.3788968,37.8568915 38.5588235,40.9568875 38.5588235,41.4563617 C38.5588235,41.955836 40.5370512,48.9614599 42.1656556,52.444795 C42.4278629,53.0056163 39.3740514,55.11287 39.5735294,55.4416404 C39.7730074,55.7704107 44.0888452,53.9135246 44.1825469,53.9432177 C44.6432065,54.0891956 40.0808824,42.4553102 40.5882353,41.955836 C41.0955882,41.4563617 45.1960883,39.2456139 45.3213243,39.4358424 C48.3432297,44.0259968 53.250092,47.3017605 58.9627642,48.200745 C60.000966,48.3641234 62.1507353,41.4563617 62.1507353,41.4563617 Z" id="Oval-Copy-2" fill="#D83735" transform="translate(46.676445, 29.427094) scale(-1, 1) translate(-46.676445, -29.427094) "></path>
                        <ellipse id="Oval-2" fill="#010000" cx="35.7683824" cy="16.9821241" rx="2.28308824" ry="2.49737119"></ellipse>
                        <ellipse id="Oval-2" fill="#010000" cx="25.6213235" cy="16.9821241" rx="2.28308824" ry="2.49737119"></ellipse>
                        <ellipse id="Oval-2" fill="#010000" cx="45.9154412" cy="27.9705573" rx="2.28308824" ry="2.49737119"></ellipse>
                        <ellipse id="Oval-2" fill="#010000" cx="15.4742647" cy="27.9705573" rx="2.28308824" ry="2.49737119"></ellipse>
                        <ellipse id="Oval-2" fill="#010000" cx="35.5147059" cy="32.2160883" rx="2.02941176" ry="1.74815983"></ellipse>
                        <ellipse id="Oval-2" fill="#010000" cx="25.875" cy="31.7166141" rx="2.02941176" ry="1.74815983"></ellipse>
                        <ellipse id="Oval-2" fill="#010000" cx="36.7830882" cy="42.4553102" rx="1.77573529" ry="1.99789695"></ellipse>
                        <ellipse id="Oval-2" fill="#010000" cx="25.1139706" cy="42.4553102" rx="1.77573529" ry="1.99789695"></ellipse>
                    </g>
                    <g id="search" transform="translate(52.764706, 225.762355)">
                        <path d="M72.2977941,101.39327 C65.4442672,101.39327 58.9034425,100.075224 52.9225946,97.6825655 C52.1086099,97.3569282 47.6911765,105.389064 47.6911765,105.389064 L35.5147059,98.8958991 C35.5147059,98.8958991 41.4586774,90.5835624 40.0808824,89.9053628 C31.9632353,85.9095689 20.8014706,66.9812069 20.8014706,50.6966351 C20.8014706,22.6976567 43.85716,0 72.2977941,0 C100.738428,0 123.794118,22.6976567 123.794118,50.6966351 C123.794118,78.6956136 100.738428,101.39327 72.2977941,101.39327 Z M72.5514706,90.9043113 C94.967734,90.9043113 113.139706,73.0145326 113.139706,50.9463722 C113.139706,28.8782119 94.967734,10.9884332 72.5514706,10.9884332 C50.1352072,10.9884332 31.9632353,28.8782119 31.9632353,50.9463722 C31.9632353,73.0145326 50.1352072,90.9043113 72.5514706,90.9043113 Z" id="Combined-Shape" fill="#372849"></path>
                        <g id="handel" transform="translate(0.000000, 94.400631)">
                            <path d="M34.9993518,8.81634445 C36.3883818,7.34764281 43.7232789,6.90350317 43.7232789,6.90350317 L43.9126768,49.8375505 L30.509032,49.9471526 C30.509032,49.9471526 32.3937435,11.5714047 34.9993518,8.81634445 Z" id="Rectangle-Copy-3" fill="#EEB329" transform="translate(37.210854, 28.425328) scale(1, -1) rotate(-209.000000) translate(-37.210854, -28.425328) "></path>
                            <path d="M23.7031341,2.5365964 C25.1277503,1.47499912 32.0020973,0.70358939 32.0020973,0.70358939 L32.573884,43.6343518 L19.5907221,43.5250381 C19.5907221,43.5250381 20.4415729,4.96705073 23.7031341,2.5365964 Z" id="Rectangle-Copy-2" fill="#C08C09" transform="translate(26.082303, 22.168971) rotate(30.000000) translate(-26.082303, -22.168971) "></path>
                            <path d="M22.8308824,40.4574132 L11.6691176,59.9369085 C11.6691176,59.9369085 4.05882353,54.9421661 4.05882353,50.446898 C4.05882353,45.9516299 9.63970588,37.4605678 9.63970588,37.4605678 L22.8308824,40.4574132 Z" id="Path-3" fill="#468180"></path>
                            <path d="M30.7604837,44.8740971 L19.5486498,64.3257045 C19.5486498,64.3257045 10.4962768,59.1917933 10.841566,54.9086211 C11.1868552,50.625449 17.0979411,41.8845354 17.0979411,41.8845354 L30.7604837,44.8740971 Z" id="Path-3-Copy" fill="#6DA5A4" transform="translate(20.796209, 53.105120) scale(-1, 1) rotate(-59.000000) translate(-20.796209, -53.105120) "></path>
                        </g>
                    </g>
                </g>
            </g>
        </g>
    </g>
</svg>