<?xml version="1.0" encoding="UTF-8"?>
<svg width="162px" height="162px" viewBox="0 0 162 162" version="1.1" xmlns="http://www.w3.org/2000/svg" xmlns:xlink="http://www.w3.org/1999/xlink">
    <!-- Generator: Sketch 41.2 (35397) - http://www.bohemiancoding.com/sketch -->
    <title>2</title>
    <desc>Created with Sketch.</desc>
    <defs></defs>
    <g id="Page-1" stroke="none" stroke-width="1" fill="none" fill-rule="evenodd">
        <g id="2" transform="translate(1.000000, 1.000000)">
            <circle id="round" stroke="#979797" stroke-width="2" cx="80" cy="80" r="80"></circle>
            <path d="M46.9921875,65.8046875 C46.9921875,57.5038647 49.9381216,51.5794448 55.8300781,48.03125 C60.843124,45.0038911 68.8996841,43.4902344 80,43.4902344 C91.4583906,43.4902344 99.7265371,45.1340981 104.804688,48.421875 C110.273465,52.0026221 113.007812,57.796835 113.007812,65.8046875 C113.007812,74.072958 110.061878,79.9973779 104.169922,83.578125 C99.156876,86.6054839 91.1003159,88.1191406 80,88.1191406 C70.4947441,88.1191406 63.9192891,89.2096245 60.2734375,91.390625 C57.1484219,93.2786553 55.5859375,96.7454175 55.5859375,101.791016 L55.5859375,107.357422 L108.710938,107.357422 L108.710938,116 L46.9921875,116 L46.9921875,101.791016 C46.9921875,93.5227451 49.9381216,87.5983252 55.8300781,84.0175781 C60.843124,80.9902192 68.8996841,79.4765625 80,79.4765625 C89.5052559,79.4765625 96.0807109,78.3860786 99.7265625,76.2050781 C102.851578,74.3170479 104.414062,70.8502856 104.414062,65.8046875 C104.414062,60.8892983 102.981785,57.5039155 100.117188,55.6484375 C96.5038882,53.2721235 89.7982261,52.0839844 80,52.0839844 C70.4947441,52.0839844 63.9192891,53.1907441 60.2734375,55.4042969 C57.1484219,57.2923271 55.5859375,60.7590894 55.5859375,65.8046875 L46.9921875,65.8046875 Z" fill="#000000"></path>
        </g>
    </g>
</svg>