<?xml version="1.0" encoding="UTF-8"?>
<svg width="162px" height="162px" viewBox="0 0 162 162" version="1.1" xmlns="http://www.w3.org/2000/svg" xmlns:xlink="http://www.w3.org/1999/xlink">
    <!-- Generator: Sketch 41.2 (35397) - http://www.bohemiancoding.com/sketch -->
    <title>3</title>
    <desc>Created with Sketch.</desc>
    <defs></defs>
    <g id="Page-1" stroke="none" stroke-width="1" fill="none" fill-rule="evenodd">
        <g id="3" transform="translate(1.000000, 1.000000)">
            <circle id="round" stroke="#979797" stroke-width="2" cx="80" cy="80" r="80"></circle>
            <path d="M55.5685547,96.7128906 C55.5685547,100.977235 57.0822114,103.923169 60.1095703,105.550781 C63.8530786,107.536468 70.5750166,108.529297 80.2755859,108.529297 C90.2691255,108.529297 97.1212705,107.471365 100.832227,105.355469 C103.599167,103.727856 104.982617,100.847026 104.982617,96.7128906 C104.982617,92.4485464 103.46896,89.5026123 100.441602,87.875 C96.7306455,85.889313 90.0087075,84.8964844 80.2755859,84.8964844 L68.3615234,84.8964844 L68.3615234,76.2539062 L80.2755859,76.2539062 C90.0087075,76.2539062 96.7306455,75.2610776 100.441602,73.2753906 C103.46896,71.6477783 104.982617,68.7018442 104.982617,64.4375 C104.982617,60.3033647 103.599167,57.4225342 100.832227,55.7949219 C97.1212705,53.6790259 90.2691255,52.6210938 80.2755859,52.6210938 C70.5750166,52.6210938 63.8530786,53.6139224 60.1095703,55.5996094 C57.0822114,57.2272217 55.5685547,60.1731558 55.5685547,64.4375 L46.9748047,64.4375 C46.9748047,56.7551699 50.018394,51.2864746 56.105664,48.03125 C61.1187099,45.3294136 69.17527,43.9785156 80.2755859,43.9785156 C91.799081,43.9785156 100.083503,45.4433447 105.129102,48.3730469 C110.793192,51.6282715 113.625195,56.9830356 113.625195,64.4375 C113.625195,72.8034272 109.881743,78.1907432 102.394727,80.5996094 C109.881743,82.9759233 113.625195,88.3469634 113.625195,96.7128906 C113.625195,104.167355 110.793192,109.522119 105.129102,112.777344 C100.083503,115.707046 91.799081,117.171875 80.2755859,117.171875 C69.17527,117.171875 61.1187099,115.820977 56.105664,113.119141 C50.018394,109.863916 46.9748047,104.395221 46.9748047,96.7128906 L55.5685547,96.7128906 Z" fill="#000000"></path>
        </g>
    </g>
</svg>