<?xml version="1.0" encoding="UTF-8"?>
<svg width="720px" height="1280px" viewBox="0 0 720 1280" version="1.1" xmlns="http://www.w3.org/2000/svg" xmlns:xlink="http://www.w3.org/1999/xlink">
    <!-- Generator: Sketch 42 (36781) - http://www.bohemiancoding.com/sketch -->
    <title>small</title>
    <desc>Created with Sketch.</desc>
    <defs></defs>
    <g id="Android" stroke="none" stroke-width="1" fill="none" fill-rule="evenodd">
        <g id="7_01" transform="translate(-2085.000000, 0.000000)">
            <g id="small" transform="translate(2085.000000, 0.000000)">
                <rect id="base" fill="#FFFFFF" x="0" y="0" width="720" height="1280"></rect>
                <g id="Andoid_Java" transform="translate(222.000000, 323.333333)">
                    <path d="M256.956,17.0328283 L239.824744,7.8526936 C232.353488,3.16666667 221.018233,3.48973064 208.524419,9.90622896 L47.8346512,91.6861953 C25.7450233,102.919865 8.10348837,128.854545 8.10348837,149.325926 L7.91093023,594.680808 C7.91093023,605.022054 12.9270698,612.075084 19.8816279,615.548822 L37.917907,625.176768 C45.3891628,629.542929 56.5960465,629.091919 68.9005116,622.864141 L229.513256,541.017003 C251.606093,529.789731 269.254047,503.848653 269.254047,483.377273 L269.446605,37.6321549 C269.446605,30.7646465 267.379814,25.3717172 263.772558,21.6484848 C261.391256,19.1407407 259.844372,18.5649832 256.946372,17.0232323 L256.956,17.0328283 Z" id="Shape" fill="#EBECEC"></path>
                    <path d="M254.642093,21.1430976 L237.504419,11.962963 L237.183488,11.7710438 C234.288698,9.97340067 230.488884,9.13535354 226.047209,9.39124579 C221.473953,9.71111111 216.258837,11.1920875 210.713163,14.0164983 L50.0875814,95.8572391 C39.7857209,101.058249 30.5108372,109.723401 23.7456279,119.546465 C17.0446047,129.302357 12.9206512,140.017845 12.9206512,149.325926 L12.728093,594.680808 C12.728093,598.791077 13.6266977,602.191246 15.18,604.958081 C16.8441541,607.721828 19.2539018,609.96398 22.1345581,611.428956 L22.1987442,611.428956 L37.982093,619.841414 L38.1104651,619.841414 L40.3633953,621.127273 C43.3255814,622.854545 47.1253953,623.631818 51.506093,623.302357 C56.0761395,622.918519 61.2302791,621.447138 66.6379535,618.683502 L227.263535,536.906734 C237.565395,531.648148 246.840279,522.976599 253.602279,513.223906 C260.296884,503.468013 264.424047,492.688552 264.481814,483.380471 L264.610186,37.6385522 C264.610186,34.8141414 264.22507,32.309596 263.454837,30.1281145 C262.678186,28.0042088 261.657628,26.2705387 260.235907,24.8599327 C258.814186,23.3181818 257.655628,22.7392256 255.916186,21.840404 C255.466884,21.5845118 254.953395,21.3286195 254.632465,21.1367003 L254.642093,21.1430976 Z M242.273442,3.80639731 L259.282744,12.9225589 C259.796233,13.1784512 260.181349,13.3703704 260.502279,13.5622896 C263.082558,14.9153199 264.757814,15.8109428 267.331674,18.4434343 C269.652,20.8200337 271.391442,23.7084175 272.610977,27.1117845 C273.708558,30.1888889 274.289442,33.720202 274.289442,37.6353535 L274.096884,483.377273 C274.096884,494.604545 269.32786,507.184848 261.60307,518.418519 C254.003442,529.396296 243.502605,539.216162 231.782233,545.18165 L71.0924651,626.971212 C64.4620465,630.361785 58.0851628,632.232997 52.2313953,632.613636 C46.9424651,633.061448 42.0514884,632.229798 37.8665581,630.438552 L37.8023721,630.438552 L36.9615349,629.984343 C36.4480465,629.792424 35.9987442,629.472559 35.4788372,629.216667 L17.6415349,619.716667 C13.2608372,617.464815 9.39362791,614.067845 6.81976744,609.442593 C4.43846512,605.402694 3.08413953,600.454377 3.08413953,594.674411 L3.27669767,149.325926 C3.27669767,138.089057 8.03930233,125.508754 15.7705116,114.339057 C23.3669302,103.297306 33.8709767,93.4774411 45.6555349,87.5087542 L206.281116,5.72558923 C213.033488,2.33501684 219.532326,0.473400673 225.39893,0.0863636364 C231.836791,-0.361447811 237.562186,0.918013468 242.270233,3.80959596 L242.273442,3.80639731 Z" id="Shape" fill="#B2B3B3"></path>
                    <path d="M248.656744,472.012458 L248.977674,39.5001684 L254.061209,31.5355219 L249.099628,28.0042088 L260.113953,18.8240741 L239.568,7.8462963 C232.090326,3.16026936 220.825674,3.48333333 208.270884,9.89983165 L47.6453023,91.679798 C25.5556744,102.913468 7.90772093,128.848148 7.90772093,149.319529 L7.71516279,594.674411 C7.71516279,605.012458 12.7345116,612.068687 19.6922791,615.539226 L37.6643721,625.167172 L47.5169302,620.737037 L55.8193953,607.577778 L208.912744,529.64899 C231.002372,518.41532 248.650326,492.48064 248.650326,472.002862 L248.656744,472.012458 Z" id="Shape" fill="#EBECEC"></path>
                    <path d="M247.684326,472.012458 L248.005256,39.5001684 L248.197814,39.0427609 L252.774279,31.7914141 L248.518744,28.7750842 L247.555953,28.0713805 L248.454558,27.3037037 L258.435488,19.0191919 L239.115488,8.62356902 L239.051302,8.62356902 C235.447256,6.37491582 230.809814,5.34494949 225.591488,5.66481481 C220.504744,5.98468013 214.77614,7.65757576 208.716977,10.7378788 L48.0913953,92.5178451 C37.2118605,98.0355219 27.4812558,107.151684 20.3309302,117.422559 C13.2512093,127.763805 8.87372093,139.253367 8.87372093,149.332323 L8.68116279,594.680808 C8.68116279,599.437205 9.77232558,603.477104 11.6401395,606.758923 C13.6309596,610.186865 16.5882722,612.956403 20.1447907,614.723569 L20.1447907,614.787542 L37.7253488,624.086027 L46.8718605,619.978956 L54.9849767,607.133165 L55.370093,606.758923 L208.463442,528.833333 C219.278791,523.312458 229.067163,514.199495 236.159721,503.92862 C243.303628,493.59697 247.681116,482.104209 247.681116,472.025253 L247.684326,472.012458 Z M249.937256,39.7560606 L249.616326,472.006061 C249.616326,482.478451 245.097628,494.28468 237.757953,504.936195 C230.482465,515.466162 220.498326,524.777441 209.355628,530.487037 L56.4644651,608.291077 L48.3449302,621.191246 L47.8956279,621.575084 L38.1072558,626.008418 L37.6579535,626.200337 L37.2086512,626.008418 L19.2365581,616.380471 C15.4399535,614.461279 12.1504186,611.569697 9.96167442,607.648148 C7.90130233,604.123232 6.74274419,599.763468 6.74274419,594.684007 L6.93530233,149.335522 C6.93530233,138.869529 11.4443721,127.056902 18.7872558,116.402189 C25.9985581,105.87862 36.0436744,96.5065657 47.1895814,90.8577441 L207.808744,9.07777778 C214.124651,5.86952862 220.11,4.13905724 225.459907,3.81599327 C231.127535,3.43215488 236.082698,4.59006734 240.081488,7.02744108 L260.621023,18.0691919 L261.840558,18.7089226 L260.749395,19.5405724 L250.640093,27.9530303 L254.632465,30.8446128 L255.338512,31.3563973 L254.818605,32.060101 L249.927628,39.7688552 L249.937256,39.7560606 Z" id="Shape" fill="#B2B3B3"></path>
                    <path d="M269.067907,483.380471 L269.260465,37.6385522 C269.260465,31.0909091 267.389442,25.889899 264.106326,22.1698653 C257.084372,14.2787879 243.75293,13.2456229 228.685256,20.890404 L68.0596744,102.67037 C45.9668372,113.961616 28.3188837,139.902694 28.2643256,160.310101 L28.1263256,606.112795 C28.0621395,626.526599 46.5477209,634.10101 68.6373488,622.873737 L229.327116,541.020202 C251.416744,529.792929 269.067907,503.851852 269.067907,483.380471 L269.067907,483.380471 Z" id="Shape" fill="#FEFEFE"></path>
                    <path d="M268.08586,483.380471 L268.278419,37.6385522 C268.278419,34.5550505 267.829116,31.7306397 267.046047,29.2900673 C266.137814,26.7887205 264.908651,24.6072391 263.355349,22.809596 C259.914977,18.9648148 254.921302,16.8473064 248.894233,16.6521886 C242.998744,16.3962963 236.127628,18.0659933 228.861767,21.7252525 L67.1771163,103.505219 C56.2205581,109.026094 46.368,118.206229 39.2369302,128.477104 C32.1122791,138.808754 27.6994884,150.237542 27.6288837,160.316498 L27.4363256,606.112795 C27.4363256,610.6133 28.4055349,614.461279 30.0904186,617.611953 C31.7053303,620.623139 34.1894077,623.08226 37.2214884,624.67138 C40.2061395,626.270707 43.8326512,627.111953 47.8442791,627.111953 C53.4926512,627.111953 60.0396279,625.499832 66.8433488,622.038889 L228.592186,540.191751 C239.487767,534.667677 249.337116,525.548316 256.468186,515.283838 C263.663442,504.942593 268.076233,493.45303 268.076233,483.377273 L268.08586,483.380471 Z M270.220047,37.6385522 L270.027488,483.377273 C270.027488,493.836869 265.486326,505.703872 258.098512,516.30101 C250.771674,526.824579 240.72014,536.206229 229.510047,541.845455 L67.7515814,623.635017 C60.6269302,627.281481 53.8167907,628.951178 47.853907,628.951178 C43.5117209,628.951178 39.5546512,628.055556 36.2490698,626.318687 C32.9132885,624.538675 30.183288,621.811054 28.4055349,618.481987 C26.5216744,615.091414 25.5492558,610.910774 25.5492558,606.093603 L25.741814,160.297306 C25.741814,149.831313 30.2829767,138.018687 37.674,127.363973 C44.9366512,116.904377 55.0523721,107.532323 66.2624651,101.819529 L227.956744,20.0491582 C235.540326,16.1979798 242.735581,14.5314815 248.961628,14.7873737 C255.572791,14.9792929 261.018977,17.3526936 264.783488,21.5909091 C266.611975,23.6658494 267.998605,26.0892962 268.859302,28.7143098 C269.770744,31.3468013 270.220047,34.3631313 270.220047,37.6385522 L270.220047,37.6385522 Z" id="Shape" fill="#B2B3B3"></path>
                    <path d="M59.6930233,582.61229 L69.6097674,571.385017 L79.5265116,560.144949 L79.5265116,585.24798 L69.6097674,583.955724 L59.6930233,582.61229 Z M154.810326,522.787879 C160.157023,520.094613 164.54093,522.723906 164.54093,528.564646 C164.54093,534.411785 160.157023,541.410438 154.810326,544.100505 C149.466837,546.732997 145.150326,544.100505 145.150326,538.266162 C145.150326,532.412626 149.466837,525.477946 154.810326,522.78468 L154.810326,522.787879 Z M224.949628,489.157239 L242.594372,480.360943 L242.594372,499.680808 L224.956047,508.53468 L224.949628,489.157239 Z" id="Shape" fill="#B2B3B3"></path>
                    <path d="M121.638977,196.125421 L121.638977,260.25202 C121.638977,264.618182 123.513209,266.73569 125.506186,267.375421 C128.853488,268.39899 131.045442,266.159933 135.230372,264.359091 C135.365163,265.126768 135.294558,282.335522 135.294558,283.614983 C135.294558,288.237037 134.78107,291.707576 138.969209,291.963468 C141.934605,292.091414 145.667023,289.522896 148.179907,285.348653 C149.790977,282.581818 149.527814,279.824579 149.527814,276.488384 C149.527814,275.208923 149.463628,258.000168 149.592,257.104545 L163.571721,249.971549 C163.828465,250.739226 163.635907,266.924411 163.635907,269.227441 C163.635907,273.468855 163.122419,277.384007 167.307349,277.575926 C168.205953,277.639899 169.496093,277.320034 170.715628,276.744276 C173.167535,275.522391 175.423674,273.14899 176.518047,271.018687 C178.315256,267.756061 177.93014,266.083165 177.93014,262.299158 L177.93014,242.787374 C182.118279,240.215657 184.374419,240.471549 187.72493,235.916667 C189.785302,233.092256 191.582512,229.305051 191.582512,224.810943 L191.582512,160.370875 L121.638977,195.674411 L121.638977,196.122222 L121.638977,196.125421 Z M116.298698,207.227946 C116.298698,205.692593 116.362884,204.595455 115.785209,203.568687 C115.448155,202.8217 114.819938,202.244087 114.045767,201.96936 C112.69786,201.387205 110.371116,201.713468 108.057209,203.184848 C105.938141,204.605169 104.227874,206.552328 103.095628,208.83367 C101.683535,211.786027 101.998047,213.903535 101.998047,217.182155 L101.998047,253.445286 C101.998047,254.987037 101.998047,256.080976 102.511535,257.107744 C104.578326,261.08367 111.857023,258.387205 115.204326,251.839562 C116.616419,249.015152 116.295488,246.641751 116.295488,243.497475 L116.295488,207.224747 L116.298698,207.227946 Z M180.767163,133.991582 C179.226698,133.281481 177.612419,132.961616 175.805581,132.766498 C175.292093,132.702525 174.393488,132.766498 174.008372,132.638552 C174.136744,131.998822 175.227907,129.622222 175.613023,128.787374 C176.126512,127.635859 179.672791,119.607239 179.804372,119.095455 C179.932744,118.135859 179.541209,117.68165 179.091907,117.75202 C178.38586,117.809596 177.936558,118.455724 177.615628,119.031481 L171.688047,132.702525 C171.238744,132.958418 168.982605,133.21431 168.334326,133.342256 C164.54093,134.11633 160.545349,135.722054 156.549767,137.711616 C152.436177,139.818399 148.533173,142.310732 144.893581,145.154882 C143.994977,145.858586 142.18814,147.595455 141.417907,148.046465 L135.554512,140.472054 C134.591721,139.250168 133.243814,141.111785 133.298372,142.327273 C133.362558,142.976599 135.42614,145.35 135.74707,145.797811 C136.331163,146.511111 136.908837,147.281987 137.422326,147.98569 C137.743256,148.369529 139.036605,149.914478 139.164977,150.36229 C138.131581,151.257912 136.587907,153.058754 135.621907,154.213468 C132.202692,158.337233 129.343227,162.891819 127.117256,167.759764 C124.408605,173.859596 121.831535,182.332828 121.635767,189.843266 L191.579302,154.472559 C191.45093,147.026094 188.812884,141.252525 186.043256,137.977104 C184.438605,136.051515 182.827535,134.960774 180.763953,133.99798 L180.767163,133.991582 Z M142.512279,167.174411 C137.550698,171.153535 135.554512,163.06734 140.708651,158.953872 C143.025767,157.098653 144.893581,158.122222 145.342884,160.047811 C145.920558,162.680303 144.251721,165.763805 142.50907,167.174411 L142.512279,167.174411 Z M167.692465,150.995623 C167.371535,149.652189 167.756651,148.110438 168.334326,146.888552 C168.847814,145.737037 169.499302,144.771044 170.590465,143.872222 C173.039163,141.876263 174.906977,143.030976 175.295302,145.023737 C176.450651,150.413468 168.989023,156.385354 167.698884,150.989226 L167.692465,150.995623 Z M211.358233,195.610438 L211.358233,159.209764 C211.358233,156.650842 211.22986,154.654882 209.175907,153.887205 C207.622605,153.375421 205.626419,153.56734 203.18414,155.102694 C200.995395,156.519697 199.191767,158.765152 198.232186,160.754714 C196.749488,163.707071 197.131395,165.763805 197.131395,168.975253 L197.131395,205.36633 C197.131395,208.062795 197.323953,209.860438 199.32014,210.634512 C202.738047,211.913973 208.145721,208.331481 210.273488,203.834175 C211.749767,200.622727 211.364651,199.080976 211.364651,195.613636 L211.358233,195.610438 Z" id="Shape" fill="#98CD00"></path>
                    <path d="M155.06707,395.503872 C154.681953,392.743434 149.980326,389.659933 149.017535,385.293771 C146.504651,373.810606 164.345163,360.00202 165.375349,344.862795 C165.567907,342.412626 165.311163,340.167172 164.476744,338.497475 C163.89907,337.473906 163.700093,337.665825 163.443349,337.537879 C163.571721,341.900842 164.021023,343.698485 162.602512,348.061448 C157.387395,363.853199 138.840837,377.585017 146.183721,388.3133 C148.757581,392.023737 151.722977,393.309596 155.06707,395.494276 L155.06707,395.503872 Z M180.057907,413.793771 C182.891721,418.348653 159.197442,430.874579 156.745535,432.218013 C151.469442,435.042424 133.179628,444.286532 130.41,441.909933 C131.05186,439.021549 135.820884,436.065993 136.854279,435.103199 C137.303581,434.655387 137.239395,434.71936 137.431953,434.399495 C134.405581,434.143603 119.13893,448.32963 127.771953,447.043771 C136.206,445.828283 158.879721,434.722559 168.090419,427.979798 C171.180977,425.734343 174.143163,423.744781 176.916,421.109091 C181.675395,416.618182 182.901349,413.090067 180.070744,413.793771 L180.057907,413.793771 Z M158.613349,396.840909 C160.869488,394.473906 164.54093,388.633165 164.54093,384.590067 C164.476744,380.291077 160.737907,379.389057 160.096047,375.857744 C159.255209,371.558754 163.314977,365.84596 165.115395,363.146296 L173.09693,352.750673 C171.16493,353.774242 165.426698,359.749327 163.565302,362.058754 C147.528419,381.1867 159.508744,385.559259 160.282186,389.407239 C160.795674,392.170875 159.191023,394.739394 158.60693,396.850505 L158.613349,396.840909 Z M167.824047,416.618182 C167.182186,416.042424 164.085209,415.722559 162.994047,416.291919 C160.349581,417.641751 149.402651,426.3133 143.802419,425.609596 C143.674047,424.253367 143.738233,424.765152 144.251721,423.546465 C137.550698,428.680303 140.066791,432.662626 150.304465,428.549158 C156.934884,425.926263 162.734093,421.68165 167.820837,416.608586 L167.824047,416.618182 Z M172.201535,391.262458 L155.134465,401.862795 C151.970093,403.660438 138.895395,411.298822 137.67586,408.931818 C138.510279,406.417677 143.276093,402.886364 145.593209,400.711279 C142.117535,402.054714 135.162977,407.898653 132.582698,411.234848 C127.887488,417.267508 141.857581,411.164478 143.536047,410.396801 C149.842326,407.575589 160.278977,401.933165 166.402326,397.048822 C169.303535,394.809764 169.813814,393.786195 172.198326,391.268855 L172.201535,391.262458 Z M169.23614,405.330135 L166.790651,404.492088 C165.571116,404.172222 164.993442,404.875926 163.645535,405.963468 C159.06907,409.440404 142.968,418.674916 141.67786,416.499832 C141.549488,415.335522 141.870419,414.890909 142.191349,413.86734 C136.202791,418.419024 135.628326,424.262963 149.476465,418.09596 C158.10307,414.241582 161.64614,410.962963 169.245767,405.320539 L169.23614,405.330135 Z M154.877721,439.091919 L149.784558,441.596465 C145.015535,444.037037 140.766419,445.188552 136.260558,447.181313 C141.276698,449.362795 185.459163,427.093771 184.945674,416.371886 C182.108651,423.300168 160.85986,436.075589 154.874512,439.091919 L154.877721,439.091919 Z M174.20093,387.037037 C176.896744,385.488889 177.994326,384.142256 180.186279,385.360943 C183.72614,387.414478 180.186279,394.924916 177.352465,399.035185 C175.674,401.475758 173.228512,404.111448 172.586651,405.454882 C181.861535,399.681313 189.586326,383.89596 182.182465,382.536532 C179.990512,382.159091 175.802372,383.825589 174.191302,387.040236 L174.20093,387.037037 Z M155.907907,333.107744 C184.887907,318.605051 208.392837,335.548316 208.392837,371.043771 C208.392837,406.548822 184.887907,447.107744 155.904698,461.684007 C126.924698,476.189899 103.41014,459.179461 103.41014,423.684007 C103.41014,388.185354 126.921488,347.684007 155.901488,333.110943 L155.907907,333.107744 Z" id="Shape" fill="#99999D"></path>
                </g>
            </g>
        </g>
    </g>
</svg>