<?xml version="1.0" encoding="UTF-8"?>
<svg width="720px" height="1280px" viewBox="0 0 720 1280" version="1.1" xmlns="http://www.w3.org/2000/svg" xmlns:xlink="http://www.w3.org/1999/xlink">
    <!-- Generator: Sketch 42 (36781) - http://www.bohemiancoding.com/sketch -->
    <title>small</title>
    <desc>Created with Sketch.</desc>
    <defs></defs>
    <g id="Android" stroke="none" stroke-width="1" fill="none" fill-rule="evenodd">
        <g id="7_02" transform="translate(-2085.000000, 0.000000)">
            <g id="small" transform="translate(2085.000000, 0.000000)">
                <rect id="base" fill="#FFFFFF" x="0" y="0" width="720" height="1280"></rect>
                <g id="UIKit" transform="translate(117.333333, 387.333333)">
                    <g id="Group-11" transform="translate(0.000000, 54.142857)" stroke="#979797">
                        <path d="M0.75128999,304.553571 L0.75128999,152.652778 C0.75128999,152.652778 3.93018951e-14,143.628968 3.75644995,137.613095 C7.5128999,131.597222 20.2848297,124.829365 20.2848297,124.829365 L224.635707,5.26388889 C224.635707,5.26388889 233.651187,1.45286963e-15 243.417957,0 C253.184727,0 262.951496,6.76785714 262.951496,6.76785714 L472.561404,129.34127 C472.561404,129.34127 479.323013,133.10119 482.328173,138.365079 C485.333333,143.628968 485.333333,150.396825 485.333333,150.396825 L485.333333,299.289683 L485.333333,303.049603 C485.333333,303.049603 485.333333,307.561508 484.582043,310.569444 C483.830753,313.577381 479.323013,315.833333 479.323013,315.833333 L262.951496,442.166667 C262.951496,442.166667 253.184727,448.18254 243.011647,448.18254 C232.838567,448.18254 226.138287,443.670635 226.138287,443.670635 L6.76160991,315.833333 C6.76160991,315.833333 3.75644995,314.329365 2.25386997,311.321429 C0.75128999,308.313492 0.75128999,304.553571 0.75128999,304.553571 Z" id="Path-5" fill="#FFFFFF"></path>
                        <path d="M1.14126433,308.313492 C1.00948852,307.319962 1.354616,305.692913 3.00515996,303.049603 C6.76160991,297.03373 20.2848297,290.265873 20.2848297,290.265873 L224.635707,170.700397 C224.635707,170.700397 233.651187,165.436508 243.417957,165.436508 C253.184727,165.436508 262.951496,172.204365 262.951496,172.204365 L472.561404,294.777778 C472.561404,294.777778 480.074303,298.537698 483.079463,303.801587 C483.385629,304.337872 483.637208,304.842935 483.842146,305.317573 C483.948232,305.432558 484.756624,306.376517 484.628402,308.313492 C484.756624,310.250468 483.948232,311.194426 483.842146,311.309411 C483.637208,311.784049 483.385629,312.289112 483.079463,312.825397 C480.074303,318.089286 472.561404,321.849206 472.561404,321.849206 L262.951496,444.422619 C262.951496,444.422619 253.184727,451.190476 243.417957,451.190476 C233.651187,451.190476 224.635707,445.926587 224.635707,445.926587 L20.2848297,326.361111 C20.2848297,326.361111 6.76160991,319.593254 3.00515996,313.577381 C1.354616,310.934071 1.00948852,309.307022 1.14126433,308.313492 Z" id="Combined-Shape" fill="#FFFFFF"></path>
                        <path d="M243.793602,0.375992063 L243.793602,165.436508" id="Line" stroke-linecap="square"></path>
                        <path d="M462.418989,289.137897 L209.260704,436.792657" id="Line" stroke-linecap="square"></path>
                        <path d="M52.9659443,344.784722 L72.218469,333.054967" id="Line" stroke-linecap="square"></path>
                        <path d="M21.7874097,327.113095 L77.0072239,294.401786" id="Line" stroke-linecap="square"></path>
                        <path d="M23.2899897,288.761905 L276.516853,436.298804" id="Line" stroke-linecap="square"></path>
                        <path d="M54.8441692,270.714286 L308.071033,418.251185" id="Line" stroke-linecap="square"></path>
                        <path d="M116.449948,233.867063 L369.676812,381.403963" id="Line" stroke-linecap="square"></path>
                        <path d="M148.755418,215.06746 L401.982282,362.60436" id="Line" stroke-linecap="square"></path>
                        <path d="M179.558308,197.019841 L432.785171,344.55674" id="Line" stroke-linecap="square"></path>
                        <path d="M211.112487,178.972222 L464.339351,326.509121" id="Line" stroke-linecap="square"></path>
                        <path d="M85.6470588,252.666667 L338.873922,400.203566" id="Line" stroke-linecap="square"></path>
                    </g>
                    <path d="M181.812178,475.253968 C181.812178,475.253968 206.604747,482.77381 218.625387,481.269841 C230.646027,479.765873 241.164087,472.998016 241.164087,472.998016 L438.002064,357.944444 C438.002064,357.944444 446.266254,352.680556 446.266254,343.656746 C446.266254,334.632937 441.758514,332.376984 441.758514,332.376984 C441.758514,332.376984 442.509804,338.392857 439.504644,344.40873 C436.499484,350.424603 431.991744,353.43254 431.991744,353.43254 L235.153767,468.486111 C235.153767,468.486111 226.889577,474.501984 214.117647,477.509921 C201.345717,480.517857 181.812178,475.253968 181.812178,475.253968 Z" id="Path-6" fill-opacity="0.5" fill="#D8D8D8"></path>
                    <g id="Group-12" transform="translate(67.616099, 208.299603)">
                        <path d="M214.868937,51.1349206 C214.868937,51.1349206 226.138287,44.3670635 238.158927,44.3670635 C250.179567,44.3670635 261.448916,48.8789683 261.448916,48.8789683 L365.878225,101.517857 C365.878225,101.517857 374.142415,106.029762 374.142415,121.821429 C374.142415,137.613095 365.126935,142.876984 365.126935,142.876984 L163.029928,260.938492 C163.029928,260.938492 150.257998,269.210317 135.232198,269.210317 C120.206398,269.210317 106.683179,260.938492 106.683179,260.938492 L9.76676987,203.787698 C9.76676987,203.787698 5.68434189e-14,199.275794 0.75128999,183.484127 C1.50257998,167.69246 7.5128999,164.684524 7.5128999,164.684524 L214.868937,51.1349206 Z" id="Path" stroke="#A7A9AC" stroke-width="4.5" fill="#FFFFFF"></path>
                        <path d="M217.874097,49.6309524 C217.874097,49.6309524 227.640867,44.3670635 239.661507,44.3670635 C251.682147,44.3670635 260.697626,48.1269841 260.697626,48.1269841 L368.883385,103.77381 C368.883385,103.77381 374.360289,104.525794 372.857709,114.301587 C371.355129,124.077381 363.090939,128.589286 363.090939,128.589286 L161.745222,245.89881 C161.745222,245.89881 149.506708,253.418651 134.480908,253.418651 C119.455108,253.418651 109.688338,246.650794 109.688338,246.650794 L9.23335397,187.996032 C9.23335397,187.996032 0.75128999,183.484127 2.25386997,173.708333 C3.75644995,163.93254 9.23335397,163.180556 9.23335397,163.180556 L217.874097,49.6309524 Z" id="Path" stroke="#A7A9AC"></path>
                        <path d="M355.360165,105.277778 C355.360165,105.277778 365.126935,109.789683 365.126935,114.301587 C365.126935,118.813492 357.614035,122.573413 357.614035,122.573413 L161.745222,237.626984 C161.745222,237.626984 149.506708,245.146825 134.480908,245.146825 C119.455108,245.146825 109.688338,238.378968 109.688338,238.378968 L17.2796698,184.236111 C17.2796698,184.236111 10.5180599,180.47619 10.5180599,175.588294 C10.5180599,170.700397 19.5335397,166.188492 19.5335397,166.188492 L355.360165,105.277778 Z" id="Path" stroke="#A7A9AC" fill="#E5E6E5"></path>
                        <path d="M355.360165,105.277778 C355.360165,105.277778 365.126935,109.789683 365.126935,114.301587 C365.126935,118.813492 356.862745,123.325397 356.862745,123.325397 L340.334365,113.549603 L35.3106295,173.708333 L17.2796698,184.236111 C17.2796698,184.236111 10.5180599,180.47619 10.5180599,175.588294 C10.5180599,170.700397 19.5335397,166.188492 19.5335397,166.188492 L355.360165,105.277778 Z" id="Path-Copy" stroke="#A7A9AC" fill="#D4D8D9"></path>
                        <path d="M214.868937,7.51984127 C214.868937,7.51984127 226.138287,0.751984127 238.158927,0.751984127 C250.179567,0.751984127 261.448916,5.26388889 261.448916,5.26388889 L368.132095,67.6785714 C368.132095,67.6785714 373.391125,69.9345238 373.391125,82.718254 C373.391125,95.5019841 365.126935,99.2619048 365.126935,99.2619048 L163.029928,217.323413 C163.029928,217.323413 150.257998,225.595238 135.232198,225.595238 C120.206398,225.595238 106.683179,217.323413 106.683179,217.323413 L7.5128999,159.420635 C7.5128999,159.420635 1.50257998,157.164683 1.50257998,144.380952 C1.50257998,131.597222 8.26418989,127.837302 8.26418989,127.837302 L214.868937,7.51984127 Z" id="Path" stroke="#00C0E7" stroke-width="4.5" fill="#FFFFFF"></path>
                        <path d="M214.868937,6.76785714 C214.868937,6.76785714 226.138287,2.13889925e-16 238.158927,0 C250.179567,0 261.448916,4.51190476 261.448916,4.51190476 L368.132095,66.9265873 C368.132095,66.9265873 373.391125,68.4305556 371.888545,78.2063492 C370.385965,87.9821429 362.121775,92.4940476 362.121775,92.4940476 L160.776058,209.803571 C160.776058,209.803571 150.257998,216.571429 135.232198,216.571429 C120.206398,216.571429 108.185759,209.803571 108.185759,209.803571 L8.26418989,151.14881 C8.26418989,151.14881 1.50257998,147.388889 3.00515996,137.613095 C4.50773994,127.837302 8.26418989,127.085317 8.26418989,127.085317 L214.868937,6.76785714 Z" id="Path" stroke="#00C0E7"></path>
                    </g>
                    <g id="Group-10" transform="translate(391.422085, 281.242063)" fill="#00C0E7">
                        <rect id="Rectangle" transform="translate(20.546059, 8.261378) rotate(-31.000000) translate(-20.546059, -8.261378) " x="11.1549343" y="6.75740932" width="18.7822497" height="3.00793651" rx="1.50396825"></rect>
                        <rect id="Rectangle" transform="translate(12.281869, 6.005425) rotate(-31.000000) translate(-12.281869, -6.005425) " x="5.89590439" y="4.50145694" width="12.7719298" height="3.00793651" rx="1.50396825"></rect>
                        <rect id="Rectangle" transform="translate(4.393324, 3.749473) rotate(-31.000000) translate(-4.393324, -3.749473) " x="0.636874464" y="2.24550456" width="7.5128999" height="3.00793651" rx="1.50396825"></rect>
                    </g>
                    <g id="Group-3" transform="translate(254.687307, 199.275794)">
                        <ellipse id="Oval-2" stroke="#A7A9AC" cx="43.9504644" cy="92.1180556" rx="43.9504644" ry="25.9434524"></ellipse>
                        <ellipse id="Oval-3" fill="#A7A9AC" cx="43.9504644" cy="92.4940476" rx="6.38596491" ry="3.75992063"></ellipse>
                        <path d="M43.8565531,0 L43.8565531,89.110119" id="Line" stroke="#A7A9AC" stroke-width="0.75" stroke-linecap="square"></path>
                    </g>
                    <g id="Group-7" transform="translate(137.486068, 231.611111)" stroke="#A7A9AC">
                        <path d="M0.75128999,12.7837302 C0.75128999,12.7837302 -1.72084569e-14,15.0396825 0.75128999,17.2956349 C1.50257998,19.5515873 3.75644995,20.3035714 3.75644995,20.3035714 L105.180599,79.7103175 C105.180599,79.7103175 106.683179,81.2142857 110.439628,81.2142857 C114.196078,81.2142857 117.201238,78.9583333 117.201238,78.9583333 L132.978328,69.9345238 C132.978328,69.9345238 135.983488,67.6785714 134.480908,63.9186508 C132.978328,60.1587302 0.75128999,12.7837302 0.75128999,12.7837302 Z" id="Path-2" fill="#F8F8F9"></path>
                        <path d="M29.3003096,1.50396825 C29.3003096,1.50396825 26.2951496,0 24.0412797,0 C21.7874097,1.61418801e-16 20.2848297,0.751984127 20.2848297,0.751984127 L3.75644995,10.5277778 C3.75644995,10.5277778 -2.00950367e-14,12.031746 0.75128999,14.2876984 C1.50257998,16.5436508 3.75644995,17.2956349 3.75644995,17.2956349 L105.180599,76.702381 C105.180599,76.702381 106.683179,78.2063492 110.439628,78.2063492 C114.196078,78.2063492 117.201238,75.9503968 117.201238,75.9503968 L133.729618,66.1746032 C133.729618,66.1746032 134.480908,65.422619 134.480908,63.9186508 C134.480908,62.4146825 132.227038,61.6626984 132.227038,61.6626984 L29.3003096,1.50396825 Z" id="Path-2" fill="#FFFFFF"></path>
                        <path d="M10.5180599,11.2797619 L20.2848297,6.01587302 C20.2848297,6.01587302 21.7874097,5.26388889 24.0412797,5.26388889 C26.2951496,5.26388889 27.7977296,6.01587302 27.7977296,6.01587302 L35.3106295,10.5277778 C35.3106295,10.5277778 38.3157895,12.031746 38.3157895,13.5357143 C38.3157895,15.0396825 36.0619195,16.5436508 36.0619195,16.5436508 L27.7977296,21.0555556 C27.7977296,21.0555556 25.405158,22.5595238 23.6656347,22.5595238 C21.9261113,22.5595238 19.5335397,21.0555556 19.5335397,21.0555556 L10.5180599,15.7916667 C10.5180599,15.7916667 9.01547988,15.0396825 9.01547988,13.5357143 C9.01547988,12.031746 10.5180599,11.2797619 10.5180599,11.2797619 Z" id="Path-3" stroke-dasharray="2,1"></path>
                    </g>
                    <g id="Group-8" transform="translate(100.672859, 323.353175)" stroke="#A7A9AC">
                        <path d="M0.75128999,12.7837302 C0.75128999,12.7837302 -1.72084569e-14,15.0396825 0.75128999,17.2956349 C1.50257998,19.5515873 3.75644995,20.3035714 3.75644995,20.3035714 L105.180599,79.7103175 C105.180599,79.7103175 106.683179,81.2142857 110.439628,81.2142857 C114.196078,81.2142857 117.201238,78.9583333 117.201238,78.9583333 L132.978328,69.9345238 C132.978328,69.9345238 135.983488,67.6785714 134.480908,63.9186508 C132.978328,60.1587302 0.75128999,12.7837302 0.75128999,12.7837302 Z" id="Path-2" fill="#F8F8F9"></path>
                        <path d="M29.3003096,1.50396825 C29.3003096,1.50396825 26.2951496,0 24.0412797,0 C21.7874097,1.61418801e-16 20.2848297,0.751984127 20.2848297,0.751984127 L3.75644995,10.5277778 C3.75644995,10.5277778 -1.99840144e-14,12.031746 0.75128999,14.2876984 C1.50257998,16.5436508 3.75644995,17.2956349 3.75644995,17.2956349 L105.180599,76.702381 C105.180599,76.702381 106.683179,78.2063492 110.439628,78.2063492 C114.196078,78.2063492 117.201238,75.9503968 117.201238,75.9503968 L133.729618,66.1746032 C133.729618,66.1746032 134.480908,65.422619 134.480908,63.9186508 C134.480908,62.4146825 132.227038,61.6626984 132.227038,61.6626984 L29.3003096,1.50396825 Z" id="Path-2" fill="#FFFFFF"></path>
                    </g>
                    <g id="Group-9" transform="translate(184.066047, 369.976190)" stroke="#A7A9AC">
                        <path d="M3.00515996,3.00793651 C8.26418989,-0.751984127 13.5232198,0.751984127 15.0257998,1.50396825 C16.5283798,2.25595238 34.5593395,12.7837302 34.5593395,12.7837302 C34.5593395,12.7837302 38.3157895,15.7916667 34.5593395,19.5515873 C30.8028896,23.3115079 21.7874097,21.8075397 20.2848297,21.0555556 C18.7822497,20.3035714 3.00515996,10.5277778 3.00515996,10.5277778 C3.00515996,10.5277778 -2.25386997,6.76785714 3.00515996,3.00793651 Z" id="Path-4"></path>
                        <path d="M26.2951496,19.5515873 C30.4444097,19.5515873 33.8080495,17.8682135 33.8080495,15.7916667 C33.8080495,14.5998551 33.8080495,11.2797619 33.8080495,11.2797619 L18.7822497,11.2797619 L18.7822497,15.7916667 C18.7822497,17.8682135 22.1458896,19.5515873 26.2951496,19.5515873 Z" id="Oval-5" fill="#F8F8F9"></path>
                        <ellipse id="Oval-5" fill="#FFFFFF" cx="26.2951496" cy="11.2797619" rx="7.5128999" ry="3.75992063"></ellipse>
                    </g>
                    <g id="Group-6" transform="translate(137.486068, 278.234127)" stroke="#A7A9AC">
                        <path d="M0.75128999,13.5357143 C0.75128999,13.5357143 -1.74860126e-14,38.3511905 0.75128999,40.6071429 C1.50257998,42.8630952 3.75644995,43.6150794 3.75644995,43.6150794 L105.180599,103.021825 C105.180599,103.021825 106.683179,104.525794 110.439628,104.525794 C114.196078,104.525794 117.201238,102.269841 117.201238,102.269841 L132.978328,92.4940476 C132.978328,92.4940476 134.480908,91.7420635 134.480908,87.2301587 L134.480908,64.6706349 L0.75128999,13.5357143 Z" id="Path-2" fill="#F8F8F9"></path>
                        <path d="M29.3003096,1.50396825 C29.3003096,1.50396825 26.2951496,0 24.0412797,0 C21.7874097,1.61418801e-16 20.2848297,0.751984127 20.2848297,0.751984127 L3.75644995,10.5277778 C3.75644995,10.5277778 -2.00950367e-14,12.031746 0.75128999,14.2876984 C1.50257998,16.5436508 3.75644995,17.2956349 3.75644995,17.2956349 L105.180599,76.702381 C105.180599,76.702381 106.683179,78.2063492 110.439628,78.2063492 C114.196078,78.2063492 117.201238,75.9503968 117.201238,75.9503968 L133.729618,66.1746032 C133.729618,66.1746032 134.480908,65.422619 134.480908,63.9186508 C134.480908,62.4146825 132.227038,61.6626984 132.227038,61.6626984 L29.3003096,1.50396825 Z" id="Path-2" fill="#FFFFFF"></path>
                    </g>
                    <g id="Group-13" transform="translate(245.671827, 312.825397)">
                        <path d="M4.13209494,0.375992063 L4.13209494,29.703373" id="Line" stroke="#A7A9AC" stroke-linecap="square"></path>
                        <ellipse id="Oval-6" fill="#A7A9AC" cx="4.13209494" cy="30.4553571" rx="4.13209494" ry="2.63194444"></ellipse>
                    </g>
                    <g id="Group" transform="translate(196.086687, 152.652778)" stroke="#A7A9AC">
                        <path d="M9.76676987,45.1190476 L79.6367389,4.51190476 C79.6367389,4.51190476 89.5668327,6.3789293e-16 103.678019,0 C117.789204,0 126.968008,6.76785714 126.968008,6.76785714 L198.046574,46.0169391 C198.046574,46.0169391 205.102167,49.6309524 205.102167,60.9107143 C205.102167,72.1904762 197.589267,75.9503968 197.589267,75.9503968 L126.968008,116.55754 C126.968008,116.55754 117.789204,122.573413 103.678019,122.573413 C89.5668327,122.573413 79.6367389,117.309524 79.6367389,117.309524 L9.76676987,77.4543651 C9.76676987,77.4543651 0,72.1904762 0,61.6626984 C1.05284071e-15,51.1349206 9.76676987,45.1190476 9.76676987,45.1190476 Z M24.7925697,57.1507937 C24.7925697,57.1507937 22.5386997,57.9027778 22.5386997,60.1587302 C22.5386997,62.4146825 24.7925697,63.9186508 24.7925697,63.9186508 L79.6367389,95.0083504 C79.6367389,95.0083504 84.3314849,97.9121055 87.9009288,99.2619048 C91.4703726,100.611704 95.9500886,102.269841 102.551084,102.269841 C110.728313,102.269841 115.943297,99.8147338 120.206398,97.7579365 C124.4695,95.7011393 126.968008,94.2932734 126.968008,94.2932734 L180.309598,63.9186508 C180.309598,63.9186508 182.563467,62.4146825 182.563467,60.1587302 C182.563467,57.9027778 180.309598,57.1507937 180.309598,57.1507937 L112.693498,18.7996032 C112.693498,18.7996032 108.937049,16.5436508 103.302374,16.5436508 C97.6676987,16.5436508 83.3931889,24.0634921 83.3931889,24.0634921 L24.7925697,57.1507937 Z" id="Combined-Shape" stroke-width="3.5" fill="#FFFFFF"></path>
                        <path d="M10.5180599,44.3670635 L79.6367389,4.29046158 C79.6367389,4.29046158 89.5668327,6.06585301e-16 103.678019,0 C117.789204,0 126.968008,6.43569238 126.968008,6.43569238 L197.589267,45.8710317 C197.589267,45.8710317 204.350877,47.375 204.350877,56.3988095 C204.350877,65.422619 197.589267,69.9345238 197.589267,69.9345238 L126.968008,110.836924 C126.968008,110.836924 117.789204,116.55754 103.678019,116.55754 C89.5668327,116.55754 79.6367389,111.552001 79.6367389,111.552001 L10.5180599,72.1904762 C10.5180599,72.1904762 0.75128999,67.3025794 0.75128999,58.2787698 C0.75128999,49.2549603 10.5180599,44.3670635 10.5180599,44.3670635 Z" id="Path"></path>
                        <path d="M10.5180599,44.3670635 L79.6367389,4.29046158 C79.6367389,4.29046158 89.5668327,6.06585301e-16 103.678019,0 C117.789204,0 126.968008,6.43569238 126.968008,6.43569238 L197.589267,45.8710317 C197.589267,45.8710317 204.350877,47.375 204.350877,56.3988095 C204.350877,65.422619 197.589267,69.9345238 197.589267,69.9345238 L126.968008,110.836924 C126.968008,110.836924 117.789204,116.55754 103.678019,116.55754 C89.5668327,116.55754 79.6367389,111.552001 79.6367389,111.552001 L10.5180599,72.1904762 C10.5180599,72.1904762 0.75128999,67.3025794 0.75128999,58.2787698 C0.75128999,49.2549603 10.5180599,44.3670635 10.5180599,44.3670635 Z" id="Path"></path>
                        <path d="M24.7925697,51.8869048 L83.3571491,19.6992161 C83.3571491,19.6992161 91.6749767,16.5436508 103.495048,16.5436508 C115.315118,16.5436508 123.962848,19.6992161 123.962848,19.6992161 L179.558308,51.8869048 C179.558308,51.8869048 185.568627,54.8948413 185.568627,58.6547619 C185.568627,62.4146825 180.309598,64.6706349 180.309598,64.6706349 L120.957688,98.0624209 C120.957688,98.0624209 115.315118,102.269841 103.495048,102.269841 C91.6749767,102.269841 84.1444788,98.0624209 84.1444788,98.0624209 L27.7977296,66.1746032 C27.7977296,66.1746032 20.2848297,63.9186508 19.5335397,59.406746 C18.7822497,54.8948413 24.7925697,51.8869048 24.7925697,51.8869048 Z" id="Path"></path>
                    </g>
                    <g id="rectangle" transform="translate(228.392157, 78.206349)">
                        <path d="M0,74.0961894 L55.8959752,45.9122364 C55.8959752,45.9122364 61.9716247,42.3892422 71.6926639,42.3892422 C81.4137031,42.3892422 88.7044824,47.0865677 88.7044824,47.0865677 L139.739938,74.0961894 L139.739938,81.1421776 C139.739938,87.0138345 134.879418,90.5368287 134.879418,90.5368287 L86.2742226,117.54645 C86.2742226,117.54645 80.1985732,121.069444 70.477534,121.069444 C60.7564948,121.069444 55.8959752,117.54645 55.8959752,117.54645 L6.07564948,90.5368287 C6.07564948,90.5368287 0,87.0138345 0,81.7293433 L0,74.0961894 Z" id="Path" fill="#00789D"></path>
                        <path d="M6.07564948,65.8758698 L55.8959752,38.8662481 C55.8959752,38.8662481 61.9716247,35.343254 71.6926639,35.343254 C81.4137031,35.343254 88.7044824,40.0405795 88.7044824,40.0405795 L134.879418,65.8758698 C134.879418,65.8758698 139.739938,68.2245325 139.739938,74.0961894 C139.739938,79.9678463 134.879418,83.4908404 134.879418,83.4908404 L86.2742226,110.500462 C86.2742226,110.500462 80.1985732,114.023456 70.477534,114.023456 C60.7564948,114.023456 55.8959752,110.500462 55.8959752,110.500462 L6.07564948,83.4908404 C6.07564948,83.4908404 0,79.9678463 0,74.6833551 C5.74697243e-16,69.3988639 6.07564948,65.8758698 6.07564948,65.8758698 Z" id="Path" fill="#00C0E7"></path>
                        <ellipse id="Oval" fill="#FFFFFF" cx="70.245614" cy="73.3184524" rx="5.63467492" ry="3.38392857"></ellipse>
                        <path d="M70.1047472,0 L70.1047472,70.3105159" id="Line" stroke="#FFFFFF" stroke-width="0.75" stroke-linecap="square"></path>
                    </g>
                    <g id="rectangle" transform="translate(255.438596, 51.886905)">
                        <path d="M0,24.8154762 L34.5593395,6.76785714 C34.5593395,6.76785714 38.3157895,4.51190476 44.3261094,4.51190476 C50.3364293,4.51190476 54.8441692,7.51984127 54.8441692,7.51984127 L86.3983488,24.8154762 L86.3983488,29.327381 C86.3983488,33.0873016 83.3931889,35.343254 83.3931889,35.343254 L53.3415893,52.6388889 C53.3415893,52.6388889 49.5851393,54.8948413 43.5748194,54.8948413 C37.5644995,54.8948413 34.5593395,52.6388889 34.5593395,52.6388889 L3.75644995,35.343254 C3.75644995,35.343254 0,33.0873016 0,29.703373 L0,24.8154762 Z" id="Path" fill="#79B234"></path>
                        <path d="M3.75644995,19.5515873 L34.5593395,2.25595238 C34.5593395,2.25595238 38.3157895,2.7133278e-16 44.3261094,0 C50.3364293,0 54.8441692,3.00793651 54.8441692,3.00793651 L83.3931889,19.5515873 C83.3931889,19.5515873 86.3983488,21.0555556 86.3983488,24.8154762 C86.3983488,28.5753968 83.3931889,30.8313492 83.3931889,30.8313492 L53.3415893,48.1269841 C53.3415893,48.1269841 49.5851393,50.3829365 43.5748194,50.3829365 C37.5644995,50.3829365 34.5593395,48.1269841 34.5593395,48.1269841 L3.75644995,30.8313492 C3.75644995,30.8313492 0,28.5753968 0,25.1914683 C3.55323564e-16,21.8075397 3.75644995,19.5515873 3.75644995,19.5515873 Z" id="Path" fill="#D0E147"></path>
                    </g>
                    <g id="Group-2" transform="translate(285.490196, 0.000000)">
                        <ellipse id="Oval" fill="#A7A9AC" cx="12.9597523" cy="7.7078373" rx="3.94427245" ry="2.44394841"></ellipse>
                        <ellipse id="Oval" fill="#A7A9AC" cx="12.9597523" cy="76.890377" rx="3.94427245" ry="2.44394841"></ellipse>
                        <ellipse id="Oval" stroke="#A7A9AC" stroke-width="0.5" cx="13.1475748" cy="7.51984127" rx="13.1475748" ry="7.51984127"></ellipse>
                        <path d="M13.0536636,10.1517857 L13.0536636,74.8224206" id="Line" stroke="#A7A9AC" stroke-width="0.75" stroke-linecap="square"></path>
                    </g>
                    <g id="Group-5" transform="translate(146.501548, 190.251984)" stroke="#00C0E7">
                        <path d="M0,8.2718254 L29.3003096,8.2718254 C29.3003096,8.2718254 29.3003096,9.77579365 29.3003096,11.2797619 C29.3003096,12.7837302 27.0464396,14.2876984 27.0464396,14.2876984 L18.7822497,18.7996032 C18.7822497,18.7996032 16.3896781,20.3035714 14.6501548,20.3035714 C12.9106315,20.3035714 10.5180599,18.7996032 10.5180599,18.7996032 L1.50257998,13.5357143 C1.50257998,13.5357143 0,12.7837302 0,11.2797619 C2.0331174e-16,9.77579365 0,8.2718254 0,8.2718254 Z" id="Path-3"></path>
                        <path d="M1.50257998,6.01587302 L11.2693498,0.751984127 C11.2693498,0.751984127 12.7719298,9.60954735e-17 15.0257998,0 C17.2796698,0 18.7822497,0.751984127 18.7822497,0.751984127 L26.2951496,5.26388889 C26.2951496,5.26388889 29.3003096,6.76785714 29.3003096,8.2718254 C29.3003096,9.77579365 27.0464396,11.2797619 27.0464396,11.2797619 L18.7822497,15.7916667 C18.7822497,15.7916667 16.3896781,17.2956349 14.6501548,17.2956349 C12.9106315,17.2956349 10.5180599,15.7916667 10.5180599,15.7916667 L1.50257998,10.5277778 C1.50257998,10.5277778 0,9.77579365 0,8.2718254 C2.0331174e-16,6.76785714 1.50257998,6.01587302 1.50257998,6.01587302 Z" id="Path-3" fill="#FFFFFF"></path>
                    </g>
                    <g id="Group-4" transform="translate(157.770898, 210.555556)">
                        <ellipse id="Oval-4" fill="#00C0E7" cx="3.38080495" cy="34.5912698" rx="3.38080495" ry="2.25595238"></ellipse>
                        <path d="M3.38080495,0.375992063 L3.38080495,32.7113095" id="Line" stroke="#00C0E7" stroke-linecap="square"></path>
                    </g>
                </g>
            </g>
        </g>
    </g>
</svg>