<?xml version="1.0" encoding="UTF-8"?>
<svg width="720px" height="1280px" viewBox="0 0 720 1280" version="1.1" xmlns="http://www.w3.org/2000/svg" xmlns:xlink="http://www.w3.org/1999/xlink">
    <!-- Generator: Sketch 42 (36781) - http://www.bohemiancoding.com/sketch -->
    <title>small</title>
    <desc>Created with Sketch.</desc>
    <defs>
        <linearGradient x1="50%" y1="0%" x2="50%" y2="100%" id="linearGradient-1">
            <stop stop-color="#2C2255" offset="28.4199617%"></stop>
            <stop stop-color="#463788" offset="100%"></stop>
        </linearGradient>
        <linearGradient x1="90.520234%" y1="92.9489241%" x2="17.9812932%" y2="22.8884289%" id="linearGradient-2">
            <stop stop-color="#94C858" offset="0%"></stop>
            <stop stop-color="#6F9949" offset="100%"></stop>
        </linearGradient>
    </defs>
    <g id="Android" stroke="none" stroke-width="1" fill="none" fill-rule="evenodd">
        <g id="7_03" transform="translate(-2095.000000, 0.000000)">
            <g id="small" transform="translate(2095.000000, 0.000000)">
                <rect id="base" fill="#FFFFFF" x="0" y="0" width="720" height="1280"></rect>
                <g id="IDE" transform="translate(148.666667, 366.000000)">
                    <g id="window">
                        <path d="M12.9052674,12.840449 L23.9085348,6.75564572 C30.3112381,2.54845173 39.9907692,2.36856102 50.7548352,7.27058288 L384.703304,159.422146 C403.676857,168.063646 418.809253,189.385192 418.809253,206.706419 L418.902147,503.098851 C418.902147,526.331736 407.608586,532.888752 401.345223,539.018528 C395.376799,546.079239 383.892806,547.572332 370.899289,541.656176 L37.3293626,389.24602 C18.4022564,380.60452 3.22341392,359.323449 3.22341392,341.95725 L3.18161172,37.1459326 L3.18161172,30.2516211 C3.18161172,21.8192441 6.87878388,15.8221375 12.9052674,12.840449 L12.9052674,12.840449 Z" id="Shape" fill="#EBECEC"></path>
                        <path d="M9.25221978,11.5654736 L9.25221978,11.5205009 L9.91408791,11.1382332 C10.2903077,10.9268616 10.7640659,10.6705173 11.1913773,10.4568971 L11.2378242,10.4164217 L22.2457363,4.32262386 L22.2457363,4.36759654 C26.0427692,1.89634791 30.7408718,0.666345173 36.003304,0.749544627 C40.9847326,0.834992714 46.4886886,2.11221676 52.1807546,4.75211293 L386.122256,156.860952 C396.085114,161.414435 405.002916,169.201454 411.452066,178.142023 C417.95463,187.163542 421.983897,197.419561 421.983897,206.699673 L422.076791,503.092105 C422.076791,524.409154 413.061451,532.495241 406.331297,538.496845 C405.379136,539.346829 404.524513,540.115862 403.860322,540.794949 C400.256044,545.011138 395.040059,547.518364 388.779018,548.031053 C382.989414,548.539244 376.393956,547.351965 369.468725,544.156657 L35.9104103,391.798219 C25.9475531,387.244736 17.0297509,379.453219 10.5806007,370.517148 C4.07803663,361.500127 0.0487692308,351.241859 0.0487692308,341.959498 L0,37.1481812 L0,30.2516211 C0,25.6531648 0.998608059,21.6933206 2.84719414,18.417061 C4.3535858,15.6482935 6.5564511,13.2918433 9.25221978,11.5654736 L9.25221978,11.5654736 Z M25.5666886,9.18192168 L16.5025788,14.1581485 L16.5490256,14.2863206 L14.4171136,15.309449 C11.8996923,16.586673 9.85835165,18.4575364 8.48584615,20.9310337 C7.10869597,23.4382605 6.30284249,26.5885965 6.30284249,30.2493725 L6.30284249,41.9040419 L6.39573626,341.955001 C6.39573626,350.128785 10.002337,359.278476 15.8848352,367.405039 C21.7673333,375.581072 29.8328352,382.644031 38.7506374,386.729799 L372.362366,539.09723 C378.145004,541.773105 383.602513,542.798482 388.154308,542.416214 C392.613209,542.033946 396.317348,540.246282 398.830125,537.307318 L401.013128,534.712394 L401.338256,534.96649 L401.865429,534.501023 C407.794374,529.178506 415.762337,522.072823 415.71589,503.087607 L415.669443,206.699673 C415.669443,198.57311 412.018718,189.378446 406.13622,181.206911 C400.253722,173.078099 392.190542,166.012892 383.27274,161.927124 L49.3335604,9.81603643 C44.4496703,7.60338069 39.8955531,6.49480419 35.9104103,6.4093561 C31.9252674,6.36438342 28.462652,7.25933971 25.7617656,9.04700364 L25.5666886,9.17517577 L25.5666886,9.18192168 Z" id="Shape" fill="#B2B3B3"></path>
                        <path d="M16.6047619,251.562168 L16.4607766,33.6538042 L12.1458608,27.0990364 L16.3655604,23.8655009 L12.9052674,12.840449 L23.9085348,6.75564572 C30.3112381,2.54845173 39.9907692,2.36856102 50.7548352,7.27058288 L384.703304,159.422146 C403.676857,168.063646 418.809253,189.385192 418.809253,206.706419 L418.902147,503.310222 C418.902147,526.590329 407.608586,533.104621 401.345223,539.2299 L80.167326,223.894976 L16.6047619,251.562168 Z" id="Shape" fill="#EBECEC"></path>
                        <path d="M15.9870183,251.562168 L15.8476777,33.7819763 L11.5745641,27.3958561 L11.337685,26.9731129 L11.7185495,26.6740446 L15.6549231,23.6901075 L12.2875238,13.0090965 L12.1481832,12.5818561 L12.5754945,12.3682359 L23.5834066,6.28118397 C26.9508059,4.06852823 31.1705055,2.91947632 35.9615018,3.00492441 C40.5597436,3.0903725 45.6874799,4.3248725 51.0474505,6.75114845 L384.988952,158.902711 C394.526821,163.242575 403.110205,170.775498 409.322476,179.374274 C415.583516,188.054001 419.475766,197.885028 419.475766,206.695176 L419.522212,503.298979 C419.568659,523.687342 410.985275,531.384416 404.53148,537.134173 C403.583963,537.988654 402.634125,538.836389 401.828271,539.60767 L401.35219,540.070889 L400.934168,539.603173 L80.0279853,224.578561 L16.8834432,252.072607 L15.9823736,252.454875 L15.9823736,251.562168 L15.9870183,251.562168 Z M17.0785201,33.6538042 L17.2643077,250.66946 L79.8816777,223.386785 L80.308989,223.170916 L80.6457289,223.512709 L401.354513,538.411397 C402.120886,537.691834 402.880293,537.00825 403.683824,536.331411 C409.898418,530.709826 418.29137,523.221875 418.29137,503.305725 L418.198476,206.701922 C418.198476,198.103146 414.403766,188.53296 408.282066,179.974659 C402.167333,171.54678 393.772059,164.184752 384.424623,159.92584 L50.4738315,7.77427687 C45.2532015,5.39072495 40.3205421,4.24392168 35.9591795,4.15397632 C31.4073846,4.07077687 27.4199194,5.13438069 24.2870769,7.22111293 L24.24063,7.26158834 L13.6182271,13.0945446 L16.9856264,23.7373288 L17.0785201,24.0746239 L16.7951941,24.3332168 L12.9540366,27.2272086 L17.0297509,33.3547359 L17.0761978,33.6538042 L17.0785201,33.6538042 Z" id="Shape" fill="#B2B3B3"></path>
                        <path d="M3.18161172,37.143684 L3.18161172,30.2516211 C3.13516484,12.8809244 19.02,5.77524135 37.9471062,14.4144927 L371.514711,166.781924 C390.488264,175.461651 405.622982,196.742722 405.622982,214.104424 L405.715875,518.922487 L405.715875,525.81455 C405.715875,543.135777 389.877487,550.288681 370.903934,541.644933 L37.3340073,389.24602 C18.4069011,380.60452 3.22805861,359.323449 3.22805861,341.95725 L3.18161172,37.1459326 L3.18161172,37.143684 Z" id="Shape" fill="#FEFEFE"></path>
                        <path d="M2.5150989,36.1655282 L2.5150989,30.2516211 C2.5150989,25.9904599 3.46261538,22.3364299 5.16721612,19.3097687 C6.77547848,16.4289197 9.22884805,14.0737628 12.2178535,12.5413807 C15.155619,10.967337 18.6577143,10.1578288 22.5871209,10.1578288 C27.3177363,10.1578288 32.6196484,11.3496047 38.1561172,13.9040528 L370.941092,166.271485 C380.453414,170.656321 389.020542,178.144271 395.218879,186.783523 C401.465985,195.467747 405.3443,205.25605 405.3443,214.104424 L405.397714,518.924736 L405.397714,525.819047 C405.397714,530.073463 404.445553,533.734239 402.792044,536.71143 C401.161782,539.586939 398.716181,541.951016 395.743729,543.524791 C392.761839,545.053862 389.257421,545.903845 385.376784,545.903845 C380.648491,545.903845 375.344256,544.671594 369.763663,542.162118 L36.9717216,389.75646 C27.4617216,385.412099 18.8969158,377.879176 12.6962564,369.284897 C6.44915018,360.600673 2.61728205,350.767397 2.61728205,341.959498 L2.52438828,37.1481812 L2.52438828,36.1700255 L2.5150989,36.1655282 Z M3.79238828,30.2516211 L3.79238828,38.076867 L3.83883516,341.95725 C3.83883516,350.556026 7.62425641,360.132957 13.732022,368.648534 C19.8351429,377.11464 28.2118388,384.478916 37.5360513,388.773807 L370.321026,541.141239 C375.715832,543.610239 380.824989,544.761539 385.369817,544.761539 C389.015897,544.761539 392.32756,543.997004 395.077216,542.546635 C397.865844,541.106704 400.152457,538.900491 401.649451,536.205487 C403.258835,533.394695 404.111136,529.86434 404.111136,525.816799 L404.111136,517.94658 L404.064689,214.11117 C404.064689,205.510146 400.279267,195.897236 394.171502,187.381659 C388.070703,178.95378 379.691685,171.551277 370.367473,167.292364 L37.5848205,14.9249326 C32.1876923,12.4581812 27.1249817,11.3091293 22.5824762,11.3091293 C18.8899487,11.3091293 15.6247326,12.0736648 12.8332747,13.5240337 C10.0653377,14.9768593 7.7950685,17.1797595 6.30052015,19.8629326 C4.69345788,22.673725 3.79238828,26.1658534 3.79238828,30.2516211 L3.79238828,30.2516211 Z" id="Shape" fill="#B2B3B3"></path>
                        <path d="M26.2293144,43.4735883 C29.5404116,43.4735883 32.2245863,40.1177627 32.2245863,35.9781421 C32.2245863,31.8385215 29.5404116,28.4826959 26.2293144,28.4826958 C22.9182172,28.4826958 20.2340426,31.8385214 20.2340426,35.9781421 C20.2340426,40.1177628 22.9182172,43.4735884 26.2293144,43.4735883 Z" id="Oval" fill="#FF5F57" transform="translate(26.229314, 35.978142) rotate(-24.000000) translate(-26.229314, -35.978142) "></path>
                        <path d="M42.7163121,50.9690346 C46.0274093,50.9690346 48.7115839,47.613209 48.7115839,43.4735883 C48.7115839,39.3339677 46.0274093,35.9781421 42.7163121,35.9781421 C39.4052148,35.978142 36.7210402,39.3339676 36.7210402,43.4735883 C36.7210402,47.6132091 39.4052148,50.9690347 42.7163121,50.9690346 Z" id="Oval" fill="#FFBD2F" transform="translate(42.716312, 43.473588) rotate(-24.000000) translate(-42.716312, -43.473588) "></path>
                        <path d="M59.2033097,58.4644809 C62.5144069,58.4644808 65.1985816,55.1086552 65.1985816,50.9690346 C65.1985816,46.829414 62.5144069,43.4735884 59.2033097,43.4735883 C55.8922125,43.4735883 53.2080378,46.8294139 53.2080378,50.9690346 C53.2080378,55.1086553 55.8922125,58.4644809 59.2033097,58.4644809 Z" id="Oval" fill="#48E285" transform="translate(59.203310, 50.969035) rotate(-24.000000) translate(-59.203310, -50.969035) "></path>
                        <polygon id="Shape" fill="#B3B2B2" points="3.46493773 49.4414627 405.578857 233.177337 418.477158 225.217173 419.187795 226.195329 406.001524 234.27467 405.669429 234.488291 405.339656 234.317394 2.89828571 50.4668397"></polygon>
                    </g>
                    <g id="Eclipse" transform="translate(114.013293, 265.765144) rotate(25.000000) translate(-114.013293, -265.765144) translate(39.572000, 195.807646)">
                        <ellipse id="Oval" fill="#2C2255" cx="82.0048461" cy="69.9574985" rx="66.8777386" ry="66.7776122"></ellipse>
                        <ellipse id="Oval-2" fill="url(#linearGradient-1)" cx="82.4029279" cy="70.3549843" rx="43.3909137" ry="43.3259508"></ellipse>
                        <path d="M76.0336195,0.250508178 C74.0652568,0.0846265476 72.0737224,5.64861277e-15 70.0623928,5.64861277e-15 C31.3680017,5.64861277e-15 0,31.3210389 0,69.9574985 C0,108.593958 31.3680017,139.914997 70.0623928,139.914997 C72.0737224,139.914997 74.0652568,139.83037 76.0336195,139.664489 C40.1342004,136.639106 11.9424533,106.585641 11.9424533,69.9574985 C11.9424533,33.3293563 40.1342004,3.27589135 76.0336224,0.250507933 Z" id="Combined-Shape" fill="#F7941E"></path>
                        <polygon id="Rectangle" fill="#FFFFFF" points="15.9232711 81.8820721 148.086421 81.8820721 146.494094 89.0368162 17.5155982 89.0368162"></polygon>
                        <rect id="Rectangle" fill="#FFFFFF" x="15.1271075" y="66.7776122" width="133.755477" height="7.15474416"></rect>
                        <polygon id="Rectangle" fill="#FFFFFF" points="17.5155982 50.8781807 146.494094 50.8781807 148.086421 58.0329249 15.9232711 58.0329249"></polygon>
                    </g>
                    <g id="Android_Studio" transform="translate(288.185105, 335.078325) rotate(25.000000) translate(-288.185105, -335.078325) translate(219.739085, 258.624773)">
                        <path d="M0.159276301,68.289962 C0.159086755,68.3564991 0.158991918,68.4230586 0.158991918,68.4896403 C0.158991918,106.315424 30.7677276,136.979281 68.5255164,136.979281 C106.283305,136.979281 136.892041,106.315424 136.892041,68.4896403 C136.892041,68.4230586 136.891946,68.3564991 136.891757,68.289962 C136.784263,105.804539 106.216843,136.182889 68.5255164,136.182889 C30.8341895,136.182889 0.266770203,105.804539 0.159276301,68.289962 Z" id="Combined-Shape" fill="#6F9949"></path>
                        <path d="M0.159276301,0.118878215 C0.159086755,0.185415356 0.158991918,0.251974816 0.158991918,0.318556466 C0.158991918,38.1443403 30.7677276,68.8081967 68.5255164,68.8081967 C106.283305,68.8081967 136.892041,38.1443403 136.892041,0.318556466 C136.892041,0.251974816 136.891946,0.185415356 136.891757,0.118878215 C136.784263,37.6334555 106.216843,68.0118056 68.5255164,68.0118056 C30.8341895,68.0118056 0.266770203,37.6334555 0.159276301,0.118878215 Z" id="Combined-Shape-Copy-2" fill="#9DC673" transform="translate(68.525516, 34.463537) scale(1, -1) translate(-68.525516, -34.463537) "></path>
                        <path d="M0.159403847,67.8524664 L136.891629,67.8524664 C136.891904,67.9320734 136.892041,68.0117126 136.892041,68.0913838 C136.892041,105.69725 106.283305,136.182828 68.5255164,136.182828 C30.7677276,136.182828 0.158991918,105.69725 0.158991918,68.0913838 C0.158991918,68.0117126 0.159129302,67.9320734 0.159403847,67.8524664 Z" id="semi_circle" fill="#93C757"></path>
                        <path d="M0.149826895,0.796391166 L136.880587,0.796391166 C136.665427,38.2190272 106.139638,68.4896403 68.515207,68.4896403 C30.8907757,68.4896403 0.364987022,38.2190272 0.149826895,0.796391166 Z" id="semi_circle-copy" fill="#87BA52" transform="translate(68.515207, 34.643016) scale(1, -1) translate(-68.515207, -34.643016) "></path>
                        <rect id="Rectangle-3" fill="#7CAF48" x="0.158991918" y="67.6932491" width="136.733049" height="0.796391166"></rect>
                        <rect id="Rectangle-3-Copy" fill="#94C858" x="0.158991918" y="68.4896403" width="136.733049" height="0.796391166"></rect>
                        <path d="M76.6341042,30.4221425 L61.5298721,44.438627 L51.3543894,54.632434 L51.8313651,67.5339709 L61.5298721,77.2499431 L32.9113269,126.148361 C32.9113269,126.148361 60.7349125,145.739583 94.7591828,131.245264 C128.783453,116.750945 134.666154,85.5324112 134.666154,85.5324112 L117.813011,68.4896403 L114.474181,68.4896403 L76.6341042,30.4221425 Z" id="Path-4" fill="url(#linearGradient-2)"></path>
                        <path d="M60.7349125,30.2628643 L76.6341042,30.2628643 L76.6341042,43.005123 L81.2448698,43.005123 C81.2448698,43.005123 82.9937809,43.005123 85.3786597,44.9164617 C87.7635385,46.8278005 87.7635385,49.854087 87.7635385,49.854087 L87.7635385,65.6582323 C87.7635385,65.6582323 87.7635385,66.7375797 87.6045465,67.2154144 C87.4455546,67.6932491 86.3326112,68.8081967 86.3326112,68.8081967 L72.6593063,82.5061248 C72.6593063,82.5061248 71.0693871,84.4174636 68.6845084,84.4174636 C66.2996296,84.4174636 64.7097104,82.5061248 64.7097104,82.5061248 L51.0364055,68.8081967 C51.0364055,68.8081967 50.0052635,67.7454835 49.7644702,67.2154144 C49.5236769,66.6853453 49.6054783,65.6582323 49.6054783,65.6582323 L49.6054783,49.6948087 C49.6054783,49.6948087 49.7644702,46.8278005 51.990357,44.9164617 C54.2162439,43.005123 56.4421307,43.005123 56.4421307,43.005123 L60.7349125,43.005123 L60.7349125,30.2628643 Z M68.6845084,68.4896403 C73.953037,68.4896403 78.2240234,64.2109626 78.2240234,58.9329463 C78.2240234,53.6549299 73.953037,49.3762523 68.6845084,49.3762523 C63.4159797,49.3762523 59.1449933,53.6549299 59.1449933,58.9329463 C59.1449933,64.2109626 63.4159797,68.4896403 68.6845084,68.4896403 Z" id="Combined-Shape" fill="#6E6E6E"></path>
                        <path d="M59.1538478,58.9329463 C59.1479648,59.0649734 59.1449933,59.1977244 59.1449933,59.3311418 C59.1449933,64.3892408 63.4159797,68.4896403 68.6845084,68.4896403 C73.953037,68.4896403 78.2240234,64.3892408 78.2240234,59.3311418 C78.2240234,59.1977244 78.2210519,59.0649734 78.2151689,58.9329463 C77.9980179,63.8063092 73.8140691,67.6932491 68.6845084,67.6932491 C63.5549476,67.6932491 59.3709988,63.8063092 59.1538478,58.9329463 Z" id="Combined-Shape" fill="#8DAD6F"></path>
                        <path d="M59.1538478,49.216974 C59.1479648,49.3490011 59.1449933,49.4817522 59.1449933,49.6151696 C59.1449933,54.6732686 63.4159797,58.773668 68.6845084,58.773668 C73.953037,58.773668 78.2240234,54.6732686 78.2240234,49.6151696 C78.2240234,49.4817522 78.2210519,49.3490011 78.2151689,49.216974 C77.9980179,54.090337 73.8140691,57.9772769 68.6845084,57.9772769 C63.5549476,57.9772769 59.3709988,54.090337 59.1538478,49.216974 Z" id="Combined-Shape-Copy" fill="#617F44" transform="translate(68.684508, 53.995321) scale(1, -1) translate(-68.684508, -53.995321) "></path>
                        <path d="M60.7349125,43.8015141 L56.4421307,43.8015141 C56.4421307,43.8015141 54.3752358,43.8015141 52.3083409,45.3942964 C50.2414459,46.9870788 49.6054783,49.6948087 49.6054783,49.6948087 C49.6054783,49.6948087 49.6054783,47.3056352 51.6723732,45.2350182 C53.7392681,43.1644012 55.965155,43.005123 56.2831388,43.005123 C56.6011226,43.005123 60.7349125,43.005123 60.7349125,43.005123 L60.7349125,43.8015141 Z" id="Path-2" fill="#8B8B8B"></path>
                        <path d="M87.7635385,43.8015141 L83.4707567,43.8015141 C83.4707567,43.8015141 81.4038618,43.8015141 79.3369668,45.3942964 C77.2700719,46.9870788 76.6341042,49.6948087 76.6341042,49.6948087 C76.6341042,49.6948087 76.6341042,47.3056352 78.7009992,45.2350182 C80.7678941,43.1644012 82.9937809,43.005123 83.3117648,43.005123 C83.6297486,43.005123 87.7635385,43.005123 87.7635385,43.005123 L87.7635385,43.8015141 Z" id="Path-2-Copy" fill="#8B8B8B" transform="translate(82.198821, 46.349966) scale(-1, 1) translate(-82.198821, -46.349966) "></path>
                        <path d="M114.951156,71.038092 L76.3161204,138.094228 C76.3161204,138.094228 75.8391447,138.890619 75.6801527,139.368454 C75.5211608,139.846289 75.5211608,141.120515 75.5211608,141.120515 L74.7262012,151.4736 C74.7262012,151.4736 74.7262012,152.429269 75.5211608,152.588547 C76.3161204,152.747826 77.11108,152.110713 77.11108,152.110713 L85.6966435,146.217418 C85.6966435,146.217418 86.8182049,145.363515 87.2865627,144.783914 C87.7549205,144.204312 88.3995061,142.872575 88.3995061,142.872575 L124.331679,80.4355077 L114.951156,71.038092 Z" id="Path-3-Copy-3" fill="#BBBBBB" transform="translate(99.528940, 111.826101) scale(-1, 1) translate(-99.528940, -111.826101) "></path>
                        <path d="M115.123127,71.038092 L76.8060751,137.616393 C76.8060751,137.616393 76.1887752,138.668513 76.0111155,139.049898 C75.8334558,139.431282 75.6931317,140.324123 75.6931317,140.324123 L75.057164,150.836487 C75.057164,150.836487 74.8981721,151.632878 75.6931317,151.792156 C76.4880913,151.951434 77.2830508,151.314321 77.2830508,151.314321 L85.8686144,145.421027 C85.8686144,145.421027 86.9901758,144.567124 87.4585336,143.987523 C87.9268913,143.407921 88.571477,142.076184 88.571477,142.076184 L124.185667,80.1169513 L115.123127,71.038092 Z" id="Path-3-Copy-2" fill="#E1E1E1" transform="translate(99.614926, 111.427906) scale(-1, 1) translate(-99.614926, -111.427906) "></path>
                        <path d="M53.2622924,71.1973702 L14.4682645,138.572063 C14.4682645,138.572063 14.0930253,139.304812 13.9912887,139.68701 C13.8895522,140.069209 13.8322968,140.961236 13.8322968,140.961236 L13.0373372,151.792156 C13.0373372,151.792156 13.0373372,152.588547 13.8322968,152.747826 C14.6272564,152.907104 15.422216,152.269991 15.422216,152.269991 L24.0077795,146.376696 C24.0077795,146.376696 25.1293409,145.522794 25.5976987,144.943192 C26.0660565,144.363591 26.7106421,143.031853 26.7106421,143.031853 L44.8357207,111.494763 C44.8357207,111.494763 69.0024922,126.944752 94.7591828,110.220537 C120.515873,93.4963229 117.813011,68.6489185 117.813011,68.6489185 L105.411641,68.6489185 C105.411641,68.6489185 106.683577,87.2844718 88.0815223,99.3896175 C69.479468,111.494763 51.1953974,100.504565 51.1953974,100.504565 L62.6428155,80.594786 L53.2622924,71.1973702 Z" id="Path-3" fill="#CBCBCB"></path>
                        <path d="M53.2622924,71.1973702 L14.9452402,137.775672 C14.9452402,137.775672 14.3279403,138.827791 14.1502807,139.209176 C13.972621,139.590561 13.8322968,140.483402 13.8322968,140.483402 L13.1963292,150.995765 C13.1963292,150.995765 13.0373372,151.792156 13.8322968,151.951434 C14.6272564,152.110713 15.422216,151.4736 15.422216,151.4736 L24.0077795,145.580305 C24.0077795,145.580305 25.1293409,144.726402 25.5976987,144.146801 C26.0660565,143.5672 26.7106421,142.235462 26.7106421,142.235462 L44.8357207,110.698372 C44.8357207,110.698372 67.412573,125.696089 93.4872475,110.312958 C119.561922,94.929827 117.813011,68.4896403 117.813011,68.4896403 L105.411641,68.4896403 C105.411641,68.4896403 106.365593,87.9215847 87.6045465,99.708174 C68.8435003,111.494763 50.7184217,100.186009 50.7184217,100.186009 L62.3248317,80.2762295 L53.2622924,71.1973702 Z" id="Path-3-Copy" fill="#F2F2F2"></path>
                    </g>
                </g>
            </g>
        </g>
    </g>
</svg>