<?xml version="1.0" encoding="UTF-8"?>
<svg width="720px" height="1280px" viewBox="0 0 720 1280" version="1.1" xmlns="http://www.w3.org/2000/svg" xmlns:xlink="http://www.w3.org/1999/xlink">
    <!-- Generator: Sketch 42 (36781) - http://www.bohemiancoding.com/sketch -->
    <title>small</title>
    <desc>Created with Sketch.</desc>
    <defs></defs>
    <g id="Android" stroke="none" stroke-width="1" fill="none" fill-rule="evenodd">
        <g id="7_04" transform="translate(-2085.000000, 0.000000)">
            <g id="small" transform="translate(2085.000000, 0.000000)">
                <rect id="base" fill="#FFFFFF" x="0" y="0" width="720" height="1280"></rect>
                <g id="Testing" transform="translate(226.000000, 322.666667)">
                    <g id="Andoid_Java">
                        <path d="M254.289333,17.6994949 L237.158078,8.51936027 C229.686822,3.83333333 218.351566,4.15639731 205.857752,10.5728956 L45.1679845,92.352862 C23.0783566,103.586532 5.43682171,129.521212 5.43682171,149.992593 L5.24426357,595.347475 C5.24426357,605.688721 10.2604031,612.741751 17.2149612,616.215488 L35.2512403,625.843434 C42.7224961,630.209596 53.9293798,629.758586 66.233845,623.530808 L226.846589,541.68367 C248.939426,530.456397 266.58738,504.51532 266.58738,484.043939 L266.779938,38.2988215 C266.779938,31.4313131 264.713147,26.0383838 261.105891,22.3151515 C258.724589,19.8074074 257.177705,19.2316498 254.279705,17.689899 L254.289333,17.6994949 Z" id="Shape" fill="#EBECEC"></path>
                        <path d="M251.975426,21.8097643 L234.837752,12.6296296 L234.516822,12.4377104 C231.622031,10.6400673 227.822217,9.8020202 223.380543,10.0579125 C218.807287,10.3777778 213.592171,11.8587542 208.046496,14.683165 L47.4209147,96.5239057 C37.1190543,101.724916 27.8441705,110.390067 21.0789612,120.213131 C14.377938,129.969024 10.2539845,140.684512 10.2539845,149.992593 L10.0614264,595.347475 C10.0614264,599.457744 10.960031,602.857912 12.5133333,605.624747 C14.1774874,608.388494 16.5872351,610.630647 19.4678915,612.095623 L19.5320775,612.095623 L35.3154264,620.508081 L35.4437984,620.508081 L37.6967287,621.793939 C40.6589147,623.521212 44.4587287,624.298485 48.8394264,623.969024 C53.4094729,623.585185 58.5636124,622.113805 63.9712868,619.350168 L224.596868,537.573401 C234.898729,532.314815 244.173612,523.643266 250.935612,513.890572 C257.630217,504.13468 261.75738,493.355219 261.815147,484.047138 L261.943519,38.3052189 C261.943519,35.4808081 261.558403,32.9762626 260.788171,30.7947811 C260.011519,28.6708754 258.990961,26.9372054 257.56924,25.5265993 C256.147519,23.9848485 254.988961,23.4058923 253.249519,22.5070707 C252.800217,22.2511785 252.286729,21.9952862 251.965798,21.803367 L251.975426,21.8097643 Z M239.606775,4.47306397 L256.616078,13.5892256 C257.129566,13.8451178 257.514682,14.037037 257.835612,14.2289562 C260.415891,15.5819865 262.091147,16.4776094 264.665008,19.110101 C266.985333,21.4867003 268.724775,24.3750842 269.94431,27.7784512 C271.041891,30.8555556 271.622775,34.3868687 271.622775,38.3020202 L271.430217,484.043939 C271.430217,495.271212 266.661194,507.851515 258.936403,519.085185 C251.336775,530.062963 240.835938,539.882828 229.115566,545.848316 L68.4257984,627.637879 C61.7953798,631.028451 55.4184961,632.899663 49.5647287,633.280303 C44.2757984,633.728114 39.3848217,632.896465 35.1998915,631.105219 L35.1357054,631.105219 L34.2948682,630.65101 C33.7813798,630.459091 33.3320775,630.139226 32.8121705,629.883333 L14.9748682,620.383333 C10.5941705,618.131481 6.72696124,614.734512 4.15310078,610.109259 C1.77179845,606.06936 0.417472868,601.121044 0.417472868,595.341077 L0.610031008,149.992593 C0.610031008,138.755724 5.37263566,126.175421 13.103845,115.005724 C20.7002636,103.963973 31.2043101,94.1441077 42.9888682,88.1754209 L203.61445,6.39225589 C210.366822,3.0016835 216.865659,1.14006734 222.732264,0.753030303 C229.170124,0.305218855 234.895519,1.58468013 239.603566,4.47626263 L239.606775,4.47306397 Z" id="Shape" fill="#B2B3B3"></path>
                        <path d="M245.990078,472.679125 L246.311008,40.166835 L251.394543,32.2021886 L246.432961,28.6708754 L257.447287,19.4907407 L236.901333,8.51296296 C229.423659,3.82693603 218.159008,4.15 205.604217,10.5664983 L44.9786357,92.3464646 C22.8890078,103.580135 5.24105426,129.514815 5.24105426,149.986195 L5.04849612,595.341077 C5.04849612,605.679125 10.067845,612.735354 17.0256124,616.205892 L34.9977054,625.833838 L44.8502636,621.403704 L53.1527287,608.244444 L206.246078,530.315657 C228.335705,519.081987 245.983659,493.147306 245.983659,472.669529 L245.990078,472.679125 Z" id="Shape" fill="#EBECEC"></path>
                        <path d="M245.017659,472.679125 L245.338589,40.166835 L245.531147,39.7094276 L250.107612,32.4580808 L245.852078,29.4417508 L244.889287,28.7380471 L245.787891,27.9703704 L255.768822,19.6858586 L236.448822,9.29023569 L236.384636,9.29023569 C232.780589,7.04158249 228.143147,6.01161616 222.924822,6.33148148 C217.838078,6.6513468 212.109473,8.32424242 206.05031,11.4045455 L45.4247287,93.1845118 C34.5451938,98.7021886 24.8145891,107.81835 17.6642636,118.089226 C10.5845426,128.430471 6.20705426,139.920034 6.20705426,149.99899 L6.01449612,595.347475 C6.01449612,600.103872 7.10565891,604.143771 8.97347287,607.425589 C10.9642929,610.853532 13.9216056,613.623069 17.478124,615.390236 L17.478124,615.454209 L35.0586822,624.752694 L44.2051938,620.645623 L52.3183101,607.799832 L52.7034264,607.425589 L205.796775,529.5 C216.612124,523.979125 226.400496,514.866162 233.493054,504.595286 C240.636961,494.263636 245.01445,482.770875 245.01445,472.691919 L245.017659,472.679125 Z M247.270589,40.4227273 L246.949659,472.672727 C246.949659,483.145118 242.430961,494.951347 235.091287,505.602862 C227.815798,516.132828 217.831659,525.444108 206.688961,531.153704 L53.7977984,608.957744 L45.6782636,621.857912 L45.2289612,622.241751 L35.4405891,626.675084 L34.9912868,626.867003 L34.5419845,626.675084 L16.5698915,617.047138 C12.7732868,615.127946 9.48375194,612.236364 7.29500775,608.314815 C5.23463566,604.789899 4.07607752,600.430135 4.07607752,595.350673 L4.26863566,150.002189 C4.26863566,139.536195 8.77770543,127.723569 16.1205891,117.068855 C23.3318915,106.545286 33.3770078,97.1732323 44.5229147,91.5244108 L205.142078,9.74444444 C211.457984,6.53619529 217.443333,4.80572391 222.79324,4.48265993 C228.460868,4.09882155 233.416031,5.25673401 237.414822,7.69410774 L257.954357,18.7358586 L259.173891,19.3755892 L258.082729,20.2072391 L247.973426,28.619697 L251.965798,31.5112795 L252.671845,32.023064 L252.151938,32.7267677 L247.260961,40.4355219 L247.270589,40.4227273 Z" id="Shape" fill="#B2B3B3"></path>
                        <path d="M266.40124,484.047138 L266.593798,38.3052189 C266.593798,31.7575758 264.722775,26.5565657 261.439659,22.836532 C254.417705,14.9454545 241.086264,13.9122896 226.018589,21.5570707 L65.3930078,103.337037 C43.3001705,114.628283 25.6522171,140.56936 25.5976589,160.976768 L25.4596589,606.779461 C25.3954729,627.193266 43.8810543,634.767677 65.9706822,623.540404 L226.66045,541.686869 C248.750078,530.459596 266.40124,504.518519 266.40124,484.047138 L266.40124,484.047138 Z" id="Shape" fill="#FEFEFE"></path>
                        <path d="M265.419194,484.047138 L265.611752,38.3052189 C265.611752,35.2217172 265.16245,32.3973064 264.37938,29.956734 C263.471147,27.4553872 262.241984,25.2739057 260.688682,23.4762626 C257.24831,19.6314815 252.254636,17.5139731 246.227566,17.3188552 C240.332078,17.062963 233.460961,18.7326599 226.195101,22.3919192 L64.5104496,104.171886 C53.5538915,109.692761 43.7013333,118.872896 36.5702636,129.143771 C29.4456124,139.475421 25.0328217,150.904209 24.9622171,160.983165 L24.7696589,606.779461 C24.7696589,611.279966 25.7388682,615.127946 27.4237519,618.27862 C29.0386636,621.289806 31.522741,623.748927 34.5548217,625.338047 C37.5394729,626.937374 41.1659845,627.77862 45.1776124,627.77862 C50.8259845,627.77862 57.3729612,626.166498 64.1766822,622.705556 L225.925519,540.858418 C236.821101,535.334343 246.67045,526.214983 253.801519,515.950505 C260.996775,505.609259 265.409566,494.119697 265.409566,484.043939 L265.419194,484.047138 Z M267.55338,38.3052189 L267.360822,484.043939 C267.360822,494.503535 262.819659,506.370539 255.431845,516.967677 C248.105008,527.491246 238.053473,536.872896 226.84338,542.512121 L65.0849147,624.301684 C57.9602636,627.948148 51.150124,629.617845 45.1872403,629.617845 C40.8450543,629.617845 36.8879845,628.722222 33.5824031,626.985354 C30.2466219,625.205342 27.5166213,622.47772 25.7388682,619.148653 C23.8550078,615.758081 22.8825891,611.577441 22.8825891,606.760269 L23.0751473,160.963973 C23.0751473,150.49798 27.6163101,138.685354 35.0073333,128.03064 C42.2699845,117.571044 52.3857054,108.19899 63.5957984,102.486195 L225.290078,20.7158249 C232.873659,16.8646465 240.068915,15.1981481 246.294961,15.4540404 C252.906124,15.6459596 258.35231,18.0193603 262.116822,22.2575758 C263.945308,24.332516 265.331938,26.7559628 266.192636,29.3809764 C267.104078,32.013468 267.55338,35.029798 267.55338,38.3052189 L267.55338,38.3052189 Z" id="Shape" fill="#B2B3B3"></path>
                        <path d="M57.0263566,583.278956 L66.9431008,572.051684 L76.859845,560.811616 L76.859845,585.914646 L66.9431008,584.622391 L57.0263566,583.278956 Z M152.143659,523.454545 C157.490357,520.761279 161.874264,523.390572 161.874264,529.231313 C161.874264,535.078451 157.490357,542.077104 152.143659,544.767172 C146.800171,547.399663 142.483659,544.767172 142.483659,538.932828 C142.483659,533.079293 146.800171,526.144613 152.143659,523.451347 L152.143659,523.454545 Z M222.282961,489.823906 L239.927705,481.027609 L239.927705,500.347475 L222.28938,509.201347 L222.282961,489.823906 Z" id="Shape" fill="#B2B3B3"></path>
                        <path d="M118.97231,196.792088 L118.97231,260.918687 C118.97231,265.284848 120.846543,267.402357 122.839519,268.042088 C126.186822,269.065657 128.378775,266.826599 132.563705,265.025758 C132.698496,265.793434 132.627891,283.002189 132.627891,284.28165 C132.627891,288.903704 132.114403,292.374242 136.302543,292.630135 C139.267938,292.758081 143.000357,290.189562 145.51324,286.01532 C147.12431,283.248485 146.861147,280.491246 146.861147,277.155051 C146.861147,275.875589 146.796961,258.666835 146.925333,257.771212 L160.905054,250.638215 C161.161798,251.405892 160.96924,267.591077 160.96924,269.894108 C160.96924,274.135522 160.455752,278.050673 164.640682,278.242593 C165.539287,278.306566 166.829426,277.9867 168.048961,277.410943 C170.500868,276.189057 172.757008,273.815657 173.85138,271.685354 C175.648589,268.422727 175.263473,266.749832 175.263473,262.965825 L175.263473,243.45404 C179.451612,240.882323 181.707752,241.138215 185.058264,236.583333 C187.118636,233.758923 188.915845,229.971717 188.915845,225.477609 L188.915845,161.037542 L118.97231,196.341077 L118.97231,196.788889 L118.97231,196.792088 Z M113.632031,207.894613 C113.632031,206.359259 113.696217,205.262121 113.118543,204.235354 C112.781488,203.488366 112.153271,202.910753 111.379101,202.636027 C110.031194,202.053872 107.70445,202.380135 105.390543,203.851515 C103.271474,205.271835 101.561208,207.218995 100.428961,209.500337 C99.0168682,212.452694 99.3313798,214.570202 99.3313798,217.848822 L99.3313798,254.111953 C99.3313798,255.653704 99.3313798,256.747643 99.8448682,257.774411 C101.911659,261.750337 109.190357,259.053872 112.537659,252.506229 C113.949752,249.681818 113.628822,247.308418 113.628822,244.164141 L113.628822,207.891414 L113.632031,207.894613 Z M178.100496,134.658249 C176.560031,133.948148 174.945752,133.628283 173.138915,133.433165 C172.625426,133.369192 171.726822,133.433165 171.341705,133.305219 C171.470078,132.665488 172.56124,130.288889 172.946357,129.45404 C173.459845,128.302525 177.006124,120.273906 177.137705,119.762121 C177.266078,118.802525 176.874543,118.348316 176.42524,118.418687 C175.719194,118.476263 175.269891,119.122391 174.948961,119.698148 L169.02138,133.369192 C168.572078,133.625084 166.315938,133.880976 165.667659,134.008923 C161.874264,134.782997 157.878682,136.388721 153.883101,138.378283 C149.76951,140.485066 145.866506,142.977399 142.226915,145.821549 C141.32831,146.525253 139.521473,148.262121 138.75124,148.713131 L132.887845,141.138721 C131.925054,139.916835 130.577147,141.778451 130.631705,142.993939 C130.695891,143.643266 132.759473,146.016667 133.080403,146.464478 C133.664496,147.177778 134.242171,147.948653 134.755659,148.652357 C135.076589,149.036195 136.369938,150.581145 136.49831,151.028956 C135.464915,151.924579 133.92124,153.725421 132.95524,154.880135 C129.536026,159.003899 126.67656,163.558486 124.450589,168.426431 C121.741938,174.526263 119.164868,182.999495 118.969101,190.509933 L188.912636,155.139226 C188.784264,147.692761 186.146217,141.919192 183.376589,138.643771 C181.771938,136.718182 180.160868,135.627441 178.097287,134.664646 L178.100496,134.658249 Z M139.845612,167.841077 C134.884031,171.820202 132.887845,163.734007 138.041984,159.620539 C140.359101,157.76532 142.226915,158.788889 142.676217,160.714478 C143.253891,163.34697 141.585054,166.430471 139.842403,167.841077 L139.845612,167.841077 Z M165.025798,151.66229 C164.704868,150.318855 165.089984,148.777104 165.667659,147.555219 C166.181147,146.403704 166.832636,145.43771 167.923798,144.538889 C170.372496,142.542929 172.24031,143.697643 172.628636,145.690404 C173.783984,151.080135 166.322357,157.05202 165.032217,151.655892 L165.025798,151.66229 Z M208.691566,196.277104 L208.691566,159.876431 C208.691566,157.317508 208.563194,155.321549 206.50924,154.553872 C204.955938,154.042088 202.959752,154.234007 200.517473,155.76936 C198.328729,157.186364 196.525101,159.431818 195.565519,161.42138 C194.082822,164.373737 194.464729,166.430471 194.464729,169.641919 L194.464729,206.032997 C194.464729,208.729461 194.657287,210.527104 196.653473,211.301178 C200.07138,212.58064 205.479054,208.998148 207.606822,204.500842 C209.083101,201.289394 208.697984,199.747643 208.697984,196.280303 L208.691566,196.277104 Z" id="Shape" fill="#98CD00"></path>
                    </g>
                    <g id="bug" transform="translate(165.573076, 370.261048) rotate(-3.000000) translate(-165.573076, -370.261048) translate(124.573076, 332.761048)">
                        <path d="M31.3333333,14 C31.3333333,14 29.3333333,11.3333333 30.6666667,8.66666667 C32,6 36,6 36,6 L36.6666667,4 C36.6666667,4 34.6666667,1.33333333 35.3333333,0.666666667 C36,1.34781075e-13 38.6666667,3.33333333 38.6666667,3.33333333 L42.6666667,3.33333333 C42.6666667,3.33333333 45.3333333,1.37112544e-13 46,0.666666667 C46.6666667,1.33333333 44.6666667,4 44.6666667,4 L45.3333333,6 C45.3333333,6 49.3333333,6 50.6666667,8.66666667 C52,11.3333333 49.3333333,14 49.3333333,14 L31.3333333,14 Z" id="Path-2" fill="#010000"></path>
                        <path d="M41,55.3333333 L41.3333333,13.3378643 C41.3333333,13.3378643 34.0513659,12.8856978 32.6905407,13.3378643 C29.0745154,14.5393746 25.8066183,16.5036256 23.0776041,19.0398627 C22.8194922,19.2797415 18.746415,17.0913129 15.9456496,15.7152018 C15.3506486,15.4228576 16.4313815,10.8546175 16,10.6666667 C15.7765005,10.569289 8.66666667,3.33333333 8,4.66666667 C7.33333333,6 14.0339158,11.9644651 14,12 C13.8975164,12.1073761 12.8981407,16.4581557 14,17.3333333 C15.1018593,18.2085109 21.2203619,20.9457927 21.0152155,21.1846458 C18.2013069,24.4608962 16.1791733,28.4369268 15.2455984,32.8159536 C15.1317032,33.3501905 7.33333333,30 6.66666667,30.6666667 C6.16891611,31.1644172 3.5737665,37.6171887 2.66666667,41.3337912 C2.52186202,41.92709 -0.0151230062,41.5305951 7.28305898e-14,42 C0.0151230062,42.4694049 2.59995642,43.8931483 2.66666667,44 C3.16381148,44.7962913 7.60023262,33.1334496 8,33.3333333 C9.33333333,34 14.7705803,35.9401084 14.7394121,36.3610562 C14.6912011,37.0121797 14.6666667,37.6698914 14.6666667,38.3333333 C14.6666667,42.5259731 15.6464838,46.4897643 17.3896269,50.0082157 C17.6476325,50.5289878 10,54.6666667 10,55.3333333 C10,56 12.5994102,65.3506644 14.7394121,70 C15.0839551,70.7485489 11.0712173,73.5611781 11.3333333,74 C11.5954493,74.4388219 17.2665019,71.9603676 17.3896269,72 C17.994938,72.1948421 12,56.6666667 12.6666667,56 C13.3333333,55.3333333 18.72143,52.3825668 18.8859913,52.6364717 C22.8568043,58.7631199 29.3044687,63.1354025 36.8109752,64.3353102 C38.1751823,64.5533773 41,55.3333333 41,55.3333333 Z" id="Oval" fill="#F53735"></path>
                        <path d="M81.6666667,55.3333333 L82,13.3378643 C82,13.3378643 74.7180326,12.8856978 73.3572074,13.3378643 C69.7411821,14.5393746 66.473285,16.5036256 63.7442707,19.0398627 C63.4861588,19.2797415 59.4130817,17.0913129 56.6123163,15.7152018 C56.0173152,15.4228576 57.0980482,10.8546175 56.6666667,10.6666667 C56.4431671,10.569289 49.3333333,3.33333333 48.6666667,4.66666667 C48,6 54.7005824,11.9644651 54.6666667,12 C54.5641831,12.1073761 53.5648073,16.4581557 54.6666667,17.3333333 C55.768526,18.2085109 61.8870285,20.9457927 61.6818822,21.1846458 C58.8679735,24.4608962 56.8458399,28.4369268 55.9122651,32.8159536 C55.7983699,33.3501905 48,30 47.3333333,30.6666667 C46.8355828,31.1644172 44.2404332,37.6171887 43.3333333,41.3337912 C43.1885287,41.92709 40.6515437,41.5305951 40.6666667,42 C40.6817897,42.4694049 43.2666231,43.8931483 43.3333333,44 C43.8304781,44.7962913 48.2668993,33.1334496 48.6666667,33.3333333 C50,34 55.437247,35.9401084 55.4060788,36.3610562 C55.3578678,37.0121797 55.3333333,37.6698914 55.3333333,38.3333333 C55.3333333,42.5259731 56.3131505,46.4897643 58.0562936,50.0082157 C58.3142992,50.5289878 50.6666667,54.6666667 50.6666667,55.3333333 C50.6666667,56 53.2660769,65.3506644 55.4060788,70 C55.7506218,70.7485489 51.737884,73.5611781 52,74 C52.262116,74.4388219 57.9331685,71.9603676 58.0562936,72 C58.6616046,72.1948421 52.6666667,56.6666667 53.3333333,56 C54,55.3333333 59.3880967,52.3825668 59.552658,52.6364717 C63.5234709,58.7631199 69.9711353,63.1354025 77.4776419,64.3353102 C78.841849,64.5533773 81.6666667,55.3333333 81.6666667,55.3333333 Z" id="Oval-Copy-2" fill="#D83735" transform="translate(61.333300, 39.277426) scale(-1, 1) translate(-61.333300, -39.277426) "></path>
                        <ellipse id="Oval-2" fill="#010000" cx="47" cy="22.6666667" rx="3" ry="3.33333333"></ellipse>
                        <ellipse id="Oval-2" fill="#010000" cx="33.6666667" cy="22.6666667" rx="3" ry="3.33333333"></ellipse>
                        <ellipse id="Oval-2" fill="#010000" cx="60.3333333" cy="37.3333333" rx="3" ry="3.33333333"></ellipse>
                        <ellipse id="Oval-2" fill="#010000" cx="20.3333333" cy="37.3333333" rx="3" ry="3.33333333"></ellipse>
                        <ellipse id="Oval-2" fill="#010000" cx="46.6666667" cy="43" rx="2.66666667" ry="2.33333333"></ellipse>
                        <ellipse id="Oval-2" fill="#010000" cx="34" cy="42.3333333" rx="2.66666667" ry="2.33333333"></ellipse>
                        <ellipse id="Oval-2" fill="#010000" cx="48.3333333" cy="56.6666667" rx="2.33333333" ry="2.66666667"></ellipse>
                        <ellipse id="Oval-2" fill="#010000" cx="33" cy="56.6666667" rx="2.33333333" ry="2.66666667"></ellipse>
                    </g>
                    <g id="search" transform="translate(69.333333, 301.333333)">
                        <path d="M95,135.333333 C85.9943994,135.333333 77.3996926,133.574088 69.5408006,130.380519 C68.4712169,129.945879 62.6666667,140.666667 62.6666667,140.666667 L46.6666667,132 C46.6666667,132 54.4771027,120.905218 52.6666667,120 C42,114.666667 27.3333333,89.4022846 27.3333333,67.6666667 C27.3333333,30.2953986 57.6287319,0 95,0 C132.371268,0 162.666667,30.2953986 162.666667,67.6666667 C162.666667,105.037935 132.371268,135.333333 95,135.333333 Z M95.3333333,121.333333 C124.78852,121.333333 148.666667,97.4551867 148.666667,68 C148.666667,38.5448133 124.78852,14.6666667 95.3333333,14.6666667 C65.8781467,14.6666667 42,38.5448133 42,68 C42,97.4551867 65.8781467,121.333333 95.3333333,121.333333 Z" id="Combined-Shape" fill="#372849"></path>
                        <g id="handel" transform="translate(0.000000, 126.000000)">
                            <path d="M45.9894864,11.7674997 C47.8146853,9.80716956 57.4528109,9.21436002 57.4528109,9.21436002 L57.7016816,66.5200147 L40.0891628,66.6663047 C40.0891628,66.6663047 42.5656919,15.4447801 45.9894864,11.7674997 Z" id="Rectangle-Copy-3" fill="#EEB329" transform="translate(48.895422, 37.940332) scale(1, -1) rotate(-209.000000) translate(-48.895422, -37.940332) "></path>
                            <path d="M31.1461472,3.38568867 C33.0181067,1.96873567 42.051065,0.939106681 42.051065,0.939106681 L42.8023983,58.2403769 L25.7423982,58.094472 C25.7423982,58.094472 26.8604242,6.6297056 31.1461472,3.38568867 Z" id="Rectangle-Copy-2" fill="#C08C09" transform="translate(34.272398, 29.589742) rotate(30.000000) translate(-34.272398, -29.589742) "></path>
                            <path d="M30,54 L15.3333333,80 C15.3333333,80 5.33333333,73.3333333 5.33333333,67.3333333 C5.33333333,61.3333333 12.6666667,50 12.6666667,50 L30,54 Z" id="Path-3" fill="#468180"></path>
                            <path d="M40.4195727,59.8951106 L25.6871147,85.8578876 C25.6871147,85.8578876 13.7922091,79.0054672 14.2459224,73.2885595 C14.6996358,67.5716519 22.4668598,55.9048325 22.4668598,55.9048325 L40.4195727,59.8951106 Z" id="Path-3-Copy" fill="#6DA5A4" transform="translate(27.326419, 70.881360) scale(-1, 1) rotate(-59.000000) translate(-27.326419, -70.881360) "></path>
                        </g>
                    </g>
                </g>
            </g>
        </g>
    </g>
</svg>