<?xml version="1.0" encoding="UTF-8"?>
<svg width="720px" height="1280px" viewBox="0 0 720 1280" version="1.1" xmlns="http://www.w3.org/2000/svg" xmlns:xlink="http://www.w3.org/1999/xlink">
    <!-- Generator: Sketch 42 (36781) - http://www.bohemiancoding.com/sketch -->
    <title>small</title>
    <desc>Created with Sketch.</desc>
    <defs></defs>
    <g id="8" stroke="none" stroke-width="1" fill="none" fill-rule="evenodd">
        <g id="8_01" transform="translate(-2010.000000, 0.000000)">
            <g id="small" transform="translate(2010.000000, 0.000000)">
                <rect id="base" fill="#FFFFFF" x="0" y="0" width="720" height="1280"></rect>
                <g id="iphone" transform="translate(224.666667, 323.333333)">
                    <path d="M15.0124094,12.9225589 L31.9557165,3.80639731 C36.5591811,0.927609428 42.3454803,-0.358249158 48.6880315,0.0895622896 C54.5894173,0.473400673 61.0022992,2.27104377 67.8051969,5.73838384 L227.807559,87.5151515 C239.482457,93.4838384 250.003291,103.303704 257.506299,114.351852 C265.210709,125.515152 269.954835,138.092256 270.021969,149.325926 L270.149843,594.684007 C270.149843,600.460774 268.800772,605.399495 266.492646,609.445791 C263.977323,613.867575 260.205143,617.441477 255.655323,619.713468 L237.887228,629.219865 C237.433276,629.475758 236.92178,629.795623 236.410283,629.987542 L235.770913,630.37138 L235.706976,630.307407 C231.538283,632.226599 226.595953,633.067845 221.20926,632.616835 C215.435748,632.232997 209.080409,630.368182 202.41178,626.971212 L42.4094173,545.194444 C30.7345197,539.222559 20.2104882,529.402694 12.7042835,518.421717 C4.93913386,507.191246 0.255748031,494.607744 0.191811024,483.380471 L0,37.6417508 C0,33.7234007 0.639370079,30.1952862 1.72629921,27.1181818 C2.8130925,23.8863566 4.587659,20.9288967 6.9275748,18.4498316 C9.49464567,15.8173401 11.2273386,14.9185185 13.7944094,13.5686869 C14.1140945,13.3767677 14.4337795,13.1848485 15.0092126,12.9289562 L15.0124094,12.9225589 Z M36.6966457,11.962963 L19.6286614,21.1430976 C19.2450394,21.3350168 18.7974803,21.5909091 18.2859843,21.8468013 C16.6172283,22.7424242 15.4599685,23.3245791 13.9862205,24.8631313 C12.5571923,26.3623503 11.4813088,28.1623293 10.8373228,30.1313131 C10.0700787,32.3063973 9.62251969,34.8109428 9.62251969,37.6353535 L9.81433071,483.380471 C9.81433071,492.688552 13.9222835,503.468013 20.6612441,513.16633 C27.3970079,522.986195 36.6359055,531.654545 46.8370551,536.91633 L206.903354,618.696296 C212.293244,621.447138 217.357055,622.931313 221.918961,623.311953 C226.279465,623.638215 230.064535,622.864141 233.012031,621.136869 L235.131543,619.914983 L235.259417,619.978956 L251.103008,611.438552 L251.230882,611.438552 C254.083933,609.965367 256.463958,607.717037 258.097717,604.951684 C259.696142,602.194444 260.597654,598.791077 260.597654,594.684007 L260.405843,149.329125 C260.405843,140.021044 256.301087,129.305556 249.562126,119.549663 C242.829559,109.723401 233.590661,101.061448 223.389512,95.793266 L63.3200157,14.0164983 C57.8629921,11.1952862 52.6745039,9.71750842 48.0486614,9.39444444 C43.6881575,9.13855219 39.9030866,9.97020202 36.9555906,11.7710438 L36.6998425,11.962963 L36.6966457,11.962963 Z" id="Shape" fill="#B2B3B3"></path>
                    <path d="M25.5332441,472.018855 L25.2135591,39.4969697 L20.2040945,31.5451178 L25.149622,28.020202 L14.1140945,18.8400673 L34.5803307,7.86868687 C42.0194016,3.17626263 53.313874,3.49612795 65.7560157,9.91582492 L225.822315,91.6925926 C247.816646,102.926263 265.399323,128.860943 265.399323,149.338721 L265.591134,594.693603 C265.591134,605.025253 260.59126,612.087879 253.660488,615.548822 L235.694189,625.176768 L225.943795,620.75303 L217.663953,607.590572 L65.174189,529.664983 C43.1670709,518.431313 25.5875906,492.496633 25.5236535,472.025253 L25.5332441,472.018855 Z" id="Shape" fill="#EBECEC"></path>
                    <path d="M24.5709921,472.018855 L24.2513071,39.752862 L19.3729134,32.0569024 L18.9253543,31.3468013 L19.6286614,30.8350168 L23.6087402,27.946633 L13.4747244,19.5341751 L12.4517323,18.7025253 L13.6665354,17.9988215 L34.126378,7.01784512 C38.0457165,4.58047138 43.0455906,3.42575758 48.6944252,3.80959596 C54.0171811,4.13905724 59.9857008,5.87272727 66.2067717,9.08097643 L226.273071,90.8577441 C237.372535,96.5097643 247.31474,105.87862 254.565197,116.408586 C261.879591,127.066498 266.371165,138.875926 266.371165,149.341919 L266.562976,594.696801 C266.562976,599.763468 265.348173,604.132828 263.356535,607.660943 C261.204032,611.418918 257.989875,614.456841 254.117638,616.393266 L236.151339,625.957239 L235.767717,626.213131 L235.320157,626.021212 L225.505827,621.594276 L225.122205,621.210438 L216.970236,608.303872 L64.7362205,530.506229 C53.6335591,524.793434 43.6242205,515.478956 36.3801575,504.94899 C29.1233071,494.297475 24.6349291,482.488047 24.5709921,472.028451 L24.5709921,472.018855 Z M26.175811,39.4969697 L26.4954961,472.018855 C26.4954961,482.094613 30.9231339,493.584175 37.9785827,503.919024 C45.0372283,514.196296 54.787622,523.312458 65.6313386,528.836532 L218.121102,606.762121 L218.511118,607.14596 L226.592756,619.985354 L235.70378,624.095623 L253.216126,614.787542 L253.216126,614.723569 C256.758612,612.959055 259.704597,610.191605 261.68778,606.76532 C263.548346,603.496296 264.638472,599.446801 264.638472,594.7 L264.446661,149.341919 C264.446661,139.266162 260.089354,127.773401 252.969969,117.438552 C245.911323,107.170875 236.160929,98.0547138 225.38115,92.537037 L65.3116535,10.7410774 C59.3495276,7.66077441 53.6431496,5.99107744 48.569748,5.67121212 C43.314126,5.3513468 38.761811,6.37491582 35.1046142,8.62676768 L35.0406772,8.62676768 L15.7956378,19.0223906 L25.7378425,27.3069024 L26.6968976,28.0745791 L25.7378425,28.7782828 L21.5052126,31.7978114 L26.0607244,39.0587542 L26.1885984,39.5065657 L26.175811,39.4969697 Z" id="Shape" fill="#B2B3B3"></path>
                    <path d="M5.06700787,37.6385522 C5.00307087,31.0909091 6.9275748,25.8930976 10.2011496,22.1698653 C17.138315,14.2787879 30.4787717,13.2456229 45.4304409,20.890404 L205.49674,102.67037 C227.500661,113.90404 245.073748,139.902694 245.073748,160.310101 L245.265559,606.058418 C245.265559,626.529798 226.851701,634.104209 204.850976,622.873737 L44.8486142,541.029798 C22.8446929,529.792929 5.2716063,503.867845 5.20766929,483.390067 L5.06700787,37.6385522 Z" id="Shape" fill="#FEFEFE"></path>
                    <path d="M4.29656693,483.380471 L4.10475591,37.6385522 C4.10475591,34.36633 4.55231496,31.3468013 5.46022047,28.7143098 C6.2938927,26.0924995 7.65367071,23.6685529 9.45628346,21.5909091 C13.1870079,17.3526936 18.6696063,14.9792929 25.172,14.7873737 C31.3579055,14.5314815 38.5092598,16.2011785 46.0474331,20.0491582 L206.817039,101.829125 C217.967654,107.541919 227.954614,116.913973 235.237039,127.376768 C242.583402,138.03468 247.097354,149.844108 247.097354,160.306902 L247.289165,606.05202 C247.289165,610.929966 246.256583,615.104209 244.453559,618.507576 C242.583402,621.907744 239.946,624.537037 236.653244,626.273906 C233.370079,628.074747 229.437953,628.97037 225.055071,628.97037 C219.124913,628.97037 212.427512,627.300673 205.266567,623.647811 L44.573685,541.851852 C33.4294646,536.199832 23.3785669,526.827778 16.1600787,516.30101 C8.80732283,505.713468 4.29976378,493.836869 4.29976378,483.377273 L4.29656693,483.380471 Z M5.97811024,37.6417508 L6.16992126,483.386869 C6.23385827,493.469024 10.6135433,504.945791 17.7009606,515.283838 C24.7915748,525.561111 34.5803307,534.674074 45.4751969,540.191751 L206.180866,622.038889 C213.012535,625.506229 219.454189,627.105556 225.058268,627.105556 C229.118268,627.105556 232.666772,626.273906 235.694189,624.674579 C238.688915,623.077675 241.134812,620.617026 242.714472,617.611953 C244.456756,614.464478 245.358268,610.606902 245.358268,606.064815 L245.166457,160.316498 C245.166457,150.240741 240.780378,138.808754 233.625827,128.477104 C226.541606,118.20303 216.746457,109.022896 205.921921,103.505219 L45.152315,21.7188552 C37.9370236,18.059596 31.1053543,16.389899 25.2423307,16.6489899 C19.3153701,16.8409091 14.3538583,18.9584175 10.9364252,22.809596 C9.3316063,24.6136364 8.1072126,26.7983165 7.2696378,29.302862 C6.43206299,31.7402357 5.98130709,34.5646465 5.98130709,37.6513468 L5.97811024,37.6417508 Z" id="Shape" fill="#B2B3B3"></path>
                    <path d="M125.156693,515.6133 C135.687118,518.971886 144.225906,531.689731 144.225906,544.039731 C144.225906,556.386532 135.690315,563.669865 125.153496,560.320875 C114.610283,556.96229 106.068299,544.238047 106.068299,531.900842 C106.068299,519.544444 114.60389,512.251515 125.147102,515.606902 L125.156693,515.6133 Z" id="Shape" fill="#B2B3B3"></path>
                    <path d="M167.764315,246.385859 C167.572504,245.938047 165.389055,243.689394 164.493937,242.598653 C161.47611,238.875421 158.525417,234.442088 156.469843,230.082323 C153.586283,224.052862 151.338898,217.377273 150.891339,209.738889 C150.379843,201.902189 151.850394,196.323737 154.548535,192.210269 C156.923795,188.62138 160.769606,185.857744 164.554677,185.026094 C163.915307,182.908586 160.449921,177.131818 159.104047,175.078283 C156.949705,171.919316 154.498277,168.973801 151.78326,166.281987 C145.817937,160.3133 138.695354,155.886364 132.090661,154.664478 C129.072835,154.088721 126.313953,154.088721 123.555071,153.960774 C120.677906,153.832828 117.781559,154.024747 114.188299,151.136364 C108.35085,146.319192 103.159165,139.515657 96.349874,135.923569 C89.233685,132.197138 83.3930394,132.261111 78.7671969,133.674916 C74.2852126,134.954377 70.5640787,138.616835 68.121685,143.110943 C62.2874331,154.01835 62.93,171.738889 66.5871969,189.005219 C70.1772598,206.022054 75.8260945,219.881818 82.4339843,233.108249 C83.3291024,234.835522 84.2242205,236.508418 85.1257323,238.04697 C85.9569134,239.51835 87.1141732,241.383165 88.2011024,242.857744 C90.3206142,245.8133 92.951622,249.152694 96.4809449,251.078283 C105.78378,256.144949 111.749102,249.152694 124.900945,260.194444 C127.915575,262.695791 130.351575,265.712121 133.244724,268.277441 C139.011843,273.420875 144.337795,275.154545 148.957244,273.097811 C153.384882,271.044276 157.556772,265.974411 160.571402,261.806566 C162.048346,259.810606 163.458157,257.501178 164.615417,254.993434 C165.446598,253.330135 167.757921,248.644108 167.757921,246.395455 L167.764315,246.385859 Z M115.735575,143.677104 C126.764709,149.588215 136.073937,144.579125 139.664,134.823232 C141.134551,130.780135 141.652441,127.248822 141.396693,121.472054 C135.942866,118.839562 130.489039,119.482492 126.512157,121.024242 C122.535276,122.43165 119.456709,126.158081 117.529008,130.588215 C115.99452,134.052357 115.348756,138.287374 115.738772,143.680303 L115.735575,143.677104 Z" id="Shape" fill="#99999D"></path>
                    <path d="M172.444504,453.015657 L172.380567,438.896801 C172.060882,424.445286 174.436142,415.53064 165.133307,400.576936 C158.205732,389.468013 143.704819,383.815993 132.800362,378.298316 C125.492362,374.639057 101.049244,361.927609 95.5890236,360.00202 C84.6238268,356.093266 76.4079213,362.63771 77.3126299,373.225253 C76.6093228,374.056902 76.4814488,428.299663 76.9929449,433.823737 C76.8650709,447.753872 84.8188346,461.293771 96.1101102,468.42037 C102.654063,472.463468 128.829874,485.299663 137.295134,489.544276 C152.694362,497.37138 161.869323,502.956229 168.988709,494.415825 C171.552583,491.274747 172.386961,483.956229 172.642709,475.927609 L172.642709,465.148148 C172.514835,460.657239 172.386961,456.351852 172.450898,453.015657 L172.444504,453.015657 Z M157.946787,480.044276 C156.540173,477.856397 153.135528,466.753872 142.422882,466.629125 C136.080331,466.558754 133.05611,467.78064 123.753276,462.518855 C114.514378,457.321044 105.285071,448.198485 98.4214331,438.701684 C96.1740472,435.62138 93.9298583,431.63266 92.1971654,429.521549 C91.1741732,426.50202 87.7663307,422.267003 87.3795118,419.061953 C89.8826457,422.011111 93.9266614,427.276094 97.0659685,429.719865 C100.339543,434.792929 118.494457,446.787879 127.221858,444.03064 C126.646425,442.623232 125.16948,440.883165 124.399039,439.789226 C123.631795,438.701684 123.759669,438.893603 122.986031,437.678114 L118.436913,430.679461 C117.413921,429.13771 116.509213,427.407239 115.419087,426.377273 C114.587906,424.182997 112.148709,420.267845 110.863575,417.964815 C109.840583,416.237542 109.329087,415.725758 108.427575,413.918519 C107.46852,412.056902 107.340646,411.605892 106.052315,410.070539 C105.476882,408.077778 95.2789291,389.007407 93.9937953,386.31734 L94.6331654,386.381313 C95.9854331,389.522391 111.001039,410.515152 113.622457,413.15404 C114.070016,414.619024 121.071118,423.037879 121.966236,423.863131 C121.071118,421.297811 119.977795,420.590909 118.756598,418.028788 C118.053291,416.614983 118.053291,416.675758 117.158173,415.207576 C115.936976,413.08367 116.512409,413.278788 115.48622,412.379966 C114.015669,408.787879 111.70115,404.735185 109.779843,401.082323 C108.68652,398.907239 107.983213,397.359091 107.020961,395.491077 C106.094398,393.666874 105.195976,391.828496 104.326016,389.976599 C103.686646,388.562795 103.558772,388.242929 102.983339,386.771549 C104.581764,388.562795 105.029323,390.098148 106.701276,391.96936 C107.852142,394.662626 113.114157,402.364983 115.300803,405.701178 C115.812299,406.475253 117.928614,409.491582 118.567984,410.131313 C120.751433,413.79697 134.286898,432.547475 137.493339,435.304714 C139.421039,431.127273 139.740724,425.356902 139.03422,419.247475 C138.650598,415.473064 136.655764,406.228956 135.121276,403.270202 C134.539449,401.095118 132.231323,395.31835 131.333008,394.288384 C131.652693,393.322391 131.07726,392.75303 134.222961,397.109596 C141.853843,407.569192 145.188157,413.924916 149.807606,426.12138 C150.319102,427.471212 150.383039,427.602357 150.958472,428.552357 C151.022409,430.679461 153.014047,435.685354 153.592677,442.744781 C154.295984,450.511111 152.825433,453.588215 152.825433,454.62138 C152.761496,457.180303 152.505748,455.197138 153.272992,456.348653 L155.389307,461.607239 C156.092614,463.408081 156.795921,465.531987 157.377748,467.710269 C158.336803,471.372727 159.238315,477.594108 157.953181,480.037879 L157.946787,480.044276 Z" id="Shape" fill="#F05138"></path>
                    <path d="M54.0171811,301.975253 L64.6626929,307.368182 L64.6626929,303.456229 L58.0611969,300.113636 L58.0611969,273.603199 L64.6658898,276.939394 L64.6658898,273.024242 L54.020378,267.634512 L54.020378,301.984848 L54.0171811,301.975253 Z M173.282079,362.439394 L183.863654,367.835522 L183.863654,333.491582 L173.282079,328.101852 L173.282079,332.017003 L179.886772,335.343603 L179.886772,361.860438 L173.282079,358.521044 L173.282079,362.432997 L173.282079,362.439394 Z M78.207748,311.990236 C85.6468189,315.777441 91.0367087,311.734343 91.0367087,303.513805 L91.0367087,303.449832 C91.0367087,295.23569 85.7107559,285.866835 78.2684882,282.076431 C70.8262205,278.289226 65.4363307,282.26835 65.4363307,290.552862 L65.4363307,290.616835 C65.4363307,298.830976 70.7558898,308.20303 78.1981575,311.990236 L78.207748,311.990236 Z M78.2652913,306.146296 C73.9719213,303.971212 70.9540945,298.322391 70.9540945,293.38367 L70.9540945,293.255724 C70.9540945,288.310606 73.9047874,285.738889 78.2045512,287.923569 C82.440378,290.105051 85.515748,295.760269 85.515748,300.695791 L85.515748,300.823737 C85.515748,305.768855 82.504315,308.340572 78.2652913,306.152694 L78.2652913,306.146296 Z M94.3710236,319.702189 L105.790173,325.472559 C111.244,328.239394 114.83726,327.404545 114.83726,322.139562 L114.83726,322.075589 C114.83726,318.160438 113.10137,315.339226 110.345685,312.639562 C112.081575,312.38367 113.488189,311.296128 113.488189,308.020707 L113.488189,307.892761 C113.488189,305.963973 112.912756,304.038384 111.819433,302.176768 C110.476756,299.800168 108.293307,297.810606 105.534425,296.396801 L94.3710236,290.751178 L94.3710236,319.705387 L94.3710236,319.702189 Z M108.22937,306.408586 C108.22937,308.532492 106.752425,308.724411 104.380362,307.505724 L99.5115591,305.065152 L99.5115591,298.904545 L104.770378,301.60101 C107.020961,302.688552 108.235764,304.422222 108.235764,306.347811 L108.235764,306.411785 L108.22937,306.408586 Z M109.572047,318.608249 L109.572047,318.672222 C109.572047,320.792929 108.165433,321.112795 105.790173,319.894108 L99.5051654,316.746633 L99.5051654,310.330135 L105.662299,313.477609 C108.357244,314.821044 109.575244,316.621886 109.575244,318.611448 L109.572047,318.608249 Z M123.305717,334.787037 C125.875984,336.066498 128.059433,336.264815 129.539575,335.234848 C131.010126,334.275253 131.841307,332.093771 131.841307,328.690404 L131.841307,309.690404 L126.390677,306.993939 L126.390677,325.610101 C126.390677,328.943098 125.175874,329.781145 123.117102,328.754377 C121.45474,327.91633 120.105669,326.185859 118.759795,323.61734 L115.422283,326.441751 C117.027102,329.589226 119.530236,332.861448 123.318504,334.790236 L123.305717,334.787037 Z M134.667323,330.292929 L145.248898,335.679461 L145.248898,329.646801 L134.667323,324.260269 L134.667323,330.289731 L134.667323,330.292929 Z M159.749811,353.332828 C164.433197,355.712626 167.188882,355.072896 169.628079,353.140909 L166.290567,347.36734 C164.366063,348.461279 162.700504,348.966667 159.938425,347.559259 C155.763339,345.441751 152.937323,339.856902 152.937323,334.918182 L152.937323,334.790236 C152.937323,329.845118 155.830472,327.273401 159.932031,329.330135 C162.304094,330.545623 164.228598,332.791077 166.089165,335.746633 L169.42348,332.791077 C167.243228,329.007071 164.484346,325.786027 159.928835,323.482997 C152.550504,319.69899 147.355622,323.866835 147.355622,332.087374 L147.355622,332.151347 C147.355622,340.493434 152.614441,349.734343 159.733827,353.326431 L159.749811,353.332828 Z" id="Shape" fill="#99999D"></path>
                </g>
            </g>
        </g>
    </g>
</svg>