<?xml version="1.0" encoding="UTF-8"?>
<svg width="720px" height="1280px" viewBox="0 0 720 1280" version="1.1" xmlns="http://www.w3.org/2000/svg" xmlns:xlink="http://www.w3.org/1999/xlink">
    <!-- Generator: Sketch 42 (36781) - http://www.bohemiancoding.com/sketch -->
    <title>small</title>
    <desc>Created with Sketch.</desc>
    <defs>
        <linearGradient x1="43.1866165%" y1="0%" x2="58.1443005%" y2="100%" id="linearGradient-1">
            <stop stop-color="#4AC7FF" offset="0%"></stop>
            <stop stop-color="#2496FF" offset="100%"></stop>
        </linearGradient>
        <polygon id="path-2" points="6.00472813 24.7650273 120.094563 6.75409836 135.106383 97.5591985 19.5153664 116.320583"></polygon>
        <mask id="mask-3" maskContentUnits="userSpaceOnUse" maskUnits="objectBoundingBox" x="0" y="0" width="129.101655" height="109.566485" fill="white">
            <use xlink:href="#path-2"></use>
        </mask>
        <linearGradient x1="65.9870546%" y1="0%" x2="39.7285117%" y2="100%" id="linearGradient-4">
            <stop stop-color="#E9E9E9" offset="0%"></stop>
            <stop stop-color="#8B8B8B" offset="100%"></stop>
        </linearGradient>
    </defs>
    <g id="8" stroke="none" stroke-width="1" fill="none" fill-rule="evenodd">
        <g id="8_02" transform="translate(-2010.000000, 0.000000)">
            <g id="small" transform="translate(2010.000000, 0.000000)">
                <rect id="base" fill="#FFFFFF" x="0" y="0" width="720" height="1280"></rect>
                <g id="Xcode" transform="translate(148.666667, 366.000000)">
                    <g id="window">
                        <path d="M12.9256227,12.1893843 L23.9462454,6.09718761 C30.3590476,1.8848816 40.0538462,1.70477231 50.8348901,6.61275046 L385.310092,158.949188 C404.313571,167.601188 419.469835,188.948641 419.469835,206.290914 L419.562875,503.043483 C419.562875,526.304597 408.251502,532.869581 401.97826,539.006805 C396.000421,546.076095 384.498315,547.571002 371.484304,541.647658 L37.3882418,389.052313 C18.4312821,380.400313 3.22849817,359.093384 3.22849817,341.706084 L3.18663004,36.5244007 L3.18663004,29.6217122 C3.18663004,21.1790893 6.8896337,15.1746958 12.9256227,12.1893843 L12.9256227,12.1893843 Z" id="Shape" fill="#EBECEC"></path>
                        <path d="M9.26681319,10.9128597 L9.26681319,10.8678324 L9.92972527,10.4851002 C10.3065385,10.2734718 10.781044,10.016816 11.2090293,9.80293625 L11.2555495,9.76241166 L22.2808242,3.66120947 L22.2808242,3.70623679 C26.0838462,1.23198543 30.789359,0.000488160291 36.0600916,0.0837887067 C41.0493773,0.169340619 46.5620147,1.44811658 52.2630586,4.0912204 L386.731282,156.384882 C396.709853,160.943898 405.641722,168.740379 412.101044,177.691811 C418.613864,186.724291 422.649487,196.992772 422.649487,206.28416 L422.742527,503.036729 C422.742527,524.379679 413.712967,532.475592 406.972198,538.484488 C406.018535,539.335505 405.162564,540.105472 404.497326,540.785384 C400.887363,545.006696 395.66315,547.516969 389.392234,548.030281 C383.593498,548.539089 376.987637,547.350368 370.051484,544.151177 L35.9670513,391.607614 C25.9884799,387.048597 17.0566117,379.247614 10.5972894,370.300685 C4.08446886,361.272707 0.0488461538,351.001974 0.0488461538,341.708335 L0,36.5266521 L0,29.6217122 C0,25.0176685 1.00018315,21.0530128 2.85168498,17.7727723 C4.36045266,15.0006406 6.56679251,12.6413271 9.26681319,10.9128597 L9.26681319,10.9128597 Z M25.6070147,8.52641166 L16.5286081,13.5086849 L16.5751282,13.6370128 L14.4398535,14.6613843 C11.9184615,15.9401603 9.8739011,17.8132969 8.49923077,20.2897996 C7.11990842,22.8000729 6.31278388,25.9542368 6.31278388,29.6194608 L6.31278388,41.2882914 L6.40582418,341.703832 C6.40582418,349.887548 10.0181136,359.048357 15.9098901,367.184794 C21.8016667,375.370761 29.8798901,382.442302 38.8117582,386.533035 L372.949689,539.085603 C378.741447,541.764729 384.207564,542.791352 388.766538,542.408619 C393.232473,542.025887 396.942454,540.236051 399.459194,537.293515 L401.645641,534.695439 L401.971282,534.949843 L402.499286,534.483811 C408.437582,529.154827 416.418114,522.04051 416.371593,503.032226 L416.325073,206.28416 C416.325073,198.147723 412.66859,188.941887 406.776813,180.760423 C400.885037,172.621734 392.809139,165.547942 383.877271,161.457209 L49.4113736,9.1612969 C44.5197802,6.94595264 39.9584799,5.83602914 35.9670513,5.75047723 C31.9756227,5.70544991 28.5075458,6.60149362 25.8023993,8.39132969 L25.6070147,8.51965756 L25.6070147,8.52641166 Z" id="Shape" fill="#B2B3B3"></path>
                        <path d="M16.6309524,251.201166 L16.4867399,33.0280291 L12.1650183,26.4652969 L16.3913736,23.2278324 L12.9256227,12.1893843 L23.9462454,6.09718761 C30.3590476,1.8848816 40.0538462,1.70477231 50.8348901,6.61275046 L385.310092,158.949188 C404.313571,167.601188 419.469835,188.948641 419.469835,206.290914 L419.562875,503.255111 C419.562875,526.563505 408.251502,533.085712 401.97826,539.218434 L80.2937729,223.500357 L16.6309524,251.201166 Z" id="Shape" fill="#EBECEC"></path>
                        <path d="M16.0122344,251.201166 L15.872674,33.156357 L11.5928205,26.7624772 L11.3555678,26.3392204 L11.737033,26.0397887 L15.6796154,23.0522259 L12.3069048,12.3582368 L12.1673443,11.9304772 L12.5953297,11.7165974 L23.6206044,5.62214936 C26.993315,3.4068051 31.2196703,2.25635701 36.0182234,2.34190893 C40.6237179,2.42746084 45.7595421,3.66346084 51.127967,6.09268488 L385.59619,158.429122 C395.149103,162.774259 403.746026,170.316335 409.968095,178.925559 C416.239011,187.615832 420.137399,197.458805 420.137399,206.279658 L420.183919,503.243854 C420.23044,523.656991 411.633516,531.363417 405.169542,537.12016 C404.220531,537.975679 403.269194,538.824444 402.46207,539.596663 L401.985238,540.060444 L401.566557,539.59216 L80.1542125,224.184772 L16.9100733,251.712226 L16.0075824,252.094958 L16.0075824,251.201166 L16.0122344,251.201166 Z M17.1054579,33.0280291 L17.2915385,250.307373 L80.007674,222.991548 L80.4356593,222.775417 L80.7729304,223.117625 L401.987564,538.398936 C402.755147,537.678499 403.515751,536.994084 404.320549,536.316423 C410.544945,530.688007 418.951136,523.190958 418.951136,503.250608 L418.858095,206.286412 C418.858095,197.677188 415.057399,188.095373 408.926044,179.526674 C402.801667,171.088554 394.39315,163.717581 385.030971,159.453494 L50.5534432,7.11705647 C45.3245788,4.73060838 40.3841392,3.58241166 36.0158974,3.49235701 C31.4569231,3.40905647 27.4631685,4.47395264 24.3253846,6.5632204 L24.2788645,6.60374499 L13.639707,12.4437887 L17.0124176,23.0995046 L17.1054579,23.4372095 L16.821685,23.6961166 L12.9744689,26.5936248 L17.0566117,32.7285974 L17.1031319,33.0280291 L17.1054579,33.0280291 Z" id="Shape" fill="#B2B3B3"></path>
                        <path d="M3.18663004,36.5221494 L3.18663004,29.6217122 C3.14010989,12.2299089 19.05,5.11559199 38.0069597,13.7653406 L372.100696,166.317909 C391.104176,175.008182 406.262766,196.315111 406.262766,213.697909 L406.355806,518.886346 L406.355806,525.786783 C406.355806,543.129056 390.492436,550.290652 371.488956,541.636401 L37.3928938,389.052313 C18.4359341,380.400313 3.23315018,359.093384 3.23315018,341.706084 L3.18663004,36.5244007 L3.18663004,36.5221494 Z" id="Shape" fill="#FEFEFE"></path>
                        <path d="M2.51906593,35.5428051 L2.51906593,29.6217122 C2.51906593,25.3553734 3.46807692,21.6969035 5.1753663,18.6665647 C6.78616536,15.7822153 9.24340459,13.4241967 12.2371245,11.8899526 C15.1795238,10.3139964 18.6871429,9.50350455 22.6227473,9.50350455 C27.3608242,9.50350455 32.6710989,10.6967286 38.2163004,13.2542805 L371.526172,165.806849 C381.053498,170.197013 389.634139,177.694062 395.842253,186.343811 C402.099212,195.038587 405.983645,204.838783 405.983645,213.697909 L406.037143,518.888597 L406.037143,525.791286 C406.037143,530.050871 405.08348,533.716095 403.427363,536.696903 C401.79453,539.575906 399.345071,541.942856 396.36793,543.518543 C393.381337,545.049472 389.871392,545.900488 385.984634,545.900488 C381.248883,545.900488 375.936282,544.66674 370.346886,542.154215 L37.0300366,389.563373 C27.5050366,385.213734 18.9267216,377.671658 12.7162821,369.066936 C6.45932234,360.37216 2.62141026,350.526936 2.62141026,341.708335 L2.52836996,36.5266521 L2.52836996,35.5473078 L2.51906593,35.5428051 Z M3.79836996,29.6217122 L3.79836996,37.4564663 L3.84489011,341.706084 C3.84489011,350.315308 7.63628205,359.903876 13.7536813,368.4298 C19.8664286,376.906193 28.256337,384.279417 37.5952564,388.579526 L370.905128,541.132095 C376.308443,543.604095 381.425659,544.756794 385.977656,544.756794 C389.629487,544.756794 392.946374,543.99133 395.700366,542.539199 C398.493393,541.097518 400.783612,538.888625 402.282967,536.190346 C403.89489,533.376138 404.748535,529.841494 404.748535,525.789035 L404.748535,517.909253 L404.702015,213.704663 C404.702015,205.093188 400.910623,195.468597 394.793223,186.942674 C388.682802,178.504554 380.290568,171.093056 370.951648,166.828969 L37.6441026,14.2764007 C32.2384615,11.8066521 27.1677656,10.656204 22.6180952,10.656204 C18.9197436,10.656204 15.6493773,11.4216685 12.8535165,12.8737996 C10.0812136,14.3283905 7.80736356,16.5339674 6.31045788,19.2204007 C4.70086081,22.0346084 3.79836996,25.53098 3.79836996,29.6217122 L3.79836996,29.6217122 Z" id="Shape" fill="#B2B3B3"></path>
                        <path d="M26.2706856,42.859745 C29.5870054,42.8597449 32.2754137,39.4998418 32.2754137,35.3551913 C32.2754137,31.2105407 29.5870054,27.8506376 26.2706856,27.8506375 C22.9543658,27.8506375 20.2659574,31.2105406 20.2659574,35.3551913 C20.2659574,39.4998419 22.9543658,42.859745 26.2706856,42.859745 Z" id="Oval" fill="#FF5F57" transform="translate(26.270686, 35.355191) rotate(-24.000000) translate(-26.270686, -35.355191) "></path>
                        <path d="M42.7836879,50.3642987 C46.1000077,50.3642987 48.7884161,47.0043955 48.7884161,42.859745 C48.7884161,38.7150945 46.1000077,35.3551913 42.7836879,35.3551913 C39.4673682,35.3551912 36.7789598,38.7150944 36.7789598,42.859745 C36.7789598,47.0043956 39.4673682,50.3642988 42.7836879,50.3642987 Z" id="Oval" fill="#FFBD2F" transform="translate(42.783688, 42.859745) rotate(-24.000000) translate(-42.783688, -42.859745) "></path>
                        <path d="M59.2966903,57.8688525 C62.6130101,57.8688524 65.3014184,54.5089493 65.3014184,50.3642987 C65.3014184,46.2196482 62.6130101,42.859745 59.2966903,42.859745 C55.9803705,42.8597449 53.2919622,46.2196481 53.2919622,50.3642987 C53.2919622,54.5089494 55.9803705,57.8688525 59.2966903,57.8688525 Z" id="Oval" fill="#48E285" transform="translate(59.296690, 50.364299) rotate(-24.000000) translate(-59.296690, -50.364299) "></path>
                        <polygon id="Shape" fill="#B3B2B2" points="3.47040293 48.8348707 406.218571 232.793996 419.137216 224.82416 419.848974 225.803505 406.641905 233.892663 406.309286 234.106543 405.978993 233.935439 2.90285714 49.8614936"></polygon>
                    </g>
                    <g id="XCode" transform="translate(204.954674, 281.423853) rotate(34.000000) translate(-204.954674, -281.423853) translate(130.896360, 212.882263)">
                        <g id="Group-5" transform="translate(-0.000000, 14.258652)">
                            <polygon id="Rectangle" fill="url(#linearGradient-1)" points="0 19.5118397 124.598109 0 141.111111 100.56102 15.0118203 120.823315"></polygon>
                            <path d="M18.7647754,106.564663 L133.605201,88.5537341" id="Path-9" stroke="#FFFFFF"></path>
                            <use id="Rectangle-Copy" stroke="#FFFFFF" mask="url(#mask-3)" stroke-width="2" xlink:href="#path-2"></use>
                            <path d="M106.840735,97.5693619 L108.417661,95.0829899 L106.850997,92.6342384 L108.065333,92.6342384 L109.094952,94.3613606 L109.156524,94.3613606 L110.196405,92.6342384 L111.352589,92.6342384 L109.727774,95.1000901 L111.328644,97.5693619 L110.151936,97.5693619 L109.091531,95.8969604 L109.029959,95.8969604 L107.955871,97.5693619 L106.840735,97.5693619 Z M114.098395,97.6959035 C113.382333,97.6959035 112.81736,97.4639129 112.403457,96.9999246 C111.989555,96.5359363 111.782607,95.9026645 111.782607,95.1000901 C111.782607,94.2975158 111.989555,93.664814 112.403457,93.2019657 C112.81736,92.7391174 113.382333,92.5076968 114.098395,92.5076968 C114.682191,92.5076968 115.175332,92.6815472 115.577832,93.0292535 C115.980332,93.3769597 116.200962,93.8198509 116.23973,94.3579406 L115.234055,94.3579406 C115.183885,94.0729355 115.055612,93.8449348 114.849231,93.6739318 C114.64285,93.5029287 114.392574,93.4174285 114.098395,93.4174285 C113.710718,93.4174285 113.404002,93.5679089 113.178237,93.8688743 C112.952473,94.1698396 112.839592,94.5802408 112.839592,95.1000901 C112.839592,95.6199394 112.952473,96.0309106 113.178237,96.333016 C113.404002,96.6351214 113.711859,96.7861718 114.101816,96.7861718 C114.398275,96.7861718 114.649121,96.7052316 114.854362,96.5433487 C115.059603,96.3814658 115.187306,96.1648652 115.237476,95.8935403 L116.243151,95.8935403 C116.199822,96.4270699 115.980332,96.8608411 115.584673,97.1948671 C115.189015,97.528893 114.693594,97.6959035 114.098395,97.6959035 Z M119.310499,92.5076968 C120.040244,92.5076968 120.61776,92.7402574 121.043065,93.2053857 C121.468369,93.670514 121.681018,94.3020759 121.681018,95.1000901 C121.681018,95.9003844 121.468369,96.5330862 121.043065,96.9982145 C120.61776,97.4633429 120.040244,97.6959035 119.310499,97.6959035 C118.578474,97.6959035 117.999248,97.4633429 117.572803,96.9982145 C117.146358,96.5330862 116.933139,95.9003844 116.933139,95.1000901 C116.933139,94.3020759 117.147499,93.670514 117.576224,93.2053857 C118.004949,92.7402574 118.583035,92.5076968 119.310499,92.5076968 Z M119.310499,93.4140084 C118.90914,93.4140084 118.588741,93.5661989 118.349293,93.8705843 C118.109846,94.1749697 117.990124,94.5848009 117.990124,95.1000901 C117.990124,95.6153793 118.109276,96.0257805 118.347583,96.331306 C118.58589,96.6368314 118.906859,96.7895919 119.310499,96.7895919 C119.711859,96.7895919 120.031688,96.6368314 120.269995,96.331306 C120.508303,96.0257805 120.627454,95.6153793 120.627454,95.1000901 C120.627454,94.5848009 120.508303,94.1749697 120.269995,93.8705843 C120.031688,93.5661989 119.711859,93.4140084 119.310499,93.4140084 Z M122.617295,92.6308183 L124.560231,92.6308183 C125.294537,92.6308183 125.864071,92.8434289 126.268852,93.2686565 C126.673632,93.6938841 126.876019,94.2929559 126.876019,95.0658897 C126.876019,95.866184 126.674772,96.4834958 126.272272,96.9178435 C125.869772,97.3521913 125.299098,97.5693619 124.560231,97.5693619 L122.617295,97.5693619 L122.617295,92.6308183 Z M123.650335,93.5131897 L123.650335,96.6869905 L124.396039,96.6869905 C124.85441,96.6869905 125.206735,96.5496201 125.453024,96.2748752 C125.699313,96.0001303 125.822455,95.6028392 125.822455,95.0829899 C125.822455,94.585941 125.697032,94.2000499 125.446182,93.925305 C125.195332,93.6505601 124.845288,93.5131897 124.396039,93.5131897 L123.650335,93.5131897 Z M131.079028,96.6869905 L131.079028,97.5693619 L127.808875,97.5693619 L127.808875,92.6342384 L131.079028,92.6342384 L131.079028,93.5166097 L128.841915,93.5166097 L128.841915,94.6691646 L130.952463,94.6691646 L130.952463,95.4865551 L128.841915,95.4865551 L128.841915,96.6869905 L131.079028,96.6869905 Z" id="XCODE" fill="#FFFFFF" transform="translate(118.959882, 95.101800) rotate(-9.000000) translate(-118.959882, -95.101800) "></path>
                            <path d="M25.7615642,113.231488 C25.5600278,113.503728 25.3950144,113.69217 25.2678441,113.796814 C25.070708,113.96858 24.8594909,114.056547 24.6333125,114.06155 C24.4709393,114.06155 24.2751234,114.017775 24.0471848,113.928974 C23.8184982,113.840589 23.6083372,113.796814 23.4161735,113.796814 C23.2146371,113.796814 22.9984916,113.840589 22.7672968,113.928974 C22.53575,114.017775 22.3492188,114.064051 22.2066032,114.068637 C21.9897096,114.077392 21.77352,113.986924 21.5577265,113.796814 C21.4199953,113.682998 21.2477213,113.487886 21.0413445,113.211477 C20.8199185,112.916306 20.6378757,112.574026 20.4952601,112.183801 C20.3425237,111.762308 20.2659574,111.354156 20.2659574,110.959011 C20.2659574,110.506375 20.3691898,110.115983 20.5759626,109.788836 C20.7384679,109.52606 20.9546574,109.318774 21.2252354,109.166603 C21.4958134,109.014432 21.7881732,108.936887 22.1030188,108.931926 C22.2752928,108.931926 22.5012072,108.982413 22.78195,109.081637 C23.0619007,109.181194 23.2416553,109.231682 23.3204658,109.231682 C23.3793865,109.231682 23.5790748,109.172648 23.9175943,109.054955 C24.2377203,108.945809 24.5079023,108.900616 24.7292403,108.918418 C25.329009,108.964278 25.7796057,109.188282 26.07927,109.591848 C25.5428664,109.899775 25.2775248,110.331066 25.2828053,110.884343 C25.2876457,111.3153 25.4526591,111.673923 25.7769654,111.958671 C25.9239374,112.09083 26.0880707,112.192973 26.2706856,112.265514 C26.2310824,112.374327 26.189279,112.478554 26.1448353,112.578612 C26.0370266,112.814581 25.9094162,113.03179 25.7615642,113.231488 Z M24.3794118,108.395325 C24.0661064,108.742358 23.6871476,108.94289 23.2761982,108.911247 C23.2709617,108.870724 23.2679255,108.828074 23.2679255,108.783257 C23.2679255,108.458986 23.4169216,108.111953 23.6815151,107.828206 C23.8136138,107.68454 23.9816195,107.565083 24.1853561,107.469791 C24.3886526,107.37592 24.5809482,107.324007 24.7618029,107.315118 C24.7670833,107.360274 24.7692835,107.405433 24.7692835,107.450234 C24.7692835,107.78802 24.6390329,108.103406 24.3794118,108.395325 Z" id="Shape" fill="#FFFFFF" transform="translate(23.268322, 110.692168) rotate(-9.000000) translate(-23.268322, -110.692168) "></path>
                        </g>
                        <g id="Group" transform="translate(35.277778, 47.278689)" stroke="#FFFFFF">
                            <polygon id="Path" points="17.2635934 10.5063752 2.25177305 49.5300546 11.2588652 52.5318761 26.2706856 13.5081967"></polygon>
                            <path d="M18.0141844,9.00546448 L27.0212766,12.007286 L30.0236407,4.50273224 C30.0236407,4.50273224 29.2730496,1.50091075 26.2706856,0.750455373 C23.2683215,4.06341627e-14 21.0165485,1.50091075 21.0165485,1.50091075 L18.0141844,9.00546448 Z" id="Path-2"></path>
                            <polygon id="Path-3" points="1.50118203 51.7814208 0 66.7905282 9.75768322 54.7832423"></polygon>
                        </g>
                        <g id="Group-2" transform="translate(25.520095, 63.788707)" stroke="#FFFFFF">
                            <polygon id="Path-4" points="-4.26661595e-14 14.2586521 0.750591017 23.2641166 13.5106383 21.7632058 18.0141844 12.007286"></polygon>
                            <polygon id="Path-4-Copy-2" points="72.0567376 3.00182149 78.8120567 11.2568306 91.572104 9.75591985 90.821513 4.26584491e-14"></polygon>
                            <polygon id="Path-4-Copy" points="33.7765957 9.75591985 30.0236407 18.7613843 63.8002364 14.2586521 57.0449173 6.00364299"></polygon>
                        </g>
                        <g id="Group-3" transform="translate(60.047281, 33.020036)" stroke="#FFFFFF">
                            <path d="M2.25177305,1.50091075 C6.00472813,-1.50091075 9.0070922,2.25136612 9.0070922,2.25136612 L45.786052,47.2786885 L39.7813239,52.5318761 L1.50118203,8.25500911 C1.50118203,8.25500911 -1.50118203,4.50273224 2.25177305,1.50091075 Z" id="Path-5"></path>
                            <path d="M48.7884161,50.28051 C52.5413712,51.0309654 54.7931442,54.7832423 55.5437352,57.7850638 C56.2943262,60.7868852 54.7931442,69.0418944 54.7931442,69.0418944 C54.7931442,69.0418944 53.2919622,64.5391621 48.7884161,63.7887067 C46.5974533,63.4236123 44.28487,62.287796 42.7836879,59.2859745 C42.433001,58.5847275 42.2295068,58.2256483 42.0330969,57.7850638 C41.8366871,57.3444792 41.4578494,55.7582177 42.0330969,54.0327869 C42.7836879,51.7814208 45.035461,49.5300546 48.7884161,50.28051 Z" id="Path-6"></path>
                        </g>
                        <g id="Group-4" transform="translate(74.308511, -0.000000)">
                            <path d="M25.5200946,57.7850638 L34.5271868,60.0364299 L17.49864,132.080146 C17.49864,132.080146 15.7624113,138.834244 7.50591017,136.582878 C-0.750591017,134.331512 0.750591017,127.577413 0.750591017,127.577413 L25.5200946,57.7850638 Z" id="Path-7" stroke="#000000" fill="#000000"></path>
                            <path d="M26.2706856,55.5336976 C26.2706856,55.5336976 36.7789598,27.7668488 30.7742317,16.5100182 C24.7695035,5.25318761 6.00472813,10.5063752 6.00472813,10.5063752 C6.00472813,10.5063752 13.7726174,5.25318761 19.2710605,6.75409836 C24.7695035,8.25500911 24.7695035,5.25318761 19.2710605,4.50273224 C13.7726174,3.75227687 5.25413712,8.25500911 5.25413712,8.25500911 C5.25413712,8.25500911 12.7600473,2.25136612 21.7671395,0.750455373 C30.7742317,-0.750455373 42.0330969,1.50091075 42.0330969,1.50091075 C42.0330969,1.50091075 51.0401891,3.00182149 55.5437352,8.25500911 C60.0472813,13.5081967 64.5508274,10.5063752 64.5508274,10.5063752 C64.5508274,10.5063752 66.0520095,9.00546448 69.0543735,9.75591985 C72.0567376,10.5063752 72.2063994,12.0118492 72.0567376,13.5081967 C71.3061466,21.0127505 69.8049645,24.7650273 69.0543735,26.2659381 C68.3037825,27.7668488 64.5508274,29.2677596 61.5484634,26.2659381 C60.156663,24.8743893 60.0472813,19.5118397 54.7931442,19.5118397 C49.5390071,19.5118397 47.287234,21.7632058 45.786052,24.0145719 C44.28487,26.2659381 35.2777778,57.7850638 35.2777778,57.7850638 L26.2706856,55.5336976 Z" id="Path-8" fill="url(#linearGradient-4)"></path>
                        </g>
                    </g>
                </g>
            </g>
        </g>
    </g>
</svg>