<?xml version="1.0" encoding="UTF-8"?>
<svg width="720px" height="1280px" viewBox="0 0 720 1280" version="1.1" xmlns="http://www.w3.org/2000/svg" xmlns:xlink="http://www.w3.org/1999/xlink">
    <!-- Generator: Sketch 42 (36781) - http://www.bohemiancoding.com/sketch -->
    <title>Small</title>
    <desc>Created with Sketch.</desc>
    <defs></defs>
    <g id="8" stroke="none" stroke-width="1" fill="none" fill-rule="evenodd">
        <g id="CommSkills" transform="translate(-2010.000000, 0.000000)">
            <g id="Small" transform="translate(2010.000000, 0.000000)">
                <rect id="base" fill="#FFFFFF" x="0" y="0" width="720" height="1280"></rect>
                <g id="CommSkills" transform="translate(158.666667, 485.333333)">
                    <g id="Base" transform="translate(0.000000, 21.627907)">
                        <path d="M4.75357143,123.75969 L4.73916667,123.75969 L4.73916667,165.91969 C4.613125,196.29969 23.7534524,226.704922 62.1781548,249.763876 C138.775476,295.705155 264.096905,295.705155 340.687024,249.763876 C378.931667,226.816667 398.079196,196.588062 398.126012,166.337829 L398.133214,166.337829 L398.133214,123.75969 L398.111607,123.75969 C398.507738,93.1742248 379.371012,62.5094574 340.687024,39.3027132 C264.096905,-6.64577519 138.768274,-6.64577519 62.1781548,39.3027132 C23.4941667,62.5094574 4.35744048,93.1742248 4.75357143,123.75969 Z" id="Shape" fill="#ECECEC"></path>
                        <path d="M0.612202381,123.75969 L0.612202381,119.632364 L0.705833333,119.632364 C1.33964286,104.590155 6.43172619,89.6416667 15.974881,75.6015504 C25.8673512,61.0531783 40.5710119,47.4672481 60.0678571,35.770155 C99.0255357,12.4012016 150.266875,0.707713178 201.432589,0.707713178 C252.598304,0.707713178 303.839643,12.3975969 342.797321,35.7665504 C362.294167,47.4600388 376.994226,61.045969 386.886696,75.5979457 C396.429851,89.638062 401.521935,104.579341 402.155744,119.625155 L402.249375,119.625155 L402.249375,170.472364 L402.105327,170.472364 C401.277054,185.330736 396.091339,200.088178 386.548185,213.951667 C376.652113,228.319806 362.060089,241.729109 342.79372,253.292829 C303.828839,276.661783 252.591101,288.348062 201.425387,288.348062 C150.259673,288.348062 99.0147321,276.668992 60.0606548,253.292829 C40.68625,241.671434 26.0546131,228.186434 16.1621429,213.738992 C5.73309524,198.527364 0.554583333,182.24876 0.623005952,165.923295 L0.605,165.923295 L0.605,123.75969 L0.612202381,123.75969 Z M8.85892857,123.75969 L8.85892857,124.004806 L8.91294643,127.887016 L8.86252976,127.887016 L8.86252976,165.916085 L8.85172619,165.934109 C8.79050595,180.576202 13.4972619,195.26876 22.9683929,209.096202 C32.2090476,222.592016 45.98,235.247946 64.2920536,246.224109 C101.924494,268.807248 151.649732,280.093411 201.439792,280.093411 C251.229851,280.093411 300.951488,268.810853 338.583929,246.227713 C356.805952,235.291202 370.544494,222.700155 379.78875,209.280039 C389.252679,195.531899 393.995446,180.918643 394.020655,166.341434 L394.00625,166.341434 L394.00625,127.89062 L393.948631,127.89062 L394.00625,123.716434 C394.193512,108.973411 389.55878,94.1727132 380.09125,80.2443411 C370.843393,66.6475969 357.007619,53.8943411 338.580327,42.8352713 C300.947887,20.2593411 251.222649,8.96957364 201.432589,8.96957364 C151.64253,8.96957364 101.91369,20.2593411 64.28125,42.8352713 C45.8539583,53.8871318 32.0145833,66.6439922 22.7739286,80.2515504 C13.31,94.1655039 8.67166667,108.98062 8.85892857,123.716434 L8.85892857,123.75969 L8.85892857,123.75969 Z" id="Shape" fill="#B0B1B2"></path>
                        <path d="M62.181756,82.6810853 C42.1159226,94.7206202 27.3150298,108.764341 17.7646726,123.763295 L4.74276786,123.763295 L4.74276786,165.926899 C4.61672619,196.306899 23.7570536,226.712132 62.181756,249.771085 C138.771875,295.712364 264.100506,295.712364 340.690625,249.771085 C378.935268,226.823876 398.079196,196.595271 398.129613,166.345039 L398.129613,123.75969 L385.104107,123.75969 C375.560952,108.764341 360.76006,94.7134109 340.690625,82.6810853 C264.100506,36.7289922 138.771875,36.7289922 62.181756,82.6810853 Z" id="Shape" fill="#F2F2F2"></path>
                        <path d="M61.7604167,81.9745736 C100.185119,58.9192248 150.817857,47.3915504 201.43619,47.3915504 C252.050923,47.3915504 302.683661,58.9192248 341.111964,81.970969 C351.058452,87.9366667 359.715714,94.3925969 367.087351,101.212597 C374.552619,108.119109 380.707054,115.407713 385.554256,122.934225 L398.961488,122.934225 L398.961488,167.163295 L398.943482,167.163295 C398.752619,182.472248 393.721756,197.74876 383.854494,212.077248 C374.217708,226.063295 359.978601,239.148178 341.119167,250.466783 C302.694464,273.518527 252.061726,285.046202 201.443393,285.046202 C150.82506,285.046202 100.192321,273.522132 61.7640179,250.463178 C42.8145536,239.094109 28.5250298,225.940736 18.888244,211.878992 C8.84092262,197.218876 3.856875,181.563876 3.92529762,165.91969 L3.91449405,165.91969 L3.91449405,122.93062 L17.3109226,122.93062 C22.158125,115.396899 28.3161607,108.115504 35.7850298,101.208992 C43.1494643,94.3962016 51.8103274,87.9366667 61.7496131,81.9745736 L61.7604167,81.9745736 Z M62.599494,83.3803876 C52.7610417,89.2920155 44.1974107,95.6722481 36.8977976,102.42376 C29.4073214,109.362713 23.2564881,116.662132 18.4597024,124.210271 L18.207619,124.592364 L5.56744048,124.592364 L5.56744048,165.923295 C5.49541667,181.243062 10.3930357,196.573643 20.2422917,210.956202 C29.7494345,224.823295 43.8661012,237.810853 62.6066964,249.04655 C100.768512,271.936085 151.095149,283.388062 201.439792,283.388062 C251.784435,283.388062 302.111071,271.936085 340.272887,249.04655 C358.927054,237.861318 372.993304,224.938643 382.500446,211.136434 C392.349702,196.833178 397.283333,181.578295 397.312143,166.33062 L397.312143,124.58876 L384.661161,124.58876 L384.41628,124.206667 C379.612292,116.665736 373.468661,109.355504 365.978185,102.427364 C358.678571,95.6794574 350.111339,89.2884109 340.272887,83.3875969 C302.10747,60.498062 251.780833,49.0532946 201.439792,49.0532946 C151.095149,49.0532946 100.768512,60.498062 62.6066964,83.3912016 L62.599494,83.3803876 Z" id="Shape" fill="#B0B1B2"></path>
                        <path d="M62.181756,39.3027132 C-14.4155655,85.2475969 -14.4155655,160.433411 62.181756,206.385504 C138.771875,252.330388 264.100506,252.330388 340.690625,206.385504 C417.287946,160.437016 417.287946,85.2512016 340.690625,39.3027132 C264.100506,-6.64577519 138.771875,-6.64577519 62.181756,39.3027132 Z" id="Shape" fill="#FFFFFF"></path>
                        <path d="M61.7604167,38.5962016 C100.185119,15.5444574 150.817857,4.01678295 201.43619,4.01678295 C252.050923,4.01678295 302.683661,15.5516667 341.111964,38.6034109 C362.286964,51.3025969 377.649643,66.2402713 387.192798,82.1836434 C395.043393,95.2865504 398.961488,109.067132 398.961488,122.844109 C398.961488,136.631899 395.03619,150.412481 387.192798,163.511783 C377.649643,179.462364 362.283363,194.392829 341.111964,207.092016 C302.687262,230.150969 252.054524,241.675039 201.43619,241.675039 C150.817857,241.675039 100.185119,230.154574 61.7568155,207.099225 C40.5818155,194.400039 25.2155357,179.465969 15.6687798,163.518992 C7.8253869,150.416085 3.90008929,136.635504 3.90008929,122.851318 C3.90008929,109.070736 7.8253869,95.290155 15.6687798,82.1908527 C25.2191369,66.243876 40.5782143,51.3062016 61.7496131,38.6106202 L61.7604167,38.5962016 Z M62.599494,40.0092248 C41.6657738,52.5678295 26.5047619,67.3036434 17.0876488,83.0271318 C9.40270833,95.8596899 5.56383929,109.355504 5.56383929,122.844109 C5.56383929,136.336318 9.40270833,149.828527 17.0876488,162.66469 C26.4975595,178.380969 41.669375,193.123992 62.599494,205.678992 C100.76131,228.575736 151.087946,240.024109 201.432589,240.024109 C251.777232,240.024109 302.103869,228.572132 340.265685,205.678992 C361.195804,193.127597 376.360417,178.384574 385.77753,162.66469 C393.46247,149.832132 397.301339,136.336318 397.301339,122.844109 C397.301339,109.355504 393.46247,95.8632946 385.77753,83.0235271 C376.364018,67.3072481 361.195804,52.5642248 340.265685,40.0020155 C302.100268,17.1052713 251.773631,5.66410853 201.432589,5.66410853 C151.087946,5.66410853 100.76131,17.1016667 62.599494,39.9984109 L62.599494,40.0092248 Z" id="Shape" fill="#B0B1B2"></path>
                    </g>
                    <g id="Red" transform="translate(47.615741, 3.604651)">
                        <path d="M106.035053,180.232558 C165.70153,180.232558 217.671958,139.966634 217.671958,92.5193798 C217.671958,45.072126 165.70153,8.41085271 106.035053,8.41085271 C46.3685755,8.41085271 0.400132275,42.6690253 0.400132275,90.1162791 C0.400132275,102.65448 -0.80026455,124.96124 19.6064815,142.984496 C40.0132275,161.007752 10.0033069,198.255814 10.0033069,198.255814 C10.0033069,198.255814 30.4100529,198.255814 44.8148148,191.046512 C59.2195767,183.837209 65.2215608,171.821705 65.2215608,171.821705 C65.2215608,171.821705 65.4535499,173.73815 77.2255291,176.627907 C88.9975083,179.517664 100.334943,180.232558 106.035053,180.232558 Z" id="Oval" fill="#79B234"></path>
                        <path d="M109.636243,171.821705 C169.302721,171.821705 217.671958,133.358107 217.671958,85.9108527 C217.671958,38.4635989 169.302721,0 109.636243,0 C49.969766,0 1.6005291,38.4635989 1.6005291,85.9108527 C1.6005291,98.4490537 5.20171958,120.155039 25.6084656,138.178295 C46.0152116,156.20155 23.207672,191.046512 23.207672,191.046512 C23.207672,191.046512 38.8128307,187.44186 47.2156085,180.232558 C55.6183862,173.023256 60.4199735,161.007752 60.4199735,161.007752 C60.4199735,161.007752 69.0547404,165.327297 80.8267196,168.217054 C92.5986988,171.106811 103.936134,171.821705 109.636243,171.821705 Z" id="Oval" fill="#D0E147"></path>
                    </g>
                    <g id="Blue" transform="translate(304.900794, 72.693798) scale(-1, 1) translate(-304.900794, -72.693798) translate(237.678571, 0.000000)">
                        <path d="M79.8329845,132.170543 C88.8584648,132.170543 105.634921,129.527132 105.634921,129.527132 C105.634921,129.527132 90.0297619,100.930233 100.833333,67.2868217 C111.636905,33.6434109 134.444444,22.8294574 134.444444,22.8294574 L134.444444,14.4186047 C134.444444,14.4186047 94.775846,6.16795866 79.8329845,6.16795866 C35.2470453,6.16795866 1.20039683,30.0890681 1.20039683,64.8837209 C1.20039683,74.0784016 2.43360887e-13,91.6382429 15.248997,104.855297 C30.4979941,118.072351 8.07299843,145.387597 8.07299843,145.387597 C8.07299843,145.387597 23.3219955,145.387597 34.0859934,140.100775 C44.8499913,134.813953 49.3349904,126.002584 49.3349904,126.002584 C49.3349904,126.002584 49.5083449,127.407976 58.3049887,129.527132 C67.1016324,131.646287 75.5735617,132.170543 79.8329845,132.170543 Z" id="Oval" fill="#00789D"></path>
                        <path d="M82.523984,126.002584 C85.8192991,126.002584 94.8313492,124.96124 94.8313492,124.96124 C94.8313492,124.96124 84.0277778,101.330749 93.6309524,64.8837209 C103.234127,28.4366925 134.427398,14.7449274 134.427398,14.7449274 C134.427398,14.7449274 102.28833,0 82.523984,0 C37.9380448,0 1.79399965,28.2066392 1.79399965,63.001292 C1.79399965,72.1959727 4.48499913,88.1136951 19.7339962,101.330749 C34.9829932,114.547804 17.9399965,140.100775 17.9399965,140.100775 C17.9399965,140.100775 29.6009942,137.457364 35.879993,132.170543 C42.1589918,126.883721 45.7469911,118.072351 45.7469911,118.072351 C45.7469911,118.072351 52.1993444,121.240018 60.9959881,123.359173 C69.7926319,125.478328 78.2645612,126.002584 82.523984,126.002584 Z" id="Oval" fill="#00C0E7"></path>
                    </g>
                </g>
            </g>
        </g>
    </g>
</svg>